M48
; DRILL file {KiCad (5.1.2)-1} date 08/03/19 19:38:39
; FORMAT={-:-/ absolute / metric / decimal}
; #@! TF.CreationDate,2019-08-03T19:38:39+02:00
; #@! TF.GenerationSoftware,Kicad,Pcbnew,(5.1.2)-1
; #@! TF.FileFunction,Plated,1,2,PTH
FMAT,2
METRIC
T1C0.950
T2C1.000
T3C1.200
T4C1.400
%
G90
G05
T1
X9.931Y46.914
X10.287Y38.887
X10.668Y20.117
X12.294Y45.539
X14.552Y45.539
X16.256Y19.38
X19.771Y39.432
X21.438Y35.154
X24.638Y35.458
X26.086Y19.152
X38.371Y38.069
X42.189Y32.487
X43.078Y29.083
X45.596Y34.087
X47.787Y29.363
X50.038Y15.875
X51.01Y29.363
X51.362Y42.377
X53.992Y40.808
T2
X61.671Y12.522
X61.671Y9.982
X8.332Y53.688
X8.332Y51.148
X10.872Y53.688
X10.872Y51.148
X13.412Y53.688
X13.412Y51.148
X15.952Y53.688
X15.952Y51.148
X18.492Y53.688
X18.492Y51.148
X21.032Y53.688
X21.032Y51.148
X23.572Y53.688
X23.572Y51.148
X26.112Y53.688
X26.112Y51.148
X28.652Y53.688
X28.652Y51.148
X31.192Y53.688
X31.192Y51.148
X33.732Y53.688
X33.732Y51.148
X36.272Y53.688
X36.272Y51.148
X38.812Y53.688
X38.812Y51.148
X41.352Y53.688
X41.352Y51.148
X43.892Y53.688
X43.892Y51.148
X46.432Y53.688
X46.432Y51.148
X48.972Y53.688
X48.972Y51.148
X51.512Y53.688
X51.512Y51.148
X54.052Y53.688
X54.052Y51.148
X56.592Y53.688
X56.592Y51.148
T3
X59.36Y28.077
X59.36Y24.577
X59.36Y21.077
X59.36Y17.577
X29.903Y19.38
X31.603Y19.38
X33.303Y19.38
X35.003Y19.38
X36.703Y19.38
X59.588Y44.739
X59.588Y41.239
X59.588Y37.739
X59.588Y34.239
X13.263Y27.432
X18.263Y27.432
X16.104Y7.239
X21.104Y7.239
X3.632Y45.298
X3.632Y41.798
X3.632Y38.298
X3.632Y34.798
X47.549Y10.744
X47.549Y5.744
T4
X5.715Y21.107
X5.715Y16.027
T0
M30
