G04 #@! TF.GenerationSoftware,KiCad,Pcbnew,(5.1.2)-1*
G04 #@! TF.CreationDate,2019-08-04T20:48:43+02:00*
G04 #@! TF.ProjectId,SMPS hat,534d5053-2068-4617-942e-6b696361645f,rev?*
G04 #@! TF.SameCoordinates,Original*
G04 #@! TF.FileFunction,Soldermask,Bot*
G04 #@! TF.FilePolarity,Negative*
%FSLAX46Y46*%
G04 Gerber Fmt 4.6, Leading zero omitted, Abs format (unit mm)*
G04 Created by KiCad (PCBNEW (5.1.2)-1) date 2019-08-04 20:48:43*
%MOMM*%
%LPD*%
G04 APERTURE LIST*
%ADD10C,0.150000*%
%ADD11C,0.100000*%
%ADD12C,1.725000*%
%ADD13C,2.600000*%
%ADD14O,3.800000X2.280000*%
%ADD15C,2.280000*%
%ADD16R,0.600000X1.760000*%
%ADD17C,0.800000*%
%ADD18C,0.600000*%
%ADD19C,1.350000*%
%ADD20R,2.100000X1.000000*%
%ADD21R,0.750000X1.950000*%
%ADD22O,1.900000X1.900000*%
%ADD23R,1.900000X1.900000*%
%ADD24C,0.300000*%
%ADD25R,1.500000X1.500000*%
%ADD26R,2.600000X2.600000*%
%ADD27C,3.400000*%
%ADD28R,2.000000X3.700000*%
%ADD29R,4.700000X3.500000*%
%ADD30C,1.150000*%
%ADD31C,3.200000*%
G04 APERTURE END LIST*
D10*
X100101383Y-93318831D02*
G75*
G02X98374200Y-91643200I-50783J1675631D01*
G01*
X113359431Y-91592417D02*
G75*
G02X111683800Y-93319600I-1675631J-50783D01*
G01*
X111633017Y-78283569D02*
G75*
G02X113360200Y-79959200I50783J-1675631D01*
G01*
X98349569Y-80009983D02*
G75*
G02X100025200Y-78282800I1675631J50783D01*
G01*
X98374200Y-91643200D02*
X98349569Y-80009983D01*
X111683800Y-93319600D02*
X100101383Y-93318831D01*
X113360200Y-79959200D02*
X113359431Y-91592417D01*
X100025200Y-78282800D02*
X111633017Y-78283569D01*
D11*
X78546357Y-63830200D02*
X78546356Y-113817611D01*
X78546357Y-63830200D02*
G75*
G02X81534000Y-60817611I2999999J12589D01*
G01*
X140546356Y-60817611D02*
X81534000Y-60817611D01*
X140546356Y-60817611D02*
G75*
G02X143546356Y-63817611I0J-3000000D01*
G01*
X143546351Y-113822847D02*
X143546356Y-63817611D01*
X81546356Y-116817611D02*
G75*
G02X78546356Y-113817611I0J3000000D01*
G01*
X81546356Y-116817611D02*
X140546356Y-116817611D01*
X143546351Y-113822847D02*
G75*
G02X140546356Y-116817611I-2999995J5236D01*
G01*
G36*
X121473972Y-112867822D02*
G01*
X121501423Y-112871894D01*
X121528342Y-112878637D01*
X121554472Y-112887986D01*
X121579558Y-112899851D01*
X121603361Y-112914118D01*
X121625652Y-112930649D01*
X121646214Y-112949286D01*
X121664851Y-112969848D01*
X121681382Y-112992139D01*
X121695649Y-113015942D01*
X121707514Y-113041028D01*
X121716863Y-113067158D01*
X121723606Y-113094077D01*
X121727678Y-113121528D01*
X121729040Y-113149246D01*
X121729040Y-114308674D01*
X121727678Y-114336392D01*
X121723606Y-114363843D01*
X121716863Y-114390762D01*
X121707514Y-114416892D01*
X121695649Y-114441978D01*
X121681382Y-114465781D01*
X121664851Y-114488072D01*
X121646214Y-114508634D01*
X121625652Y-114527271D01*
X121603361Y-114543802D01*
X121579558Y-114558069D01*
X121554472Y-114569934D01*
X121528342Y-114579283D01*
X121501423Y-114586026D01*
X121473972Y-114590098D01*
X121446254Y-114591460D01*
X118461826Y-114591460D01*
X118434108Y-114590098D01*
X118406657Y-114586026D01*
X118379738Y-114579283D01*
X118353608Y-114569934D01*
X118328522Y-114558069D01*
X118304719Y-114543802D01*
X118282428Y-114527271D01*
X118261866Y-114508634D01*
X118243229Y-114488072D01*
X118226698Y-114465781D01*
X118212431Y-114441978D01*
X118200566Y-114416892D01*
X118191217Y-114390762D01*
X118184474Y-114363843D01*
X118180402Y-114336392D01*
X118179040Y-114308674D01*
X118179040Y-113149246D01*
X118180402Y-113121528D01*
X118184474Y-113094077D01*
X118191217Y-113067158D01*
X118200566Y-113041028D01*
X118212431Y-113015942D01*
X118226698Y-112992139D01*
X118243229Y-112969848D01*
X118261866Y-112949286D01*
X118282428Y-112930649D01*
X118304719Y-112914118D01*
X118328522Y-112899851D01*
X118353608Y-112887986D01*
X118379738Y-112878637D01*
X118406657Y-112871894D01*
X118434108Y-112867822D01*
X118461826Y-112866460D01*
X121446254Y-112866460D01*
X121473972Y-112867822D01*
X121473972Y-112867822D01*
G37*
D12*
X119954040Y-113728960D03*
D11*
G36*
X121473972Y-106892822D02*
G01*
X121501423Y-106896894D01*
X121528342Y-106903637D01*
X121554472Y-106912986D01*
X121579558Y-106924851D01*
X121603361Y-106939118D01*
X121625652Y-106955649D01*
X121646214Y-106974286D01*
X121664851Y-106994848D01*
X121681382Y-107017139D01*
X121695649Y-107040942D01*
X121707514Y-107066028D01*
X121716863Y-107092158D01*
X121723606Y-107119077D01*
X121727678Y-107146528D01*
X121729040Y-107174246D01*
X121729040Y-108333674D01*
X121727678Y-108361392D01*
X121723606Y-108388843D01*
X121716863Y-108415762D01*
X121707514Y-108441892D01*
X121695649Y-108466978D01*
X121681382Y-108490781D01*
X121664851Y-108513072D01*
X121646214Y-108533634D01*
X121625652Y-108552271D01*
X121603361Y-108568802D01*
X121579558Y-108583069D01*
X121554472Y-108594934D01*
X121528342Y-108604283D01*
X121501423Y-108611026D01*
X121473972Y-108615098D01*
X121446254Y-108616460D01*
X118461826Y-108616460D01*
X118434108Y-108615098D01*
X118406657Y-108611026D01*
X118379738Y-108604283D01*
X118353608Y-108594934D01*
X118328522Y-108583069D01*
X118304719Y-108568802D01*
X118282428Y-108552271D01*
X118261866Y-108533634D01*
X118243229Y-108513072D01*
X118226698Y-108490781D01*
X118212431Y-108466978D01*
X118200566Y-108441892D01*
X118191217Y-108415762D01*
X118184474Y-108388843D01*
X118180402Y-108361392D01*
X118179040Y-108333674D01*
X118179040Y-107174246D01*
X118180402Y-107146528D01*
X118184474Y-107119077D01*
X118191217Y-107092158D01*
X118200566Y-107066028D01*
X118212431Y-107040942D01*
X118226698Y-107017139D01*
X118243229Y-106994848D01*
X118261866Y-106974286D01*
X118282428Y-106955649D01*
X118304719Y-106939118D01*
X118328522Y-106924851D01*
X118353608Y-106912986D01*
X118379738Y-106903637D01*
X118406657Y-106896894D01*
X118434108Y-106892822D01*
X118461826Y-106891460D01*
X121446254Y-106891460D01*
X121473972Y-106892822D01*
X121473972Y-106892822D01*
G37*
D12*
X119954040Y-107753960D03*
D13*
X82094700Y-106083100D03*
X82094700Y-90843100D03*
D14*
X84594700Y-101003100D03*
D11*
G36*
X86247523Y-94784420D02*
G01*
X86274125Y-94788366D01*
X86300212Y-94794900D01*
X86325532Y-94803960D01*
X86349843Y-94815458D01*
X86372910Y-94829284D01*
X86394510Y-94845304D01*
X86414436Y-94863364D01*
X86432496Y-94883290D01*
X86448516Y-94904890D01*
X86462342Y-94927957D01*
X86473840Y-94952268D01*
X86482900Y-94977588D01*
X86489434Y-95003675D01*
X86493380Y-95030277D01*
X86494700Y-95057137D01*
X86494700Y-96789063D01*
X86493380Y-96815923D01*
X86489434Y-96842525D01*
X86482900Y-96868612D01*
X86473840Y-96893932D01*
X86462342Y-96918243D01*
X86448516Y-96941310D01*
X86432496Y-96962910D01*
X86414436Y-96982836D01*
X86394510Y-97000896D01*
X86372910Y-97016916D01*
X86349843Y-97030742D01*
X86325532Y-97042240D01*
X86300212Y-97051300D01*
X86274125Y-97057834D01*
X86247523Y-97061780D01*
X86220663Y-97063100D01*
X82968737Y-97063100D01*
X82941877Y-97061780D01*
X82915275Y-97057834D01*
X82889188Y-97051300D01*
X82863868Y-97042240D01*
X82839557Y-97030742D01*
X82816490Y-97016916D01*
X82794890Y-97000896D01*
X82774964Y-96982836D01*
X82756904Y-96962910D01*
X82740884Y-96941310D01*
X82727058Y-96918243D01*
X82715560Y-96893932D01*
X82706500Y-96868612D01*
X82699966Y-96842525D01*
X82696020Y-96815923D01*
X82694700Y-96789063D01*
X82694700Y-95057137D01*
X82696020Y-95030277D01*
X82699966Y-95003675D01*
X82706500Y-94977588D01*
X82715560Y-94952268D01*
X82727058Y-94927957D01*
X82740884Y-94904890D01*
X82756904Y-94883290D01*
X82774964Y-94863364D01*
X82794890Y-94845304D01*
X82816490Y-94829284D01*
X82839557Y-94815458D01*
X82863868Y-94803960D01*
X82889188Y-94794900D01*
X82915275Y-94788366D01*
X82941877Y-94784420D01*
X82968737Y-94783100D01*
X86220663Y-94783100D01*
X86247523Y-94784420D01*
X86247523Y-94784420D01*
G37*
D15*
X84594700Y-95923100D03*
D16*
X126921700Y-113887240D03*
X127571700Y-113887240D03*
X128231700Y-113887240D03*
X128881700Y-113887240D03*
X128881700Y-111187240D03*
X128231700Y-111187240D03*
X127571700Y-111187240D03*
X126921700Y-111187240D03*
D11*
G36*
X123991263Y-68401543D02*
G01*
X124010678Y-68404423D01*
X124029717Y-68409192D01*
X124048197Y-68415804D01*
X124065939Y-68424196D01*
X124082774Y-68434286D01*
X124098539Y-68445978D01*
X124113081Y-68459159D01*
X124126262Y-68473701D01*
X124137954Y-68489466D01*
X124148044Y-68506301D01*
X124156436Y-68524043D01*
X124163048Y-68542523D01*
X124167817Y-68561562D01*
X124170697Y-68580977D01*
X124171660Y-68600580D01*
X124171660Y-70350580D01*
X124170697Y-70370183D01*
X124167817Y-70389598D01*
X124163048Y-70408637D01*
X124156436Y-70427117D01*
X124148044Y-70444859D01*
X124137954Y-70461694D01*
X124126262Y-70477459D01*
X124113081Y-70492001D01*
X124098539Y-70505182D01*
X124082774Y-70516874D01*
X124065939Y-70526964D01*
X124048197Y-70535356D01*
X124029717Y-70541968D01*
X124010678Y-70546737D01*
X123991263Y-70549617D01*
X123971660Y-70550580D01*
X123571660Y-70550580D01*
X123552057Y-70549617D01*
X123532642Y-70546737D01*
X123513603Y-70541968D01*
X123495123Y-70535356D01*
X123477381Y-70526964D01*
X123460546Y-70516874D01*
X123444781Y-70505182D01*
X123430239Y-70492001D01*
X123417058Y-70477459D01*
X123405366Y-70461694D01*
X123395276Y-70444859D01*
X123386884Y-70427117D01*
X123380272Y-70408637D01*
X123375503Y-70389598D01*
X123372623Y-70370183D01*
X123371660Y-70350580D01*
X123371660Y-68600580D01*
X123372623Y-68580977D01*
X123375503Y-68561562D01*
X123380272Y-68542523D01*
X123386884Y-68524043D01*
X123395276Y-68506301D01*
X123405366Y-68489466D01*
X123417058Y-68473701D01*
X123430239Y-68459159D01*
X123444781Y-68445978D01*
X123460546Y-68434286D01*
X123477381Y-68424196D01*
X123495123Y-68415804D01*
X123513603Y-68409192D01*
X123532642Y-68404423D01*
X123552057Y-68401543D01*
X123571660Y-68400580D01*
X123971660Y-68400580D01*
X123991263Y-68401543D01*
X123991263Y-68401543D01*
G37*
D17*
X123771660Y-69475580D03*
D11*
G36*
X122721263Y-68401543D02*
G01*
X122740678Y-68404423D01*
X122759717Y-68409192D01*
X122778197Y-68415804D01*
X122795939Y-68424196D01*
X122812774Y-68434286D01*
X122828539Y-68445978D01*
X122843081Y-68459159D01*
X122856262Y-68473701D01*
X122867954Y-68489466D01*
X122878044Y-68506301D01*
X122886436Y-68524043D01*
X122893048Y-68542523D01*
X122897817Y-68561562D01*
X122900697Y-68580977D01*
X122901660Y-68600580D01*
X122901660Y-70350580D01*
X122900697Y-70370183D01*
X122897817Y-70389598D01*
X122893048Y-70408637D01*
X122886436Y-70427117D01*
X122878044Y-70444859D01*
X122867954Y-70461694D01*
X122856262Y-70477459D01*
X122843081Y-70492001D01*
X122828539Y-70505182D01*
X122812774Y-70516874D01*
X122795939Y-70526964D01*
X122778197Y-70535356D01*
X122759717Y-70541968D01*
X122740678Y-70546737D01*
X122721263Y-70549617D01*
X122701660Y-70550580D01*
X122301660Y-70550580D01*
X122282057Y-70549617D01*
X122262642Y-70546737D01*
X122243603Y-70541968D01*
X122225123Y-70535356D01*
X122207381Y-70526964D01*
X122190546Y-70516874D01*
X122174781Y-70505182D01*
X122160239Y-70492001D01*
X122147058Y-70477459D01*
X122135366Y-70461694D01*
X122125276Y-70444859D01*
X122116884Y-70427117D01*
X122110272Y-70408637D01*
X122105503Y-70389598D01*
X122102623Y-70370183D01*
X122101660Y-70350580D01*
X122101660Y-68600580D01*
X122102623Y-68580977D01*
X122105503Y-68561562D01*
X122110272Y-68542523D01*
X122116884Y-68524043D01*
X122125276Y-68506301D01*
X122135366Y-68489466D01*
X122147058Y-68473701D01*
X122160239Y-68459159D01*
X122174781Y-68445978D01*
X122190546Y-68434286D01*
X122207381Y-68424196D01*
X122225123Y-68415804D01*
X122243603Y-68409192D01*
X122262642Y-68404423D01*
X122282057Y-68401543D01*
X122301660Y-68400580D01*
X122701660Y-68400580D01*
X122721263Y-68401543D01*
X122721263Y-68401543D01*
G37*
D17*
X122501660Y-69475580D03*
D11*
G36*
X121451263Y-68401543D02*
G01*
X121470678Y-68404423D01*
X121489717Y-68409192D01*
X121508197Y-68415804D01*
X121525939Y-68424196D01*
X121542774Y-68434286D01*
X121558539Y-68445978D01*
X121573081Y-68459159D01*
X121586262Y-68473701D01*
X121597954Y-68489466D01*
X121608044Y-68506301D01*
X121616436Y-68524043D01*
X121623048Y-68542523D01*
X121627817Y-68561562D01*
X121630697Y-68580977D01*
X121631660Y-68600580D01*
X121631660Y-70350580D01*
X121630697Y-70370183D01*
X121627817Y-70389598D01*
X121623048Y-70408637D01*
X121616436Y-70427117D01*
X121608044Y-70444859D01*
X121597954Y-70461694D01*
X121586262Y-70477459D01*
X121573081Y-70492001D01*
X121558539Y-70505182D01*
X121542774Y-70516874D01*
X121525939Y-70526964D01*
X121508197Y-70535356D01*
X121489717Y-70541968D01*
X121470678Y-70546737D01*
X121451263Y-70549617D01*
X121431660Y-70550580D01*
X121031660Y-70550580D01*
X121012057Y-70549617D01*
X120992642Y-70546737D01*
X120973603Y-70541968D01*
X120955123Y-70535356D01*
X120937381Y-70526964D01*
X120920546Y-70516874D01*
X120904781Y-70505182D01*
X120890239Y-70492001D01*
X120877058Y-70477459D01*
X120865366Y-70461694D01*
X120855276Y-70444859D01*
X120846884Y-70427117D01*
X120840272Y-70408637D01*
X120835503Y-70389598D01*
X120832623Y-70370183D01*
X120831660Y-70350580D01*
X120831660Y-68600580D01*
X120832623Y-68580977D01*
X120835503Y-68561562D01*
X120840272Y-68542523D01*
X120846884Y-68524043D01*
X120855276Y-68506301D01*
X120865366Y-68489466D01*
X120877058Y-68473701D01*
X120890239Y-68459159D01*
X120904781Y-68445978D01*
X120920546Y-68434286D01*
X120937381Y-68424196D01*
X120955123Y-68415804D01*
X120973603Y-68409192D01*
X120992642Y-68404423D01*
X121012057Y-68401543D01*
X121031660Y-68400580D01*
X121431660Y-68400580D01*
X121451263Y-68401543D01*
X121451263Y-68401543D01*
G37*
D17*
X121231660Y-69475580D03*
D11*
G36*
X120181263Y-68401543D02*
G01*
X120200678Y-68404423D01*
X120219717Y-68409192D01*
X120238197Y-68415804D01*
X120255939Y-68424196D01*
X120272774Y-68434286D01*
X120288539Y-68445978D01*
X120303081Y-68459159D01*
X120316262Y-68473701D01*
X120327954Y-68489466D01*
X120338044Y-68506301D01*
X120346436Y-68524043D01*
X120353048Y-68542523D01*
X120357817Y-68561562D01*
X120360697Y-68580977D01*
X120361660Y-68600580D01*
X120361660Y-70350580D01*
X120360697Y-70370183D01*
X120357817Y-70389598D01*
X120353048Y-70408637D01*
X120346436Y-70427117D01*
X120338044Y-70444859D01*
X120327954Y-70461694D01*
X120316262Y-70477459D01*
X120303081Y-70492001D01*
X120288539Y-70505182D01*
X120272774Y-70516874D01*
X120255939Y-70526964D01*
X120238197Y-70535356D01*
X120219717Y-70541968D01*
X120200678Y-70546737D01*
X120181263Y-70549617D01*
X120161660Y-70550580D01*
X119761660Y-70550580D01*
X119742057Y-70549617D01*
X119722642Y-70546737D01*
X119703603Y-70541968D01*
X119685123Y-70535356D01*
X119667381Y-70526964D01*
X119650546Y-70516874D01*
X119634781Y-70505182D01*
X119620239Y-70492001D01*
X119607058Y-70477459D01*
X119595366Y-70461694D01*
X119585276Y-70444859D01*
X119576884Y-70427117D01*
X119570272Y-70408637D01*
X119565503Y-70389598D01*
X119562623Y-70370183D01*
X119561660Y-70350580D01*
X119561660Y-68600580D01*
X119562623Y-68580977D01*
X119565503Y-68561562D01*
X119570272Y-68542523D01*
X119576884Y-68524043D01*
X119585276Y-68506301D01*
X119595366Y-68489466D01*
X119607058Y-68473701D01*
X119620239Y-68459159D01*
X119634781Y-68445978D01*
X119650546Y-68434286D01*
X119667381Y-68424196D01*
X119685123Y-68415804D01*
X119703603Y-68409192D01*
X119722642Y-68404423D01*
X119742057Y-68401543D01*
X119761660Y-68400580D01*
X120161660Y-68400580D01*
X120181263Y-68401543D01*
X120181263Y-68401543D01*
G37*
D17*
X119961660Y-69475580D03*
D11*
G36*
X120181263Y-73351543D02*
G01*
X120200678Y-73354423D01*
X120219717Y-73359192D01*
X120238197Y-73365804D01*
X120255939Y-73374196D01*
X120272774Y-73384286D01*
X120288539Y-73395978D01*
X120303081Y-73409159D01*
X120316262Y-73423701D01*
X120327954Y-73439466D01*
X120338044Y-73456301D01*
X120346436Y-73474043D01*
X120353048Y-73492523D01*
X120357817Y-73511562D01*
X120360697Y-73530977D01*
X120361660Y-73550580D01*
X120361660Y-75300580D01*
X120360697Y-75320183D01*
X120357817Y-75339598D01*
X120353048Y-75358637D01*
X120346436Y-75377117D01*
X120338044Y-75394859D01*
X120327954Y-75411694D01*
X120316262Y-75427459D01*
X120303081Y-75442001D01*
X120288539Y-75455182D01*
X120272774Y-75466874D01*
X120255939Y-75476964D01*
X120238197Y-75485356D01*
X120219717Y-75491968D01*
X120200678Y-75496737D01*
X120181263Y-75499617D01*
X120161660Y-75500580D01*
X119761660Y-75500580D01*
X119742057Y-75499617D01*
X119722642Y-75496737D01*
X119703603Y-75491968D01*
X119685123Y-75485356D01*
X119667381Y-75476964D01*
X119650546Y-75466874D01*
X119634781Y-75455182D01*
X119620239Y-75442001D01*
X119607058Y-75427459D01*
X119595366Y-75411694D01*
X119585276Y-75394859D01*
X119576884Y-75377117D01*
X119570272Y-75358637D01*
X119565503Y-75339598D01*
X119562623Y-75320183D01*
X119561660Y-75300580D01*
X119561660Y-73550580D01*
X119562623Y-73530977D01*
X119565503Y-73511562D01*
X119570272Y-73492523D01*
X119576884Y-73474043D01*
X119585276Y-73456301D01*
X119595366Y-73439466D01*
X119607058Y-73423701D01*
X119620239Y-73409159D01*
X119634781Y-73395978D01*
X119650546Y-73384286D01*
X119667381Y-73374196D01*
X119685123Y-73365804D01*
X119703603Y-73359192D01*
X119722642Y-73354423D01*
X119742057Y-73351543D01*
X119761660Y-73350580D01*
X120161660Y-73350580D01*
X120181263Y-73351543D01*
X120181263Y-73351543D01*
G37*
D17*
X119961660Y-74425580D03*
D11*
G36*
X121451263Y-73351543D02*
G01*
X121470678Y-73354423D01*
X121489717Y-73359192D01*
X121508197Y-73365804D01*
X121525939Y-73374196D01*
X121542774Y-73384286D01*
X121558539Y-73395978D01*
X121573081Y-73409159D01*
X121586262Y-73423701D01*
X121597954Y-73439466D01*
X121608044Y-73456301D01*
X121616436Y-73474043D01*
X121623048Y-73492523D01*
X121627817Y-73511562D01*
X121630697Y-73530977D01*
X121631660Y-73550580D01*
X121631660Y-75300580D01*
X121630697Y-75320183D01*
X121627817Y-75339598D01*
X121623048Y-75358637D01*
X121616436Y-75377117D01*
X121608044Y-75394859D01*
X121597954Y-75411694D01*
X121586262Y-75427459D01*
X121573081Y-75442001D01*
X121558539Y-75455182D01*
X121542774Y-75466874D01*
X121525939Y-75476964D01*
X121508197Y-75485356D01*
X121489717Y-75491968D01*
X121470678Y-75496737D01*
X121451263Y-75499617D01*
X121431660Y-75500580D01*
X121031660Y-75500580D01*
X121012057Y-75499617D01*
X120992642Y-75496737D01*
X120973603Y-75491968D01*
X120955123Y-75485356D01*
X120937381Y-75476964D01*
X120920546Y-75466874D01*
X120904781Y-75455182D01*
X120890239Y-75442001D01*
X120877058Y-75427459D01*
X120865366Y-75411694D01*
X120855276Y-75394859D01*
X120846884Y-75377117D01*
X120840272Y-75358637D01*
X120835503Y-75339598D01*
X120832623Y-75320183D01*
X120831660Y-75300580D01*
X120831660Y-73550580D01*
X120832623Y-73530977D01*
X120835503Y-73511562D01*
X120840272Y-73492523D01*
X120846884Y-73474043D01*
X120855276Y-73456301D01*
X120865366Y-73439466D01*
X120877058Y-73423701D01*
X120890239Y-73409159D01*
X120904781Y-73395978D01*
X120920546Y-73384286D01*
X120937381Y-73374196D01*
X120955123Y-73365804D01*
X120973603Y-73359192D01*
X120992642Y-73354423D01*
X121012057Y-73351543D01*
X121031660Y-73350580D01*
X121431660Y-73350580D01*
X121451263Y-73351543D01*
X121451263Y-73351543D01*
G37*
D17*
X121231660Y-74425580D03*
D11*
G36*
X122721263Y-73351543D02*
G01*
X122740678Y-73354423D01*
X122759717Y-73359192D01*
X122778197Y-73365804D01*
X122795939Y-73374196D01*
X122812774Y-73384286D01*
X122828539Y-73395978D01*
X122843081Y-73409159D01*
X122856262Y-73423701D01*
X122867954Y-73439466D01*
X122878044Y-73456301D01*
X122886436Y-73474043D01*
X122893048Y-73492523D01*
X122897817Y-73511562D01*
X122900697Y-73530977D01*
X122901660Y-73550580D01*
X122901660Y-75300580D01*
X122900697Y-75320183D01*
X122897817Y-75339598D01*
X122893048Y-75358637D01*
X122886436Y-75377117D01*
X122878044Y-75394859D01*
X122867954Y-75411694D01*
X122856262Y-75427459D01*
X122843081Y-75442001D01*
X122828539Y-75455182D01*
X122812774Y-75466874D01*
X122795939Y-75476964D01*
X122778197Y-75485356D01*
X122759717Y-75491968D01*
X122740678Y-75496737D01*
X122721263Y-75499617D01*
X122701660Y-75500580D01*
X122301660Y-75500580D01*
X122282057Y-75499617D01*
X122262642Y-75496737D01*
X122243603Y-75491968D01*
X122225123Y-75485356D01*
X122207381Y-75476964D01*
X122190546Y-75466874D01*
X122174781Y-75455182D01*
X122160239Y-75442001D01*
X122147058Y-75427459D01*
X122135366Y-75411694D01*
X122125276Y-75394859D01*
X122116884Y-75377117D01*
X122110272Y-75358637D01*
X122105503Y-75339598D01*
X122102623Y-75320183D01*
X122101660Y-75300580D01*
X122101660Y-73550580D01*
X122102623Y-73530977D01*
X122105503Y-73511562D01*
X122110272Y-73492523D01*
X122116884Y-73474043D01*
X122125276Y-73456301D01*
X122135366Y-73439466D01*
X122147058Y-73423701D01*
X122160239Y-73409159D01*
X122174781Y-73395978D01*
X122190546Y-73384286D01*
X122207381Y-73374196D01*
X122225123Y-73365804D01*
X122243603Y-73359192D01*
X122262642Y-73354423D01*
X122282057Y-73351543D01*
X122301660Y-73350580D01*
X122701660Y-73350580D01*
X122721263Y-73351543D01*
X122721263Y-73351543D01*
G37*
D17*
X122501660Y-74425580D03*
D11*
G36*
X123991263Y-73351543D02*
G01*
X124010678Y-73354423D01*
X124029717Y-73359192D01*
X124048197Y-73365804D01*
X124065939Y-73374196D01*
X124082774Y-73384286D01*
X124098539Y-73395978D01*
X124113081Y-73409159D01*
X124126262Y-73423701D01*
X124137954Y-73439466D01*
X124148044Y-73456301D01*
X124156436Y-73474043D01*
X124163048Y-73492523D01*
X124167817Y-73511562D01*
X124170697Y-73530977D01*
X124171660Y-73550580D01*
X124171660Y-75300580D01*
X124170697Y-75320183D01*
X124167817Y-75339598D01*
X124163048Y-75358637D01*
X124156436Y-75377117D01*
X124148044Y-75394859D01*
X124137954Y-75411694D01*
X124126262Y-75427459D01*
X124113081Y-75442001D01*
X124098539Y-75455182D01*
X124082774Y-75466874D01*
X124065939Y-75476964D01*
X124048197Y-75485356D01*
X124029717Y-75491968D01*
X124010678Y-75496737D01*
X123991263Y-75499617D01*
X123971660Y-75500580D01*
X123571660Y-75500580D01*
X123552057Y-75499617D01*
X123532642Y-75496737D01*
X123513603Y-75491968D01*
X123495123Y-75485356D01*
X123477381Y-75476964D01*
X123460546Y-75466874D01*
X123444781Y-75455182D01*
X123430239Y-75442001D01*
X123417058Y-75427459D01*
X123405366Y-75411694D01*
X123395276Y-75394859D01*
X123386884Y-75377117D01*
X123380272Y-75358637D01*
X123375503Y-75339598D01*
X123372623Y-75320183D01*
X123371660Y-75300580D01*
X123371660Y-73550580D01*
X123372623Y-73530977D01*
X123375503Y-73511562D01*
X123380272Y-73492523D01*
X123386884Y-73474043D01*
X123395276Y-73456301D01*
X123405366Y-73439466D01*
X123417058Y-73423701D01*
X123430239Y-73409159D01*
X123444781Y-73395978D01*
X123460546Y-73384286D01*
X123477381Y-73374196D01*
X123495123Y-73365804D01*
X123513603Y-73359192D01*
X123532642Y-73354423D01*
X123552057Y-73351543D01*
X123571660Y-73350580D01*
X123971660Y-73350580D01*
X123991263Y-73351543D01*
X123991263Y-73351543D01*
G37*
D17*
X123771660Y-74425580D03*
D11*
G36*
X96957083Y-74226262D02*
G01*
X96971644Y-74228422D01*
X96985923Y-74231999D01*
X96999783Y-74236958D01*
X97013090Y-74243252D01*
X97025716Y-74250820D01*
X97037539Y-74259588D01*
X97048446Y-74269474D01*
X97058332Y-74280381D01*
X97067100Y-74292204D01*
X97074668Y-74304830D01*
X97080962Y-74318137D01*
X97085921Y-74331997D01*
X97089498Y-74346276D01*
X97091658Y-74360837D01*
X97092380Y-74375540D01*
X97092380Y-75725540D01*
X97091658Y-75740243D01*
X97089498Y-75754804D01*
X97085921Y-75769083D01*
X97080962Y-75782943D01*
X97074668Y-75796250D01*
X97067100Y-75808876D01*
X97058332Y-75820699D01*
X97048446Y-75831606D01*
X97037539Y-75841492D01*
X97025716Y-75850260D01*
X97013090Y-75857828D01*
X96999783Y-75864122D01*
X96985923Y-75869081D01*
X96971644Y-75872658D01*
X96957083Y-75874818D01*
X96942380Y-75875540D01*
X96642380Y-75875540D01*
X96627677Y-75874818D01*
X96613116Y-75872658D01*
X96598837Y-75869081D01*
X96584977Y-75864122D01*
X96571670Y-75857828D01*
X96559044Y-75850260D01*
X96547221Y-75841492D01*
X96536314Y-75831606D01*
X96526428Y-75820699D01*
X96517660Y-75808876D01*
X96510092Y-75796250D01*
X96503798Y-75782943D01*
X96498839Y-75769083D01*
X96495262Y-75754804D01*
X96493102Y-75740243D01*
X96492380Y-75725540D01*
X96492380Y-74375540D01*
X96493102Y-74360837D01*
X96495262Y-74346276D01*
X96498839Y-74331997D01*
X96503798Y-74318137D01*
X96510092Y-74304830D01*
X96517660Y-74292204D01*
X96526428Y-74280381D01*
X96536314Y-74269474D01*
X96547221Y-74259588D01*
X96559044Y-74250820D01*
X96571670Y-74243252D01*
X96584977Y-74236958D01*
X96598837Y-74231999D01*
X96613116Y-74228422D01*
X96627677Y-74226262D01*
X96642380Y-74225540D01*
X96942380Y-74225540D01*
X96957083Y-74226262D01*
X96957083Y-74226262D01*
G37*
D18*
X96792380Y-75050540D03*
D11*
G36*
X97607083Y-74226262D02*
G01*
X97621644Y-74228422D01*
X97635923Y-74231999D01*
X97649783Y-74236958D01*
X97663090Y-74243252D01*
X97675716Y-74250820D01*
X97687539Y-74259588D01*
X97698446Y-74269474D01*
X97708332Y-74280381D01*
X97717100Y-74292204D01*
X97724668Y-74304830D01*
X97730962Y-74318137D01*
X97735921Y-74331997D01*
X97739498Y-74346276D01*
X97741658Y-74360837D01*
X97742380Y-74375540D01*
X97742380Y-75725540D01*
X97741658Y-75740243D01*
X97739498Y-75754804D01*
X97735921Y-75769083D01*
X97730962Y-75782943D01*
X97724668Y-75796250D01*
X97717100Y-75808876D01*
X97708332Y-75820699D01*
X97698446Y-75831606D01*
X97687539Y-75841492D01*
X97675716Y-75850260D01*
X97663090Y-75857828D01*
X97649783Y-75864122D01*
X97635923Y-75869081D01*
X97621644Y-75872658D01*
X97607083Y-75874818D01*
X97592380Y-75875540D01*
X97292380Y-75875540D01*
X97277677Y-75874818D01*
X97263116Y-75872658D01*
X97248837Y-75869081D01*
X97234977Y-75864122D01*
X97221670Y-75857828D01*
X97209044Y-75850260D01*
X97197221Y-75841492D01*
X97186314Y-75831606D01*
X97176428Y-75820699D01*
X97167660Y-75808876D01*
X97160092Y-75796250D01*
X97153798Y-75782943D01*
X97148839Y-75769083D01*
X97145262Y-75754804D01*
X97143102Y-75740243D01*
X97142380Y-75725540D01*
X97142380Y-74375540D01*
X97143102Y-74360837D01*
X97145262Y-74346276D01*
X97148839Y-74331997D01*
X97153798Y-74318137D01*
X97160092Y-74304830D01*
X97167660Y-74292204D01*
X97176428Y-74280381D01*
X97186314Y-74269474D01*
X97197221Y-74259588D01*
X97209044Y-74250820D01*
X97221670Y-74243252D01*
X97234977Y-74236958D01*
X97248837Y-74231999D01*
X97263116Y-74228422D01*
X97277677Y-74226262D01*
X97292380Y-74225540D01*
X97592380Y-74225540D01*
X97607083Y-74226262D01*
X97607083Y-74226262D01*
G37*
D18*
X97442380Y-75050540D03*
D11*
G36*
X98257083Y-74226262D02*
G01*
X98271644Y-74228422D01*
X98285923Y-74231999D01*
X98299783Y-74236958D01*
X98313090Y-74243252D01*
X98325716Y-74250820D01*
X98337539Y-74259588D01*
X98348446Y-74269474D01*
X98358332Y-74280381D01*
X98367100Y-74292204D01*
X98374668Y-74304830D01*
X98380962Y-74318137D01*
X98385921Y-74331997D01*
X98389498Y-74346276D01*
X98391658Y-74360837D01*
X98392380Y-74375540D01*
X98392380Y-75725540D01*
X98391658Y-75740243D01*
X98389498Y-75754804D01*
X98385921Y-75769083D01*
X98380962Y-75782943D01*
X98374668Y-75796250D01*
X98367100Y-75808876D01*
X98358332Y-75820699D01*
X98348446Y-75831606D01*
X98337539Y-75841492D01*
X98325716Y-75850260D01*
X98313090Y-75857828D01*
X98299783Y-75864122D01*
X98285923Y-75869081D01*
X98271644Y-75872658D01*
X98257083Y-75874818D01*
X98242380Y-75875540D01*
X97942380Y-75875540D01*
X97927677Y-75874818D01*
X97913116Y-75872658D01*
X97898837Y-75869081D01*
X97884977Y-75864122D01*
X97871670Y-75857828D01*
X97859044Y-75850260D01*
X97847221Y-75841492D01*
X97836314Y-75831606D01*
X97826428Y-75820699D01*
X97817660Y-75808876D01*
X97810092Y-75796250D01*
X97803798Y-75782943D01*
X97798839Y-75769083D01*
X97795262Y-75754804D01*
X97793102Y-75740243D01*
X97792380Y-75725540D01*
X97792380Y-74375540D01*
X97793102Y-74360837D01*
X97795262Y-74346276D01*
X97798839Y-74331997D01*
X97803798Y-74318137D01*
X97810092Y-74304830D01*
X97817660Y-74292204D01*
X97826428Y-74280381D01*
X97836314Y-74269474D01*
X97847221Y-74259588D01*
X97859044Y-74250820D01*
X97871670Y-74243252D01*
X97884977Y-74236958D01*
X97898837Y-74231999D01*
X97913116Y-74228422D01*
X97927677Y-74226262D01*
X97942380Y-74225540D01*
X98242380Y-74225540D01*
X98257083Y-74226262D01*
X98257083Y-74226262D01*
G37*
D18*
X98092380Y-75050540D03*
D11*
G36*
X98907083Y-74226262D02*
G01*
X98921644Y-74228422D01*
X98935923Y-74231999D01*
X98949783Y-74236958D01*
X98963090Y-74243252D01*
X98975716Y-74250820D01*
X98987539Y-74259588D01*
X98998446Y-74269474D01*
X99008332Y-74280381D01*
X99017100Y-74292204D01*
X99024668Y-74304830D01*
X99030962Y-74318137D01*
X99035921Y-74331997D01*
X99039498Y-74346276D01*
X99041658Y-74360837D01*
X99042380Y-74375540D01*
X99042380Y-75725540D01*
X99041658Y-75740243D01*
X99039498Y-75754804D01*
X99035921Y-75769083D01*
X99030962Y-75782943D01*
X99024668Y-75796250D01*
X99017100Y-75808876D01*
X99008332Y-75820699D01*
X98998446Y-75831606D01*
X98987539Y-75841492D01*
X98975716Y-75850260D01*
X98963090Y-75857828D01*
X98949783Y-75864122D01*
X98935923Y-75869081D01*
X98921644Y-75872658D01*
X98907083Y-75874818D01*
X98892380Y-75875540D01*
X98592380Y-75875540D01*
X98577677Y-75874818D01*
X98563116Y-75872658D01*
X98548837Y-75869081D01*
X98534977Y-75864122D01*
X98521670Y-75857828D01*
X98509044Y-75850260D01*
X98497221Y-75841492D01*
X98486314Y-75831606D01*
X98476428Y-75820699D01*
X98467660Y-75808876D01*
X98460092Y-75796250D01*
X98453798Y-75782943D01*
X98448839Y-75769083D01*
X98445262Y-75754804D01*
X98443102Y-75740243D01*
X98442380Y-75725540D01*
X98442380Y-74375540D01*
X98443102Y-74360837D01*
X98445262Y-74346276D01*
X98448839Y-74331997D01*
X98453798Y-74318137D01*
X98460092Y-74304830D01*
X98467660Y-74292204D01*
X98476428Y-74280381D01*
X98486314Y-74269474D01*
X98497221Y-74259588D01*
X98509044Y-74250820D01*
X98521670Y-74243252D01*
X98534977Y-74236958D01*
X98548837Y-74231999D01*
X98563116Y-74228422D01*
X98577677Y-74226262D01*
X98592380Y-74225540D01*
X98892380Y-74225540D01*
X98907083Y-74226262D01*
X98907083Y-74226262D01*
G37*
D18*
X98742380Y-75050540D03*
D11*
G36*
X99557083Y-74226262D02*
G01*
X99571644Y-74228422D01*
X99585923Y-74231999D01*
X99599783Y-74236958D01*
X99613090Y-74243252D01*
X99625716Y-74250820D01*
X99637539Y-74259588D01*
X99648446Y-74269474D01*
X99658332Y-74280381D01*
X99667100Y-74292204D01*
X99674668Y-74304830D01*
X99680962Y-74318137D01*
X99685921Y-74331997D01*
X99689498Y-74346276D01*
X99691658Y-74360837D01*
X99692380Y-74375540D01*
X99692380Y-75725540D01*
X99691658Y-75740243D01*
X99689498Y-75754804D01*
X99685921Y-75769083D01*
X99680962Y-75782943D01*
X99674668Y-75796250D01*
X99667100Y-75808876D01*
X99658332Y-75820699D01*
X99648446Y-75831606D01*
X99637539Y-75841492D01*
X99625716Y-75850260D01*
X99613090Y-75857828D01*
X99599783Y-75864122D01*
X99585923Y-75869081D01*
X99571644Y-75872658D01*
X99557083Y-75874818D01*
X99542380Y-75875540D01*
X99242380Y-75875540D01*
X99227677Y-75874818D01*
X99213116Y-75872658D01*
X99198837Y-75869081D01*
X99184977Y-75864122D01*
X99171670Y-75857828D01*
X99159044Y-75850260D01*
X99147221Y-75841492D01*
X99136314Y-75831606D01*
X99126428Y-75820699D01*
X99117660Y-75808876D01*
X99110092Y-75796250D01*
X99103798Y-75782943D01*
X99098839Y-75769083D01*
X99095262Y-75754804D01*
X99093102Y-75740243D01*
X99092380Y-75725540D01*
X99092380Y-74375540D01*
X99093102Y-74360837D01*
X99095262Y-74346276D01*
X99098839Y-74331997D01*
X99103798Y-74318137D01*
X99110092Y-74304830D01*
X99117660Y-74292204D01*
X99126428Y-74280381D01*
X99136314Y-74269474D01*
X99147221Y-74259588D01*
X99159044Y-74250820D01*
X99171670Y-74243252D01*
X99184977Y-74236958D01*
X99198837Y-74231999D01*
X99213116Y-74228422D01*
X99227677Y-74226262D01*
X99242380Y-74225540D01*
X99542380Y-74225540D01*
X99557083Y-74226262D01*
X99557083Y-74226262D01*
G37*
D18*
X99392380Y-75050540D03*
D11*
G36*
X100207083Y-74226262D02*
G01*
X100221644Y-74228422D01*
X100235923Y-74231999D01*
X100249783Y-74236958D01*
X100263090Y-74243252D01*
X100275716Y-74250820D01*
X100287539Y-74259588D01*
X100298446Y-74269474D01*
X100308332Y-74280381D01*
X100317100Y-74292204D01*
X100324668Y-74304830D01*
X100330962Y-74318137D01*
X100335921Y-74331997D01*
X100339498Y-74346276D01*
X100341658Y-74360837D01*
X100342380Y-74375540D01*
X100342380Y-75725540D01*
X100341658Y-75740243D01*
X100339498Y-75754804D01*
X100335921Y-75769083D01*
X100330962Y-75782943D01*
X100324668Y-75796250D01*
X100317100Y-75808876D01*
X100308332Y-75820699D01*
X100298446Y-75831606D01*
X100287539Y-75841492D01*
X100275716Y-75850260D01*
X100263090Y-75857828D01*
X100249783Y-75864122D01*
X100235923Y-75869081D01*
X100221644Y-75872658D01*
X100207083Y-75874818D01*
X100192380Y-75875540D01*
X99892380Y-75875540D01*
X99877677Y-75874818D01*
X99863116Y-75872658D01*
X99848837Y-75869081D01*
X99834977Y-75864122D01*
X99821670Y-75857828D01*
X99809044Y-75850260D01*
X99797221Y-75841492D01*
X99786314Y-75831606D01*
X99776428Y-75820699D01*
X99767660Y-75808876D01*
X99760092Y-75796250D01*
X99753798Y-75782943D01*
X99748839Y-75769083D01*
X99745262Y-75754804D01*
X99743102Y-75740243D01*
X99742380Y-75725540D01*
X99742380Y-74375540D01*
X99743102Y-74360837D01*
X99745262Y-74346276D01*
X99748839Y-74331997D01*
X99753798Y-74318137D01*
X99760092Y-74304830D01*
X99767660Y-74292204D01*
X99776428Y-74280381D01*
X99786314Y-74269474D01*
X99797221Y-74259588D01*
X99809044Y-74250820D01*
X99821670Y-74243252D01*
X99834977Y-74236958D01*
X99848837Y-74231999D01*
X99863116Y-74228422D01*
X99877677Y-74226262D01*
X99892380Y-74225540D01*
X100192380Y-74225540D01*
X100207083Y-74226262D01*
X100207083Y-74226262D01*
G37*
D18*
X100042380Y-75050540D03*
D11*
G36*
X100207083Y-69926262D02*
G01*
X100221644Y-69928422D01*
X100235923Y-69931999D01*
X100249783Y-69936958D01*
X100263090Y-69943252D01*
X100275716Y-69950820D01*
X100287539Y-69959588D01*
X100298446Y-69969474D01*
X100308332Y-69980381D01*
X100317100Y-69992204D01*
X100324668Y-70004830D01*
X100330962Y-70018137D01*
X100335921Y-70031997D01*
X100339498Y-70046276D01*
X100341658Y-70060837D01*
X100342380Y-70075540D01*
X100342380Y-71425540D01*
X100341658Y-71440243D01*
X100339498Y-71454804D01*
X100335921Y-71469083D01*
X100330962Y-71482943D01*
X100324668Y-71496250D01*
X100317100Y-71508876D01*
X100308332Y-71520699D01*
X100298446Y-71531606D01*
X100287539Y-71541492D01*
X100275716Y-71550260D01*
X100263090Y-71557828D01*
X100249783Y-71564122D01*
X100235923Y-71569081D01*
X100221644Y-71572658D01*
X100207083Y-71574818D01*
X100192380Y-71575540D01*
X99892380Y-71575540D01*
X99877677Y-71574818D01*
X99863116Y-71572658D01*
X99848837Y-71569081D01*
X99834977Y-71564122D01*
X99821670Y-71557828D01*
X99809044Y-71550260D01*
X99797221Y-71541492D01*
X99786314Y-71531606D01*
X99776428Y-71520699D01*
X99767660Y-71508876D01*
X99760092Y-71496250D01*
X99753798Y-71482943D01*
X99748839Y-71469083D01*
X99745262Y-71454804D01*
X99743102Y-71440243D01*
X99742380Y-71425540D01*
X99742380Y-70075540D01*
X99743102Y-70060837D01*
X99745262Y-70046276D01*
X99748839Y-70031997D01*
X99753798Y-70018137D01*
X99760092Y-70004830D01*
X99767660Y-69992204D01*
X99776428Y-69980381D01*
X99786314Y-69969474D01*
X99797221Y-69959588D01*
X99809044Y-69950820D01*
X99821670Y-69943252D01*
X99834977Y-69936958D01*
X99848837Y-69931999D01*
X99863116Y-69928422D01*
X99877677Y-69926262D01*
X99892380Y-69925540D01*
X100192380Y-69925540D01*
X100207083Y-69926262D01*
X100207083Y-69926262D01*
G37*
D18*
X100042380Y-70750540D03*
D11*
G36*
X99557083Y-69926262D02*
G01*
X99571644Y-69928422D01*
X99585923Y-69931999D01*
X99599783Y-69936958D01*
X99613090Y-69943252D01*
X99625716Y-69950820D01*
X99637539Y-69959588D01*
X99648446Y-69969474D01*
X99658332Y-69980381D01*
X99667100Y-69992204D01*
X99674668Y-70004830D01*
X99680962Y-70018137D01*
X99685921Y-70031997D01*
X99689498Y-70046276D01*
X99691658Y-70060837D01*
X99692380Y-70075540D01*
X99692380Y-71425540D01*
X99691658Y-71440243D01*
X99689498Y-71454804D01*
X99685921Y-71469083D01*
X99680962Y-71482943D01*
X99674668Y-71496250D01*
X99667100Y-71508876D01*
X99658332Y-71520699D01*
X99648446Y-71531606D01*
X99637539Y-71541492D01*
X99625716Y-71550260D01*
X99613090Y-71557828D01*
X99599783Y-71564122D01*
X99585923Y-71569081D01*
X99571644Y-71572658D01*
X99557083Y-71574818D01*
X99542380Y-71575540D01*
X99242380Y-71575540D01*
X99227677Y-71574818D01*
X99213116Y-71572658D01*
X99198837Y-71569081D01*
X99184977Y-71564122D01*
X99171670Y-71557828D01*
X99159044Y-71550260D01*
X99147221Y-71541492D01*
X99136314Y-71531606D01*
X99126428Y-71520699D01*
X99117660Y-71508876D01*
X99110092Y-71496250D01*
X99103798Y-71482943D01*
X99098839Y-71469083D01*
X99095262Y-71454804D01*
X99093102Y-71440243D01*
X99092380Y-71425540D01*
X99092380Y-70075540D01*
X99093102Y-70060837D01*
X99095262Y-70046276D01*
X99098839Y-70031997D01*
X99103798Y-70018137D01*
X99110092Y-70004830D01*
X99117660Y-69992204D01*
X99126428Y-69980381D01*
X99136314Y-69969474D01*
X99147221Y-69959588D01*
X99159044Y-69950820D01*
X99171670Y-69943252D01*
X99184977Y-69936958D01*
X99198837Y-69931999D01*
X99213116Y-69928422D01*
X99227677Y-69926262D01*
X99242380Y-69925540D01*
X99542380Y-69925540D01*
X99557083Y-69926262D01*
X99557083Y-69926262D01*
G37*
D18*
X99392380Y-70750540D03*
D11*
G36*
X98907083Y-69926262D02*
G01*
X98921644Y-69928422D01*
X98935923Y-69931999D01*
X98949783Y-69936958D01*
X98963090Y-69943252D01*
X98975716Y-69950820D01*
X98987539Y-69959588D01*
X98998446Y-69969474D01*
X99008332Y-69980381D01*
X99017100Y-69992204D01*
X99024668Y-70004830D01*
X99030962Y-70018137D01*
X99035921Y-70031997D01*
X99039498Y-70046276D01*
X99041658Y-70060837D01*
X99042380Y-70075540D01*
X99042380Y-71425540D01*
X99041658Y-71440243D01*
X99039498Y-71454804D01*
X99035921Y-71469083D01*
X99030962Y-71482943D01*
X99024668Y-71496250D01*
X99017100Y-71508876D01*
X99008332Y-71520699D01*
X98998446Y-71531606D01*
X98987539Y-71541492D01*
X98975716Y-71550260D01*
X98963090Y-71557828D01*
X98949783Y-71564122D01*
X98935923Y-71569081D01*
X98921644Y-71572658D01*
X98907083Y-71574818D01*
X98892380Y-71575540D01*
X98592380Y-71575540D01*
X98577677Y-71574818D01*
X98563116Y-71572658D01*
X98548837Y-71569081D01*
X98534977Y-71564122D01*
X98521670Y-71557828D01*
X98509044Y-71550260D01*
X98497221Y-71541492D01*
X98486314Y-71531606D01*
X98476428Y-71520699D01*
X98467660Y-71508876D01*
X98460092Y-71496250D01*
X98453798Y-71482943D01*
X98448839Y-71469083D01*
X98445262Y-71454804D01*
X98443102Y-71440243D01*
X98442380Y-71425540D01*
X98442380Y-70075540D01*
X98443102Y-70060837D01*
X98445262Y-70046276D01*
X98448839Y-70031997D01*
X98453798Y-70018137D01*
X98460092Y-70004830D01*
X98467660Y-69992204D01*
X98476428Y-69980381D01*
X98486314Y-69969474D01*
X98497221Y-69959588D01*
X98509044Y-69950820D01*
X98521670Y-69943252D01*
X98534977Y-69936958D01*
X98548837Y-69931999D01*
X98563116Y-69928422D01*
X98577677Y-69926262D01*
X98592380Y-69925540D01*
X98892380Y-69925540D01*
X98907083Y-69926262D01*
X98907083Y-69926262D01*
G37*
D18*
X98742380Y-70750540D03*
D11*
G36*
X98257083Y-69926262D02*
G01*
X98271644Y-69928422D01*
X98285923Y-69931999D01*
X98299783Y-69936958D01*
X98313090Y-69943252D01*
X98325716Y-69950820D01*
X98337539Y-69959588D01*
X98348446Y-69969474D01*
X98358332Y-69980381D01*
X98367100Y-69992204D01*
X98374668Y-70004830D01*
X98380962Y-70018137D01*
X98385921Y-70031997D01*
X98389498Y-70046276D01*
X98391658Y-70060837D01*
X98392380Y-70075540D01*
X98392380Y-71425540D01*
X98391658Y-71440243D01*
X98389498Y-71454804D01*
X98385921Y-71469083D01*
X98380962Y-71482943D01*
X98374668Y-71496250D01*
X98367100Y-71508876D01*
X98358332Y-71520699D01*
X98348446Y-71531606D01*
X98337539Y-71541492D01*
X98325716Y-71550260D01*
X98313090Y-71557828D01*
X98299783Y-71564122D01*
X98285923Y-71569081D01*
X98271644Y-71572658D01*
X98257083Y-71574818D01*
X98242380Y-71575540D01*
X97942380Y-71575540D01*
X97927677Y-71574818D01*
X97913116Y-71572658D01*
X97898837Y-71569081D01*
X97884977Y-71564122D01*
X97871670Y-71557828D01*
X97859044Y-71550260D01*
X97847221Y-71541492D01*
X97836314Y-71531606D01*
X97826428Y-71520699D01*
X97817660Y-71508876D01*
X97810092Y-71496250D01*
X97803798Y-71482943D01*
X97798839Y-71469083D01*
X97795262Y-71454804D01*
X97793102Y-71440243D01*
X97792380Y-71425540D01*
X97792380Y-70075540D01*
X97793102Y-70060837D01*
X97795262Y-70046276D01*
X97798839Y-70031997D01*
X97803798Y-70018137D01*
X97810092Y-70004830D01*
X97817660Y-69992204D01*
X97826428Y-69980381D01*
X97836314Y-69969474D01*
X97847221Y-69959588D01*
X97859044Y-69950820D01*
X97871670Y-69943252D01*
X97884977Y-69936958D01*
X97898837Y-69931999D01*
X97913116Y-69928422D01*
X97927677Y-69926262D01*
X97942380Y-69925540D01*
X98242380Y-69925540D01*
X98257083Y-69926262D01*
X98257083Y-69926262D01*
G37*
D18*
X98092380Y-70750540D03*
D11*
G36*
X97607083Y-69926262D02*
G01*
X97621644Y-69928422D01*
X97635923Y-69931999D01*
X97649783Y-69936958D01*
X97663090Y-69943252D01*
X97675716Y-69950820D01*
X97687539Y-69959588D01*
X97698446Y-69969474D01*
X97708332Y-69980381D01*
X97717100Y-69992204D01*
X97724668Y-70004830D01*
X97730962Y-70018137D01*
X97735921Y-70031997D01*
X97739498Y-70046276D01*
X97741658Y-70060837D01*
X97742380Y-70075540D01*
X97742380Y-71425540D01*
X97741658Y-71440243D01*
X97739498Y-71454804D01*
X97735921Y-71469083D01*
X97730962Y-71482943D01*
X97724668Y-71496250D01*
X97717100Y-71508876D01*
X97708332Y-71520699D01*
X97698446Y-71531606D01*
X97687539Y-71541492D01*
X97675716Y-71550260D01*
X97663090Y-71557828D01*
X97649783Y-71564122D01*
X97635923Y-71569081D01*
X97621644Y-71572658D01*
X97607083Y-71574818D01*
X97592380Y-71575540D01*
X97292380Y-71575540D01*
X97277677Y-71574818D01*
X97263116Y-71572658D01*
X97248837Y-71569081D01*
X97234977Y-71564122D01*
X97221670Y-71557828D01*
X97209044Y-71550260D01*
X97197221Y-71541492D01*
X97186314Y-71531606D01*
X97176428Y-71520699D01*
X97167660Y-71508876D01*
X97160092Y-71496250D01*
X97153798Y-71482943D01*
X97148839Y-71469083D01*
X97145262Y-71454804D01*
X97143102Y-71440243D01*
X97142380Y-71425540D01*
X97142380Y-70075540D01*
X97143102Y-70060837D01*
X97145262Y-70046276D01*
X97148839Y-70031997D01*
X97153798Y-70018137D01*
X97160092Y-70004830D01*
X97167660Y-69992204D01*
X97176428Y-69980381D01*
X97186314Y-69969474D01*
X97197221Y-69959588D01*
X97209044Y-69950820D01*
X97221670Y-69943252D01*
X97234977Y-69936958D01*
X97248837Y-69931999D01*
X97263116Y-69928422D01*
X97277677Y-69926262D01*
X97292380Y-69925540D01*
X97592380Y-69925540D01*
X97607083Y-69926262D01*
X97607083Y-69926262D01*
G37*
D18*
X97442380Y-70750540D03*
D11*
G36*
X96957083Y-69926262D02*
G01*
X96971644Y-69928422D01*
X96985923Y-69931999D01*
X96999783Y-69936958D01*
X97013090Y-69943252D01*
X97025716Y-69950820D01*
X97037539Y-69959588D01*
X97048446Y-69969474D01*
X97058332Y-69980381D01*
X97067100Y-69992204D01*
X97074668Y-70004830D01*
X97080962Y-70018137D01*
X97085921Y-70031997D01*
X97089498Y-70046276D01*
X97091658Y-70060837D01*
X97092380Y-70075540D01*
X97092380Y-71425540D01*
X97091658Y-71440243D01*
X97089498Y-71454804D01*
X97085921Y-71469083D01*
X97080962Y-71482943D01*
X97074668Y-71496250D01*
X97067100Y-71508876D01*
X97058332Y-71520699D01*
X97048446Y-71531606D01*
X97037539Y-71541492D01*
X97025716Y-71550260D01*
X97013090Y-71557828D01*
X96999783Y-71564122D01*
X96985923Y-71569081D01*
X96971644Y-71572658D01*
X96957083Y-71574818D01*
X96942380Y-71575540D01*
X96642380Y-71575540D01*
X96627677Y-71574818D01*
X96613116Y-71572658D01*
X96598837Y-71569081D01*
X96584977Y-71564122D01*
X96571670Y-71557828D01*
X96559044Y-71550260D01*
X96547221Y-71541492D01*
X96536314Y-71531606D01*
X96526428Y-71520699D01*
X96517660Y-71508876D01*
X96510092Y-71496250D01*
X96503798Y-71482943D01*
X96498839Y-71469083D01*
X96495262Y-71454804D01*
X96493102Y-71440243D01*
X96492380Y-71425540D01*
X96492380Y-70075540D01*
X96493102Y-70060837D01*
X96495262Y-70046276D01*
X96498839Y-70031997D01*
X96503798Y-70018137D01*
X96510092Y-70004830D01*
X96517660Y-69992204D01*
X96526428Y-69980381D01*
X96536314Y-69969474D01*
X96547221Y-69959588D01*
X96559044Y-69950820D01*
X96571670Y-69943252D01*
X96584977Y-69936958D01*
X96598837Y-69931999D01*
X96613116Y-69928422D01*
X96627677Y-69926262D01*
X96642380Y-69925540D01*
X96942380Y-69925540D01*
X96957083Y-69926262D01*
X96957083Y-69926262D01*
G37*
D18*
X96792380Y-70750540D03*
D11*
G36*
X99468289Y-109492453D02*
G01*
X99496778Y-109496679D01*
X99524715Y-109503677D01*
X99551832Y-109513380D01*
X99577867Y-109525693D01*
X99602570Y-109540500D01*
X99625703Y-109557656D01*
X99647043Y-109576997D01*
X99666384Y-109598337D01*
X99683540Y-109621470D01*
X99698347Y-109646173D01*
X99710660Y-109672208D01*
X99720363Y-109699325D01*
X99727361Y-109727262D01*
X99731587Y-109755751D01*
X99733000Y-109784517D01*
X99733000Y-110547563D01*
X99731587Y-110576329D01*
X99727361Y-110604818D01*
X99720363Y-110632755D01*
X99710660Y-110659872D01*
X99698347Y-110685907D01*
X99683540Y-110710610D01*
X99666384Y-110733743D01*
X99647043Y-110755083D01*
X99625703Y-110774424D01*
X99602570Y-110791580D01*
X99577867Y-110806387D01*
X99551832Y-110818700D01*
X99524715Y-110828403D01*
X99496778Y-110835401D01*
X99468289Y-110839627D01*
X99439523Y-110841040D01*
X98426477Y-110841040D01*
X98397711Y-110839627D01*
X98369222Y-110835401D01*
X98341285Y-110828403D01*
X98314168Y-110818700D01*
X98288133Y-110806387D01*
X98263430Y-110791580D01*
X98240297Y-110774424D01*
X98218957Y-110755083D01*
X98199616Y-110733743D01*
X98182460Y-110710610D01*
X98167653Y-110685907D01*
X98155340Y-110659872D01*
X98145637Y-110632755D01*
X98138639Y-110604818D01*
X98134413Y-110576329D01*
X98133000Y-110547563D01*
X98133000Y-109784517D01*
X98134413Y-109755751D01*
X98138639Y-109727262D01*
X98145637Y-109699325D01*
X98155340Y-109672208D01*
X98167653Y-109646173D01*
X98182460Y-109621470D01*
X98199616Y-109598337D01*
X98218957Y-109576997D01*
X98240297Y-109557656D01*
X98263430Y-109540500D01*
X98288133Y-109525693D01*
X98314168Y-109513380D01*
X98341285Y-109503677D01*
X98369222Y-109496679D01*
X98397711Y-109492453D01*
X98426477Y-109491040D01*
X99439523Y-109491040D01*
X99468289Y-109492453D01*
X99468289Y-109492453D01*
G37*
D19*
X98933000Y-110166040D03*
D11*
G36*
X99468289Y-111542453D02*
G01*
X99496778Y-111546679D01*
X99524715Y-111553677D01*
X99551832Y-111563380D01*
X99577867Y-111575693D01*
X99602570Y-111590500D01*
X99625703Y-111607656D01*
X99647043Y-111626997D01*
X99666384Y-111648337D01*
X99683540Y-111671470D01*
X99698347Y-111696173D01*
X99710660Y-111722208D01*
X99720363Y-111749325D01*
X99727361Y-111777262D01*
X99731587Y-111805751D01*
X99733000Y-111834517D01*
X99733000Y-112597563D01*
X99731587Y-112626329D01*
X99727361Y-112654818D01*
X99720363Y-112682755D01*
X99710660Y-112709872D01*
X99698347Y-112735907D01*
X99683540Y-112760610D01*
X99666384Y-112783743D01*
X99647043Y-112805083D01*
X99625703Y-112824424D01*
X99602570Y-112841580D01*
X99577867Y-112856387D01*
X99551832Y-112868700D01*
X99524715Y-112878403D01*
X99496778Y-112885401D01*
X99468289Y-112889627D01*
X99439523Y-112891040D01*
X98426477Y-112891040D01*
X98397711Y-112889627D01*
X98369222Y-112885401D01*
X98341285Y-112878403D01*
X98314168Y-112868700D01*
X98288133Y-112856387D01*
X98263430Y-112841580D01*
X98240297Y-112824424D01*
X98218957Y-112805083D01*
X98199616Y-112783743D01*
X98182460Y-112760610D01*
X98167653Y-112735907D01*
X98155340Y-112709872D01*
X98145637Y-112682755D01*
X98138639Y-112654818D01*
X98134413Y-112626329D01*
X98133000Y-112597563D01*
X98133000Y-111834517D01*
X98134413Y-111805751D01*
X98138639Y-111777262D01*
X98145637Y-111749325D01*
X98155340Y-111722208D01*
X98167653Y-111696173D01*
X98182460Y-111671470D01*
X98199616Y-111648337D01*
X98218957Y-111626997D01*
X98240297Y-111607656D01*
X98263430Y-111590500D01*
X98288133Y-111575693D01*
X98314168Y-111563380D01*
X98341285Y-111553677D01*
X98369222Y-111546679D01*
X98397711Y-111542453D01*
X98426477Y-111541040D01*
X99439523Y-111541040D01*
X99468289Y-111542453D01*
X99468289Y-111542453D01*
G37*
D19*
X98933000Y-112216040D03*
D11*
G36*
X103082709Y-73249413D02*
G01*
X103111198Y-73253639D01*
X103139135Y-73260637D01*
X103166252Y-73270340D01*
X103192287Y-73282653D01*
X103216990Y-73297460D01*
X103240123Y-73314616D01*
X103261463Y-73333957D01*
X103280804Y-73355297D01*
X103297960Y-73378430D01*
X103312767Y-73403133D01*
X103325080Y-73429168D01*
X103334783Y-73456285D01*
X103341781Y-73484222D01*
X103346007Y-73512711D01*
X103347420Y-73541477D01*
X103347420Y-74304523D01*
X103346007Y-74333289D01*
X103341781Y-74361778D01*
X103334783Y-74389715D01*
X103325080Y-74416832D01*
X103312767Y-74442867D01*
X103297960Y-74467570D01*
X103280804Y-74490703D01*
X103261463Y-74512043D01*
X103240123Y-74531384D01*
X103216990Y-74548540D01*
X103192287Y-74563347D01*
X103166252Y-74575660D01*
X103139135Y-74585363D01*
X103111198Y-74592361D01*
X103082709Y-74596587D01*
X103053943Y-74598000D01*
X102040897Y-74598000D01*
X102012131Y-74596587D01*
X101983642Y-74592361D01*
X101955705Y-74585363D01*
X101928588Y-74575660D01*
X101902553Y-74563347D01*
X101877850Y-74548540D01*
X101854717Y-74531384D01*
X101833377Y-74512043D01*
X101814036Y-74490703D01*
X101796880Y-74467570D01*
X101782073Y-74442867D01*
X101769760Y-74416832D01*
X101760057Y-74389715D01*
X101753059Y-74361778D01*
X101748833Y-74333289D01*
X101747420Y-74304523D01*
X101747420Y-73541477D01*
X101748833Y-73512711D01*
X101753059Y-73484222D01*
X101760057Y-73456285D01*
X101769760Y-73429168D01*
X101782073Y-73403133D01*
X101796880Y-73378430D01*
X101814036Y-73355297D01*
X101833377Y-73333957D01*
X101854717Y-73314616D01*
X101877850Y-73297460D01*
X101902553Y-73282653D01*
X101928588Y-73270340D01*
X101955705Y-73260637D01*
X101983642Y-73253639D01*
X102012131Y-73249413D01*
X102040897Y-73248000D01*
X103053943Y-73248000D01*
X103082709Y-73249413D01*
X103082709Y-73249413D01*
G37*
D19*
X102547420Y-73923000D03*
D11*
G36*
X103082709Y-71199413D02*
G01*
X103111198Y-71203639D01*
X103139135Y-71210637D01*
X103166252Y-71220340D01*
X103192287Y-71232653D01*
X103216990Y-71247460D01*
X103240123Y-71264616D01*
X103261463Y-71283957D01*
X103280804Y-71305297D01*
X103297960Y-71328430D01*
X103312767Y-71353133D01*
X103325080Y-71379168D01*
X103334783Y-71406285D01*
X103341781Y-71434222D01*
X103346007Y-71462711D01*
X103347420Y-71491477D01*
X103347420Y-72254523D01*
X103346007Y-72283289D01*
X103341781Y-72311778D01*
X103334783Y-72339715D01*
X103325080Y-72366832D01*
X103312767Y-72392867D01*
X103297960Y-72417570D01*
X103280804Y-72440703D01*
X103261463Y-72462043D01*
X103240123Y-72481384D01*
X103216990Y-72498540D01*
X103192287Y-72513347D01*
X103166252Y-72525660D01*
X103139135Y-72535363D01*
X103111198Y-72542361D01*
X103082709Y-72546587D01*
X103053943Y-72548000D01*
X102040897Y-72548000D01*
X102012131Y-72546587D01*
X101983642Y-72542361D01*
X101955705Y-72535363D01*
X101928588Y-72525660D01*
X101902553Y-72513347D01*
X101877850Y-72498540D01*
X101854717Y-72481384D01*
X101833377Y-72462043D01*
X101814036Y-72440703D01*
X101796880Y-72417570D01*
X101782073Y-72392867D01*
X101769760Y-72366832D01*
X101760057Y-72339715D01*
X101753059Y-72311778D01*
X101748833Y-72283289D01*
X101747420Y-72254523D01*
X101747420Y-71491477D01*
X101748833Y-71462711D01*
X101753059Y-71434222D01*
X101760057Y-71406285D01*
X101769760Y-71379168D01*
X101782073Y-71353133D01*
X101796880Y-71328430D01*
X101814036Y-71305297D01*
X101833377Y-71283957D01*
X101854717Y-71264616D01*
X101877850Y-71247460D01*
X101902553Y-71232653D01*
X101928588Y-71220340D01*
X101955705Y-71210637D01*
X101983642Y-71203639D01*
X102012131Y-71199413D01*
X102040897Y-71198000D01*
X103053943Y-71198000D01*
X103082709Y-71199413D01*
X103082709Y-71199413D01*
G37*
D19*
X102547420Y-71873000D03*
D11*
G36*
X105140744Y-73249413D02*
G01*
X105169233Y-73253639D01*
X105197170Y-73260637D01*
X105224287Y-73270340D01*
X105250322Y-73282653D01*
X105275025Y-73297460D01*
X105298158Y-73314616D01*
X105319498Y-73333957D01*
X105338839Y-73355297D01*
X105355995Y-73378430D01*
X105370802Y-73403133D01*
X105383115Y-73429168D01*
X105392818Y-73456285D01*
X105399816Y-73484222D01*
X105404042Y-73512711D01*
X105405455Y-73541477D01*
X105405455Y-74304523D01*
X105404042Y-74333289D01*
X105399816Y-74361778D01*
X105392818Y-74389715D01*
X105383115Y-74416832D01*
X105370802Y-74442867D01*
X105355995Y-74467570D01*
X105338839Y-74490703D01*
X105319498Y-74512043D01*
X105298158Y-74531384D01*
X105275025Y-74548540D01*
X105250322Y-74563347D01*
X105224287Y-74575660D01*
X105197170Y-74585363D01*
X105169233Y-74592361D01*
X105140744Y-74596587D01*
X105111978Y-74598000D01*
X104098932Y-74598000D01*
X104070166Y-74596587D01*
X104041677Y-74592361D01*
X104013740Y-74585363D01*
X103986623Y-74575660D01*
X103960588Y-74563347D01*
X103935885Y-74548540D01*
X103912752Y-74531384D01*
X103891412Y-74512043D01*
X103872071Y-74490703D01*
X103854915Y-74467570D01*
X103840108Y-74442867D01*
X103827795Y-74416832D01*
X103818092Y-74389715D01*
X103811094Y-74361778D01*
X103806868Y-74333289D01*
X103805455Y-74304523D01*
X103805455Y-73541477D01*
X103806868Y-73512711D01*
X103811094Y-73484222D01*
X103818092Y-73456285D01*
X103827795Y-73429168D01*
X103840108Y-73403133D01*
X103854915Y-73378430D01*
X103872071Y-73355297D01*
X103891412Y-73333957D01*
X103912752Y-73314616D01*
X103935885Y-73297460D01*
X103960588Y-73282653D01*
X103986623Y-73270340D01*
X104013740Y-73260637D01*
X104041677Y-73253639D01*
X104070166Y-73249413D01*
X104098932Y-73248000D01*
X105111978Y-73248000D01*
X105140744Y-73249413D01*
X105140744Y-73249413D01*
G37*
D19*
X104605455Y-73923000D03*
D11*
G36*
X105140744Y-71199413D02*
G01*
X105169233Y-71203639D01*
X105197170Y-71210637D01*
X105224287Y-71220340D01*
X105250322Y-71232653D01*
X105275025Y-71247460D01*
X105298158Y-71264616D01*
X105319498Y-71283957D01*
X105338839Y-71305297D01*
X105355995Y-71328430D01*
X105370802Y-71353133D01*
X105383115Y-71379168D01*
X105392818Y-71406285D01*
X105399816Y-71434222D01*
X105404042Y-71462711D01*
X105405455Y-71491477D01*
X105405455Y-72254523D01*
X105404042Y-72283289D01*
X105399816Y-72311778D01*
X105392818Y-72339715D01*
X105383115Y-72366832D01*
X105370802Y-72392867D01*
X105355995Y-72417570D01*
X105338839Y-72440703D01*
X105319498Y-72462043D01*
X105298158Y-72481384D01*
X105275025Y-72498540D01*
X105250322Y-72513347D01*
X105224287Y-72525660D01*
X105197170Y-72535363D01*
X105169233Y-72542361D01*
X105140744Y-72546587D01*
X105111978Y-72548000D01*
X104098932Y-72548000D01*
X104070166Y-72546587D01*
X104041677Y-72542361D01*
X104013740Y-72535363D01*
X103986623Y-72525660D01*
X103960588Y-72513347D01*
X103935885Y-72498540D01*
X103912752Y-72481384D01*
X103891412Y-72462043D01*
X103872071Y-72440703D01*
X103854915Y-72417570D01*
X103840108Y-72392867D01*
X103827795Y-72366832D01*
X103818092Y-72339715D01*
X103811094Y-72311778D01*
X103806868Y-72283289D01*
X103805455Y-72254523D01*
X103805455Y-71491477D01*
X103806868Y-71462711D01*
X103811094Y-71434222D01*
X103818092Y-71406285D01*
X103827795Y-71379168D01*
X103840108Y-71353133D01*
X103854915Y-71328430D01*
X103872071Y-71305297D01*
X103891412Y-71283957D01*
X103912752Y-71264616D01*
X103935885Y-71247460D01*
X103960588Y-71232653D01*
X103986623Y-71220340D01*
X104013740Y-71210637D01*
X104041677Y-71203639D01*
X104070166Y-71199413D01*
X104098932Y-71198000D01*
X105111978Y-71198000D01*
X105140744Y-71199413D01*
X105140744Y-71199413D01*
G37*
D19*
X104605455Y-71873000D03*
D11*
G36*
X107198779Y-71199413D02*
G01*
X107227268Y-71203639D01*
X107255205Y-71210637D01*
X107282322Y-71220340D01*
X107308357Y-71232653D01*
X107333060Y-71247460D01*
X107356193Y-71264616D01*
X107377533Y-71283957D01*
X107396874Y-71305297D01*
X107414030Y-71328430D01*
X107428837Y-71353133D01*
X107441150Y-71379168D01*
X107450853Y-71406285D01*
X107457851Y-71434222D01*
X107462077Y-71462711D01*
X107463490Y-71491477D01*
X107463490Y-72254523D01*
X107462077Y-72283289D01*
X107457851Y-72311778D01*
X107450853Y-72339715D01*
X107441150Y-72366832D01*
X107428837Y-72392867D01*
X107414030Y-72417570D01*
X107396874Y-72440703D01*
X107377533Y-72462043D01*
X107356193Y-72481384D01*
X107333060Y-72498540D01*
X107308357Y-72513347D01*
X107282322Y-72525660D01*
X107255205Y-72535363D01*
X107227268Y-72542361D01*
X107198779Y-72546587D01*
X107170013Y-72548000D01*
X106156967Y-72548000D01*
X106128201Y-72546587D01*
X106099712Y-72542361D01*
X106071775Y-72535363D01*
X106044658Y-72525660D01*
X106018623Y-72513347D01*
X105993920Y-72498540D01*
X105970787Y-72481384D01*
X105949447Y-72462043D01*
X105930106Y-72440703D01*
X105912950Y-72417570D01*
X105898143Y-72392867D01*
X105885830Y-72366832D01*
X105876127Y-72339715D01*
X105869129Y-72311778D01*
X105864903Y-72283289D01*
X105863490Y-72254523D01*
X105863490Y-71491477D01*
X105864903Y-71462711D01*
X105869129Y-71434222D01*
X105876127Y-71406285D01*
X105885830Y-71379168D01*
X105898143Y-71353133D01*
X105912950Y-71328430D01*
X105930106Y-71305297D01*
X105949447Y-71283957D01*
X105970787Y-71264616D01*
X105993920Y-71247460D01*
X106018623Y-71232653D01*
X106044658Y-71220340D01*
X106071775Y-71210637D01*
X106099712Y-71203639D01*
X106128201Y-71199413D01*
X106156967Y-71198000D01*
X107170013Y-71198000D01*
X107198779Y-71199413D01*
X107198779Y-71199413D01*
G37*
D19*
X106663490Y-71873000D03*
D11*
G36*
X107198779Y-73249413D02*
G01*
X107227268Y-73253639D01*
X107255205Y-73260637D01*
X107282322Y-73270340D01*
X107308357Y-73282653D01*
X107333060Y-73297460D01*
X107356193Y-73314616D01*
X107377533Y-73333957D01*
X107396874Y-73355297D01*
X107414030Y-73378430D01*
X107428837Y-73403133D01*
X107441150Y-73429168D01*
X107450853Y-73456285D01*
X107457851Y-73484222D01*
X107462077Y-73512711D01*
X107463490Y-73541477D01*
X107463490Y-74304523D01*
X107462077Y-74333289D01*
X107457851Y-74361778D01*
X107450853Y-74389715D01*
X107441150Y-74416832D01*
X107428837Y-74442867D01*
X107414030Y-74467570D01*
X107396874Y-74490703D01*
X107377533Y-74512043D01*
X107356193Y-74531384D01*
X107333060Y-74548540D01*
X107308357Y-74563347D01*
X107282322Y-74575660D01*
X107255205Y-74585363D01*
X107227268Y-74592361D01*
X107198779Y-74596587D01*
X107170013Y-74598000D01*
X106156967Y-74598000D01*
X106128201Y-74596587D01*
X106099712Y-74592361D01*
X106071775Y-74585363D01*
X106044658Y-74575660D01*
X106018623Y-74563347D01*
X105993920Y-74548540D01*
X105970787Y-74531384D01*
X105949447Y-74512043D01*
X105930106Y-74490703D01*
X105912950Y-74467570D01*
X105898143Y-74442867D01*
X105885830Y-74416832D01*
X105876127Y-74389715D01*
X105869129Y-74361778D01*
X105864903Y-74333289D01*
X105863490Y-74304523D01*
X105863490Y-73541477D01*
X105864903Y-73512711D01*
X105869129Y-73484222D01*
X105876127Y-73456285D01*
X105885830Y-73429168D01*
X105898143Y-73403133D01*
X105912950Y-73378430D01*
X105930106Y-73355297D01*
X105949447Y-73333957D01*
X105970787Y-73314616D01*
X105993920Y-73297460D01*
X106018623Y-73282653D01*
X106044658Y-73270340D01*
X106071775Y-73260637D01*
X106099712Y-73253639D01*
X106128201Y-73249413D01*
X106156967Y-73248000D01*
X107170013Y-73248000D01*
X107198779Y-73249413D01*
X107198779Y-73249413D01*
G37*
D19*
X106663490Y-73923000D03*
D11*
G36*
X111314849Y-73249413D02*
G01*
X111343338Y-73253639D01*
X111371275Y-73260637D01*
X111398392Y-73270340D01*
X111424427Y-73282653D01*
X111449130Y-73297460D01*
X111472263Y-73314616D01*
X111493603Y-73333957D01*
X111512944Y-73355297D01*
X111530100Y-73378430D01*
X111544907Y-73403133D01*
X111557220Y-73429168D01*
X111566923Y-73456285D01*
X111573921Y-73484222D01*
X111578147Y-73512711D01*
X111579560Y-73541477D01*
X111579560Y-74304523D01*
X111578147Y-74333289D01*
X111573921Y-74361778D01*
X111566923Y-74389715D01*
X111557220Y-74416832D01*
X111544907Y-74442867D01*
X111530100Y-74467570D01*
X111512944Y-74490703D01*
X111493603Y-74512043D01*
X111472263Y-74531384D01*
X111449130Y-74548540D01*
X111424427Y-74563347D01*
X111398392Y-74575660D01*
X111371275Y-74585363D01*
X111343338Y-74592361D01*
X111314849Y-74596587D01*
X111286083Y-74598000D01*
X110273037Y-74598000D01*
X110244271Y-74596587D01*
X110215782Y-74592361D01*
X110187845Y-74585363D01*
X110160728Y-74575660D01*
X110134693Y-74563347D01*
X110109990Y-74548540D01*
X110086857Y-74531384D01*
X110065517Y-74512043D01*
X110046176Y-74490703D01*
X110029020Y-74467570D01*
X110014213Y-74442867D01*
X110001900Y-74416832D01*
X109992197Y-74389715D01*
X109985199Y-74361778D01*
X109980973Y-74333289D01*
X109979560Y-74304523D01*
X109979560Y-73541477D01*
X109980973Y-73512711D01*
X109985199Y-73484222D01*
X109992197Y-73456285D01*
X110001900Y-73429168D01*
X110014213Y-73403133D01*
X110029020Y-73378430D01*
X110046176Y-73355297D01*
X110065517Y-73333957D01*
X110086857Y-73314616D01*
X110109990Y-73297460D01*
X110134693Y-73282653D01*
X110160728Y-73270340D01*
X110187845Y-73260637D01*
X110215782Y-73253639D01*
X110244271Y-73249413D01*
X110273037Y-73248000D01*
X111286083Y-73248000D01*
X111314849Y-73249413D01*
X111314849Y-73249413D01*
G37*
D19*
X110779560Y-73923000D03*
D11*
G36*
X111314849Y-71199413D02*
G01*
X111343338Y-71203639D01*
X111371275Y-71210637D01*
X111398392Y-71220340D01*
X111424427Y-71232653D01*
X111449130Y-71247460D01*
X111472263Y-71264616D01*
X111493603Y-71283957D01*
X111512944Y-71305297D01*
X111530100Y-71328430D01*
X111544907Y-71353133D01*
X111557220Y-71379168D01*
X111566923Y-71406285D01*
X111573921Y-71434222D01*
X111578147Y-71462711D01*
X111579560Y-71491477D01*
X111579560Y-72254523D01*
X111578147Y-72283289D01*
X111573921Y-72311778D01*
X111566923Y-72339715D01*
X111557220Y-72366832D01*
X111544907Y-72392867D01*
X111530100Y-72417570D01*
X111512944Y-72440703D01*
X111493603Y-72462043D01*
X111472263Y-72481384D01*
X111449130Y-72498540D01*
X111424427Y-72513347D01*
X111398392Y-72525660D01*
X111371275Y-72535363D01*
X111343338Y-72542361D01*
X111314849Y-72546587D01*
X111286083Y-72548000D01*
X110273037Y-72548000D01*
X110244271Y-72546587D01*
X110215782Y-72542361D01*
X110187845Y-72535363D01*
X110160728Y-72525660D01*
X110134693Y-72513347D01*
X110109990Y-72498540D01*
X110086857Y-72481384D01*
X110065517Y-72462043D01*
X110046176Y-72440703D01*
X110029020Y-72417570D01*
X110014213Y-72392867D01*
X110001900Y-72366832D01*
X109992197Y-72339715D01*
X109985199Y-72311778D01*
X109980973Y-72283289D01*
X109979560Y-72254523D01*
X109979560Y-71491477D01*
X109980973Y-71462711D01*
X109985199Y-71434222D01*
X109992197Y-71406285D01*
X110001900Y-71379168D01*
X110014213Y-71353133D01*
X110029020Y-71328430D01*
X110046176Y-71305297D01*
X110065517Y-71283957D01*
X110086857Y-71264616D01*
X110109990Y-71247460D01*
X110134693Y-71232653D01*
X110160728Y-71220340D01*
X110187845Y-71210637D01*
X110215782Y-71203639D01*
X110244271Y-71199413D01*
X110273037Y-71198000D01*
X111286083Y-71198000D01*
X111314849Y-71199413D01*
X111314849Y-71199413D01*
G37*
D19*
X110779560Y-71873000D03*
D11*
G36*
X88134809Y-81606013D02*
G01*
X88163298Y-81610239D01*
X88191235Y-81617237D01*
X88218352Y-81626940D01*
X88244387Y-81639253D01*
X88269090Y-81654060D01*
X88292223Y-81671216D01*
X88313563Y-81690557D01*
X88332904Y-81711897D01*
X88350060Y-81735030D01*
X88364867Y-81759733D01*
X88377180Y-81785768D01*
X88386883Y-81812885D01*
X88393881Y-81840822D01*
X88398107Y-81869311D01*
X88399520Y-81898077D01*
X88399520Y-82661123D01*
X88398107Y-82689889D01*
X88393881Y-82718378D01*
X88386883Y-82746315D01*
X88377180Y-82773432D01*
X88364867Y-82799467D01*
X88350060Y-82824170D01*
X88332904Y-82847303D01*
X88313563Y-82868643D01*
X88292223Y-82887984D01*
X88269090Y-82905140D01*
X88244387Y-82919947D01*
X88218352Y-82932260D01*
X88191235Y-82941963D01*
X88163298Y-82948961D01*
X88134809Y-82953187D01*
X88106043Y-82954600D01*
X87092997Y-82954600D01*
X87064231Y-82953187D01*
X87035742Y-82948961D01*
X87007805Y-82941963D01*
X86980688Y-82932260D01*
X86954653Y-82919947D01*
X86929950Y-82905140D01*
X86906817Y-82887984D01*
X86885477Y-82868643D01*
X86866136Y-82847303D01*
X86848980Y-82824170D01*
X86834173Y-82799467D01*
X86821860Y-82773432D01*
X86812157Y-82746315D01*
X86805159Y-82718378D01*
X86800933Y-82689889D01*
X86799520Y-82661123D01*
X86799520Y-81898077D01*
X86800933Y-81869311D01*
X86805159Y-81840822D01*
X86812157Y-81812885D01*
X86821860Y-81785768D01*
X86834173Y-81759733D01*
X86848980Y-81735030D01*
X86866136Y-81711897D01*
X86885477Y-81690557D01*
X86906817Y-81671216D01*
X86929950Y-81654060D01*
X86954653Y-81639253D01*
X86980688Y-81626940D01*
X87007805Y-81617237D01*
X87035742Y-81610239D01*
X87064231Y-81606013D01*
X87092997Y-81604600D01*
X88106043Y-81604600D01*
X88134809Y-81606013D01*
X88134809Y-81606013D01*
G37*
D19*
X87599520Y-82279600D03*
D11*
G36*
X88134809Y-79556013D02*
G01*
X88163298Y-79560239D01*
X88191235Y-79567237D01*
X88218352Y-79576940D01*
X88244387Y-79589253D01*
X88269090Y-79604060D01*
X88292223Y-79621216D01*
X88313563Y-79640557D01*
X88332904Y-79661897D01*
X88350060Y-79685030D01*
X88364867Y-79709733D01*
X88377180Y-79735768D01*
X88386883Y-79762885D01*
X88393881Y-79790822D01*
X88398107Y-79819311D01*
X88399520Y-79848077D01*
X88399520Y-80611123D01*
X88398107Y-80639889D01*
X88393881Y-80668378D01*
X88386883Y-80696315D01*
X88377180Y-80723432D01*
X88364867Y-80749467D01*
X88350060Y-80774170D01*
X88332904Y-80797303D01*
X88313563Y-80818643D01*
X88292223Y-80837984D01*
X88269090Y-80855140D01*
X88244387Y-80869947D01*
X88218352Y-80882260D01*
X88191235Y-80891963D01*
X88163298Y-80898961D01*
X88134809Y-80903187D01*
X88106043Y-80904600D01*
X87092997Y-80904600D01*
X87064231Y-80903187D01*
X87035742Y-80898961D01*
X87007805Y-80891963D01*
X86980688Y-80882260D01*
X86954653Y-80869947D01*
X86929950Y-80855140D01*
X86906817Y-80837984D01*
X86885477Y-80818643D01*
X86866136Y-80797303D01*
X86848980Y-80774170D01*
X86834173Y-80749467D01*
X86821860Y-80723432D01*
X86812157Y-80696315D01*
X86805159Y-80668378D01*
X86800933Y-80639889D01*
X86799520Y-80611123D01*
X86799520Y-79848077D01*
X86800933Y-79819311D01*
X86805159Y-79790822D01*
X86812157Y-79762885D01*
X86821860Y-79735768D01*
X86834173Y-79709733D01*
X86848980Y-79685030D01*
X86866136Y-79661897D01*
X86885477Y-79640557D01*
X86906817Y-79621216D01*
X86929950Y-79604060D01*
X86954653Y-79589253D01*
X86980688Y-79576940D01*
X87007805Y-79567237D01*
X87035742Y-79560239D01*
X87064231Y-79556013D01*
X87092997Y-79554600D01*
X88106043Y-79554600D01*
X88134809Y-79556013D01*
X88134809Y-79556013D01*
G37*
D19*
X87599520Y-80229600D03*
D11*
G36*
X88226249Y-83749553D02*
G01*
X88254738Y-83753779D01*
X88282675Y-83760777D01*
X88309792Y-83770480D01*
X88335827Y-83782793D01*
X88360530Y-83797600D01*
X88383663Y-83814756D01*
X88405003Y-83834097D01*
X88424344Y-83855437D01*
X88441500Y-83878570D01*
X88456307Y-83903273D01*
X88468620Y-83929308D01*
X88478323Y-83956425D01*
X88485321Y-83984362D01*
X88489547Y-84012851D01*
X88490960Y-84041617D01*
X88490960Y-84804663D01*
X88489547Y-84833429D01*
X88485321Y-84861918D01*
X88478323Y-84889855D01*
X88468620Y-84916972D01*
X88456307Y-84943007D01*
X88441500Y-84967710D01*
X88424344Y-84990843D01*
X88405003Y-85012183D01*
X88383663Y-85031524D01*
X88360530Y-85048680D01*
X88335827Y-85063487D01*
X88309792Y-85075800D01*
X88282675Y-85085503D01*
X88254738Y-85092501D01*
X88226249Y-85096727D01*
X88197483Y-85098140D01*
X87184437Y-85098140D01*
X87155671Y-85096727D01*
X87127182Y-85092501D01*
X87099245Y-85085503D01*
X87072128Y-85075800D01*
X87046093Y-85063487D01*
X87021390Y-85048680D01*
X86998257Y-85031524D01*
X86976917Y-85012183D01*
X86957576Y-84990843D01*
X86940420Y-84967710D01*
X86925613Y-84943007D01*
X86913300Y-84916972D01*
X86903597Y-84889855D01*
X86896599Y-84861918D01*
X86892373Y-84833429D01*
X86890960Y-84804663D01*
X86890960Y-84041617D01*
X86892373Y-84012851D01*
X86896599Y-83984362D01*
X86903597Y-83956425D01*
X86913300Y-83929308D01*
X86925613Y-83903273D01*
X86940420Y-83878570D01*
X86957576Y-83855437D01*
X86976917Y-83834097D01*
X86998257Y-83814756D01*
X87021390Y-83797600D01*
X87046093Y-83782793D01*
X87072128Y-83770480D01*
X87099245Y-83760777D01*
X87127182Y-83753779D01*
X87155671Y-83749553D01*
X87184437Y-83748140D01*
X88197483Y-83748140D01*
X88226249Y-83749553D01*
X88226249Y-83749553D01*
G37*
D19*
X87690960Y-84423140D03*
D11*
G36*
X88226249Y-85799553D02*
G01*
X88254738Y-85803779D01*
X88282675Y-85810777D01*
X88309792Y-85820480D01*
X88335827Y-85832793D01*
X88360530Y-85847600D01*
X88383663Y-85864756D01*
X88405003Y-85884097D01*
X88424344Y-85905437D01*
X88441500Y-85928570D01*
X88456307Y-85953273D01*
X88468620Y-85979308D01*
X88478323Y-86006425D01*
X88485321Y-86034362D01*
X88489547Y-86062851D01*
X88490960Y-86091617D01*
X88490960Y-86854663D01*
X88489547Y-86883429D01*
X88485321Y-86911918D01*
X88478323Y-86939855D01*
X88468620Y-86966972D01*
X88456307Y-86993007D01*
X88441500Y-87017710D01*
X88424344Y-87040843D01*
X88405003Y-87062183D01*
X88383663Y-87081524D01*
X88360530Y-87098680D01*
X88335827Y-87113487D01*
X88309792Y-87125800D01*
X88282675Y-87135503D01*
X88254738Y-87142501D01*
X88226249Y-87146727D01*
X88197483Y-87148140D01*
X87184437Y-87148140D01*
X87155671Y-87146727D01*
X87127182Y-87142501D01*
X87099245Y-87135503D01*
X87072128Y-87125800D01*
X87046093Y-87113487D01*
X87021390Y-87098680D01*
X86998257Y-87081524D01*
X86976917Y-87062183D01*
X86957576Y-87040843D01*
X86940420Y-87017710D01*
X86925613Y-86993007D01*
X86913300Y-86966972D01*
X86903597Y-86939855D01*
X86896599Y-86911918D01*
X86892373Y-86883429D01*
X86890960Y-86854663D01*
X86890960Y-86091617D01*
X86892373Y-86062851D01*
X86896599Y-86034362D01*
X86903597Y-86006425D01*
X86913300Y-85979308D01*
X86925613Y-85953273D01*
X86940420Y-85928570D01*
X86957576Y-85905437D01*
X86976917Y-85884097D01*
X86998257Y-85864756D01*
X87021390Y-85847600D01*
X87046093Y-85832793D01*
X87072128Y-85820480D01*
X87099245Y-85810777D01*
X87127182Y-85803779D01*
X87155671Y-85799553D01*
X87184437Y-85798140D01*
X88197483Y-85798140D01*
X88226249Y-85799553D01*
X88226249Y-85799553D01*
G37*
D19*
X87690960Y-86473140D03*
D11*
G36*
X109256814Y-73249413D02*
G01*
X109285303Y-73253639D01*
X109313240Y-73260637D01*
X109340357Y-73270340D01*
X109366392Y-73282653D01*
X109391095Y-73297460D01*
X109414228Y-73314616D01*
X109435568Y-73333957D01*
X109454909Y-73355297D01*
X109472065Y-73378430D01*
X109486872Y-73403133D01*
X109499185Y-73429168D01*
X109508888Y-73456285D01*
X109515886Y-73484222D01*
X109520112Y-73512711D01*
X109521525Y-73541477D01*
X109521525Y-74304523D01*
X109520112Y-74333289D01*
X109515886Y-74361778D01*
X109508888Y-74389715D01*
X109499185Y-74416832D01*
X109486872Y-74442867D01*
X109472065Y-74467570D01*
X109454909Y-74490703D01*
X109435568Y-74512043D01*
X109414228Y-74531384D01*
X109391095Y-74548540D01*
X109366392Y-74563347D01*
X109340357Y-74575660D01*
X109313240Y-74585363D01*
X109285303Y-74592361D01*
X109256814Y-74596587D01*
X109228048Y-74598000D01*
X108215002Y-74598000D01*
X108186236Y-74596587D01*
X108157747Y-74592361D01*
X108129810Y-74585363D01*
X108102693Y-74575660D01*
X108076658Y-74563347D01*
X108051955Y-74548540D01*
X108028822Y-74531384D01*
X108007482Y-74512043D01*
X107988141Y-74490703D01*
X107970985Y-74467570D01*
X107956178Y-74442867D01*
X107943865Y-74416832D01*
X107934162Y-74389715D01*
X107927164Y-74361778D01*
X107922938Y-74333289D01*
X107921525Y-74304523D01*
X107921525Y-73541477D01*
X107922938Y-73512711D01*
X107927164Y-73484222D01*
X107934162Y-73456285D01*
X107943865Y-73429168D01*
X107956178Y-73403133D01*
X107970985Y-73378430D01*
X107988141Y-73355297D01*
X108007482Y-73333957D01*
X108028822Y-73314616D01*
X108051955Y-73297460D01*
X108076658Y-73282653D01*
X108102693Y-73270340D01*
X108129810Y-73260637D01*
X108157747Y-73253639D01*
X108186236Y-73249413D01*
X108215002Y-73248000D01*
X109228048Y-73248000D01*
X109256814Y-73249413D01*
X109256814Y-73249413D01*
G37*
D19*
X108721525Y-73923000D03*
D11*
G36*
X109256814Y-71199413D02*
G01*
X109285303Y-71203639D01*
X109313240Y-71210637D01*
X109340357Y-71220340D01*
X109366392Y-71232653D01*
X109391095Y-71247460D01*
X109414228Y-71264616D01*
X109435568Y-71283957D01*
X109454909Y-71305297D01*
X109472065Y-71328430D01*
X109486872Y-71353133D01*
X109499185Y-71379168D01*
X109508888Y-71406285D01*
X109515886Y-71434222D01*
X109520112Y-71462711D01*
X109521525Y-71491477D01*
X109521525Y-72254523D01*
X109520112Y-72283289D01*
X109515886Y-72311778D01*
X109508888Y-72339715D01*
X109499185Y-72366832D01*
X109486872Y-72392867D01*
X109472065Y-72417570D01*
X109454909Y-72440703D01*
X109435568Y-72462043D01*
X109414228Y-72481384D01*
X109391095Y-72498540D01*
X109366392Y-72513347D01*
X109340357Y-72525660D01*
X109313240Y-72535363D01*
X109285303Y-72542361D01*
X109256814Y-72546587D01*
X109228048Y-72548000D01*
X108215002Y-72548000D01*
X108186236Y-72546587D01*
X108157747Y-72542361D01*
X108129810Y-72535363D01*
X108102693Y-72525660D01*
X108076658Y-72513347D01*
X108051955Y-72498540D01*
X108028822Y-72481384D01*
X108007482Y-72462043D01*
X107988141Y-72440703D01*
X107970985Y-72417570D01*
X107956178Y-72392867D01*
X107943865Y-72366832D01*
X107934162Y-72339715D01*
X107927164Y-72311778D01*
X107922938Y-72283289D01*
X107921525Y-72254523D01*
X107921525Y-71491477D01*
X107922938Y-71462711D01*
X107927164Y-71434222D01*
X107934162Y-71406285D01*
X107943865Y-71379168D01*
X107956178Y-71353133D01*
X107970985Y-71328430D01*
X107988141Y-71305297D01*
X108007482Y-71283957D01*
X108028822Y-71264616D01*
X108051955Y-71247460D01*
X108076658Y-71232653D01*
X108102693Y-71220340D01*
X108129810Y-71210637D01*
X108157747Y-71203639D01*
X108186236Y-71199413D01*
X108215002Y-71198000D01*
X109228048Y-71198000D01*
X109256814Y-71199413D01*
X109256814Y-71199413D01*
G37*
D19*
X108721525Y-71873000D03*
D11*
G36*
X98000169Y-81915893D02*
G01*
X98028658Y-81920119D01*
X98056595Y-81927117D01*
X98083712Y-81936820D01*
X98109747Y-81949133D01*
X98134450Y-81963940D01*
X98157583Y-81981096D01*
X98178923Y-82000437D01*
X98198264Y-82021777D01*
X98215420Y-82044910D01*
X98230227Y-82069613D01*
X98242540Y-82095648D01*
X98252243Y-82122765D01*
X98259241Y-82150702D01*
X98263467Y-82179191D01*
X98264880Y-82207957D01*
X98264880Y-82971003D01*
X98263467Y-82999769D01*
X98259241Y-83028258D01*
X98252243Y-83056195D01*
X98242540Y-83083312D01*
X98230227Y-83109347D01*
X98215420Y-83134050D01*
X98198264Y-83157183D01*
X98178923Y-83178523D01*
X98157583Y-83197864D01*
X98134450Y-83215020D01*
X98109747Y-83229827D01*
X98083712Y-83242140D01*
X98056595Y-83251843D01*
X98028658Y-83258841D01*
X98000169Y-83263067D01*
X97971403Y-83264480D01*
X96958357Y-83264480D01*
X96929591Y-83263067D01*
X96901102Y-83258841D01*
X96873165Y-83251843D01*
X96846048Y-83242140D01*
X96820013Y-83229827D01*
X96795310Y-83215020D01*
X96772177Y-83197864D01*
X96750837Y-83178523D01*
X96731496Y-83157183D01*
X96714340Y-83134050D01*
X96699533Y-83109347D01*
X96687220Y-83083312D01*
X96677517Y-83056195D01*
X96670519Y-83028258D01*
X96666293Y-82999769D01*
X96664880Y-82971003D01*
X96664880Y-82207957D01*
X96666293Y-82179191D01*
X96670519Y-82150702D01*
X96677517Y-82122765D01*
X96687220Y-82095648D01*
X96699533Y-82069613D01*
X96714340Y-82044910D01*
X96731496Y-82021777D01*
X96750837Y-82000437D01*
X96772177Y-81981096D01*
X96795310Y-81963940D01*
X96820013Y-81949133D01*
X96846048Y-81936820D01*
X96873165Y-81927117D01*
X96901102Y-81920119D01*
X96929591Y-81915893D01*
X96958357Y-81914480D01*
X97971403Y-81914480D01*
X98000169Y-81915893D01*
X98000169Y-81915893D01*
G37*
D19*
X97464880Y-82589480D03*
D11*
G36*
X98000169Y-79865893D02*
G01*
X98028658Y-79870119D01*
X98056595Y-79877117D01*
X98083712Y-79886820D01*
X98109747Y-79899133D01*
X98134450Y-79913940D01*
X98157583Y-79931096D01*
X98178923Y-79950437D01*
X98198264Y-79971777D01*
X98215420Y-79994910D01*
X98230227Y-80019613D01*
X98242540Y-80045648D01*
X98252243Y-80072765D01*
X98259241Y-80100702D01*
X98263467Y-80129191D01*
X98264880Y-80157957D01*
X98264880Y-80921003D01*
X98263467Y-80949769D01*
X98259241Y-80978258D01*
X98252243Y-81006195D01*
X98242540Y-81033312D01*
X98230227Y-81059347D01*
X98215420Y-81084050D01*
X98198264Y-81107183D01*
X98178923Y-81128523D01*
X98157583Y-81147864D01*
X98134450Y-81165020D01*
X98109747Y-81179827D01*
X98083712Y-81192140D01*
X98056595Y-81201843D01*
X98028658Y-81208841D01*
X98000169Y-81213067D01*
X97971403Y-81214480D01*
X96958357Y-81214480D01*
X96929591Y-81213067D01*
X96901102Y-81208841D01*
X96873165Y-81201843D01*
X96846048Y-81192140D01*
X96820013Y-81179827D01*
X96795310Y-81165020D01*
X96772177Y-81147864D01*
X96750837Y-81128523D01*
X96731496Y-81107183D01*
X96714340Y-81084050D01*
X96699533Y-81059347D01*
X96687220Y-81033312D01*
X96677517Y-81006195D01*
X96670519Y-80978258D01*
X96666293Y-80949769D01*
X96664880Y-80921003D01*
X96664880Y-80157957D01*
X96666293Y-80129191D01*
X96670519Y-80100702D01*
X96677517Y-80072765D01*
X96687220Y-80045648D01*
X96699533Y-80019613D01*
X96714340Y-79994910D01*
X96731496Y-79971777D01*
X96750837Y-79950437D01*
X96772177Y-79931096D01*
X96795310Y-79913940D01*
X96820013Y-79899133D01*
X96846048Y-79886820D01*
X96873165Y-79877117D01*
X96901102Y-79870119D01*
X96929591Y-79865893D01*
X96958357Y-79864480D01*
X97971403Y-79864480D01*
X98000169Y-79865893D01*
X98000169Y-79865893D01*
G37*
D19*
X97464880Y-80539480D03*
D11*
G36*
X129094849Y-70409693D02*
G01*
X129123338Y-70413919D01*
X129151275Y-70420917D01*
X129178392Y-70430620D01*
X129204427Y-70442933D01*
X129229130Y-70457740D01*
X129252263Y-70474896D01*
X129273603Y-70494237D01*
X129292944Y-70515577D01*
X129310100Y-70538710D01*
X129324907Y-70563413D01*
X129337220Y-70589448D01*
X129346923Y-70616565D01*
X129353921Y-70644502D01*
X129358147Y-70672991D01*
X129359560Y-70701757D01*
X129359560Y-71464803D01*
X129358147Y-71493569D01*
X129353921Y-71522058D01*
X129346923Y-71549995D01*
X129337220Y-71577112D01*
X129324907Y-71603147D01*
X129310100Y-71627850D01*
X129292944Y-71650983D01*
X129273603Y-71672323D01*
X129252263Y-71691664D01*
X129229130Y-71708820D01*
X129204427Y-71723627D01*
X129178392Y-71735940D01*
X129151275Y-71745643D01*
X129123338Y-71752641D01*
X129094849Y-71756867D01*
X129066083Y-71758280D01*
X128053037Y-71758280D01*
X128024271Y-71756867D01*
X127995782Y-71752641D01*
X127967845Y-71745643D01*
X127940728Y-71735940D01*
X127914693Y-71723627D01*
X127889990Y-71708820D01*
X127866857Y-71691664D01*
X127845517Y-71672323D01*
X127826176Y-71650983D01*
X127809020Y-71627850D01*
X127794213Y-71603147D01*
X127781900Y-71577112D01*
X127772197Y-71549995D01*
X127765199Y-71522058D01*
X127760973Y-71493569D01*
X127759560Y-71464803D01*
X127759560Y-70701757D01*
X127760973Y-70672991D01*
X127765199Y-70644502D01*
X127772197Y-70616565D01*
X127781900Y-70589448D01*
X127794213Y-70563413D01*
X127809020Y-70538710D01*
X127826176Y-70515577D01*
X127845517Y-70494237D01*
X127866857Y-70474896D01*
X127889990Y-70457740D01*
X127914693Y-70442933D01*
X127940728Y-70430620D01*
X127967845Y-70420917D01*
X127995782Y-70413919D01*
X128024271Y-70409693D01*
X128053037Y-70408280D01*
X129066083Y-70408280D01*
X129094849Y-70409693D01*
X129094849Y-70409693D01*
G37*
D19*
X128559560Y-71083280D03*
D11*
G36*
X129094849Y-68359693D02*
G01*
X129123338Y-68363919D01*
X129151275Y-68370917D01*
X129178392Y-68380620D01*
X129204427Y-68392933D01*
X129229130Y-68407740D01*
X129252263Y-68424896D01*
X129273603Y-68444237D01*
X129292944Y-68465577D01*
X129310100Y-68488710D01*
X129324907Y-68513413D01*
X129337220Y-68539448D01*
X129346923Y-68566565D01*
X129353921Y-68594502D01*
X129358147Y-68622991D01*
X129359560Y-68651757D01*
X129359560Y-69414803D01*
X129358147Y-69443569D01*
X129353921Y-69472058D01*
X129346923Y-69499995D01*
X129337220Y-69527112D01*
X129324907Y-69553147D01*
X129310100Y-69577850D01*
X129292944Y-69600983D01*
X129273603Y-69622323D01*
X129252263Y-69641664D01*
X129229130Y-69658820D01*
X129204427Y-69673627D01*
X129178392Y-69685940D01*
X129151275Y-69695643D01*
X129123338Y-69702641D01*
X129094849Y-69706867D01*
X129066083Y-69708280D01*
X128053037Y-69708280D01*
X128024271Y-69706867D01*
X127995782Y-69702641D01*
X127967845Y-69695643D01*
X127940728Y-69685940D01*
X127914693Y-69673627D01*
X127889990Y-69658820D01*
X127866857Y-69641664D01*
X127845517Y-69622323D01*
X127826176Y-69600983D01*
X127809020Y-69577850D01*
X127794213Y-69553147D01*
X127781900Y-69527112D01*
X127772197Y-69499995D01*
X127765199Y-69472058D01*
X127760973Y-69443569D01*
X127759560Y-69414803D01*
X127759560Y-68651757D01*
X127760973Y-68622991D01*
X127765199Y-68594502D01*
X127772197Y-68566565D01*
X127781900Y-68539448D01*
X127794213Y-68513413D01*
X127809020Y-68488710D01*
X127826176Y-68465577D01*
X127845517Y-68444237D01*
X127866857Y-68424896D01*
X127889990Y-68407740D01*
X127914693Y-68392933D01*
X127940728Y-68380620D01*
X127967845Y-68370917D01*
X127995782Y-68363919D01*
X128024271Y-68359693D01*
X128053037Y-68358280D01*
X129066083Y-68358280D01*
X129094849Y-68359693D01*
X129094849Y-68359693D01*
G37*
D19*
X128559560Y-69033280D03*
D11*
G36*
X117838409Y-70892913D02*
G01*
X117866898Y-70897139D01*
X117894835Y-70904137D01*
X117921952Y-70913840D01*
X117947987Y-70926153D01*
X117972690Y-70940960D01*
X117995823Y-70958116D01*
X118017163Y-70977457D01*
X118036504Y-70998797D01*
X118053660Y-71021930D01*
X118068467Y-71046633D01*
X118080780Y-71072668D01*
X118090483Y-71099785D01*
X118097481Y-71127722D01*
X118101707Y-71156211D01*
X118103120Y-71184977D01*
X118103120Y-72198023D01*
X118101707Y-72226789D01*
X118097481Y-72255278D01*
X118090483Y-72283215D01*
X118080780Y-72310332D01*
X118068467Y-72336367D01*
X118053660Y-72361070D01*
X118036504Y-72384203D01*
X118017163Y-72405543D01*
X117995823Y-72424884D01*
X117972690Y-72442040D01*
X117947987Y-72456847D01*
X117921952Y-72469160D01*
X117894835Y-72478863D01*
X117866898Y-72485861D01*
X117838409Y-72490087D01*
X117809643Y-72491500D01*
X117046597Y-72491500D01*
X117017831Y-72490087D01*
X116989342Y-72485861D01*
X116961405Y-72478863D01*
X116934288Y-72469160D01*
X116908253Y-72456847D01*
X116883550Y-72442040D01*
X116860417Y-72424884D01*
X116839077Y-72405543D01*
X116819736Y-72384203D01*
X116802580Y-72361070D01*
X116787773Y-72336367D01*
X116775460Y-72310332D01*
X116765757Y-72283215D01*
X116758759Y-72255278D01*
X116754533Y-72226789D01*
X116753120Y-72198023D01*
X116753120Y-71184977D01*
X116754533Y-71156211D01*
X116758759Y-71127722D01*
X116765757Y-71099785D01*
X116775460Y-71072668D01*
X116787773Y-71046633D01*
X116802580Y-71021930D01*
X116819736Y-70998797D01*
X116839077Y-70977457D01*
X116860417Y-70958116D01*
X116883550Y-70940960D01*
X116908253Y-70926153D01*
X116934288Y-70913840D01*
X116961405Y-70904137D01*
X116989342Y-70897139D01*
X117017831Y-70892913D01*
X117046597Y-70891500D01*
X117809643Y-70891500D01*
X117838409Y-70892913D01*
X117838409Y-70892913D01*
G37*
D19*
X117428120Y-71691500D03*
D11*
G36*
X115788409Y-70892913D02*
G01*
X115816898Y-70897139D01*
X115844835Y-70904137D01*
X115871952Y-70913840D01*
X115897987Y-70926153D01*
X115922690Y-70940960D01*
X115945823Y-70958116D01*
X115967163Y-70977457D01*
X115986504Y-70998797D01*
X116003660Y-71021930D01*
X116018467Y-71046633D01*
X116030780Y-71072668D01*
X116040483Y-71099785D01*
X116047481Y-71127722D01*
X116051707Y-71156211D01*
X116053120Y-71184977D01*
X116053120Y-72198023D01*
X116051707Y-72226789D01*
X116047481Y-72255278D01*
X116040483Y-72283215D01*
X116030780Y-72310332D01*
X116018467Y-72336367D01*
X116003660Y-72361070D01*
X115986504Y-72384203D01*
X115967163Y-72405543D01*
X115945823Y-72424884D01*
X115922690Y-72442040D01*
X115897987Y-72456847D01*
X115871952Y-72469160D01*
X115844835Y-72478863D01*
X115816898Y-72485861D01*
X115788409Y-72490087D01*
X115759643Y-72491500D01*
X114996597Y-72491500D01*
X114967831Y-72490087D01*
X114939342Y-72485861D01*
X114911405Y-72478863D01*
X114884288Y-72469160D01*
X114858253Y-72456847D01*
X114833550Y-72442040D01*
X114810417Y-72424884D01*
X114789077Y-72405543D01*
X114769736Y-72384203D01*
X114752580Y-72361070D01*
X114737773Y-72336367D01*
X114725460Y-72310332D01*
X114715757Y-72283215D01*
X114708759Y-72255278D01*
X114704533Y-72226789D01*
X114703120Y-72198023D01*
X114703120Y-71184977D01*
X114704533Y-71156211D01*
X114708759Y-71127722D01*
X114715757Y-71099785D01*
X114725460Y-71072668D01*
X114737773Y-71046633D01*
X114752580Y-71021930D01*
X114769736Y-70998797D01*
X114789077Y-70977457D01*
X114810417Y-70958116D01*
X114833550Y-70940960D01*
X114858253Y-70926153D01*
X114884288Y-70913840D01*
X114911405Y-70904137D01*
X114939342Y-70897139D01*
X114967831Y-70892913D01*
X114996597Y-70891500D01*
X115759643Y-70891500D01*
X115788409Y-70892913D01*
X115788409Y-70892913D01*
G37*
D19*
X115378120Y-71691500D03*
D11*
G36*
X117795229Y-68604373D02*
G01*
X117823718Y-68608599D01*
X117851655Y-68615597D01*
X117878772Y-68625300D01*
X117904807Y-68637613D01*
X117929510Y-68652420D01*
X117952643Y-68669576D01*
X117973983Y-68688917D01*
X117993324Y-68710257D01*
X118010480Y-68733390D01*
X118025287Y-68758093D01*
X118037600Y-68784128D01*
X118047303Y-68811245D01*
X118054301Y-68839182D01*
X118058527Y-68867671D01*
X118059940Y-68896437D01*
X118059940Y-69909483D01*
X118058527Y-69938249D01*
X118054301Y-69966738D01*
X118047303Y-69994675D01*
X118037600Y-70021792D01*
X118025287Y-70047827D01*
X118010480Y-70072530D01*
X117993324Y-70095663D01*
X117973983Y-70117003D01*
X117952643Y-70136344D01*
X117929510Y-70153500D01*
X117904807Y-70168307D01*
X117878772Y-70180620D01*
X117851655Y-70190323D01*
X117823718Y-70197321D01*
X117795229Y-70201547D01*
X117766463Y-70202960D01*
X117003417Y-70202960D01*
X116974651Y-70201547D01*
X116946162Y-70197321D01*
X116918225Y-70190323D01*
X116891108Y-70180620D01*
X116865073Y-70168307D01*
X116840370Y-70153500D01*
X116817237Y-70136344D01*
X116795897Y-70117003D01*
X116776556Y-70095663D01*
X116759400Y-70072530D01*
X116744593Y-70047827D01*
X116732280Y-70021792D01*
X116722577Y-69994675D01*
X116715579Y-69966738D01*
X116711353Y-69938249D01*
X116709940Y-69909483D01*
X116709940Y-68896437D01*
X116711353Y-68867671D01*
X116715579Y-68839182D01*
X116722577Y-68811245D01*
X116732280Y-68784128D01*
X116744593Y-68758093D01*
X116759400Y-68733390D01*
X116776556Y-68710257D01*
X116795897Y-68688917D01*
X116817237Y-68669576D01*
X116840370Y-68652420D01*
X116865073Y-68637613D01*
X116891108Y-68625300D01*
X116918225Y-68615597D01*
X116946162Y-68608599D01*
X116974651Y-68604373D01*
X117003417Y-68602960D01*
X117766463Y-68602960D01*
X117795229Y-68604373D01*
X117795229Y-68604373D01*
G37*
D19*
X117384940Y-69402960D03*
D11*
G36*
X115745229Y-68604373D02*
G01*
X115773718Y-68608599D01*
X115801655Y-68615597D01*
X115828772Y-68625300D01*
X115854807Y-68637613D01*
X115879510Y-68652420D01*
X115902643Y-68669576D01*
X115923983Y-68688917D01*
X115943324Y-68710257D01*
X115960480Y-68733390D01*
X115975287Y-68758093D01*
X115987600Y-68784128D01*
X115997303Y-68811245D01*
X116004301Y-68839182D01*
X116008527Y-68867671D01*
X116009940Y-68896437D01*
X116009940Y-69909483D01*
X116008527Y-69938249D01*
X116004301Y-69966738D01*
X115997303Y-69994675D01*
X115987600Y-70021792D01*
X115975287Y-70047827D01*
X115960480Y-70072530D01*
X115943324Y-70095663D01*
X115923983Y-70117003D01*
X115902643Y-70136344D01*
X115879510Y-70153500D01*
X115854807Y-70168307D01*
X115828772Y-70180620D01*
X115801655Y-70190323D01*
X115773718Y-70197321D01*
X115745229Y-70201547D01*
X115716463Y-70202960D01*
X114953417Y-70202960D01*
X114924651Y-70201547D01*
X114896162Y-70197321D01*
X114868225Y-70190323D01*
X114841108Y-70180620D01*
X114815073Y-70168307D01*
X114790370Y-70153500D01*
X114767237Y-70136344D01*
X114745897Y-70117003D01*
X114726556Y-70095663D01*
X114709400Y-70072530D01*
X114694593Y-70047827D01*
X114682280Y-70021792D01*
X114672577Y-69994675D01*
X114665579Y-69966738D01*
X114661353Y-69938249D01*
X114659940Y-69909483D01*
X114659940Y-68896437D01*
X114661353Y-68867671D01*
X114665579Y-68839182D01*
X114672577Y-68811245D01*
X114682280Y-68784128D01*
X114694593Y-68758093D01*
X114709400Y-68733390D01*
X114726556Y-68710257D01*
X114745897Y-68688917D01*
X114767237Y-68669576D01*
X114790370Y-68652420D01*
X114815073Y-68637613D01*
X114841108Y-68625300D01*
X114868225Y-68615597D01*
X114896162Y-68608599D01*
X114924651Y-68604373D01*
X114953417Y-68602960D01*
X115716463Y-68602960D01*
X115745229Y-68604373D01*
X115745229Y-68604373D01*
G37*
D19*
X115334940Y-69402960D03*
D20*
X90684220Y-82539840D03*
X93684220Y-83489840D03*
X93684220Y-81589840D03*
D11*
G36*
X97064723Y-85112203D02*
G01*
X97084138Y-85115083D01*
X97103177Y-85119852D01*
X97121657Y-85126464D01*
X97139399Y-85134856D01*
X97156234Y-85144946D01*
X97171999Y-85156638D01*
X97186541Y-85169819D01*
X97199722Y-85184361D01*
X97211414Y-85200126D01*
X97221504Y-85216961D01*
X97229896Y-85234703D01*
X97236508Y-85253183D01*
X97241277Y-85272222D01*
X97244157Y-85291637D01*
X97245120Y-85311240D01*
X97245120Y-87061240D01*
X97244157Y-87080843D01*
X97241277Y-87100258D01*
X97236508Y-87119297D01*
X97229896Y-87137777D01*
X97221504Y-87155519D01*
X97211414Y-87172354D01*
X97199722Y-87188119D01*
X97186541Y-87202661D01*
X97171999Y-87215842D01*
X97156234Y-87227534D01*
X97139399Y-87237624D01*
X97121657Y-87246016D01*
X97103177Y-87252628D01*
X97084138Y-87257397D01*
X97064723Y-87260277D01*
X97045120Y-87261240D01*
X96645120Y-87261240D01*
X96625517Y-87260277D01*
X96606102Y-87257397D01*
X96587063Y-87252628D01*
X96568583Y-87246016D01*
X96550841Y-87237624D01*
X96534006Y-87227534D01*
X96518241Y-87215842D01*
X96503699Y-87202661D01*
X96490518Y-87188119D01*
X96478826Y-87172354D01*
X96468736Y-87155519D01*
X96460344Y-87137777D01*
X96453732Y-87119297D01*
X96448963Y-87100258D01*
X96446083Y-87080843D01*
X96445120Y-87061240D01*
X96445120Y-85311240D01*
X96446083Y-85291637D01*
X96448963Y-85272222D01*
X96453732Y-85253183D01*
X96460344Y-85234703D01*
X96468736Y-85216961D01*
X96478826Y-85200126D01*
X96490518Y-85184361D01*
X96503699Y-85169819D01*
X96518241Y-85156638D01*
X96534006Y-85144946D01*
X96550841Y-85134856D01*
X96568583Y-85126464D01*
X96587063Y-85119852D01*
X96606102Y-85115083D01*
X96625517Y-85112203D01*
X96645120Y-85111240D01*
X97045120Y-85111240D01*
X97064723Y-85112203D01*
X97064723Y-85112203D01*
G37*
D17*
X96845120Y-86186240D03*
D11*
G36*
X95794723Y-85112203D02*
G01*
X95814138Y-85115083D01*
X95833177Y-85119852D01*
X95851657Y-85126464D01*
X95869399Y-85134856D01*
X95886234Y-85144946D01*
X95901999Y-85156638D01*
X95916541Y-85169819D01*
X95929722Y-85184361D01*
X95941414Y-85200126D01*
X95951504Y-85216961D01*
X95959896Y-85234703D01*
X95966508Y-85253183D01*
X95971277Y-85272222D01*
X95974157Y-85291637D01*
X95975120Y-85311240D01*
X95975120Y-87061240D01*
X95974157Y-87080843D01*
X95971277Y-87100258D01*
X95966508Y-87119297D01*
X95959896Y-87137777D01*
X95951504Y-87155519D01*
X95941414Y-87172354D01*
X95929722Y-87188119D01*
X95916541Y-87202661D01*
X95901999Y-87215842D01*
X95886234Y-87227534D01*
X95869399Y-87237624D01*
X95851657Y-87246016D01*
X95833177Y-87252628D01*
X95814138Y-87257397D01*
X95794723Y-87260277D01*
X95775120Y-87261240D01*
X95375120Y-87261240D01*
X95355517Y-87260277D01*
X95336102Y-87257397D01*
X95317063Y-87252628D01*
X95298583Y-87246016D01*
X95280841Y-87237624D01*
X95264006Y-87227534D01*
X95248241Y-87215842D01*
X95233699Y-87202661D01*
X95220518Y-87188119D01*
X95208826Y-87172354D01*
X95198736Y-87155519D01*
X95190344Y-87137777D01*
X95183732Y-87119297D01*
X95178963Y-87100258D01*
X95176083Y-87080843D01*
X95175120Y-87061240D01*
X95175120Y-85311240D01*
X95176083Y-85291637D01*
X95178963Y-85272222D01*
X95183732Y-85253183D01*
X95190344Y-85234703D01*
X95198736Y-85216961D01*
X95208826Y-85200126D01*
X95220518Y-85184361D01*
X95233699Y-85169819D01*
X95248241Y-85156638D01*
X95264006Y-85144946D01*
X95280841Y-85134856D01*
X95298583Y-85126464D01*
X95317063Y-85119852D01*
X95336102Y-85115083D01*
X95355517Y-85112203D01*
X95375120Y-85111240D01*
X95775120Y-85111240D01*
X95794723Y-85112203D01*
X95794723Y-85112203D01*
G37*
D17*
X95575120Y-86186240D03*
D11*
G36*
X94524723Y-85112203D02*
G01*
X94544138Y-85115083D01*
X94563177Y-85119852D01*
X94581657Y-85126464D01*
X94599399Y-85134856D01*
X94616234Y-85144946D01*
X94631999Y-85156638D01*
X94646541Y-85169819D01*
X94659722Y-85184361D01*
X94671414Y-85200126D01*
X94681504Y-85216961D01*
X94689896Y-85234703D01*
X94696508Y-85253183D01*
X94701277Y-85272222D01*
X94704157Y-85291637D01*
X94705120Y-85311240D01*
X94705120Y-87061240D01*
X94704157Y-87080843D01*
X94701277Y-87100258D01*
X94696508Y-87119297D01*
X94689896Y-87137777D01*
X94681504Y-87155519D01*
X94671414Y-87172354D01*
X94659722Y-87188119D01*
X94646541Y-87202661D01*
X94631999Y-87215842D01*
X94616234Y-87227534D01*
X94599399Y-87237624D01*
X94581657Y-87246016D01*
X94563177Y-87252628D01*
X94544138Y-87257397D01*
X94524723Y-87260277D01*
X94505120Y-87261240D01*
X94105120Y-87261240D01*
X94085517Y-87260277D01*
X94066102Y-87257397D01*
X94047063Y-87252628D01*
X94028583Y-87246016D01*
X94010841Y-87237624D01*
X93994006Y-87227534D01*
X93978241Y-87215842D01*
X93963699Y-87202661D01*
X93950518Y-87188119D01*
X93938826Y-87172354D01*
X93928736Y-87155519D01*
X93920344Y-87137777D01*
X93913732Y-87119297D01*
X93908963Y-87100258D01*
X93906083Y-87080843D01*
X93905120Y-87061240D01*
X93905120Y-85311240D01*
X93906083Y-85291637D01*
X93908963Y-85272222D01*
X93913732Y-85253183D01*
X93920344Y-85234703D01*
X93928736Y-85216961D01*
X93938826Y-85200126D01*
X93950518Y-85184361D01*
X93963699Y-85169819D01*
X93978241Y-85156638D01*
X93994006Y-85144946D01*
X94010841Y-85134856D01*
X94028583Y-85126464D01*
X94047063Y-85119852D01*
X94066102Y-85115083D01*
X94085517Y-85112203D01*
X94105120Y-85111240D01*
X94505120Y-85111240D01*
X94524723Y-85112203D01*
X94524723Y-85112203D01*
G37*
D17*
X94305120Y-86186240D03*
D11*
G36*
X93254723Y-85112203D02*
G01*
X93274138Y-85115083D01*
X93293177Y-85119852D01*
X93311657Y-85126464D01*
X93329399Y-85134856D01*
X93346234Y-85144946D01*
X93361999Y-85156638D01*
X93376541Y-85169819D01*
X93389722Y-85184361D01*
X93401414Y-85200126D01*
X93411504Y-85216961D01*
X93419896Y-85234703D01*
X93426508Y-85253183D01*
X93431277Y-85272222D01*
X93434157Y-85291637D01*
X93435120Y-85311240D01*
X93435120Y-87061240D01*
X93434157Y-87080843D01*
X93431277Y-87100258D01*
X93426508Y-87119297D01*
X93419896Y-87137777D01*
X93411504Y-87155519D01*
X93401414Y-87172354D01*
X93389722Y-87188119D01*
X93376541Y-87202661D01*
X93361999Y-87215842D01*
X93346234Y-87227534D01*
X93329399Y-87237624D01*
X93311657Y-87246016D01*
X93293177Y-87252628D01*
X93274138Y-87257397D01*
X93254723Y-87260277D01*
X93235120Y-87261240D01*
X92835120Y-87261240D01*
X92815517Y-87260277D01*
X92796102Y-87257397D01*
X92777063Y-87252628D01*
X92758583Y-87246016D01*
X92740841Y-87237624D01*
X92724006Y-87227534D01*
X92708241Y-87215842D01*
X92693699Y-87202661D01*
X92680518Y-87188119D01*
X92668826Y-87172354D01*
X92658736Y-87155519D01*
X92650344Y-87137777D01*
X92643732Y-87119297D01*
X92638963Y-87100258D01*
X92636083Y-87080843D01*
X92635120Y-87061240D01*
X92635120Y-85311240D01*
X92636083Y-85291637D01*
X92638963Y-85272222D01*
X92643732Y-85253183D01*
X92650344Y-85234703D01*
X92658736Y-85216961D01*
X92668826Y-85200126D01*
X92680518Y-85184361D01*
X92693699Y-85169819D01*
X92708241Y-85156638D01*
X92724006Y-85144946D01*
X92740841Y-85134856D01*
X92758583Y-85126464D01*
X92777063Y-85119852D01*
X92796102Y-85115083D01*
X92815517Y-85112203D01*
X92835120Y-85111240D01*
X93235120Y-85111240D01*
X93254723Y-85112203D01*
X93254723Y-85112203D01*
G37*
D17*
X93035120Y-86186240D03*
D11*
G36*
X93254723Y-90062203D02*
G01*
X93274138Y-90065083D01*
X93293177Y-90069852D01*
X93311657Y-90076464D01*
X93329399Y-90084856D01*
X93346234Y-90094946D01*
X93361999Y-90106638D01*
X93376541Y-90119819D01*
X93389722Y-90134361D01*
X93401414Y-90150126D01*
X93411504Y-90166961D01*
X93419896Y-90184703D01*
X93426508Y-90203183D01*
X93431277Y-90222222D01*
X93434157Y-90241637D01*
X93435120Y-90261240D01*
X93435120Y-92011240D01*
X93434157Y-92030843D01*
X93431277Y-92050258D01*
X93426508Y-92069297D01*
X93419896Y-92087777D01*
X93411504Y-92105519D01*
X93401414Y-92122354D01*
X93389722Y-92138119D01*
X93376541Y-92152661D01*
X93361999Y-92165842D01*
X93346234Y-92177534D01*
X93329399Y-92187624D01*
X93311657Y-92196016D01*
X93293177Y-92202628D01*
X93274138Y-92207397D01*
X93254723Y-92210277D01*
X93235120Y-92211240D01*
X92835120Y-92211240D01*
X92815517Y-92210277D01*
X92796102Y-92207397D01*
X92777063Y-92202628D01*
X92758583Y-92196016D01*
X92740841Y-92187624D01*
X92724006Y-92177534D01*
X92708241Y-92165842D01*
X92693699Y-92152661D01*
X92680518Y-92138119D01*
X92668826Y-92122354D01*
X92658736Y-92105519D01*
X92650344Y-92087777D01*
X92643732Y-92069297D01*
X92638963Y-92050258D01*
X92636083Y-92030843D01*
X92635120Y-92011240D01*
X92635120Y-90261240D01*
X92636083Y-90241637D01*
X92638963Y-90222222D01*
X92643732Y-90203183D01*
X92650344Y-90184703D01*
X92658736Y-90166961D01*
X92668826Y-90150126D01*
X92680518Y-90134361D01*
X92693699Y-90119819D01*
X92708241Y-90106638D01*
X92724006Y-90094946D01*
X92740841Y-90084856D01*
X92758583Y-90076464D01*
X92777063Y-90069852D01*
X92796102Y-90065083D01*
X92815517Y-90062203D01*
X92835120Y-90061240D01*
X93235120Y-90061240D01*
X93254723Y-90062203D01*
X93254723Y-90062203D01*
G37*
D17*
X93035120Y-91136240D03*
D11*
G36*
X94524723Y-90062203D02*
G01*
X94544138Y-90065083D01*
X94563177Y-90069852D01*
X94581657Y-90076464D01*
X94599399Y-90084856D01*
X94616234Y-90094946D01*
X94631999Y-90106638D01*
X94646541Y-90119819D01*
X94659722Y-90134361D01*
X94671414Y-90150126D01*
X94681504Y-90166961D01*
X94689896Y-90184703D01*
X94696508Y-90203183D01*
X94701277Y-90222222D01*
X94704157Y-90241637D01*
X94705120Y-90261240D01*
X94705120Y-92011240D01*
X94704157Y-92030843D01*
X94701277Y-92050258D01*
X94696508Y-92069297D01*
X94689896Y-92087777D01*
X94681504Y-92105519D01*
X94671414Y-92122354D01*
X94659722Y-92138119D01*
X94646541Y-92152661D01*
X94631999Y-92165842D01*
X94616234Y-92177534D01*
X94599399Y-92187624D01*
X94581657Y-92196016D01*
X94563177Y-92202628D01*
X94544138Y-92207397D01*
X94524723Y-92210277D01*
X94505120Y-92211240D01*
X94105120Y-92211240D01*
X94085517Y-92210277D01*
X94066102Y-92207397D01*
X94047063Y-92202628D01*
X94028583Y-92196016D01*
X94010841Y-92187624D01*
X93994006Y-92177534D01*
X93978241Y-92165842D01*
X93963699Y-92152661D01*
X93950518Y-92138119D01*
X93938826Y-92122354D01*
X93928736Y-92105519D01*
X93920344Y-92087777D01*
X93913732Y-92069297D01*
X93908963Y-92050258D01*
X93906083Y-92030843D01*
X93905120Y-92011240D01*
X93905120Y-90261240D01*
X93906083Y-90241637D01*
X93908963Y-90222222D01*
X93913732Y-90203183D01*
X93920344Y-90184703D01*
X93928736Y-90166961D01*
X93938826Y-90150126D01*
X93950518Y-90134361D01*
X93963699Y-90119819D01*
X93978241Y-90106638D01*
X93994006Y-90094946D01*
X94010841Y-90084856D01*
X94028583Y-90076464D01*
X94047063Y-90069852D01*
X94066102Y-90065083D01*
X94085517Y-90062203D01*
X94105120Y-90061240D01*
X94505120Y-90061240D01*
X94524723Y-90062203D01*
X94524723Y-90062203D01*
G37*
D17*
X94305120Y-91136240D03*
D11*
G36*
X95794723Y-90062203D02*
G01*
X95814138Y-90065083D01*
X95833177Y-90069852D01*
X95851657Y-90076464D01*
X95869399Y-90084856D01*
X95886234Y-90094946D01*
X95901999Y-90106638D01*
X95916541Y-90119819D01*
X95929722Y-90134361D01*
X95941414Y-90150126D01*
X95951504Y-90166961D01*
X95959896Y-90184703D01*
X95966508Y-90203183D01*
X95971277Y-90222222D01*
X95974157Y-90241637D01*
X95975120Y-90261240D01*
X95975120Y-92011240D01*
X95974157Y-92030843D01*
X95971277Y-92050258D01*
X95966508Y-92069297D01*
X95959896Y-92087777D01*
X95951504Y-92105519D01*
X95941414Y-92122354D01*
X95929722Y-92138119D01*
X95916541Y-92152661D01*
X95901999Y-92165842D01*
X95886234Y-92177534D01*
X95869399Y-92187624D01*
X95851657Y-92196016D01*
X95833177Y-92202628D01*
X95814138Y-92207397D01*
X95794723Y-92210277D01*
X95775120Y-92211240D01*
X95375120Y-92211240D01*
X95355517Y-92210277D01*
X95336102Y-92207397D01*
X95317063Y-92202628D01*
X95298583Y-92196016D01*
X95280841Y-92187624D01*
X95264006Y-92177534D01*
X95248241Y-92165842D01*
X95233699Y-92152661D01*
X95220518Y-92138119D01*
X95208826Y-92122354D01*
X95198736Y-92105519D01*
X95190344Y-92087777D01*
X95183732Y-92069297D01*
X95178963Y-92050258D01*
X95176083Y-92030843D01*
X95175120Y-92011240D01*
X95175120Y-90261240D01*
X95176083Y-90241637D01*
X95178963Y-90222222D01*
X95183732Y-90203183D01*
X95190344Y-90184703D01*
X95198736Y-90166961D01*
X95208826Y-90150126D01*
X95220518Y-90134361D01*
X95233699Y-90119819D01*
X95248241Y-90106638D01*
X95264006Y-90094946D01*
X95280841Y-90084856D01*
X95298583Y-90076464D01*
X95317063Y-90069852D01*
X95336102Y-90065083D01*
X95355517Y-90062203D01*
X95375120Y-90061240D01*
X95775120Y-90061240D01*
X95794723Y-90062203D01*
X95794723Y-90062203D01*
G37*
D17*
X95575120Y-91136240D03*
D11*
G36*
X97064723Y-90062203D02*
G01*
X97084138Y-90065083D01*
X97103177Y-90069852D01*
X97121657Y-90076464D01*
X97139399Y-90084856D01*
X97156234Y-90094946D01*
X97171999Y-90106638D01*
X97186541Y-90119819D01*
X97199722Y-90134361D01*
X97211414Y-90150126D01*
X97221504Y-90166961D01*
X97229896Y-90184703D01*
X97236508Y-90203183D01*
X97241277Y-90222222D01*
X97244157Y-90241637D01*
X97245120Y-90261240D01*
X97245120Y-92011240D01*
X97244157Y-92030843D01*
X97241277Y-92050258D01*
X97236508Y-92069297D01*
X97229896Y-92087777D01*
X97221504Y-92105519D01*
X97211414Y-92122354D01*
X97199722Y-92138119D01*
X97186541Y-92152661D01*
X97171999Y-92165842D01*
X97156234Y-92177534D01*
X97139399Y-92187624D01*
X97121657Y-92196016D01*
X97103177Y-92202628D01*
X97084138Y-92207397D01*
X97064723Y-92210277D01*
X97045120Y-92211240D01*
X96645120Y-92211240D01*
X96625517Y-92210277D01*
X96606102Y-92207397D01*
X96587063Y-92202628D01*
X96568583Y-92196016D01*
X96550841Y-92187624D01*
X96534006Y-92177534D01*
X96518241Y-92165842D01*
X96503699Y-92152661D01*
X96490518Y-92138119D01*
X96478826Y-92122354D01*
X96468736Y-92105519D01*
X96460344Y-92087777D01*
X96453732Y-92069297D01*
X96448963Y-92050258D01*
X96446083Y-92030843D01*
X96445120Y-92011240D01*
X96445120Y-90261240D01*
X96446083Y-90241637D01*
X96448963Y-90222222D01*
X96453732Y-90203183D01*
X96460344Y-90184703D01*
X96468736Y-90166961D01*
X96478826Y-90150126D01*
X96490518Y-90134361D01*
X96503699Y-90119819D01*
X96518241Y-90106638D01*
X96534006Y-90094946D01*
X96550841Y-90084856D01*
X96568583Y-90076464D01*
X96587063Y-90069852D01*
X96606102Y-90065083D01*
X96625517Y-90062203D01*
X96645120Y-90061240D01*
X97045120Y-90061240D01*
X97064723Y-90062203D01*
X97064723Y-90062203D01*
G37*
D17*
X96845120Y-91136240D03*
D11*
G36*
X110674043Y-108282083D02*
G01*
X110693458Y-108284963D01*
X110712497Y-108289732D01*
X110730977Y-108296344D01*
X110748719Y-108304736D01*
X110765554Y-108314826D01*
X110781319Y-108326518D01*
X110795861Y-108339699D01*
X110809042Y-108354241D01*
X110820734Y-108370006D01*
X110830824Y-108386841D01*
X110839216Y-108404583D01*
X110845828Y-108423063D01*
X110850597Y-108442102D01*
X110853477Y-108461517D01*
X110854440Y-108481120D01*
X110854440Y-110231120D01*
X110853477Y-110250723D01*
X110850597Y-110270138D01*
X110845828Y-110289177D01*
X110839216Y-110307657D01*
X110830824Y-110325399D01*
X110820734Y-110342234D01*
X110809042Y-110357999D01*
X110795861Y-110372541D01*
X110781319Y-110385722D01*
X110765554Y-110397414D01*
X110748719Y-110407504D01*
X110730977Y-110415896D01*
X110712497Y-110422508D01*
X110693458Y-110427277D01*
X110674043Y-110430157D01*
X110654440Y-110431120D01*
X110254440Y-110431120D01*
X110234837Y-110430157D01*
X110215422Y-110427277D01*
X110196383Y-110422508D01*
X110177903Y-110415896D01*
X110160161Y-110407504D01*
X110143326Y-110397414D01*
X110127561Y-110385722D01*
X110113019Y-110372541D01*
X110099838Y-110357999D01*
X110088146Y-110342234D01*
X110078056Y-110325399D01*
X110069664Y-110307657D01*
X110063052Y-110289177D01*
X110058283Y-110270138D01*
X110055403Y-110250723D01*
X110054440Y-110231120D01*
X110054440Y-108481120D01*
X110055403Y-108461517D01*
X110058283Y-108442102D01*
X110063052Y-108423063D01*
X110069664Y-108404583D01*
X110078056Y-108386841D01*
X110088146Y-108370006D01*
X110099838Y-108354241D01*
X110113019Y-108339699D01*
X110127561Y-108326518D01*
X110143326Y-108314826D01*
X110160161Y-108304736D01*
X110177903Y-108296344D01*
X110196383Y-108289732D01*
X110215422Y-108284963D01*
X110234837Y-108282083D01*
X110254440Y-108281120D01*
X110654440Y-108281120D01*
X110674043Y-108282083D01*
X110674043Y-108282083D01*
G37*
D17*
X110454440Y-109356120D03*
D11*
G36*
X109404043Y-108282083D02*
G01*
X109423458Y-108284963D01*
X109442497Y-108289732D01*
X109460977Y-108296344D01*
X109478719Y-108304736D01*
X109495554Y-108314826D01*
X109511319Y-108326518D01*
X109525861Y-108339699D01*
X109539042Y-108354241D01*
X109550734Y-108370006D01*
X109560824Y-108386841D01*
X109569216Y-108404583D01*
X109575828Y-108423063D01*
X109580597Y-108442102D01*
X109583477Y-108461517D01*
X109584440Y-108481120D01*
X109584440Y-110231120D01*
X109583477Y-110250723D01*
X109580597Y-110270138D01*
X109575828Y-110289177D01*
X109569216Y-110307657D01*
X109560824Y-110325399D01*
X109550734Y-110342234D01*
X109539042Y-110357999D01*
X109525861Y-110372541D01*
X109511319Y-110385722D01*
X109495554Y-110397414D01*
X109478719Y-110407504D01*
X109460977Y-110415896D01*
X109442497Y-110422508D01*
X109423458Y-110427277D01*
X109404043Y-110430157D01*
X109384440Y-110431120D01*
X108984440Y-110431120D01*
X108964837Y-110430157D01*
X108945422Y-110427277D01*
X108926383Y-110422508D01*
X108907903Y-110415896D01*
X108890161Y-110407504D01*
X108873326Y-110397414D01*
X108857561Y-110385722D01*
X108843019Y-110372541D01*
X108829838Y-110357999D01*
X108818146Y-110342234D01*
X108808056Y-110325399D01*
X108799664Y-110307657D01*
X108793052Y-110289177D01*
X108788283Y-110270138D01*
X108785403Y-110250723D01*
X108784440Y-110231120D01*
X108784440Y-108481120D01*
X108785403Y-108461517D01*
X108788283Y-108442102D01*
X108793052Y-108423063D01*
X108799664Y-108404583D01*
X108808056Y-108386841D01*
X108818146Y-108370006D01*
X108829838Y-108354241D01*
X108843019Y-108339699D01*
X108857561Y-108326518D01*
X108873326Y-108314826D01*
X108890161Y-108304736D01*
X108907903Y-108296344D01*
X108926383Y-108289732D01*
X108945422Y-108284963D01*
X108964837Y-108282083D01*
X108984440Y-108281120D01*
X109384440Y-108281120D01*
X109404043Y-108282083D01*
X109404043Y-108282083D01*
G37*
D17*
X109184440Y-109356120D03*
D11*
G36*
X108134043Y-108282083D02*
G01*
X108153458Y-108284963D01*
X108172497Y-108289732D01*
X108190977Y-108296344D01*
X108208719Y-108304736D01*
X108225554Y-108314826D01*
X108241319Y-108326518D01*
X108255861Y-108339699D01*
X108269042Y-108354241D01*
X108280734Y-108370006D01*
X108290824Y-108386841D01*
X108299216Y-108404583D01*
X108305828Y-108423063D01*
X108310597Y-108442102D01*
X108313477Y-108461517D01*
X108314440Y-108481120D01*
X108314440Y-110231120D01*
X108313477Y-110250723D01*
X108310597Y-110270138D01*
X108305828Y-110289177D01*
X108299216Y-110307657D01*
X108290824Y-110325399D01*
X108280734Y-110342234D01*
X108269042Y-110357999D01*
X108255861Y-110372541D01*
X108241319Y-110385722D01*
X108225554Y-110397414D01*
X108208719Y-110407504D01*
X108190977Y-110415896D01*
X108172497Y-110422508D01*
X108153458Y-110427277D01*
X108134043Y-110430157D01*
X108114440Y-110431120D01*
X107714440Y-110431120D01*
X107694837Y-110430157D01*
X107675422Y-110427277D01*
X107656383Y-110422508D01*
X107637903Y-110415896D01*
X107620161Y-110407504D01*
X107603326Y-110397414D01*
X107587561Y-110385722D01*
X107573019Y-110372541D01*
X107559838Y-110357999D01*
X107548146Y-110342234D01*
X107538056Y-110325399D01*
X107529664Y-110307657D01*
X107523052Y-110289177D01*
X107518283Y-110270138D01*
X107515403Y-110250723D01*
X107514440Y-110231120D01*
X107514440Y-108481120D01*
X107515403Y-108461517D01*
X107518283Y-108442102D01*
X107523052Y-108423063D01*
X107529664Y-108404583D01*
X107538056Y-108386841D01*
X107548146Y-108370006D01*
X107559838Y-108354241D01*
X107573019Y-108339699D01*
X107587561Y-108326518D01*
X107603326Y-108314826D01*
X107620161Y-108304736D01*
X107637903Y-108296344D01*
X107656383Y-108289732D01*
X107675422Y-108284963D01*
X107694837Y-108282083D01*
X107714440Y-108281120D01*
X108114440Y-108281120D01*
X108134043Y-108282083D01*
X108134043Y-108282083D01*
G37*
D17*
X107914440Y-109356120D03*
D11*
G36*
X106864043Y-108282083D02*
G01*
X106883458Y-108284963D01*
X106902497Y-108289732D01*
X106920977Y-108296344D01*
X106938719Y-108304736D01*
X106955554Y-108314826D01*
X106971319Y-108326518D01*
X106985861Y-108339699D01*
X106999042Y-108354241D01*
X107010734Y-108370006D01*
X107020824Y-108386841D01*
X107029216Y-108404583D01*
X107035828Y-108423063D01*
X107040597Y-108442102D01*
X107043477Y-108461517D01*
X107044440Y-108481120D01*
X107044440Y-110231120D01*
X107043477Y-110250723D01*
X107040597Y-110270138D01*
X107035828Y-110289177D01*
X107029216Y-110307657D01*
X107020824Y-110325399D01*
X107010734Y-110342234D01*
X106999042Y-110357999D01*
X106985861Y-110372541D01*
X106971319Y-110385722D01*
X106955554Y-110397414D01*
X106938719Y-110407504D01*
X106920977Y-110415896D01*
X106902497Y-110422508D01*
X106883458Y-110427277D01*
X106864043Y-110430157D01*
X106844440Y-110431120D01*
X106444440Y-110431120D01*
X106424837Y-110430157D01*
X106405422Y-110427277D01*
X106386383Y-110422508D01*
X106367903Y-110415896D01*
X106350161Y-110407504D01*
X106333326Y-110397414D01*
X106317561Y-110385722D01*
X106303019Y-110372541D01*
X106289838Y-110357999D01*
X106278146Y-110342234D01*
X106268056Y-110325399D01*
X106259664Y-110307657D01*
X106253052Y-110289177D01*
X106248283Y-110270138D01*
X106245403Y-110250723D01*
X106244440Y-110231120D01*
X106244440Y-108481120D01*
X106245403Y-108461517D01*
X106248283Y-108442102D01*
X106253052Y-108423063D01*
X106259664Y-108404583D01*
X106268056Y-108386841D01*
X106278146Y-108370006D01*
X106289838Y-108354241D01*
X106303019Y-108339699D01*
X106317561Y-108326518D01*
X106333326Y-108314826D01*
X106350161Y-108304736D01*
X106367903Y-108296344D01*
X106386383Y-108289732D01*
X106405422Y-108284963D01*
X106424837Y-108282083D01*
X106444440Y-108281120D01*
X106844440Y-108281120D01*
X106864043Y-108282083D01*
X106864043Y-108282083D01*
G37*
D17*
X106644440Y-109356120D03*
D11*
G36*
X106864043Y-113232083D02*
G01*
X106883458Y-113234963D01*
X106902497Y-113239732D01*
X106920977Y-113246344D01*
X106938719Y-113254736D01*
X106955554Y-113264826D01*
X106971319Y-113276518D01*
X106985861Y-113289699D01*
X106999042Y-113304241D01*
X107010734Y-113320006D01*
X107020824Y-113336841D01*
X107029216Y-113354583D01*
X107035828Y-113373063D01*
X107040597Y-113392102D01*
X107043477Y-113411517D01*
X107044440Y-113431120D01*
X107044440Y-115181120D01*
X107043477Y-115200723D01*
X107040597Y-115220138D01*
X107035828Y-115239177D01*
X107029216Y-115257657D01*
X107020824Y-115275399D01*
X107010734Y-115292234D01*
X106999042Y-115307999D01*
X106985861Y-115322541D01*
X106971319Y-115335722D01*
X106955554Y-115347414D01*
X106938719Y-115357504D01*
X106920977Y-115365896D01*
X106902497Y-115372508D01*
X106883458Y-115377277D01*
X106864043Y-115380157D01*
X106844440Y-115381120D01*
X106444440Y-115381120D01*
X106424837Y-115380157D01*
X106405422Y-115377277D01*
X106386383Y-115372508D01*
X106367903Y-115365896D01*
X106350161Y-115357504D01*
X106333326Y-115347414D01*
X106317561Y-115335722D01*
X106303019Y-115322541D01*
X106289838Y-115307999D01*
X106278146Y-115292234D01*
X106268056Y-115275399D01*
X106259664Y-115257657D01*
X106253052Y-115239177D01*
X106248283Y-115220138D01*
X106245403Y-115200723D01*
X106244440Y-115181120D01*
X106244440Y-113431120D01*
X106245403Y-113411517D01*
X106248283Y-113392102D01*
X106253052Y-113373063D01*
X106259664Y-113354583D01*
X106268056Y-113336841D01*
X106278146Y-113320006D01*
X106289838Y-113304241D01*
X106303019Y-113289699D01*
X106317561Y-113276518D01*
X106333326Y-113264826D01*
X106350161Y-113254736D01*
X106367903Y-113246344D01*
X106386383Y-113239732D01*
X106405422Y-113234963D01*
X106424837Y-113232083D01*
X106444440Y-113231120D01*
X106844440Y-113231120D01*
X106864043Y-113232083D01*
X106864043Y-113232083D01*
G37*
D17*
X106644440Y-114306120D03*
D11*
G36*
X108134043Y-113232083D02*
G01*
X108153458Y-113234963D01*
X108172497Y-113239732D01*
X108190977Y-113246344D01*
X108208719Y-113254736D01*
X108225554Y-113264826D01*
X108241319Y-113276518D01*
X108255861Y-113289699D01*
X108269042Y-113304241D01*
X108280734Y-113320006D01*
X108290824Y-113336841D01*
X108299216Y-113354583D01*
X108305828Y-113373063D01*
X108310597Y-113392102D01*
X108313477Y-113411517D01*
X108314440Y-113431120D01*
X108314440Y-115181120D01*
X108313477Y-115200723D01*
X108310597Y-115220138D01*
X108305828Y-115239177D01*
X108299216Y-115257657D01*
X108290824Y-115275399D01*
X108280734Y-115292234D01*
X108269042Y-115307999D01*
X108255861Y-115322541D01*
X108241319Y-115335722D01*
X108225554Y-115347414D01*
X108208719Y-115357504D01*
X108190977Y-115365896D01*
X108172497Y-115372508D01*
X108153458Y-115377277D01*
X108134043Y-115380157D01*
X108114440Y-115381120D01*
X107714440Y-115381120D01*
X107694837Y-115380157D01*
X107675422Y-115377277D01*
X107656383Y-115372508D01*
X107637903Y-115365896D01*
X107620161Y-115357504D01*
X107603326Y-115347414D01*
X107587561Y-115335722D01*
X107573019Y-115322541D01*
X107559838Y-115307999D01*
X107548146Y-115292234D01*
X107538056Y-115275399D01*
X107529664Y-115257657D01*
X107523052Y-115239177D01*
X107518283Y-115220138D01*
X107515403Y-115200723D01*
X107514440Y-115181120D01*
X107514440Y-113431120D01*
X107515403Y-113411517D01*
X107518283Y-113392102D01*
X107523052Y-113373063D01*
X107529664Y-113354583D01*
X107538056Y-113336841D01*
X107548146Y-113320006D01*
X107559838Y-113304241D01*
X107573019Y-113289699D01*
X107587561Y-113276518D01*
X107603326Y-113264826D01*
X107620161Y-113254736D01*
X107637903Y-113246344D01*
X107656383Y-113239732D01*
X107675422Y-113234963D01*
X107694837Y-113232083D01*
X107714440Y-113231120D01*
X108114440Y-113231120D01*
X108134043Y-113232083D01*
X108134043Y-113232083D01*
G37*
D17*
X107914440Y-114306120D03*
D11*
G36*
X109404043Y-113232083D02*
G01*
X109423458Y-113234963D01*
X109442497Y-113239732D01*
X109460977Y-113246344D01*
X109478719Y-113254736D01*
X109495554Y-113264826D01*
X109511319Y-113276518D01*
X109525861Y-113289699D01*
X109539042Y-113304241D01*
X109550734Y-113320006D01*
X109560824Y-113336841D01*
X109569216Y-113354583D01*
X109575828Y-113373063D01*
X109580597Y-113392102D01*
X109583477Y-113411517D01*
X109584440Y-113431120D01*
X109584440Y-115181120D01*
X109583477Y-115200723D01*
X109580597Y-115220138D01*
X109575828Y-115239177D01*
X109569216Y-115257657D01*
X109560824Y-115275399D01*
X109550734Y-115292234D01*
X109539042Y-115307999D01*
X109525861Y-115322541D01*
X109511319Y-115335722D01*
X109495554Y-115347414D01*
X109478719Y-115357504D01*
X109460977Y-115365896D01*
X109442497Y-115372508D01*
X109423458Y-115377277D01*
X109404043Y-115380157D01*
X109384440Y-115381120D01*
X108984440Y-115381120D01*
X108964837Y-115380157D01*
X108945422Y-115377277D01*
X108926383Y-115372508D01*
X108907903Y-115365896D01*
X108890161Y-115357504D01*
X108873326Y-115347414D01*
X108857561Y-115335722D01*
X108843019Y-115322541D01*
X108829838Y-115307999D01*
X108818146Y-115292234D01*
X108808056Y-115275399D01*
X108799664Y-115257657D01*
X108793052Y-115239177D01*
X108788283Y-115220138D01*
X108785403Y-115200723D01*
X108784440Y-115181120D01*
X108784440Y-113431120D01*
X108785403Y-113411517D01*
X108788283Y-113392102D01*
X108793052Y-113373063D01*
X108799664Y-113354583D01*
X108808056Y-113336841D01*
X108818146Y-113320006D01*
X108829838Y-113304241D01*
X108843019Y-113289699D01*
X108857561Y-113276518D01*
X108873326Y-113264826D01*
X108890161Y-113254736D01*
X108907903Y-113246344D01*
X108926383Y-113239732D01*
X108945422Y-113234963D01*
X108964837Y-113232083D01*
X108984440Y-113231120D01*
X109384440Y-113231120D01*
X109404043Y-113232083D01*
X109404043Y-113232083D01*
G37*
D17*
X109184440Y-114306120D03*
D11*
G36*
X110674043Y-113232083D02*
G01*
X110693458Y-113234963D01*
X110712497Y-113239732D01*
X110730977Y-113246344D01*
X110748719Y-113254736D01*
X110765554Y-113264826D01*
X110781319Y-113276518D01*
X110795861Y-113289699D01*
X110809042Y-113304241D01*
X110820734Y-113320006D01*
X110830824Y-113336841D01*
X110839216Y-113354583D01*
X110845828Y-113373063D01*
X110850597Y-113392102D01*
X110853477Y-113411517D01*
X110854440Y-113431120D01*
X110854440Y-115181120D01*
X110853477Y-115200723D01*
X110850597Y-115220138D01*
X110845828Y-115239177D01*
X110839216Y-115257657D01*
X110830824Y-115275399D01*
X110820734Y-115292234D01*
X110809042Y-115307999D01*
X110795861Y-115322541D01*
X110781319Y-115335722D01*
X110765554Y-115347414D01*
X110748719Y-115357504D01*
X110730977Y-115365896D01*
X110712497Y-115372508D01*
X110693458Y-115377277D01*
X110674043Y-115380157D01*
X110654440Y-115381120D01*
X110254440Y-115381120D01*
X110234837Y-115380157D01*
X110215422Y-115377277D01*
X110196383Y-115372508D01*
X110177903Y-115365896D01*
X110160161Y-115357504D01*
X110143326Y-115347414D01*
X110127561Y-115335722D01*
X110113019Y-115322541D01*
X110099838Y-115307999D01*
X110088146Y-115292234D01*
X110078056Y-115275399D01*
X110069664Y-115257657D01*
X110063052Y-115239177D01*
X110058283Y-115220138D01*
X110055403Y-115200723D01*
X110054440Y-115181120D01*
X110054440Y-113431120D01*
X110055403Y-113411517D01*
X110058283Y-113392102D01*
X110063052Y-113373063D01*
X110069664Y-113354583D01*
X110078056Y-113336841D01*
X110088146Y-113320006D01*
X110099838Y-113304241D01*
X110113019Y-113289699D01*
X110127561Y-113276518D01*
X110143326Y-113264826D01*
X110160161Y-113254736D01*
X110177903Y-113246344D01*
X110196383Y-113239732D01*
X110215422Y-113234963D01*
X110234837Y-113232083D01*
X110254440Y-113231120D01*
X110654440Y-113231120D01*
X110674043Y-113232083D01*
X110674043Y-113232083D01*
G37*
D17*
X110454440Y-114306120D03*
D21*
X91582240Y-69916820D03*
X90312240Y-69916820D03*
X89042240Y-69916820D03*
X87772240Y-69916820D03*
X87772240Y-77316820D03*
X89042240Y-77316820D03*
X90312240Y-77316820D03*
X91582240Y-77316820D03*
D22*
X90307160Y-89928700D03*
D23*
X90307160Y-87388700D03*
D24*
X130186180Y-73980040D03*
D11*
G36*
X129666671Y-74828119D02*
G01*
X129647912Y-74822428D01*
X129630623Y-74813187D01*
X129615469Y-74800751D01*
X129602975Y-74785510D01*
X129102975Y-74035510D01*
X129093752Y-74018212D01*
X129088081Y-73999446D01*
X129086180Y-73979935D01*
X129088122Y-73960428D01*
X129093832Y-73941675D01*
X129102975Y-73924570D01*
X129602975Y-73174570D01*
X129615395Y-73159403D01*
X129630536Y-73146951D01*
X129647815Y-73137692D01*
X129666568Y-73131982D01*
X129686180Y-73130040D01*
X130686180Y-73130040D01*
X130705689Y-73131961D01*
X130724448Y-73137652D01*
X130741737Y-73146893D01*
X130756891Y-73159329D01*
X130769327Y-73174483D01*
X130778568Y-73191772D01*
X130784259Y-73210531D01*
X130786180Y-73230040D01*
X130786180Y-74730040D01*
X130784259Y-74749549D01*
X130778568Y-74768308D01*
X130769327Y-74785597D01*
X130756891Y-74800751D01*
X130741737Y-74813187D01*
X130724448Y-74822428D01*
X130705689Y-74828119D01*
X130686180Y-74830040D01*
X129686180Y-74830040D01*
X129666671Y-74828119D01*
X129666671Y-74828119D01*
G37*
D24*
X126186180Y-73980040D03*
D11*
G36*
X126705689Y-73131961D02*
G01*
X126724448Y-73137652D01*
X126741737Y-73146893D01*
X126756891Y-73159329D01*
X126769385Y-73174570D01*
X127269385Y-73924570D01*
X127278608Y-73941868D01*
X127284279Y-73960634D01*
X127286180Y-73980145D01*
X127284238Y-73999652D01*
X127278528Y-74018405D01*
X127269385Y-74035510D01*
X126769385Y-74785510D01*
X126756965Y-74800677D01*
X126741824Y-74813129D01*
X126724545Y-74822388D01*
X126705792Y-74828098D01*
X126686180Y-74830040D01*
X125686180Y-74830040D01*
X125666671Y-74828119D01*
X125647912Y-74822428D01*
X125630623Y-74813187D01*
X125615469Y-74800751D01*
X125603033Y-74785597D01*
X125593792Y-74768308D01*
X125588101Y-74749549D01*
X125586180Y-74730040D01*
X125586180Y-73230040D01*
X125588101Y-73210531D01*
X125593792Y-73191772D01*
X125603033Y-73174483D01*
X125615469Y-73159329D01*
X125630623Y-73146893D01*
X125647912Y-73137652D01*
X125666671Y-73131961D01*
X125686180Y-73130040D01*
X126686180Y-73130040D01*
X126705689Y-73131961D01*
X126705689Y-73131961D01*
G37*
D25*
X126986180Y-73980040D03*
X129386180Y-73980040D03*
D13*
X140355320Y-74569680D03*
X140355320Y-78069680D03*
X140355320Y-81569680D03*
D26*
X140355320Y-85069680D03*
D13*
X81617820Y-83832460D03*
X81617820Y-80332460D03*
X81617820Y-76832460D03*
D26*
X81617820Y-73332460D03*
D13*
X140355320Y-90876360D03*
X140355320Y-94376360D03*
X140355320Y-97876360D03*
D26*
X140355320Y-101376360D03*
D27*
X91749200Y-112014000D03*
X114249200Y-112014000D03*
D28*
X102585520Y-113950120D03*
X102585520Y-108950120D03*
D29*
X100610500Y-100825300D03*
X109410500Y-100825300D03*
D11*
G36*
X99945080Y-68128304D02*
G01*
X99972988Y-68132444D01*
X100000357Y-68139300D01*
X100026921Y-68148805D01*
X100052427Y-68160868D01*
X100076626Y-68175372D01*
X100099288Y-68192179D01*
X100120193Y-68211127D01*
X100139141Y-68232032D01*
X100155948Y-68254694D01*
X100170452Y-68278893D01*
X100182515Y-68304399D01*
X100192020Y-68330963D01*
X100198876Y-68358332D01*
X100203016Y-68386240D01*
X100204400Y-68414420D01*
X100204400Y-68989420D01*
X100203016Y-69017600D01*
X100198876Y-69045508D01*
X100192020Y-69072877D01*
X100182515Y-69099441D01*
X100170452Y-69124947D01*
X100155948Y-69149146D01*
X100139141Y-69171808D01*
X100120193Y-69192713D01*
X100099288Y-69211661D01*
X100076626Y-69228468D01*
X100052427Y-69242972D01*
X100026921Y-69255035D01*
X100000357Y-69264540D01*
X99972988Y-69271396D01*
X99945080Y-69275536D01*
X99916900Y-69276920D01*
X99241900Y-69276920D01*
X99213720Y-69275536D01*
X99185812Y-69271396D01*
X99158443Y-69264540D01*
X99131879Y-69255035D01*
X99106373Y-69242972D01*
X99082174Y-69228468D01*
X99059512Y-69211661D01*
X99038607Y-69192713D01*
X99019659Y-69171808D01*
X99002852Y-69149146D01*
X98988348Y-69124947D01*
X98976285Y-69099441D01*
X98966780Y-69072877D01*
X98959924Y-69045508D01*
X98955784Y-69017600D01*
X98954400Y-68989420D01*
X98954400Y-68414420D01*
X98955784Y-68386240D01*
X98959924Y-68358332D01*
X98966780Y-68330963D01*
X98976285Y-68304399D01*
X98988348Y-68278893D01*
X99002852Y-68254694D01*
X99019659Y-68232032D01*
X99038607Y-68211127D01*
X99059512Y-68192179D01*
X99082174Y-68175372D01*
X99106373Y-68160868D01*
X99131879Y-68148805D01*
X99158443Y-68139300D01*
X99185812Y-68132444D01*
X99213720Y-68128304D01*
X99241900Y-68126920D01*
X99916900Y-68126920D01*
X99945080Y-68128304D01*
X99945080Y-68128304D01*
G37*
D30*
X99579400Y-68701920D03*
D11*
G36*
X98195080Y-68128304D02*
G01*
X98222988Y-68132444D01*
X98250357Y-68139300D01*
X98276921Y-68148805D01*
X98302427Y-68160868D01*
X98326626Y-68175372D01*
X98349288Y-68192179D01*
X98370193Y-68211127D01*
X98389141Y-68232032D01*
X98405948Y-68254694D01*
X98420452Y-68278893D01*
X98432515Y-68304399D01*
X98442020Y-68330963D01*
X98448876Y-68358332D01*
X98453016Y-68386240D01*
X98454400Y-68414420D01*
X98454400Y-68989420D01*
X98453016Y-69017600D01*
X98448876Y-69045508D01*
X98442020Y-69072877D01*
X98432515Y-69099441D01*
X98420452Y-69124947D01*
X98405948Y-69149146D01*
X98389141Y-69171808D01*
X98370193Y-69192713D01*
X98349288Y-69211661D01*
X98326626Y-69228468D01*
X98302427Y-69242972D01*
X98276921Y-69255035D01*
X98250357Y-69264540D01*
X98222988Y-69271396D01*
X98195080Y-69275536D01*
X98166900Y-69276920D01*
X97491900Y-69276920D01*
X97463720Y-69275536D01*
X97435812Y-69271396D01*
X97408443Y-69264540D01*
X97381879Y-69255035D01*
X97356373Y-69242972D01*
X97332174Y-69228468D01*
X97309512Y-69211661D01*
X97288607Y-69192713D01*
X97269659Y-69171808D01*
X97252852Y-69149146D01*
X97238348Y-69124947D01*
X97226285Y-69099441D01*
X97216780Y-69072877D01*
X97209924Y-69045508D01*
X97205784Y-69017600D01*
X97204400Y-68989420D01*
X97204400Y-68414420D01*
X97205784Y-68386240D01*
X97209924Y-68358332D01*
X97216780Y-68330963D01*
X97226285Y-68304399D01*
X97238348Y-68278893D01*
X97252852Y-68254694D01*
X97269659Y-68232032D01*
X97288607Y-68211127D01*
X97309512Y-68192179D01*
X97332174Y-68175372D01*
X97356373Y-68160868D01*
X97381879Y-68148805D01*
X97408443Y-68139300D01*
X97435812Y-68132444D01*
X97463720Y-68128304D01*
X97491900Y-68126920D01*
X98166900Y-68126920D01*
X98195080Y-68128304D01*
X98195080Y-68128304D01*
G37*
D30*
X97829400Y-68701920D03*
D11*
G36*
X98696700Y-76858284D02*
G01*
X98724608Y-76862424D01*
X98751977Y-76869280D01*
X98778541Y-76878785D01*
X98804047Y-76890848D01*
X98828246Y-76905352D01*
X98850908Y-76922159D01*
X98871813Y-76941107D01*
X98890761Y-76962012D01*
X98907568Y-76984674D01*
X98922072Y-77008873D01*
X98934135Y-77034379D01*
X98943640Y-77060943D01*
X98950496Y-77088312D01*
X98954636Y-77116220D01*
X98956020Y-77144400D01*
X98956020Y-77719400D01*
X98954636Y-77747580D01*
X98950496Y-77775488D01*
X98943640Y-77802857D01*
X98934135Y-77829421D01*
X98922072Y-77854927D01*
X98907568Y-77879126D01*
X98890761Y-77901788D01*
X98871813Y-77922693D01*
X98850908Y-77941641D01*
X98828246Y-77958448D01*
X98804047Y-77972952D01*
X98778541Y-77985015D01*
X98751977Y-77994520D01*
X98724608Y-78001376D01*
X98696700Y-78005516D01*
X98668520Y-78006900D01*
X97993520Y-78006900D01*
X97965340Y-78005516D01*
X97937432Y-78001376D01*
X97910063Y-77994520D01*
X97883499Y-77985015D01*
X97857993Y-77972952D01*
X97833794Y-77958448D01*
X97811132Y-77941641D01*
X97790227Y-77922693D01*
X97771279Y-77901788D01*
X97754472Y-77879126D01*
X97739968Y-77854927D01*
X97727905Y-77829421D01*
X97718400Y-77802857D01*
X97711544Y-77775488D01*
X97707404Y-77747580D01*
X97706020Y-77719400D01*
X97706020Y-77144400D01*
X97707404Y-77116220D01*
X97711544Y-77088312D01*
X97718400Y-77060943D01*
X97727905Y-77034379D01*
X97739968Y-77008873D01*
X97754472Y-76984674D01*
X97771279Y-76962012D01*
X97790227Y-76941107D01*
X97811132Y-76922159D01*
X97833794Y-76905352D01*
X97857993Y-76890848D01*
X97883499Y-76878785D01*
X97910063Y-76869280D01*
X97937432Y-76862424D01*
X97965340Y-76858284D01*
X97993520Y-76856900D01*
X98668520Y-76856900D01*
X98696700Y-76858284D01*
X98696700Y-76858284D01*
G37*
D30*
X98331020Y-77431900D03*
D11*
G36*
X96946700Y-76858284D02*
G01*
X96974608Y-76862424D01*
X97001977Y-76869280D01*
X97028541Y-76878785D01*
X97054047Y-76890848D01*
X97078246Y-76905352D01*
X97100908Y-76922159D01*
X97121813Y-76941107D01*
X97140761Y-76962012D01*
X97157568Y-76984674D01*
X97172072Y-77008873D01*
X97184135Y-77034379D01*
X97193640Y-77060943D01*
X97200496Y-77088312D01*
X97204636Y-77116220D01*
X97206020Y-77144400D01*
X97206020Y-77719400D01*
X97204636Y-77747580D01*
X97200496Y-77775488D01*
X97193640Y-77802857D01*
X97184135Y-77829421D01*
X97172072Y-77854927D01*
X97157568Y-77879126D01*
X97140761Y-77901788D01*
X97121813Y-77922693D01*
X97100908Y-77941641D01*
X97078246Y-77958448D01*
X97054047Y-77972952D01*
X97028541Y-77985015D01*
X97001977Y-77994520D01*
X96974608Y-78001376D01*
X96946700Y-78005516D01*
X96918520Y-78006900D01*
X96243520Y-78006900D01*
X96215340Y-78005516D01*
X96187432Y-78001376D01*
X96160063Y-77994520D01*
X96133499Y-77985015D01*
X96107993Y-77972952D01*
X96083794Y-77958448D01*
X96061132Y-77941641D01*
X96040227Y-77922693D01*
X96021279Y-77901788D01*
X96004472Y-77879126D01*
X95989968Y-77854927D01*
X95977905Y-77829421D01*
X95968400Y-77802857D01*
X95961544Y-77775488D01*
X95957404Y-77747580D01*
X95956020Y-77719400D01*
X95956020Y-77144400D01*
X95957404Y-77116220D01*
X95961544Y-77088312D01*
X95968400Y-77060943D01*
X95977905Y-77034379D01*
X95989968Y-77008873D01*
X96004472Y-76984674D01*
X96021279Y-76962012D01*
X96040227Y-76941107D01*
X96061132Y-76922159D01*
X96083794Y-76905352D01*
X96107993Y-76890848D01*
X96133499Y-76878785D01*
X96160063Y-76869280D01*
X96187432Y-76862424D01*
X96215340Y-76858284D01*
X96243520Y-76856900D01*
X96918520Y-76856900D01*
X96946700Y-76858284D01*
X96946700Y-76858284D01*
G37*
D30*
X96581020Y-77431900D03*
D11*
G36*
X126104100Y-70324904D02*
G01*
X126132008Y-70329044D01*
X126159377Y-70335900D01*
X126185941Y-70345405D01*
X126211447Y-70357468D01*
X126235646Y-70371972D01*
X126258308Y-70388779D01*
X126279213Y-70407727D01*
X126298161Y-70428632D01*
X126314968Y-70451294D01*
X126329472Y-70475493D01*
X126341535Y-70500999D01*
X126351040Y-70527563D01*
X126357896Y-70554932D01*
X126362036Y-70582840D01*
X126363420Y-70611020D01*
X126363420Y-71286020D01*
X126362036Y-71314200D01*
X126357896Y-71342108D01*
X126351040Y-71369477D01*
X126341535Y-71396041D01*
X126329472Y-71421547D01*
X126314968Y-71445746D01*
X126298161Y-71468408D01*
X126279213Y-71489313D01*
X126258308Y-71508261D01*
X126235646Y-71525068D01*
X126211447Y-71539572D01*
X126185941Y-71551635D01*
X126159377Y-71561140D01*
X126132008Y-71567996D01*
X126104100Y-71572136D01*
X126075920Y-71573520D01*
X125500920Y-71573520D01*
X125472740Y-71572136D01*
X125444832Y-71567996D01*
X125417463Y-71561140D01*
X125390899Y-71551635D01*
X125365393Y-71539572D01*
X125341194Y-71525068D01*
X125318532Y-71508261D01*
X125297627Y-71489313D01*
X125278679Y-71468408D01*
X125261872Y-71445746D01*
X125247368Y-71421547D01*
X125235305Y-71396041D01*
X125225800Y-71369477D01*
X125218944Y-71342108D01*
X125214804Y-71314200D01*
X125213420Y-71286020D01*
X125213420Y-70611020D01*
X125214804Y-70582840D01*
X125218944Y-70554932D01*
X125225800Y-70527563D01*
X125235305Y-70500999D01*
X125247368Y-70475493D01*
X125261872Y-70451294D01*
X125278679Y-70428632D01*
X125297627Y-70407727D01*
X125318532Y-70388779D01*
X125341194Y-70371972D01*
X125365393Y-70357468D01*
X125390899Y-70345405D01*
X125417463Y-70335900D01*
X125444832Y-70329044D01*
X125472740Y-70324904D01*
X125500920Y-70323520D01*
X126075920Y-70323520D01*
X126104100Y-70324904D01*
X126104100Y-70324904D01*
G37*
D30*
X125788420Y-70948520D03*
D11*
G36*
X126104100Y-68574904D02*
G01*
X126132008Y-68579044D01*
X126159377Y-68585900D01*
X126185941Y-68595405D01*
X126211447Y-68607468D01*
X126235646Y-68621972D01*
X126258308Y-68638779D01*
X126279213Y-68657727D01*
X126298161Y-68678632D01*
X126314968Y-68701294D01*
X126329472Y-68725493D01*
X126341535Y-68750999D01*
X126351040Y-68777563D01*
X126357896Y-68804932D01*
X126362036Y-68832840D01*
X126363420Y-68861020D01*
X126363420Y-69536020D01*
X126362036Y-69564200D01*
X126357896Y-69592108D01*
X126351040Y-69619477D01*
X126341535Y-69646041D01*
X126329472Y-69671547D01*
X126314968Y-69695746D01*
X126298161Y-69718408D01*
X126279213Y-69739313D01*
X126258308Y-69758261D01*
X126235646Y-69775068D01*
X126211447Y-69789572D01*
X126185941Y-69801635D01*
X126159377Y-69811140D01*
X126132008Y-69817996D01*
X126104100Y-69822136D01*
X126075920Y-69823520D01*
X125500920Y-69823520D01*
X125472740Y-69822136D01*
X125444832Y-69817996D01*
X125417463Y-69811140D01*
X125390899Y-69801635D01*
X125365393Y-69789572D01*
X125341194Y-69775068D01*
X125318532Y-69758261D01*
X125297627Y-69739313D01*
X125278679Y-69718408D01*
X125261872Y-69695746D01*
X125247368Y-69671547D01*
X125235305Y-69646041D01*
X125225800Y-69619477D01*
X125218944Y-69592108D01*
X125214804Y-69564200D01*
X125213420Y-69536020D01*
X125213420Y-68861020D01*
X125214804Y-68832840D01*
X125218944Y-68804932D01*
X125225800Y-68777563D01*
X125235305Y-68750999D01*
X125247368Y-68725493D01*
X125261872Y-68701294D01*
X125278679Y-68678632D01*
X125297627Y-68657727D01*
X125318532Y-68638779D01*
X125341194Y-68621972D01*
X125365393Y-68607468D01*
X125390899Y-68595405D01*
X125417463Y-68585900D01*
X125444832Y-68579044D01*
X125472740Y-68574904D01*
X125500920Y-68573520D01*
X126075920Y-68573520D01*
X126104100Y-68574904D01*
X126104100Y-68574904D01*
G37*
D30*
X125788420Y-69198520D03*
D11*
G36*
X131196800Y-112900384D02*
G01*
X131224708Y-112904524D01*
X131252077Y-112911380D01*
X131278641Y-112920885D01*
X131304147Y-112932948D01*
X131328346Y-112947452D01*
X131351008Y-112964259D01*
X131371913Y-112983207D01*
X131390861Y-113004112D01*
X131407668Y-113026774D01*
X131422172Y-113050973D01*
X131434235Y-113076479D01*
X131443740Y-113103043D01*
X131450596Y-113130412D01*
X131454736Y-113158320D01*
X131456120Y-113186500D01*
X131456120Y-113861500D01*
X131454736Y-113889680D01*
X131450596Y-113917588D01*
X131443740Y-113944957D01*
X131434235Y-113971521D01*
X131422172Y-113997027D01*
X131407668Y-114021226D01*
X131390861Y-114043888D01*
X131371913Y-114064793D01*
X131351008Y-114083741D01*
X131328346Y-114100548D01*
X131304147Y-114115052D01*
X131278641Y-114127115D01*
X131252077Y-114136620D01*
X131224708Y-114143476D01*
X131196800Y-114147616D01*
X131168620Y-114149000D01*
X130593620Y-114149000D01*
X130565440Y-114147616D01*
X130537532Y-114143476D01*
X130510163Y-114136620D01*
X130483599Y-114127115D01*
X130458093Y-114115052D01*
X130433894Y-114100548D01*
X130411232Y-114083741D01*
X130390327Y-114064793D01*
X130371379Y-114043888D01*
X130354572Y-114021226D01*
X130340068Y-113997027D01*
X130328005Y-113971521D01*
X130318500Y-113944957D01*
X130311644Y-113917588D01*
X130307504Y-113889680D01*
X130306120Y-113861500D01*
X130306120Y-113186500D01*
X130307504Y-113158320D01*
X130311644Y-113130412D01*
X130318500Y-113103043D01*
X130328005Y-113076479D01*
X130340068Y-113050973D01*
X130354572Y-113026774D01*
X130371379Y-113004112D01*
X130390327Y-112983207D01*
X130411232Y-112964259D01*
X130433894Y-112947452D01*
X130458093Y-112932948D01*
X130483599Y-112920885D01*
X130510163Y-112911380D01*
X130537532Y-112904524D01*
X130565440Y-112900384D01*
X130593620Y-112899000D01*
X131168620Y-112899000D01*
X131196800Y-112900384D01*
X131196800Y-112900384D01*
G37*
D30*
X130881120Y-113524000D03*
D11*
G36*
X131196800Y-111150384D02*
G01*
X131224708Y-111154524D01*
X131252077Y-111161380D01*
X131278641Y-111170885D01*
X131304147Y-111182948D01*
X131328346Y-111197452D01*
X131351008Y-111214259D01*
X131371913Y-111233207D01*
X131390861Y-111254112D01*
X131407668Y-111276774D01*
X131422172Y-111300973D01*
X131434235Y-111326479D01*
X131443740Y-111353043D01*
X131450596Y-111380412D01*
X131454736Y-111408320D01*
X131456120Y-111436500D01*
X131456120Y-112111500D01*
X131454736Y-112139680D01*
X131450596Y-112167588D01*
X131443740Y-112194957D01*
X131434235Y-112221521D01*
X131422172Y-112247027D01*
X131407668Y-112271226D01*
X131390861Y-112293888D01*
X131371913Y-112314793D01*
X131351008Y-112333741D01*
X131328346Y-112350548D01*
X131304147Y-112365052D01*
X131278641Y-112377115D01*
X131252077Y-112386620D01*
X131224708Y-112393476D01*
X131196800Y-112397616D01*
X131168620Y-112399000D01*
X130593620Y-112399000D01*
X130565440Y-112397616D01*
X130537532Y-112393476D01*
X130510163Y-112386620D01*
X130483599Y-112377115D01*
X130458093Y-112365052D01*
X130433894Y-112350548D01*
X130411232Y-112333741D01*
X130390327Y-112314793D01*
X130371379Y-112293888D01*
X130354572Y-112271226D01*
X130340068Y-112247027D01*
X130328005Y-112221521D01*
X130318500Y-112194957D01*
X130311644Y-112167588D01*
X130307504Y-112139680D01*
X130306120Y-112111500D01*
X130306120Y-111436500D01*
X130307504Y-111408320D01*
X130311644Y-111380412D01*
X130318500Y-111353043D01*
X130328005Y-111326479D01*
X130340068Y-111300973D01*
X130354572Y-111276774D01*
X130371379Y-111254112D01*
X130390327Y-111233207D01*
X130411232Y-111214259D01*
X130433894Y-111197452D01*
X130458093Y-111182948D01*
X130483599Y-111170885D01*
X130510163Y-111161380D01*
X130537532Y-111154524D01*
X130565440Y-111150384D01*
X130593620Y-111149000D01*
X131168620Y-111149000D01*
X131196800Y-111150384D01*
X131196800Y-111150384D01*
G37*
D30*
X130881120Y-111774000D03*
D11*
G36*
X124527929Y-111169073D02*
G01*
X124556418Y-111173299D01*
X124584355Y-111180297D01*
X124611472Y-111190000D01*
X124637507Y-111202313D01*
X124662210Y-111217120D01*
X124685343Y-111234276D01*
X124706683Y-111253617D01*
X124726024Y-111274957D01*
X124743180Y-111298090D01*
X124757987Y-111322793D01*
X124770300Y-111348828D01*
X124780003Y-111375945D01*
X124787001Y-111403882D01*
X124791227Y-111432371D01*
X124792640Y-111461137D01*
X124792640Y-112224183D01*
X124791227Y-112252949D01*
X124787001Y-112281438D01*
X124780003Y-112309375D01*
X124770300Y-112336492D01*
X124757987Y-112362527D01*
X124743180Y-112387230D01*
X124726024Y-112410363D01*
X124706683Y-112431703D01*
X124685343Y-112451044D01*
X124662210Y-112468200D01*
X124637507Y-112483007D01*
X124611472Y-112495320D01*
X124584355Y-112505023D01*
X124556418Y-112512021D01*
X124527929Y-112516247D01*
X124499163Y-112517660D01*
X123486117Y-112517660D01*
X123457351Y-112516247D01*
X123428862Y-112512021D01*
X123400925Y-112505023D01*
X123373808Y-112495320D01*
X123347773Y-112483007D01*
X123323070Y-112468200D01*
X123299937Y-112451044D01*
X123278597Y-112431703D01*
X123259256Y-112410363D01*
X123242100Y-112387230D01*
X123227293Y-112362527D01*
X123214980Y-112336492D01*
X123205277Y-112309375D01*
X123198279Y-112281438D01*
X123194053Y-112252949D01*
X123192640Y-112224183D01*
X123192640Y-111461137D01*
X123194053Y-111432371D01*
X123198279Y-111403882D01*
X123205277Y-111375945D01*
X123214980Y-111348828D01*
X123227293Y-111322793D01*
X123242100Y-111298090D01*
X123259256Y-111274957D01*
X123278597Y-111253617D01*
X123299937Y-111234276D01*
X123323070Y-111217120D01*
X123347773Y-111202313D01*
X123373808Y-111190000D01*
X123400925Y-111180297D01*
X123428862Y-111173299D01*
X123457351Y-111169073D01*
X123486117Y-111167660D01*
X124499163Y-111167660D01*
X124527929Y-111169073D01*
X124527929Y-111169073D01*
G37*
D19*
X123992640Y-111842660D03*
D11*
G36*
X124527929Y-109119073D02*
G01*
X124556418Y-109123299D01*
X124584355Y-109130297D01*
X124611472Y-109140000D01*
X124637507Y-109152313D01*
X124662210Y-109167120D01*
X124685343Y-109184276D01*
X124706683Y-109203617D01*
X124726024Y-109224957D01*
X124743180Y-109248090D01*
X124757987Y-109272793D01*
X124770300Y-109298828D01*
X124780003Y-109325945D01*
X124787001Y-109353882D01*
X124791227Y-109382371D01*
X124792640Y-109411137D01*
X124792640Y-110174183D01*
X124791227Y-110202949D01*
X124787001Y-110231438D01*
X124780003Y-110259375D01*
X124770300Y-110286492D01*
X124757987Y-110312527D01*
X124743180Y-110337230D01*
X124726024Y-110360363D01*
X124706683Y-110381703D01*
X124685343Y-110401044D01*
X124662210Y-110418200D01*
X124637507Y-110433007D01*
X124611472Y-110445320D01*
X124584355Y-110455023D01*
X124556418Y-110462021D01*
X124527929Y-110466247D01*
X124499163Y-110467660D01*
X123486117Y-110467660D01*
X123457351Y-110466247D01*
X123428862Y-110462021D01*
X123400925Y-110455023D01*
X123373808Y-110445320D01*
X123347773Y-110433007D01*
X123323070Y-110418200D01*
X123299937Y-110401044D01*
X123278597Y-110381703D01*
X123259256Y-110360363D01*
X123242100Y-110337230D01*
X123227293Y-110312527D01*
X123214980Y-110286492D01*
X123205277Y-110259375D01*
X123198279Y-110231438D01*
X123194053Y-110202949D01*
X123192640Y-110174183D01*
X123192640Y-109411137D01*
X123194053Y-109382371D01*
X123198279Y-109353882D01*
X123205277Y-109325945D01*
X123214980Y-109298828D01*
X123227293Y-109272793D01*
X123242100Y-109248090D01*
X123259256Y-109224957D01*
X123278597Y-109203617D01*
X123299937Y-109184276D01*
X123323070Y-109167120D01*
X123347773Y-109152313D01*
X123373808Y-109140000D01*
X123400925Y-109130297D01*
X123428862Y-109123299D01*
X123457351Y-109119073D01*
X123486117Y-109117660D01*
X124499163Y-109117660D01*
X124527929Y-109119073D01*
X124527929Y-109119073D01*
G37*
D19*
X123992640Y-109792660D03*
D13*
X129179320Y-99416860D03*
D26*
X129179320Y-104416860D03*
D23*
X86920000Y-65590000D03*
D22*
X86920000Y-63050000D03*
X89460000Y-65590000D03*
X89460000Y-63050000D03*
X92000000Y-65590000D03*
X92000000Y-63050000D03*
X94540000Y-65590000D03*
X94540000Y-63050000D03*
X97080000Y-65590000D03*
X97080000Y-63050000D03*
X99620000Y-65590000D03*
X99620000Y-63050000D03*
X102160000Y-65590000D03*
X102160000Y-63050000D03*
X104700000Y-65590000D03*
X104700000Y-63050000D03*
X107240000Y-65590000D03*
X107240000Y-63050000D03*
X109780000Y-65590000D03*
X109780000Y-63050000D03*
X112320000Y-65590000D03*
X112320000Y-63050000D03*
X114860000Y-65590000D03*
X114860000Y-63050000D03*
X117400000Y-65590000D03*
X117400000Y-63050000D03*
X119940000Y-65590000D03*
X119940000Y-63050000D03*
X122480000Y-65590000D03*
X122480000Y-63050000D03*
X125020000Y-65590000D03*
X125020000Y-63050000D03*
X127560000Y-65590000D03*
X127560000Y-63050000D03*
X130100000Y-65590000D03*
X130100000Y-63050000D03*
X132640000Y-65590000D03*
X132640000Y-63050000D03*
X135180000Y-65590000D03*
X135180000Y-63050000D03*
D31*
X82040000Y-64310000D03*
X140040000Y-64330000D03*
X82040000Y-113320000D03*
X140030000Y-113310000D03*
M02*
