G04 #@! TF.GenerationSoftware,KiCad,Pcbnew,(5.1.2)-1*
G04 #@! TF.CreationDate,2019-08-04T20:48:43+02:00*
G04 #@! TF.ProjectId,SMPS hat,534d5053-2068-4617-942e-6b696361645f,rev?*
G04 #@! TF.SameCoordinates,Original*
G04 #@! TF.FileFunction,Soldermask,Top*
G04 #@! TF.FilePolarity,Negative*
%FSLAX46Y46*%
G04 Gerber Fmt 4.6, Leading zero omitted, Abs format (unit mm)*
G04 Created by KiCad (PCBNEW (5.1.2)-1) date 2019-08-04 20:48:43*
%MOMM*%
%LPD*%
G04 APERTURE LIST*
%ADD10C,0.150000*%
%ADD11C,0.100000*%
%ADD12C,2.600000*%
%ADD13O,3.800000X2.280000*%
%ADD14C,2.280000*%
%ADD15C,0.800000*%
%ADD16R,9.600000X11.000000*%
%ADD17R,4.800000X1.300000*%
%ADD18C,1.350000*%
%ADD19O,1.900000X1.900000*%
%ADD20R,1.900000X1.900000*%
%ADD21R,5.600000X3.100000*%
%ADD22R,2.600000X2.600000*%
%ADD23C,3.400000*%
%ADD24C,2.700000*%
%ADD25C,1.150000*%
%ADD26C,3.200000*%
G04 APERTURE END LIST*
D10*
X100101383Y-93318831D02*
G75*
G02X98374200Y-91643200I-50783J1675631D01*
G01*
X113359431Y-91592417D02*
G75*
G02X111683800Y-93319600I-1675631J-50783D01*
G01*
X111633017Y-78283569D02*
G75*
G02X113360200Y-79959200I50783J-1675631D01*
G01*
X98349569Y-80009983D02*
G75*
G02X100025200Y-78282800I1675631J50783D01*
G01*
X98374200Y-91643200D02*
X98349569Y-80009983D01*
X111683800Y-93319600D02*
X100101383Y-93318831D01*
X113360200Y-79959200D02*
X113359431Y-91592417D01*
X100025200Y-78282800D02*
X111633017Y-78283569D01*
D11*
X78546357Y-63830200D02*
X78546356Y-113817611D01*
X78546357Y-63830200D02*
G75*
G02X81534000Y-60817611I2999999J12589D01*
G01*
X140546356Y-60817611D02*
X81534000Y-60817611D01*
X140546356Y-60817611D02*
G75*
G02X143546356Y-63817611I0J-3000000D01*
G01*
X143546351Y-113822847D02*
X143546356Y-63817611D01*
X81546356Y-116817611D02*
G75*
G02X78546356Y-113817611I0J3000000D01*
G01*
X81546356Y-116817611D02*
X140546356Y-116817611D01*
X143546351Y-113822847D02*
G75*
G02X140546356Y-116817611I-2999995J5236D01*
G01*
D12*
X82094700Y-106083100D03*
X82094700Y-90843100D03*
D13*
X84594700Y-101003100D03*
D11*
G36*
X86247523Y-94784420D02*
G01*
X86274125Y-94788366D01*
X86300212Y-94794900D01*
X86325532Y-94803960D01*
X86349843Y-94815458D01*
X86372910Y-94829284D01*
X86394510Y-94845304D01*
X86414436Y-94863364D01*
X86432496Y-94883290D01*
X86448516Y-94904890D01*
X86462342Y-94927957D01*
X86473840Y-94952268D01*
X86482900Y-94977588D01*
X86489434Y-95003675D01*
X86493380Y-95030277D01*
X86494700Y-95057137D01*
X86494700Y-96789063D01*
X86493380Y-96815923D01*
X86489434Y-96842525D01*
X86482900Y-96868612D01*
X86473840Y-96893932D01*
X86462342Y-96918243D01*
X86448516Y-96941310D01*
X86432496Y-96962910D01*
X86414436Y-96982836D01*
X86394510Y-97000896D01*
X86372910Y-97016916D01*
X86349843Y-97030742D01*
X86325532Y-97042240D01*
X86300212Y-97051300D01*
X86274125Y-97057834D01*
X86247523Y-97061780D01*
X86220663Y-97063100D01*
X82968737Y-97063100D01*
X82941877Y-97061780D01*
X82915275Y-97057834D01*
X82889188Y-97051300D01*
X82863868Y-97042240D01*
X82839557Y-97030742D01*
X82816490Y-97016916D01*
X82794890Y-97000896D01*
X82774964Y-96982836D01*
X82756904Y-96962910D01*
X82740884Y-96941310D01*
X82727058Y-96918243D01*
X82715560Y-96893932D01*
X82706500Y-96868612D01*
X82699966Y-96842525D01*
X82696020Y-96815923D01*
X82694700Y-96789063D01*
X82694700Y-95057137D01*
X82696020Y-95030277D01*
X82699966Y-95003675D01*
X82706500Y-94977588D01*
X82715560Y-94952268D01*
X82727058Y-94927957D01*
X82740884Y-94904890D01*
X82756904Y-94883290D01*
X82774964Y-94863364D01*
X82794890Y-94845304D01*
X82816490Y-94829284D01*
X82839557Y-94815458D01*
X82863868Y-94803960D01*
X82889188Y-94794900D01*
X82915275Y-94788366D01*
X82941877Y-94784420D01*
X82968737Y-94783100D01*
X86220663Y-94783100D01*
X86247523Y-94784420D01*
X86247523Y-94784420D01*
G37*
D14*
X84594700Y-95923100D03*
D11*
G36*
X127872383Y-72356323D02*
G01*
X127891798Y-72359203D01*
X127910837Y-72363972D01*
X127929317Y-72370584D01*
X127947059Y-72378976D01*
X127963894Y-72389066D01*
X127979659Y-72400758D01*
X127994201Y-72413939D01*
X128007382Y-72428481D01*
X128019074Y-72444246D01*
X128029164Y-72461081D01*
X128037556Y-72478823D01*
X128044168Y-72497303D01*
X128048937Y-72516342D01*
X128051817Y-72535757D01*
X128052780Y-72555360D01*
X128052780Y-74305360D01*
X128051817Y-74324963D01*
X128048937Y-74344378D01*
X128044168Y-74363417D01*
X128037556Y-74381897D01*
X128029164Y-74399639D01*
X128019074Y-74416474D01*
X128007382Y-74432239D01*
X127994201Y-74446781D01*
X127979659Y-74459962D01*
X127963894Y-74471654D01*
X127947059Y-74481744D01*
X127929317Y-74490136D01*
X127910837Y-74496748D01*
X127891798Y-74501517D01*
X127872383Y-74504397D01*
X127852780Y-74505360D01*
X127452780Y-74505360D01*
X127433177Y-74504397D01*
X127413762Y-74501517D01*
X127394723Y-74496748D01*
X127376243Y-74490136D01*
X127358501Y-74481744D01*
X127341666Y-74471654D01*
X127325901Y-74459962D01*
X127311359Y-74446781D01*
X127298178Y-74432239D01*
X127286486Y-74416474D01*
X127276396Y-74399639D01*
X127268004Y-74381897D01*
X127261392Y-74363417D01*
X127256623Y-74344378D01*
X127253743Y-74324963D01*
X127252780Y-74305360D01*
X127252780Y-72555360D01*
X127253743Y-72535757D01*
X127256623Y-72516342D01*
X127261392Y-72497303D01*
X127268004Y-72478823D01*
X127276396Y-72461081D01*
X127286486Y-72444246D01*
X127298178Y-72428481D01*
X127311359Y-72413939D01*
X127325901Y-72400758D01*
X127341666Y-72389066D01*
X127358501Y-72378976D01*
X127376243Y-72370584D01*
X127394723Y-72363972D01*
X127413762Y-72359203D01*
X127433177Y-72356323D01*
X127452780Y-72355360D01*
X127852780Y-72355360D01*
X127872383Y-72356323D01*
X127872383Y-72356323D01*
G37*
D15*
X127652780Y-73430360D03*
D11*
G36*
X129142383Y-72356323D02*
G01*
X129161798Y-72359203D01*
X129180837Y-72363972D01*
X129199317Y-72370584D01*
X129217059Y-72378976D01*
X129233894Y-72389066D01*
X129249659Y-72400758D01*
X129264201Y-72413939D01*
X129277382Y-72428481D01*
X129289074Y-72444246D01*
X129299164Y-72461081D01*
X129307556Y-72478823D01*
X129314168Y-72497303D01*
X129318937Y-72516342D01*
X129321817Y-72535757D01*
X129322780Y-72555360D01*
X129322780Y-74305360D01*
X129321817Y-74324963D01*
X129318937Y-74344378D01*
X129314168Y-74363417D01*
X129307556Y-74381897D01*
X129299164Y-74399639D01*
X129289074Y-74416474D01*
X129277382Y-74432239D01*
X129264201Y-74446781D01*
X129249659Y-74459962D01*
X129233894Y-74471654D01*
X129217059Y-74481744D01*
X129199317Y-74490136D01*
X129180837Y-74496748D01*
X129161798Y-74501517D01*
X129142383Y-74504397D01*
X129122780Y-74505360D01*
X128722780Y-74505360D01*
X128703177Y-74504397D01*
X128683762Y-74501517D01*
X128664723Y-74496748D01*
X128646243Y-74490136D01*
X128628501Y-74481744D01*
X128611666Y-74471654D01*
X128595901Y-74459962D01*
X128581359Y-74446781D01*
X128568178Y-74432239D01*
X128556486Y-74416474D01*
X128546396Y-74399639D01*
X128538004Y-74381897D01*
X128531392Y-74363417D01*
X128526623Y-74344378D01*
X128523743Y-74324963D01*
X128522780Y-74305360D01*
X128522780Y-72555360D01*
X128523743Y-72535757D01*
X128526623Y-72516342D01*
X128531392Y-72497303D01*
X128538004Y-72478823D01*
X128546396Y-72461081D01*
X128556486Y-72444246D01*
X128568178Y-72428481D01*
X128581359Y-72413939D01*
X128595901Y-72400758D01*
X128611666Y-72389066D01*
X128628501Y-72378976D01*
X128646243Y-72370584D01*
X128664723Y-72363972D01*
X128683762Y-72359203D01*
X128703177Y-72356323D01*
X128722780Y-72355360D01*
X129122780Y-72355360D01*
X129142383Y-72356323D01*
X129142383Y-72356323D01*
G37*
D15*
X128922780Y-73430360D03*
D11*
G36*
X130412383Y-72356323D02*
G01*
X130431798Y-72359203D01*
X130450837Y-72363972D01*
X130469317Y-72370584D01*
X130487059Y-72378976D01*
X130503894Y-72389066D01*
X130519659Y-72400758D01*
X130534201Y-72413939D01*
X130547382Y-72428481D01*
X130559074Y-72444246D01*
X130569164Y-72461081D01*
X130577556Y-72478823D01*
X130584168Y-72497303D01*
X130588937Y-72516342D01*
X130591817Y-72535757D01*
X130592780Y-72555360D01*
X130592780Y-74305360D01*
X130591817Y-74324963D01*
X130588937Y-74344378D01*
X130584168Y-74363417D01*
X130577556Y-74381897D01*
X130569164Y-74399639D01*
X130559074Y-74416474D01*
X130547382Y-74432239D01*
X130534201Y-74446781D01*
X130519659Y-74459962D01*
X130503894Y-74471654D01*
X130487059Y-74481744D01*
X130469317Y-74490136D01*
X130450837Y-74496748D01*
X130431798Y-74501517D01*
X130412383Y-74504397D01*
X130392780Y-74505360D01*
X129992780Y-74505360D01*
X129973177Y-74504397D01*
X129953762Y-74501517D01*
X129934723Y-74496748D01*
X129916243Y-74490136D01*
X129898501Y-74481744D01*
X129881666Y-74471654D01*
X129865901Y-74459962D01*
X129851359Y-74446781D01*
X129838178Y-74432239D01*
X129826486Y-74416474D01*
X129816396Y-74399639D01*
X129808004Y-74381897D01*
X129801392Y-74363417D01*
X129796623Y-74344378D01*
X129793743Y-74324963D01*
X129792780Y-74305360D01*
X129792780Y-72555360D01*
X129793743Y-72535757D01*
X129796623Y-72516342D01*
X129801392Y-72497303D01*
X129808004Y-72478823D01*
X129816396Y-72461081D01*
X129826486Y-72444246D01*
X129838178Y-72428481D01*
X129851359Y-72413939D01*
X129865901Y-72400758D01*
X129881666Y-72389066D01*
X129898501Y-72378976D01*
X129916243Y-72370584D01*
X129934723Y-72363972D01*
X129953762Y-72359203D01*
X129973177Y-72356323D01*
X129992780Y-72355360D01*
X130392780Y-72355360D01*
X130412383Y-72356323D01*
X130412383Y-72356323D01*
G37*
D15*
X130192780Y-73430360D03*
D11*
G36*
X131682383Y-72356323D02*
G01*
X131701798Y-72359203D01*
X131720837Y-72363972D01*
X131739317Y-72370584D01*
X131757059Y-72378976D01*
X131773894Y-72389066D01*
X131789659Y-72400758D01*
X131804201Y-72413939D01*
X131817382Y-72428481D01*
X131829074Y-72444246D01*
X131839164Y-72461081D01*
X131847556Y-72478823D01*
X131854168Y-72497303D01*
X131858937Y-72516342D01*
X131861817Y-72535757D01*
X131862780Y-72555360D01*
X131862780Y-74305360D01*
X131861817Y-74324963D01*
X131858937Y-74344378D01*
X131854168Y-74363417D01*
X131847556Y-74381897D01*
X131839164Y-74399639D01*
X131829074Y-74416474D01*
X131817382Y-74432239D01*
X131804201Y-74446781D01*
X131789659Y-74459962D01*
X131773894Y-74471654D01*
X131757059Y-74481744D01*
X131739317Y-74490136D01*
X131720837Y-74496748D01*
X131701798Y-74501517D01*
X131682383Y-74504397D01*
X131662780Y-74505360D01*
X131262780Y-74505360D01*
X131243177Y-74504397D01*
X131223762Y-74501517D01*
X131204723Y-74496748D01*
X131186243Y-74490136D01*
X131168501Y-74481744D01*
X131151666Y-74471654D01*
X131135901Y-74459962D01*
X131121359Y-74446781D01*
X131108178Y-74432239D01*
X131096486Y-74416474D01*
X131086396Y-74399639D01*
X131078004Y-74381897D01*
X131071392Y-74363417D01*
X131066623Y-74344378D01*
X131063743Y-74324963D01*
X131062780Y-74305360D01*
X131062780Y-72555360D01*
X131063743Y-72535757D01*
X131066623Y-72516342D01*
X131071392Y-72497303D01*
X131078004Y-72478823D01*
X131086396Y-72461081D01*
X131096486Y-72444246D01*
X131108178Y-72428481D01*
X131121359Y-72413939D01*
X131135901Y-72400758D01*
X131151666Y-72389066D01*
X131168501Y-72378976D01*
X131186243Y-72370584D01*
X131204723Y-72363972D01*
X131223762Y-72359203D01*
X131243177Y-72356323D01*
X131262780Y-72355360D01*
X131662780Y-72355360D01*
X131682383Y-72356323D01*
X131682383Y-72356323D01*
G37*
D15*
X131462780Y-73430360D03*
D11*
G36*
X132952383Y-72356323D02*
G01*
X132971798Y-72359203D01*
X132990837Y-72363972D01*
X133009317Y-72370584D01*
X133027059Y-72378976D01*
X133043894Y-72389066D01*
X133059659Y-72400758D01*
X133074201Y-72413939D01*
X133087382Y-72428481D01*
X133099074Y-72444246D01*
X133109164Y-72461081D01*
X133117556Y-72478823D01*
X133124168Y-72497303D01*
X133128937Y-72516342D01*
X133131817Y-72535757D01*
X133132780Y-72555360D01*
X133132780Y-74305360D01*
X133131817Y-74324963D01*
X133128937Y-74344378D01*
X133124168Y-74363417D01*
X133117556Y-74381897D01*
X133109164Y-74399639D01*
X133099074Y-74416474D01*
X133087382Y-74432239D01*
X133074201Y-74446781D01*
X133059659Y-74459962D01*
X133043894Y-74471654D01*
X133027059Y-74481744D01*
X133009317Y-74490136D01*
X132990837Y-74496748D01*
X132971798Y-74501517D01*
X132952383Y-74504397D01*
X132932780Y-74505360D01*
X132532780Y-74505360D01*
X132513177Y-74504397D01*
X132493762Y-74501517D01*
X132474723Y-74496748D01*
X132456243Y-74490136D01*
X132438501Y-74481744D01*
X132421666Y-74471654D01*
X132405901Y-74459962D01*
X132391359Y-74446781D01*
X132378178Y-74432239D01*
X132366486Y-74416474D01*
X132356396Y-74399639D01*
X132348004Y-74381897D01*
X132341392Y-74363417D01*
X132336623Y-74344378D01*
X132333743Y-74324963D01*
X132332780Y-74305360D01*
X132332780Y-72555360D01*
X132333743Y-72535757D01*
X132336623Y-72516342D01*
X132341392Y-72497303D01*
X132348004Y-72478823D01*
X132356396Y-72461081D01*
X132366486Y-72444246D01*
X132378178Y-72428481D01*
X132391359Y-72413939D01*
X132405901Y-72400758D01*
X132421666Y-72389066D01*
X132438501Y-72378976D01*
X132456243Y-72370584D01*
X132474723Y-72363972D01*
X132493762Y-72359203D01*
X132513177Y-72356323D01*
X132532780Y-72355360D01*
X132932780Y-72355360D01*
X132952383Y-72356323D01*
X132952383Y-72356323D01*
G37*
D15*
X132732780Y-73430360D03*
D11*
G36*
X134222383Y-72356323D02*
G01*
X134241798Y-72359203D01*
X134260837Y-72363972D01*
X134279317Y-72370584D01*
X134297059Y-72378976D01*
X134313894Y-72389066D01*
X134329659Y-72400758D01*
X134344201Y-72413939D01*
X134357382Y-72428481D01*
X134369074Y-72444246D01*
X134379164Y-72461081D01*
X134387556Y-72478823D01*
X134394168Y-72497303D01*
X134398937Y-72516342D01*
X134401817Y-72535757D01*
X134402780Y-72555360D01*
X134402780Y-74305360D01*
X134401817Y-74324963D01*
X134398937Y-74344378D01*
X134394168Y-74363417D01*
X134387556Y-74381897D01*
X134379164Y-74399639D01*
X134369074Y-74416474D01*
X134357382Y-74432239D01*
X134344201Y-74446781D01*
X134329659Y-74459962D01*
X134313894Y-74471654D01*
X134297059Y-74481744D01*
X134279317Y-74490136D01*
X134260837Y-74496748D01*
X134241798Y-74501517D01*
X134222383Y-74504397D01*
X134202780Y-74505360D01*
X133802780Y-74505360D01*
X133783177Y-74504397D01*
X133763762Y-74501517D01*
X133744723Y-74496748D01*
X133726243Y-74490136D01*
X133708501Y-74481744D01*
X133691666Y-74471654D01*
X133675901Y-74459962D01*
X133661359Y-74446781D01*
X133648178Y-74432239D01*
X133636486Y-74416474D01*
X133626396Y-74399639D01*
X133618004Y-74381897D01*
X133611392Y-74363417D01*
X133606623Y-74344378D01*
X133603743Y-74324963D01*
X133602780Y-74305360D01*
X133602780Y-72555360D01*
X133603743Y-72535757D01*
X133606623Y-72516342D01*
X133611392Y-72497303D01*
X133618004Y-72478823D01*
X133626396Y-72461081D01*
X133636486Y-72444246D01*
X133648178Y-72428481D01*
X133661359Y-72413939D01*
X133675901Y-72400758D01*
X133691666Y-72389066D01*
X133708501Y-72378976D01*
X133726243Y-72370584D01*
X133744723Y-72363972D01*
X133763762Y-72359203D01*
X133783177Y-72356323D01*
X133802780Y-72355360D01*
X134202780Y-72355360D01*
X134222383Y-72356323D01*
X134222383Y-72356323D01*
G37*
D15*
X134002780Y-73430360D03*
D11*
G36*
X135492383Y-72356323D02*
G01*
X135511798Y-72359203D01*
X135530837Y-72363972D01*
X135549317Y-72370584D01*
X135567059Y-72378976D01*
X135583894Y-72389066D01*
X135599659Y-72400758D01*
X135614201Y-72413939D01*
X135627382Y-72428481D01*
X135639074Y-72444246D01*
X135649164Y-72461081D01*
X135657556Y-72478823D01*
X135664168Y-72497303D01*
X135668937Y-72516342D01*
X135671817Y-72535757D01*
X135672780Y-72555360D01*
X135672780Y-74305360D01*
X135671817Y-74324963D01*
X135668937Y-74344378D01*
X135664168Y-74363417D01*
X135657556Y-74381897D01*
X135649164Y-74399639D01*
X135639074Y-74416474D01*
X135627382Y-74432239D01*
X135614201Y-74446781D01*
X135599659Y-74459962D01*
X135583894Y-74471654D01*
X135567059Y-74481744D01*
X135549317Y-74490136D01*
X135530837Y-74496748D01*
X135511798Y-74501517D01*
X135492383Y-74504397D01*
X135472780Y-74505360D01*
X135072780Y-74505360D01*
X135053177Y-74504397D01*
X135033762Y-74501517D01*
X135014723Y-74496748D01*
X134996243Y-74490136D01*
X134978501Y-74481744D01*
X134961666Y-74471654D01*
X134945901Y-74459962D01*
X134931359Y-74446781D01*
X134918178Y-74432239D01*
X134906486Y-74416474D01*
X134896396Y-74399639D01*
X134888004Y-74381897D01*
X134881392Y-74363417D01*
X134876623Y-74344378D01*
X134873743Y-74324963D01*
X134872780Y-74305360D01*
X134872780Y-72555360D01*
X134873743Y-72535757D01*
X134876623Y-72516342D01*
X134881392Y-72497303D01*
X134888004Y-72478823D01*
X134896396Y-72461081D01*
X134906486Y-72444246D01*
X134918178Y-72428481D01*
X134931359Y-72413939D01*
X134945901Y-72400758D01*
X134961666Y-72389066D01*
X134978501Y-72378976D01*
X134996243Y-72370584D01*
X135014723Y-72363972D01*
X135033762Y-72359203D01*
X135053177Y-72356323D01*
X135072780Y-72355360D01*
X135472780Y-72355360D01*
X135492383Y-72356323D01*
X135492383Y-72356323D01*
G37*
D15*
X135272780Y-73430360D03*
D11*
G36*
X135492383Y-77306323D02*
G01*
X135511798Y-77309203D01*
X135530837Y-77313972D01*
X135549317Y-77320584D01*
X135567059Y-77328976D01*
X135583894Y-77339066D01*
X135599659Y-77350758D01*
X135614201Y-77363939D01*
X135627382Y-77378481D01*
X135639074Y-77394246D01*
X135649164Y-77411081D01*
X135657556Y-77428823D01*
X135664168Y-77447303D01*
X135668937Y-77466342D01*
X135671817Y-77485757D01*
X135672780Y-77505360D01*
X135672780Y-79255360D01*
X135671817Y-79274963D01*
X135668937Y-79294378D01*
X135664168Y-79313417D01*
X135657556Y-79331897D01*
X135649164Y-79349639D01*
X135639074Y-79366474D01*
X135627382Y-79382239D01*
X135614201Y-79396781D01*
X135599659Y-79409962D01*
X135583894Y-79421654D01*
X135567059Y-79431744D01*
X135549317Y-79440136D01*
X135530837Y-79446748D01*
X135511798Y-79451517D01*
X135492383Y-79454397D01*
X135472780Y-79455360D01*
X135072780Y-79455360D01*
X135053177Y-79454397D01*
X135033762Y-79451517D01*
X135014723Y-79446748D01*
X134996243Y-79440136D01*
X134978501Y-79431744D01*
X134961666Y-79421654D01*
X134945901Y-79409962D01*
X134931359Y-79396781D01*
X134918178Y-79382239D01*
X134906486Y-79366474D01*
X134896396Y-79349639D01*
X134888004Y-79331897D01*
X134881392Y-79313417D01*
X134876623Y-79294378D01*
X134873743Y-79274963D01*
X134872780Y-79255360D01*
X134872780Y-77505360D01*
X134873743Y-77485757D01*
X134876623Y-77466342D01*
X134881392Y-77447303D01*
X134888004Y-77428823D01*
X134896396Y-77411081D01*
X134906486Y-77394246D01*
X134918178Y-77378481D01*
X134931359Y-77363939D01*
X134945901Y-77350758D01*
X134961666Y-77339066D01*
X134978501Y-77328976D01*
X134996243Y-77320584D01*
X135014723Y-77313972D01*
X135033762Y-77309203D01*
X135053177Y-77306323D01*
X135072780Y-77305360D01*
X135472780Y-77305360D01*
X135492383Y-77306323D01*
X135492383Y-77306323D01*
G37*
D15*
X135272780Y-78380360D03*
D11*
G36*
X134222383Y-77306323D02*
G01*
X134241798Y-77309203D01*
X134260837Y-77313972D01*
X134279317Y-77320584D01*
X134297059Y-77328976D01*
X134313894Y-77339066D01*
X134329659Y-77350758D01*
X134344201Y-77363939D01*
X134357382Y-77378481D01*
X134369074Y-77394246D01*
X134379164Y-77411081D01*
X134387556Y-77428823D01*
X134394168Y-77447303D01*
X134398937Y-77466342D01*
X134401817Y-77485757D01*
X134402780Y-77505360D01*
X134402780Y-79255360D01*
X134401817Y-79274963D01*
X134398937Y-79294378D01*
X134394168Y-79313417D01*
X134387556Y-79331897D01*
X134379164Y-79349639D01*
X134369074Y-79366474D01*
X134357382Y-79382239D01*
X134344201Y-79396781D01*
X134329659Y-79409962D01*
X134313894Y-79421654D01*
X134297059Y-79431744D01*
X134279317Y-79440136D01*
X134260837Y-79446748D01*
X134241798Y-79451517D01*
X134222383Y-79454397D01*
X134202780Y-79455360D01*
X133802780Y-79455360D01*
X133783177Y-79454397D01*
X133763762Y-79451517D01*
X133744723Y-79446748D01*
X133726243Y-79440136D01*
X133708501Y-79431744D01*
X133691666Y-79421654D01*
X133675901Y-79409962D01*
X133661359Y-79396781D01*
X133648178Y-79382239D01*
X133636486Y-79366474D01*
X133626396Y-79349639D01*
X133618004Y-79331897D01*
X133611392Y-79313417D01*
X133606623Y-79294378D01*
X133603743Y-79274963D01*
X133602780Y-79255360D01*
X133602780Y-77505360D01*
X133603743Y-77485757D01*
X133606623Y-77466342D01*
X133611392Y-77447303D01*
X133618004Y-77428823D01*
X133626396Y-77411081D01*
X133636486Y-77394246D01*
X133648178Y-77378481D01*
X133661359Y-77363939D01*
X133675901Y-77350758D01*
X133691666Y-77339066D01*
X133708501Y-77328976D01*
X133726243Y-77320584D01*
X133744723Y-77313972D01*
X133763762Y-77309203D01*
X133783177Y-77306323D01*
X133802780Y-77305360D01*
X134202780Y-77305360D01*
X134222383Y-77306323D01*
X134222383Y-77306323D01*
G37*
D15*
X134002780Y-78380360D03*
D11*
G36*
X132952383Y-77306323D02*
G01*
X132971798Y-77309203D01*
X132990837Y-77313972D01*
X133009317Y-77320584D01*
X133027059Y-77328976D01*
X133043894Y-77339066D01*
X133059659Y-77350758D01*
X133074201Y-77363939D01*
X133087382Y-77378481D01*
X133099074Y-77394246D01*
X133109164Y-77411081D01*
X133117556Y-77428823D01*
X133124168Y-77447303D01*
X133128937Y-77466342D01*
X133131817Y-77485757D01*
X133132780Y-77505360D01*
X133132780Y-79255360D01*
X133131817Y-79274963D01*
X133128937Y-79294378D01*
X133124168Y-79313417D01*
X133117556Y-79331897D01*
X133109164Y-79349639D01*
X133099074Y-79366474D01*
X133087382Y-79382239D01*
X133074201Y-79396781D01*
X133059659Y-79409962D01*
X133043894Y-79421654D01*
X133027059Y-79431744D01*
X133009317Y-79440136D01*
X132990837Y-79446748D01*
X132971798Y-79451517D01*
X132952383Y-79454397D01*
X132932780Y-79455360D01*
X132532780Y-79455360D01*
X132513177Y-79454397D01*
X132493762Y-79451517D01*
X132474723Y-79446748D01*
X132456243Y-79440136D01*
X132438501Y-79431744D01*
X132421666Y-79421654D01*
X132405901Y-79409962D01*
X132391359Y-79396781D01*
X132378178Y-79382239D01*
X132366486Y-79366474D01*
X132356396Y-79349639D01*
X132348004Y-79331897D01*
X132341392Y-79313417D01*
X132336623Y-79294378D01*
X132333743Y-79274963D01*
X132332780Y-79255360D01*
X132332780Y-77505360D01*
X132333743Y-77485757D01*
X132336623Y-77466342D01*
X132341392Y-77447303D01*
X132348004Y-77428823D01*
X132356396Y-77411081D01*
X132366486Y-77394246D01*
X132378178Y-77378481D01*
X132391359Y-77363939D01*
X132405901Y-77350758D01*
X132421666Y-77339066D01*
X132438501Y-77328976D01*
X132456243Y-77320584D01*
X132474723Y-77313972D01*
X132493762Y-77309203D01*
X132513177Y-77306323D01*
X132532780Y-77305360D01*
X132932780Y-77305360D01*
X132952383Y-77306323D01*
X132952383Y-77306323D01*
G37*
D15*
X132732780Y-78380360D03*
D11*
G36*
X131682383Y-77306323D02*
G01*
X131701798Y-77309203D01*
X131720837Y-77313972D01*
X131739317Y-77320584D01*
X131757059Y-77328976D01*
X131773894Y-77339066D01*
X131789659Y-77350758D01*
X131804201Y-77363939D01*
X131817382Y-77378481D01*
X131829074Y-77394246D01*
X131839164Y-77411081D01*
X131847556Y-77428823D01*
X131854168Y-77447303D01*
X131858937Y-77466342D01*
X131861817Y-77485757D01*
X131862780Y-77505360D01*
X131862780Y-79255360D01*
X131861817Y-79274963D01*
X131858937Y-79294378D01*
X131854168Y-79313417D01*
X131847556Y-79331897D01*
X131839164Y-79349639D01*
X131829074Y-79366474D01*
X131817382Y-79382239D01*
X131804201Y-79396781D01*
X131789659Y-79409962D01*
X131773894Y-79421654D01*
X131757059Y-79431744D01*
X131739317Y-79440136D01*
X131720837Y-79446748D01*
X131701798Y-79451517D01*
X131682383Y-79454397D01*
X131662780Y-79455360D01*
X131262780Y-79455360D01*
X131243177Y-79454397D01*
X131223762Y-79451517D01*
X131204723Y-79446748D01*
X131186243Y-79440136D01*
X131168501Y-79431744D01*
X131151666Y-79421654D01*
X131135901Y-79409962D01*
X131121359Y-79396781D01*
X131108178Y-79382239D01*
X131096486Y-79366474D01*
X131086396Y-79349639D01*
X131078004Y-79331897D01*
X131071392Y-79313417D01*
X131066623Y-79294378D01*
X131063743Y-79274963D01*
X131062780Y-79255360D01*
X131062780Y-77505360D01*
X131063743Y-77485757D01*
X131066623Y-77466342D01*
X131071392Y-77447303D01*
X131078004Y-77428823D01*
X131086396Y-77411081D01*
X131096486Y-77394246D01*
X131108178Y-77378481D01*
X131121359Y-77363939D01*
X131135901Y-77350758D01*
X131151666Y-77339066D01*
X131168501Y-77328976D01*
X131186243Y-77320584D01*
X131204723Y-77313972D01*
X131223762Y-77309203D01*
X131243177Y-77306323D01*
X131262780Y-77305360D01*
X131662780Y-77305360D01*
X131682383Y-77306323D01*
X131682383Y-77306323D01*
G37*
D15*
X131462780Y-78380360D03*
D11*
G36*
X130412383Y-77306323D02*
G01*
X130431798Y-77309203D01*
X130450837Y-77313972D01*
X130469317Y-77320584D01*
X130487059Y-77328976D01*
X130503894Y-77339066D01*
X130519659Y-77350758D01*
X130534201Y-77363939D01*
X130547382Y-77378481D01*
X130559074Y-77394246D01*
X130569164Y-77411081D01*
X130577556Y-77428823D01*
X130584168Y-77447303D01*
X130588937Y-77466342D01*
X130591817Y-77485757D01*
X130592780Y-77505360D01*
X130592780Y-79255360D01*
X130591817Y-79274963D01*
X130588937Y-79294378D01*
X130584168Y-79313417D01*
X130577556Y-79331897D01*
X130569164Y-79349639D01*
X130559074Y-79366474D01*
X130547382Y-79382239D01*
X130534201Y-79396781D01*
X130519659Y-79409962D01*
X130503894Y-79421654D01*
X130487059Y-79431744D01*
X130469317Y-79440136D01*
X130450837Y-79446748D01*
X130431798Y-79451517D01*
X130412383Y-79454397D01*
X130392780Y-79455360D01*
X129992780Y-79455360D01*
X129973177Y-79454397D01*
X129953762Y-79451517D01*
X129934723Y-79446748D01*
X129916243Y-79440136D01*
X129898501Y-79431744D01*
X129881666Y-79421654D01*
X129865901Y-79409962D01*
X129851359Y-79396781D01*
X129838178Y-79382239D01*
X129826486Y-79366474D01*
X129816396Y-79349639D01*
X129808004Y-79331897D01*
X129801392Y-79313417D01*
X129796623Y-79294378D01*
X129793743Y-79274963D01*
X129792780Y-79255360D01*
X129792780Y-77505360D01*
X129793743Y-77485757D01*
X129796623Y-77466342D01*
X129801392Y-77447303D01*
X129808004Y-77428823D01*
X129816396Y-77411081D01*
X129826486Y-77394246D01*
X129838178Y-77378481D01*
X129851359Y-77363939D01*
X129865901Y-77350758D01*
X129881666Y-77339066D01*
X129898501Y-77328976D01*
X129916243Y-77320584D01*
X129934723Y-77313972D01*
X129953762Y-77309203D01*
X129973177Y-77306323D01*
X129992780Y-77305360D01*
X130392780Y-77305360D01*
X130412383Y-77306323D01*
X130412383Y-77306323D01*
G37*
D15*
X130192780Y-78380360D03*
D11*
G36*
X129142383Y-77306323D02*
G01*
X129161798Y-77309203D01*
X129180837Y-77313972D01*
X129199317Y-77320584D01*
X129217059Y-77328976D01*
X129233894Y-77339066D01*
X129249659Y-77350758D01*
X129264201Y-77363939D01*
X129277382Y-77378481D01*
X129289074Y-77394246D01*
X129299164Y-77411081D01*
X129307556Y-77428823D01*
X129314168Y-77447303D01*
X129318937Y-77466342D01*
X129321817Y-77485757D01*
X129322780Y-77505360D01*
X129322780Y-79255360D01*
X129321817Y-79274963D01*
X129318937Y-79294378D01*
X129314168Y-79313417D01*
X129307556Y-79331897D01*
X129299164Y-79349639D01*
X129289074Y-79366474D01*
X129277382Y-79382239D01*
X129264201Y-79396781D01*
X129249659Y-79409962D01*
X129233894Y-79421654D01*
X129217059Y-79431744D01*
X129199317Y-79440136D01*
X129180837Y-79446748D01*
X129161798Y-79451517D01*
X129142383Y-79454397D01*
X129122780Y-79455360D01*
X128722780Y-79455360D01*
X128703177Y-79454397D01*
X128683762Y-79451517D01*
X128664723Y-79446748D01*
X128646243Y-79440136D01*
X128628501Y-79431744D01*
X128611666Y-79421654D01*
X128595901Y-79409962D01*
X128581359Y-79396781D01*
X128568178Y-79382239D01*
X128556486Y-79366474D01*
X128546396Y-79349639D01*
X128538004Y-79331897D01*
X128531392Y-79313417D01*
X128526623Y-79294378D01*
X128523743Y-79274963D01*
X128522780Y-79255360D01*
X128522780Y-77505360D01*
X128523743Y-77485757D01*
X128526623Y-77466342D01*
X128531392Y-77447303D01*
X128538004Y-77428823D01*
X128546396Y-77411081D01*
X128556486Y-77394246D01*
X128568178Y-77378481D01*
X128581359Y-77363939D01*
X128595901Y-77350758D01*
X128611666Y-77339066D01*
X128628501Y-77328976D01*
X128646243Y-77320584D01*
X128664723Y-77313972D01*
X128683762Y-77309203D01*
X128703177Y-77306323D01*
X128722780Y-77305360D01*
X129122780Y-77305360D01*
X129142383Y-77306323D01*
X129142383Y-77306323D01*
G37*
D15*
X128922780Y-78380360D03*
D11*
G36*
X127872383Y-77306323D02*
G01*
X127891798Y-77309203D01*
X127910837Y-77313972D01*
X127929317Y-77320584D01*
X127947059Y-77328976D01*
X127963894Y-77339066D01*
X127979659Y-77350758D01*
X127994201Y-77363939D01*
X128007382Y-77378481D01*
X128019074Y-77394246D01*
X128029164Y-77411081D01*
X128037556Y-77428823D01*
X128044168Y-77447303D01*
X128048937Y-77466342D01*
X128051817Y-77485757D01*
X128052780Y-77505360D01*
X128052780Y-79255360D01*
X128051817Y-79274963D01*
X128048937Y-79294378D01*
X128044168Y-79313417D01*
X128037556Y-79331897D01*
X128029164Y-79349639D01*
X128019074Y-79366474D01*
X128007382Y-79382239D01*
X127994201Y-79396781D01*
X127979659Y-79409962D01*
X127963894Y-79421654D01*
X127947059Y-79431744D01*
X127929317Y-79440136D01*
X127910837Y-79446748D01*
X127891798Y-79451517D01*
X127872383Y-79454397D01*
X127852780Y-79455360D01*
X127452780Y-79455360D01*
X127433177Y-79454397D01*
X127413762Y-79451517D01*
X127394723Y-79446748D01*
X127376243Y-79440136D01*
X127358501Y-79431744D01*
X127341666Y-79421654D01*
X127325901Y-79409962D01*
X127311359Y-79396781D01*
X127298178Y-79382239D01*
X127286486Y-79366474D01*
X127276396Y-79349639D01*
X127268004Y-79331897D01*
X127261392Y-79313417D01*
X127256623Y-79294378D01*
X127253743Y-79274963D01*
X127252780Y-79255360D01*
X127252780Y-77505360D01*
X127253743Y-77485757D01*
X127256623Y-77466342D01*
X127261392Y-77447303D01*
X127268004Y-77428823D01*
X127276396Y-77411081D01*
X127286486Y-77394246D01*
X127298178Y-77378481D01*
X127311359Y-77363939D01*
X127325901Y-77350758D01*
X127341666Y-77339066D01*
X127358501Y-77328976D01*
X127376243Y-77320584D01*
X127394723Y-77313972D01*
X127413762Y-77309203D01*
X127433177Y-77306323D01*
X127452780Y-77305360D01*
X127852780Y-77305360D01*
X127872383Y-77306323D01*
X127872383Y-77306323D01*
G37*
D15*
X127652780Y-78380360D03*
D11*
G36*
X123544623Y-70197723D02*
G01*
X123564038Y-70200603D01*
X123583077Y-70205372D01*
X123601557Y-70211984D01*
X123619299Y-70220376D01*
X123636134Y-70230466D01*
X123651899Y-70242158D01*
X123666441Y-70255339D01*
X123679622Y-70269881D01*
X123691314Y-70285646D01*
X123701404Y-70302481D01*
X123709796Y-70320223D01*
X123716408Y-70338703D01*
X123721177Y-70357742D01*
X123724057Y-70377157D01*
X123725020Y-70396760D01*
X123725020Y-70796760D01*
X123724057Y-70816363D01*
X123721177Y-70835778D01*
X123716408Y-70854817D01*
X123709796Y-70873297D01*
X123701404Y-70891039D01*
X123691314Y-70907874D01*
X123679622Y-70923639D01*
X123666441Y-70938181D01*
X123651899Y-70951362D01*
X123636134Y-70963054D01*
X123619299Y-70973144D01*
X123601557Y-70981536D01*
X123583077Y-70988148D01*
X123564038Y-70992917D01*
X123544623Y-70995797D01*
X123525020Y-70996760D01*
X121775020Y-70996760D01*
X121755417Y-70995797D01*
X121736002Y-70992917D01*
X121716963Y-70988148D01*
X121698483Y-70981536D01*
X121680741Y-70973144D01*
X121663906Y-70963054D01*
X121648141Y-70951362D01*
X121633599Y-70938181D01*
X121620418Y-70923639D01*
X121608726Y-70907874D01*
X121598636Y-70891039D01*
X121590244Y-70873297D01*
X121583632Y-70854817D01*
X121578863Y-70835778D01*
X121575983Y-70816363D01*
X121575020Y-70796760D01*
X121575020Y-70396760D01*
X121575983Y-70377157D01*
X121578863Y-70357742D01*
X121583632Y-70338703D01*
X121590244Y-70320223D01*
X121598636Y-70302481D01*
X121608726Y-70285646D01*
X121620418Y-70269881D01*
X121633599Y-70255339D01*
X121648141Y-70242158D01*
X121663906Y-70230466D01*
X121680741Y-70220376D01*
X121698483Y-70211984D01*
X121716963Y-70205372D01*
X121736002Y-70200603D01*
X121755417Y-70197723D01*
X121775020Y-70196760D01*
X123525020Y-70196760D01*
X123544623Y-70197723D01*
X123544623Y-70197723D01*
G37*
D15*
X122650020Y-70596760D03*
D11*
G36*
X123544623Y-71467723D02*
G01*
X123564038Y-71470603D01*
X123583077Y-71475372D01*
X123601557Y-71481984D01*
X123619299Y-71490376D01*
X123636134Y-71500466D01*
X123651899Y-71512158D01*
X123666441Y-71525339D01*
X123679622Y-71539881D01*
X123691314Y-71555646D01*
X123701404Y-71572481D01*
X123709796Y-71590223D01*
X123716408Y-71608703D01*
X123721177Y-71627742D01*
X123724057Y-71647157D01*
X123725020Y-71666760D01*
X123725020Y-72066760D01*
X123724057Y-72086363D01*
X123721177Y-72105778D01*
X123716408Y-72124817D01*
X123709796Y-72143297D01*
X123701404Y-72161039D01*
X123691314Y-72177874D01*
X123679622Y-72193639D01*
X123666441Y-72208181D01*
X123651899Y-72221362D01*
X123636134Y-72233054D01*
X123619299Y-72243144D01*
X123601557Y-72251536D01*
X123583077Y-72258148D01*
X123564038Y-72262917D01*
X123544623Y-72265797D01*
X123525020Y-72266760D01*
X121775020Y-72266760D01*
X121755417Y-72265797D01*
X121736002Y-72262917D01*
X121716963Y-72258148D01*
X121698483Y-72251536D01*
X121680741Y-72243144D01*
X121663906Y-72233054D01*
X121648141Y-72221362D01*
X121633599Y-72208181D01*
X121620418Y-72193639D01*
X121608726Y-72177874D01*
X121598636Y-72161039D01*
X121590244Y-72143297D01*
X121583632Y-72124817D01*
X121578863Y-72105778D01*
X121575983Y-72086363D01*
X121575020Y-72066760D01*
X121575020Y-71666760D01*
X121575983Y-71647157D01*
X121578863Y-71627742D01*
X121583632Y-71608703D01*
X121590244Y-71590223D01*
X121598636Y-71572481D01*
X121608726Y-71555646D01*
X121620418Y-71539881D01*
X121633599Y-71525339D01*
X121648141Y-71512158D01*
X121663906Y-71500466D01*
X121680741Y-71490376D01*
X121698483Y-71481984D01*
X121716963Y-71475372D01*
X121736002Y-71470603D01*
X121755417Y-71467723D01*
X121775020Y-71466760D01*
X123525020Y-71466760D01*
X123544623Y-71467723D01*
X123544623Y-71467723D01*
G37*
D15*
X122650020Y-71866760D03*
D11*
G36*
X123544623Y-72737723D02*
G01*
X123564038Y-72740603D01*
X123583077Y-72745372D01*
X123601557Y-72751984D01*
X123619299Y-72760376D01*
X123636134Y-72770466D01*
X123651899Y-72782158D01*
X123666441Y-72795339D01*
X123679622Y-72809881D01*
X123691314Y-72825646D01*
X123701404Y-72842481D01*
X123709796Y-72860223D01*
X123716408Y-72878703D01*
X123721177Y-72897742D01*
X123724057Y-72917157D01*
X123725020Y-72936760D01*
X123725020Y-73336760D01*
X123724057Y-73356363D01*
X123721177Y-73375778D01*
X123716408Y-73394817D01*
X123709796Y-73413297D01*
X123701404Y-73431039D01*
X123691314Y-73447874D01*
X123679622Y-73463639D01*
X123666441Y-73478181D01*
X123651899Y-73491362D01*
X123636134Y-73503054D01*
X123619299Y-73513144D01*
X123601557Y-73521536D01*
X123583077Y-73528148D01*
X123564038Y-73532917D01*
X123544623Y-73535797D01*
X123525020Y-73536760D01*
X121775020Y-73536760D01*
X121755417Y-73535797D01*
X121736002Y-73532917D01*
X121716963Y-73528148D01*
X121698483Y-73521536D01*
X121680741Y-73513144D01*
X121663906Y-73503054D01*
X121648141Y-73491362D01*
X121633599Y-73478181D01*
X121620418Y-73463639D01*
X121608726Y-73447874D01*
X121598636Y-73431039D01*
X121590244Y-73413297D01*
X121583632Y-73394817D01*
X121578863Y-73375778D01*
X121575983Y-73356363D01*
X121575020Y-73336760D01*
X121575020Y-72936760D01*
X121575983Y-72917157D01*
X121578863Y-72897742D01*
X121583632Y-72878703D01*
X121590244Y-72860223D01*
X121598636Y-72842481D01*
X121608726Y-72825646D01*
X121620418Y-72809881D01*
X121633599Y-72795339D01*
X121648141Y-72782158D01*
X121663906Y-72770466D01*
X121680741Y-72760376D01*
X121698483Y-72751984D01*
X121716963Y-72745372D01*
X121736002Y-72740603D01*
X121755417Y-72737723D01*
X121775020Y-72736760D01*
X123525020Y-72736760D01*
X123544623Y-72737723D01*
X123544623Y-72737723D01*
G37*
D15*
X122650020Y-73136760D03*
D11*
G36*
X123544623Y-74007723D02*
G01*
X123564038Y-74010603D01*
X123583077Y-74015372D01*
X123601557Y-74021984D01*
X123619299Y-74030376D01*
X123636134Y-74040466D01*
X123651899Y-74052158D01*
X123666441Y-74065339D01*
X123679622Y-74079881D01*
X123691314Y-74095646D01*
X123701404Y-74112481D01*
X123709796Y-74130223D01*
X123716408Y-74148703D01*
X123721177Y-74167742D01*
X123724057Y-74187157D01*
X123725020Y-74206760D01*
X123725020Y-74606760D01*
X123724057Y-74626363D01*
X123721177Y-74645778D01*
X123716408Y-74664817D01*
X123709796Y-74683297D01*
X123701404Y-74701039D01*
X123691314Y-74717874D01*
X123679622Y-74733639D01*
X123666441Y-74748181D01*
X123651899Y-74761362D01*
X123636134Y-74773054D01*
X123619299Y-74783144D01*
X123601557Y-74791536D01*
X123583077Y-74798148D01*
X123564038Y-74802917D01*
X123544623Y-74805797D01*
X123525020Y-74806760D01*
X121775020Y-74806760D01*
X121755417Y-74805797D01*
X121736002Y-74802917D01*
X121716963Y-74798148D01*
X121698483Y-74791536D01*
X121680741Y-74783144D01*
X121663906Y-74773054D01*
X121648141Y-74761362D01*
X121633599Y-74748181D01*
X121620418Y-74733639D01*
X121608726Y-74717874D01*
X121598636Y-74701039D01*
X121590244Y-74683297D01*
X121583632Y-74664817D01*
X121578863Y-74645778D01*
X121575983Y-74626363D01*
X121575020Y-74606760D01*
X121575020Y-74206760D01*
X121575983Y-74187157D01*
X121578863Y-74167742D01*
X121583632Y-74148703D01*
X121590244Y-74130223D01*
X121598636Y-74112481D01*
X121608726Y-74095646D01*
X121620418Y-74079881D01*
X121633599Y-74065339D01*
X121648141Y-74052158D01*
X121663906Y-74040466D01*
X121680741Y-74030376D01*
X121698483Y-74021984D01*
X121716963Y-74015372D01*
X121736002Y-74010603D01*
X121755417Y-74007723D01*
X121775020Y-74006760D01*
X123525020Y-74006760D01*
X123544623Y-74007723D01*
X123544623Y-74007723D01*
G37*
D15*
X122650020Y-74406760D03*
D11*
G36*
X118594623Y-74007723D02*
G01*
X118614038Y-74010603D01*
X118633077Y-74015372D01*
X118651557Y-74021984D01*
X118669299Y-74030376D01*
X118686134Y-74040466D01*
X118701899Y-74052158D01*
X118716441Y-74065339D01*
X118729622Y-74079881D01*
X118741314Y-74095646D01*
X118751404Y-74112481D01*
X118759796Y-74130223D01*
X118766408Y-74148703D01*
X118771177Y-74167742D01*
X118774057Y-74187157D01*
X118775020Y-74206760D01*
X118775020Y-74606760D01*
X118774057Y-74626363D01*
X118771177Y-74645778D01*
X118766408Y-74664817D01*
X118759796Y-74683297D01*
X118751404Y-74701039D01*
X118741314Y-74717874D01*
X118729622Y-74733639D01*
X118716441Y-74748181D01*
X118701899Y-74761362D01*
X118686134Y-74773054D01*
X118669299Y-74783144D01*
X118651557Y-74791536D01*
X118633077Y-74798148D01*
X118614038Y-74802917D01*
X118594623Y-74805797D01*
X118575020Y-74806760D01*
X116825020Y-74806760D01*
X116805417Y-74805797D01*
X116786002Y-74802917D01*
X116766963Y-74798148D01*
X116748483Y-74791536D01*
X116730741Y-74783144D01*
X116713906Y-74773054D01*
X116698141Y-74761362D01*
X116683599Y-74748181D01*
X116670418Y-74733639D01*
X116658726Y-74717874D01*
X116648636Y-74701039D01*
X116640244Y-74683297D01*
X116633632Y-74664817D01*
X116628863Y-74645778D01*
X116625983Y-74626363D01*
X116625020Y-74606760D01*
X116625020Y-74206760D01*
X116625983Y-74187157D01*
X116628863Y-74167742D01*
X116633632Y-74148703D01*
X116640244Y-74130223D01*
X116648636Y-74112481D01*
X116658726Y-74095646D01*
X116670418Y-74079881D01*
X116683599Y-74065339D01*
X116698141Y-74052158D01*
X116713906Y-74040466D01*
X116730741Y-74030376D01*
X116748483Y-74021984D01*
X116766963Y-74015372D01*
X116786002Y-74010603D01*
X116805417Y-74007723D01*
X116825020Y-74006760D01*
X118575020Y-74006760D01*
X118594623Y-74007723D01*
X118594623Y-74007723D01*
G37*
D15*
X117700020Y-74406760D03*
D11*
G36*
X118594623Y-72737723D02*
G01*
X118614038Y-72740603D01*
X118633077Y-72745372D01*
X118651557Y-72751984D01*
X118669299Y-72760376D01*
X118686134Y-72770466D01*
X118701899Y-72782158D01*
X118716441Y-72795339D01*
X118729622Y-72809881D01*
X118741314Y-72825646D01*
X118751404Y-72842481D01*
X118759796Y-72860223D01*
X118766408Y-72878703D01*
X118771177Y-72897742D01*
X118774057Y-72917157D01*
X118775020Y-72936760D01*
X118775020Y-73336760D01*
X118774057Y-73356363D01*
X118771177Y-73375778D01*
X118766408Y-73394817D01*
X118759796Y-73413297D01*
X118751404Y-73431039D01*
X118741314Y-73447874D01*
X118729622Y-73463639D01*
X118716441Y-73478181D01*
X118701899Y-73491362D01*
X118686134Y-73503054D01*
X118669299Y-73513144D01*
X118651557Y-73521536D01*
X118633077Y-73528148D01*
X118614038Y-73532917D01*
X118594623Y-73535797D01*
X118575020Y-73536760D01*
X116825020Y-73536760D01*
X116805417Y-73535797D01*
X116786002Y-73532917D01*
X116766963Y-73528148D01*
X116748483Y-73521536D01*
X116730741Y-73513144D01*
X116713906Y-73503054D01*
X116698141Y-73491362D01*
X116683599Y-73478181D01*
X116670418Y-73463639D01*
X116658726Y-73447874D01*
X116648636Y-73431039D01*
X116640244Y-73413297D01*
X116633632Y-73394817D01*
X116628863Y-73375778D01*
X116625983Y-73356363D01*
X116625020Y-73336760D01*
X116625020Y-72936760D01*
X116625983Y-72917157D01*
X116628863Y-72897742D01*
X116633632Y-72878703D01*
X116640244Y-72860223D01*
X116648636Y-72842481D01*
X116658726Y-72825646D01*
X116670418Y-72809881D01*
X116683599Y-72795339D01*
X116698141Y-72782158D01*
X116713906Y-72770466D01*
X116730741Y-72760376D01*
X116748483Y-72751984D01*
X116766963Y-72745372D01*
X116786002Y-72740603D01*
X116805417Y-72737723D01*
X116825020Y-72736760D01*
X118575020Y-72736760D01*
X118594623Y-72737723D01*
X118594623Y-72737723D01*
G37*
D15*
X117700020Y-73136760D03*
D11*
G36*
X118594623Y-71467723D02*
G01*
X118614038Y-71470603D01*
X118633077Y-71475372D01*
X118651557Y-71481984D01*
X118669299Y-71490376D01*
X118686134Y-71500466D01*
X118701899Y-71512158D01*
X118716441Y-71525339D01*
X118729622Y-71539881D01*
X118741314Y-71555646D01*
X118751404Y-71572481D01*
X118759796Y-71590223D01*
X118766408Y-71608703D01*
X118771177Y-71627742D01*
X118774057Y-71647157D01*
X118775020Y-71666760D01*
X118775020Y-72066760D01*
X118774057Y-72086363D01*
X118771177Y-72105778D01*
X118766408Y-72124817D01*
X118759796Y-72143297D01*
X118751404Y-72161039D01*
X118741314Y-72177874D01*
X118729622Y-72193639D01*
X118716441Y-72208181D01*
X118701899Y-72221362D01*
X118686134Y-72233054D01*
X118669299Y-72243144D01*
X118651557Y-72251536D01*
X118633077Y-72258148D01*
X118614038Y-72262917D01*
X118594623Y-72265797D01*
X118575020Y-72266760D01*
X116825020Y-72266760D01*
X116805417Y-72265797D01*
X116786002Y-72262917D01*
X116766963Y-72258148D01*
X116748483Y-72251536D01*
X116730741Y-72243144D01*
X116713906Y-72233054D01*
X116698141Y-72221362D01*
X116683599Y-72208181D01*
X116670418Y-72193639D01*
X116658726Y-72177874D01*
X116648636Y-72161039D01*
X116640244Y-72143297D01*
X116633632Y-72124817D01*
X116628863Y-72105778D01*
X116625983Y-72086363D01*
X116625020Y-72066760D01*
X116625020Y-71666760D01*
X116625983Y-71647157D01*
X116628863Y-71627742D01*
X116633632Y-71608703D01*
X116640244Y-71590223D01*
X116648636Y-71572481D01*
X116658726Y-71555646D01*
X116670418Y-71539881D01*
X116683599Y-71525339D01*
X116698141Y-71512158D01*
X116713906Y-71500466D01*
X116730741Y-71490376D01*
X116748483Y-71481984D01*
X116766963Y-71475372D01*
X116786002Y-71470603D01*
X116805417Y-71467723D01*
X116825020Y-71466760D01*
X118575020Y-71466760D01*
X118594623Y-71467723D01*
X118594623Y-71467723D01*
G37*
D15*
X117700020Y-71866760D03*
D11*
G36*
X118594623Y-70197723D02*
G01*
X118614038Y-70200603D01*
X118633077Y-70205372D01*
X118651557Y-70211984D01*
X118669299Y-70220376D01*
X118686134Y-70230466D01*
X118701899Y-70242158D01*
X118716441Y-70255339D01*
X118729622Y-70269881D01*
X118741314Y-70285646D01*
X118751404Y-70302481D01*
X118759796Y-70320223D01*
X118766408Y-70338703D01*
X118771177Y-70357742D01*
X118774057Y-70377157D01*
X118775020Y-70396760D01*
X118775020Y-70796760D01*
X118774057Y-70816363D01*
X118771177Y-70835778D01*
X118766408Y-70854817D01*
X118759796Y-70873297D01*
X118751404Y-70891039D01*
X118741314Y-70907874D01*
X118729622Y-70923639D01*
X118716441Y-70938181D01*
X118701899Y-70951362D01*
X118686134Y-70963054D01*
X118669299Y-70973144D01*
X118651557Y-70981536D01*
X118633077Y-70988148D01*
X118614038Y-70992917D01*
X118594623Y-70995797D01*
X118575020Y-70996760D01*
X116825020Y-70996760D01*
X116805417Y-70995797D01*
X116786002Y-70992917D01*
X116766963Y-70988148D01*
X116748483Y-70981536D01*
X116730741Y-70973144D01*
X116713906Y-70963054D01*
X116698141Y-70951362D01*
X116683599Y-70938181D01*
X116670418Y-70923639D01*
X116658726Y-70907874D01*
X116648636Y-70891039D01*
X116640244Y-70873297D01*
X116633632Y-70854817D01*
X116628863Y-70835778D01*
X116625983Y-70816363D01*
X116625020Y-70796760D01*
X116625020Y-70396760D01*
X116625983Y-70377157D01*
X116628863Y-70357742D01*
X116633632Y-70338703D01*
X116640244Y-70320223D01*
X116648636Y-70302481D01*
X116658726Y-70285646D01*
X116670418Y-70269881D01*
X116683599Y-70255339D01*
X116698141Y-70242158D01*
X116713906Y-70230466D01*
X116730741Y-70220376D01*
X116748483Y-70211984D01*
X116766963Y-70205372D01*
X116786002Y-70200603D01*
X116805417Y-70197723D01*
X116825020Y-70196760D01*
X118575020Y-70196760D01*
X118594623Y-70197723D01*
X118594623Y-70197723D01*
G37*
D15*
X117700020Y-70596760D03*
D16*
X93957800Y-99809300D03*
D17*
X103107800Y-96409300D03*
X103107800Y-98109300D03*
X103107800Y-99809300D03*
X103107800Y-101509300D03*
X103107800Y-103209300D03*
D11*
G36*
X100682409Y-75007093D02*
G01*
X100710898Y-75011319D01*
X100738835Y-75018317D01*
X100765952Y-75028020D01*
X100791987Y-75040333D01*
X100816690Y-75055140D01*
X100839823Y-75072296D01*
X100861163Y-75091637D01*
X100880504Y-75112977D01*
X100897660Y-75136110D01*
X100912467Y-75160813D01*
X100924780Y-75186848D01*
X100934483Y-75213965D01*
X100941481Y-75241902D01*
X100945707Y-75270391D01*
X100947120Y-75299157D01*
X100947120Y-76062203D01*
X100945707Y-76090969D01*
X100941481Y-76119458D01*
X100934483Y-76147395D01*
X100924780Y-76174512D01*
X100912467Y-76200547D01*
X100897660Y-76225250D01*
X100880504Y-76248383D01*
X100861163Y-76269723D01*
X100839823Y-76289064D01*
X100816690Y-76306220D01*
X100791987Y-76321027D01*
X100765952Y-76333340D01*
X100738835Y-76343043D01*
X100710898Y-76350041D01*
X100682409Y-76354267D01*
X100653643Y-76355680D01*
X99640597Y-76355680D01*
X99611831Y-76354267D01*
X99583342Y-76350041D01*
X99555405Y-76343043D01*
X99528288Y-76333340D01*
X99502253Y-76321027D01*
X99477550Y-76306220D01*
X99454417Y-76289064D01*
X99433077Y-76269723D01*
X99413736Y-76248383D01*
X99396580Y-76225250D01*
X99381773Y-76200547D01*
X99369460Y-76174512D01*
X99359757Y-76147395D01*
X99352759Y-76119458D01*
X99348533Y-76090969D01*
X99347120Y-76062203D01*
X99347120Y-75299157D01*
X99348533Y-75270391D01*
X99352759Y-75241902D01*
X99359757Y-75213965D01*
X99369460Y-75186848D01*
X99381773Y-75160813D01*
X99396580Y-75136110D01*
X99413736Y-75112977D01*
X99433077Y-75091637D01*
X99454417Y-75072296D01*
X99477550Y-75055140D01*
X99502253Y-75040333D01*
X99528288Y-75028020D01*
X99555405Y-75018317D01*
X99583342Y-75011319D01*
X99611831Y-75007093D01*
X99640597Y-75005680D01*
X100653643Y-75005680D01*
X100682409Y-75007093D01*
X100682409Y-75007093D01*
G37*
D18*
X100147120Y-75680680D03*
D11*
G36*
X100682409Y-72957093D02*
G01*
X100710898Y-72961319D01*
X100738835Y-72968317D01*
X100765952Y-72978020D01*
X100791987Y-72990333D01*
X100816690Y-73005140D01*
X100839823Y-73022296D01*
X100861163Y-73041637D01*
X100880504Y-73062977D01*
X100897660Y-73086110D01*
X100912467Y-73110813D01*
X100924780Y-73136848D01*
X100934483Y-73163965D01*
X100941481Y-73191902D01*
X100945707Y-73220391D01*
X100947120Y-73249157D01*
X100947120Y-74012203D01*
X100945707Y-74040969D01*
X100941481Y-74069458D01*
X100934483Y-74097395D01*
X100924780Y-74124512D01*
X100912467Y-74150547D01*
X100897660Y-74175250D01*
X100880504Y-74198383D01*
X100861163Y-74219723D01*
X100839823Y-74239064D01*
X100816690Y-74256220D01*
X100791987Y-74271027D01*
X100765952Y-74283340D01*
X100738835Y-74293043D01*
X100710898Y-74300041D01*
X100682409Y-74304267D01*
X100653643Y-74305680D01*
X99640597Y-74305680D01*
X99611831Y-74304267D01*
X99583342Y-74300041D01*
X99555405Y-74293043D01*
X99528288Y-74283340D01*
X99502253Y-74271027D01*
X99477550Y-74256220D01*
X99454417Y-74239064D01*
X99433077Y-74219723D01*
X99413736Y-74198383D01*
X99396580Y-74175250D01*
X99381773Y-74150547D01*
X99369460Y-74124512D01*
X99359757Y-74097395D01*
X99352759Y-74069458D01*
X99348533Y-74040969D01*
X99347120Y-74012203D01*
X99347120Y-73249157D01*
X99348533Y-73220391D01*
X99352759Y-73191902D01*
X99359757Y-73163965D01*
X99369460Y-73136848D01*
X99381773Y-73110813D01*
X99396580Y-73086110D01*
X99413736Y-73062977D01*
X99433077Y-73041637D01*
X99454417Y-73022296D01*
X99477550Y-73005140D01*
X99502253Y-72990333D01*
X99528288Y-72978020D01*
X99555405Y-72968317D01*
X99583342Y-72961319D01*
X99611831Y-72957093D01*
X99640597Y-72955680D01*
X100653643Y-72955680D01*
X100682409Y-72957093D01*
X100682409Y-72957093D01*
G37*
D18*
X100147120Y-73630680D03*
D11*
G36*
X108337969Y-75007093D02*
G01*
X108366458Y-75011319D01*
X108394395Y-75018317D01*
X108421512Y-75028020D01*
X108447547Y-75040333D01*
X108472250Y-75055140D01*
X108495383Y-75072296D01*
X108516723Y-75091637D01*
X108536064Y-75112977D01*
X108553220Y-75136110D01*
X108568027Y-75160813D01*
X108580340Y-75186848D01*
X108590043Y-75213965D01*
X108597041Y-75241902D01*
X108601267Y-75270391D01*
X108602680Y-75299157D01*
X108602680Y-76062203D01*
X108601267Y-76090969D01*
X108597041Y-76119458D01*
X108590043Y-76147395D01*
X108580340Y-76174512D01*
X108568027Y-76200547D01*
X108553220Y-76225250D01*
X108536064Y-76248383D01*
X108516723Y-76269723D01*
X108495383Y-76289064D01*
X108472250Y-76306220D01*
X108447547Y-76321027D01*
X108421512Y-76333340D01*
X108394395Y-76343043D01*
X108366458Y-76350041D01*
X108337969Y-76354267D01*
X108309203Y-76355680D01*
X107296157Y-76355680D01*
X107267391Y-76354267D01*
X107238902Y-76350041D01*
X107210965Y-76343043D01*
X107183848Y-76333340D01*
X107157813Y-76321027D01*
X107133110Y-76306220D01*
X107109977Y-76289064D01*
X107088637Y-76269723D01*
X107069296Y-76248383D01*
X107052140Y-76225250D01*
X107037333Y-76200547D01*
X107025020Y-76174512D01*
X107015317Y-76147395D01*
X107008319Y-76119458D01*
X107004093Y-76090969D01*
X107002680Y-76062203D01*
X107002680Y-75299157D01*
X107004093Y-75270391D01*
X107008319Y-75241902D01*
X107015317Y-75213965D01*
X107025020Y-75186848D01*
X107037333Y-75160813D01*
X107052140Y-75136110D01*
X107069296Y-75112977D01*
X107088637Y-75091637D01*
X107109977Y-75072296D01*
X107133110Y-75055140D01*
X107157813Y-75040333D01*
X107183848Y-75028020D01*
X107210965Y-75018317D01*
X107238902Y-75011319D01*
X107267391Y-75007093D01*
X107296157Y-75005680D01*
X108309203Y-75005680D01*
X108337969Y-75007093D01*
X108337969Y-75007093D01*
G37*
D18*
X107802680Y-75680680D03*
D11*
G36*
X108337969Y-72957093D02*
G01*
X108366458Y-72961319D01*
X108394395Y-72968317D01*
X108421512Y-72978020D01*
X108447547Y-72990333D01*
X108472250Y-73005140D01*
X108495383Y-73022296D01*
X108516723Y-73041637D01*
X108536064Y-73062977D01*
X108553220Y-73086110D01*
X108568027Y-73110813D01*
X108580340Y-73136848D01*
X108590043Y-73163965D01*
X108597041Y-73191902D01*
X108601267Y-73220391D01*
X108602680Y-73249157D01*
X108602680Y-74012203D01*
X108601267Y-74040969D01*
X108597041Y-74069458D01*
X108590043Y-74097395D01*
X108580340Y-74124512D01*
X108568027Y-74150547D01*
X108553220Y-74175250D01*
X108536064Y-74198383D01*
X108516723Y-74219723D01*
X108495383Y-74239064D01*
X108472250Y-74256220D01*
X108447547Y-74271027D01*
X108421512Y-74283340D01*
X108394395Y-74293043D01*
X108366458Y-74300041D01*
X108337969Y-74304267D01*
X108309203Y-74305680D01*
X107296157Y-74305680D01*
X107267391Y-74304267D01*
X107238902Y-74300041D01*
X107210965Y-74293043D01*
X107183848Y-74283340D01*
X107157813Y-74271027D01*
X107133110Y-74256220D01*
X107109977Y-74239064D01*
X107088637Y-74219723D01*
X107069296Y-74198383D01*
X107052140Y-74175250D01*
X107037333Y-74150547D01*
X107025020Y-74124512D01*
X107015317Y-74097395D01*
X107008319Y-74069458D01*
X107004093Y-74040969D01*
X107002680Y-74012203D01*
X107002680Y-73249157D01*
X107004093Y-73220391D01*
X107008319Y-73191902D01*
X107015317Y-73163965D01*
X107025020Y-73136848D01*
X107037333Y-73110813D01*
X107052140Y-73086110D01*
X107069296Y-73062977D01*
X107088637Y-73041637D01*
X107109977Y-73022296D01*
X107133110Y-73005140D01*
X107157813Y-72990333D01*
X107183848Y-72978020D01*
X107210965Y-72968317D01*
X107238902Y-72961319D01*
X107267391Y-72957093D01*
X107296157Y-72955680D01*
X108309203Y-72955680D01*
X108337969Y-72957093D01*
X108337969Y-72957093D01*
G37*
D18*
X107802680Y-73630680D03*
D11*
G36*
X88552929Y-111840253D02*
G01*
X88581418Y-111844479D01*
X88609355Y-111851477D01*
X88636472Y-111861180D01*
X88662507Y-111873493D01*
X88687210Y-111888300D01*
X88710343Y-111905456D01*
X88731683Y-111924797D01*
X88751024Y-111946137D01*
X88768180Y-111969270D01*
X88782987Y-111993973D01*
X88795300Y-112020008D01*
X88805003Y-112047125D01*
X88812001Y-112075062D01*
X88816227Y-112103551D01*
X88817640Y-112132317D01*
X88817640Y-113145363D01*
X88816227Y-113174129D01*
X88812001Y-113202618D01*
X88805003Y-113230555D01*
X88795300Y-113257672D01*
X88782987Y-113283707D01*
X88768180Y-113308410D01*
X88751024Y-113331543D01*
X88731683Y-113352883D01*
X88710343Y-113372224D01*
X88687210Y-113389380D01*
X88662507Y-113404187D01*
X88636472Y-113416500D01*
X88609355Y-113426203D01*
X88581418Y-113433201D01*
X88552929Y-113437427D01*
X88524163Y-113438840D01*
X87761117Y-113438840D01*
X87732351Y-113437427D01*
X87703862Y-113433201D01*
X87675925Y-113426203D01*
X87648808Y-113416500D01*
X87622773Y-113404187D01*
X87598070Y-113389380D01*
X87574937Y-113372224D01*
X87553597Y-113352883D01*
X87534256Y-113331543D01*
X87517100Y-113308410D01*
X87502293Y-113283707D01*
X87489980Y-113257672D01*
X87480277Y-113230555D01*
X87473279Y-113202618D01*
X87469053Y-113174129D01*
X87467640Y-113145363D01*
X87467640Y-112132317D01*
X87469053Y-112103551D01*
X87473279Y-112075062D01*
X87480277Y-112047125D01*
X87489980Y-112020008D01*
X87502293Y-111993973D01*
X87517100Y-111969270D01*
X87534256Y-111946137D01*
X87553597Y-111924797D01*
X87574937Y-111905456D01*
X87598070Y-111888300D01*
X87622773Y-111873493D01*
X87648808Y-111861180D01*
X87675925Y-111851477D01*
X87703862Y-111844479D01*
X87732351Y-111840253D01*
X87761117Y-111838840D01*
X88524163Y-111838840D01*
X88552929Y-111840253D01*
X88552929Y-111840253D01*
G37*
D18*
X88142640Y-112638840D03*
D11*
G36*
X86502929Y-111840253D02*
G01*
X86531418Y-111844479D01*
X86559355Y-111851477D01*
X86586472Y-111861180D01*
X86612507Y-111873493D01*
X86637210Y-111888300D01*
X86660343Y-111905456D01*
X86681683Y-111924797D01*
X86701024Y-111946137D01*
X86718180Y-111969270D01*
X86732987Y-111993973D01*
X86745300Y-112020008D01*
X86755003Y-112047125D01*
X86762001Y-112075062D01*
X86766227Y-112103551D01*
X86767640Y-112132317D01*
X86767640Y-113145363D01*
X86766227Y-113174129D01*
X86762001Y-113202618D01*
X86755003Y-113230555D01*
X86745300Y-113257672D01*
X86732987Y-113283707D01*
X86718180Y-113308410D01*
X86701024Y-113331543D01*
X86681683Y-113352883D01*
X86660343Y-113372224D01*
X86637210Y-113389380D01*
X86612507Y-113404187D01*
X86586472Y-113416500D01*
X86559355Y-113426203D01*
X86531418Y-113433201D01*
X86502929Y-113437427D01*
X86474163Y-113438840D01*
X85711117Y-113438840D01*
X85682351Y-113437427D01*
X85653862Y-113433201D01*
X85625925Y-113426203D01*
X85598808Y-113416500D01*
X85572773Y-113404187D01*
X85548070Y-113389380D01*
X85524937Y-113372224D01*
X85503597Y-113352883D01*
X85484256Y-113331543D01*
X85467100Y-113308410D01*
X85452293Y-113283707D01*
X85439980Y-113257672D01*
X85430277Y-113230555D01*
X85423279Y-113202618D01*
X85419053Y-113174129D01*
X85417640Y-113145363D01*
X85417640Y-112132317D01*
X85419053Y-112103551D01*
X85423279Y-112075062D01*
X85430277Y-112047125D01*
X85439980Y-112020008D01*
X85452293Y-111993973D01*
X85467100Y-111969270D01*
X85484256Y-111946137D01*
X85503597Y-111924797D01*
X85524937Y-111905456D01*
X85548070Y-111888300D01*
X85572773Y-111873493D01*
X85598808Y-111861180D01*
X85625925Y-111851477D01*
X85653862Y-111844479D01*
X85682351Y-111840253D01*
X85711117Y-111838840D01*
X86474163Y-111838840D01*
X86502929Y-111840253D01*
X86502929Y-111840253D01*
G37*
D18*
X86092640Y-112638840D03*
D11*
G36*
X116984749Y-75419193D02*
G01*
X117013238Y-75423419D01*
X117041175Y-75430417D01*
X117068292Y-75440120D01*
X117094327Y-75452433D01*
X117119030Y-75467240D01*
X117142163Y-75484396D01*
X117163503Y-75503737D01*
X117182844Y-75525077D01*
X117200000Y-75548210D01*
X117214807Y-75572913D01*
X117227120Y-75598948D01*
X117236823Y-75626065D01*
X117243821Y-75654002D01*
X117248047Y-75682491D01*
X117249460Y-75711257D01*
X117249460Y-76724303D01*
X117248047Y-76753069D01*
X117243821Y-76781558D01*
X117236823Y-76809495D01*
X117227120Y-76836612D01*
X117214807Y-76862647D01*
X117200000Y-76887350D01*
X117182844Y-76910483D01*
X117163503Y-76931823D01*
X117142163Y-76951164D01*
X117119030Y-76968320D01*
X117094327Y-76983127D01*
X117068292Y-76995440D01*
X117041175Y-77005143D01*
X117013238Y-77012141D01*
X116984749Y-77016367D01*
X116955983Y-77017780D01*
X116192937Y-77017780D01*
X116164171Y-77016367D01*
X116135682Y-77012141D01*
X116107745Y-77005143D01*
X116080628Y-76995440D01*
X116054593Y-76983127D01*
X116029890Y-76968320D01*
X116006757Y-76951164D01*
X115985417Y-76931823D01*
X115966076Y-76910483D01*
X115948920Y-76887350D01*
X115934113Y-76862647D01*
X115921800Y-76836612D01*
X115912097Y-76809495D01*
X115905099Y-76781558D01*
X115900873Y-76753069D01*
X115899460Y-76724303D01*
X115899460Y-75711257D01*
X115900873Y-75682491D01*
X115905099Y-75654002D01*
X115912097Y-75626065D01*
X115921800Y-75598948D01*
X115934113Y-75572913D01*
X115948920Y-75548210D01*
X115966076Y-75525077D01*
X115985417Y-75503737D01*
X116006757Y-75484396D01*
X116029890Y-75467240D01*
X116054593Y-75452433D01*
X116080628Y-75440120D01*
X116107745Y-75430417D01*
X116135682Y-75423419D01*
X116164171Y-75419193D01*
X116192937Y-75417780D01*
X116955983Y-75417780D01*
X116984749Y-75419193D01*
X116984749Y-75419193D01*
G37*
D18*
X116574460Y-76217780D03*
D11*
G36*
X119034749Y-75419193D02*
G01*
X119063238Y-75423419D01*
X119091175Y-75430417D01*
X119118292Y-75440120D01*
X119144327Y-75452433D01*
X119169030Y-75467240D01*
X119192163Y-75484396D01*
X119213503Y-75503737D01*
X119232844Y-75525077D01*
X119250000Y-75548210D01*
X119264807Y-75572913D01*
X119277120Y-75598948D01*
X119286823Y-75626065D01*
X119293821Y-75654002D01*
X119298047Y-75682491D01*
X119299460Y-75711257D01*
X119299460Y-76724303D01*
X119298047Y-76753069D01*
X119293821Y-76781558D01*
X119286823Y-76809495D01*
X119277120Y-76836612D01*
X119264807Y-76862647D01*
X119250000Y-76887350D01*
X119232844Y-76910483D01*
X119213503Y-76931823D01*
X119192163Y-76951164D01*
X119169030Y-76968320D01*
X119144327Y-76983127D01*
X119118292Y-76995440D01*
X119091175Y-77005143D01*
X119063238Y-77012141D01*
X119034749Y-77016367D01*
X119005983Y-77017780D01*
X118242937Y-77017780D01*
X118214171Y-77016367D01*
X118185682Y-77012141D01*
X118157745Y-77005143D01*
X118130628Y-76995440D01*
X118104593Y-76983127D01*
X118079890Y-76968320D01*
X118056757Y-76951164D01*
X118035417Y-76931823D01*
X118016076Y-76910483D01*
X117998920Y-76887350D01*
X117984113Y-76862647D01*
X117971800Y-76836612D01*
X117962097Y-76809495D01*
X117955099Y-76781558D01*
X117950873Y-76753069D01*
X117949460Y-76724303D01*
X117949460Y-75711257D01*
X117950873Y-75682491D01*
X117955099Y-75654002D01*
X117962097Y-75626065D01*
X117971800Y-75598948D01*
X117984113Y-75572913D01*
X117998920Y-75548210D01*
X118016076Y-75525077D01*
X118035417Y-75503737D01*
X118056757Y-75484396D01*
X118079890Y-75467240D01*
X118104593Y-75452433D01*
X118130628Y-75440120D01*
X118157745Y-75430417D01*
X118185682Y-75423419D01*
X118214171Y-75419193D01*
X118242937Y-75417780D01*
X119005983Y-75417780D01*
X119034749Y-75419193D01*
X119034749Y-75419193D01*
G37*
D18*
X118624460Y-76217780D03*
D11*
G36*
X134604949Y-109973353D02*
G01*
X134633438Y-109977579D01*
X134661375Y-109984577D01*
X134688492Y-109994280D01*
X134714527Y-110006593D01*
X134739230Y-110021400D01*
X134762363Y-110038556D01*
X134783703Y-110057897D01*
X134803044Y-110079237D01*
X134820200Y-110102370D01*
X134835007Y-110127073D01*
X134847320Y-110153108D01*
X134857023Y-110180225D01*
X134864021Y-110208162D01*
X134868247Y-110236651D01*
X134869660Y-110265417D01*
X134869660Y-111278463D01*
X134868247Y-111307229D01*
X134864021Y-111335718D01*
X134857023Y-111363655D01*
X134847320Y-111390772D01*
X134835007Y-111416807D01*
X134820200Y-111441510D01*
X134803044Y-111464643D01*
X134783703Y-111485983D01*
X134762363Y-111505324D01*
X134739230Y-111522480D01*
X134714527Y-111537287D01*
X134688492Y-111549600D01*
X134661375Y-111559303D01*
X134633438Y-111566301D01*
X134604949Y-111570527D01*
X134576183Y-111571940D01*
X133813137Y-111571940D01*
X133784371Y-111570527D01*
X133755882Y-111566301D01*
X133727945Y-111559303D01*
X133700828Y-111549600D01*
X133674793Y-111537287D01*
X133650090Y-111522480D01*
X133626957Y-111505324D01*
X133605617Y-111485983D01*
X133586276Y-111464643D01*
X133569120Y-111441510D01*
X133554313Y-111416807D01*
X133542000Y-111390772D01*
X133532297Y-111363655D01*
X133525299Y-111335718D01*
X133521073Y-111307229D01*
X133519660Y-111278463D01*
X133519660Y-110265417D01*
X133521073Y-110236651D01*
X133525299Y-110208162D01*
X133532297Y-110180225D01*
X133542000Y-110153108D01*
X133554313Y-110127073D01*
X133569120Y-110102370D01*
X133586276Y-110079237D01*
X133605617Y-110057897D01*
X133626957Y-110038556D01*
X133650090Y-110021400D01*
X133674793Y-110006593D01*
X133700828Y-109994280D01*
X133727945Y-109984577D01*
X133755882Y-109977579D01*
X133784371Y-109973353D01*
X133813137Y-109971940D01*
X134576183Y-109971940D01*
X134604949Y-109973353D01*
X134604949Y-109973353D01*
G37*
D18*
X134194660Y-110771940D03*
D11*
G36*
X132554949Y-109973353D02*
G01*
X132583438Y-109977579D01*
X132611375Y-109984577D01*
X132638492Y-109994280D01*
X132664527Y-110006593D01*
X132689230Y-110021400D01*
X132712363Y-110038556D01*
X132733703Y-110057897D01*
X132753044Y-110079237D01*
X132770200Y-110102370D01*
X132785007Y-110127073D01*
X132797320Y-110153108D01*
X132807023Y-110180225D01*
X132814021Y-110208162D01*
X132818247Y-110236651D01*
X132819660Y-110265417D01*
X132819660Y-111278463D01*
X132818247Y-111307229D01*
X132814021Y-111335718D01*
X132807023Y-111363655D01*
X132797320Y-111390772D01*
X132785007Y-111416807D01*
X132770200Y-111441510D01*
X132753044Y-111464643D01*
X132733703Y-111485983D01*
X132712363Y-111505324D01*
X132689230Y-111522480D01*
X132664527Y-111537287D01*
X132638492Y-111549600D01*
X132611375Y-111559303D01*
X132583438Y-111566301D01*
X132554949Y-111570527D01*
X132526183Y-111571940D01*
X131763137Y-111571940D01*
X131734371Y-111570527D01*
X131705882Y-111566301D01*
X131677945Y-111559303D01*
X131650828Y-111549600D01*
X131624793Y-111537287D01*
X131600090Y-111522480D01*
X131576957Y-111505324D01*
X131555617Y-111485983D01*
X131536276Y-111464643D01*
X131519120Y-111441510D01*
X131504313Y-111416807D01*
X131492000Y-111390772D01*
X131482297Y-111363655D01*
X131475299Y-111335718D01*
X131471073Y-111307229D01*
X131469660Y-111278463D01*
X131469660Y-110265417D01*
X131471073Y-110236651D01*
X131475299Y-110208162D01*
X131482297Y-110180225D01*
X131492000Y-110153108D01*
X131504313Y-110127073D01*
X131519120Y-110102370D01*
X131536276Y-110079237D01*
X131555617Y-110057897D01*
X131576957Y-110038556D01*
X131600090Y-110021400D01*
X131624793Y-110006593D01*
X131650828Y-109994280D01*
X131677945Y-109984577D01*
X131705882Y-109977579D01*
X131734371Y-109973353D01*
X131763137Y-109971940D01*
X132526183Y-109971940D01*
X132554949Y-109973353D01*
X132554949Y-109973353D01*
G37*
D18*
X132144660Y-110771940D03*
D11*
G36*
X134619029Y-112482873D02*
G01*
X134647518Y-112487099D01*
X134675455Y-112494097D01*
X134702572Y-112503800D01*
X134728607Y-112516113D01*
X134753310Y-112530920D01*
X134776443Y-112548076D01*
X134797783Y-112567417D01*
X134817124Y-112588757D01*
X134834280Y-112611890D01*
X134849087Y-112636593D01*
X134861400Y-112662628D01*
X134871103Y-112689745D01*
X134878101Y-112717682D01*
X134882327Y-112746171D01*
X134883740Y-112774937D01*
X134883740Y-113787983D01*
X134882327Y-113816749D01*
X134878101Y-113845238D01*
X134871103Y-113873175D01*
X134861400Y-113900292D01*
X134849087Y-113926327D01*
X134834280Y-113951030D01*
X134817124Y-113974163D01*
X134797783Y-113995503D01*
X134776443Y-114014844D01*
X134753310Y-114032000D01*
X134728607Y-114046807D01*
X134702572Y-114059120D01*
X134675455Y-114068823D01*
X134647518Y-114075821D01*
X134619029Y-114080047D01*
X134590263Y-114081460D01*
X133827217Y-114081460D01*
X133798451Y-114080047D01*
X133769962Y-114075821D01*
X133742025Y-114068823D01*
X133714908Y-114059120D01*
X133688873Y-114046807D01*
X133664170Y-114032000D01*
X133641037Y-114014844D01*
X133619697Y-113995503D01*
X133600356Y-113974163D01*
X133583200Y-113951030D01*
X133568393Y-113926327D01*
X133556080Y-113900292D01*
X133546377Y-113873175D01*
X133539379Y-113845238D01*
X133535153Y-113816749D01*
X133533740Y-113787983D01*
X133533740Y-112774937D01*
X133535153Y-112746171D01*
X133539379Y-112717682D01*
X133546377Y-112689745D01*
X133556080Y-112662628D01*
X133568393Y-112636593D01*
X133583200Y-112611890D01*
X133600356Y-112588757D01*
X133619697Y-112567417D01*
X133641037Y-112548076D01*
X133664170Y-112530920D01*
X133688873Y-112516113D01*
X133714908Y-112503800D01*
X133742025Y-112494097D01*
X133769962Y-112487099D01*
X133798451Y-112482873D01*
X133827217Y-112481460D01*
X134590263Y-112481460D01*
X134619029Y-112482873D01*
X134619029Y-112482873D01*
G37*
D18*
X134208740Y-113281460D03*
D11*
G36*
X132569029Y-112482873D02*
G01*
X132597518Y-112487099D01*
X132625455Y-112494097D01*
X132652572Y-112503800D01*
X132678607Y-112516113D01*
X132703310Y-112530920D01*
X132726443Y-112548076D01*
X132747783Y-112567417D01*
X132767124Y-112588757D01*
X132784280Y-112611890D01*
X132799087Y-112636593D01*
X132811400Y-112662628D01*
X132821103Y-112689745D01*
X132828101Y-112717682D01*
X132832327Y-112746171D01*
X132833740Y-112774937D01*
X132833740Y-113787983D01*
X132832327Y-113816749D01*
X132828101Y-113845238D01*
X132821103Y-113873175D01*
X132811400Y-113900292D01*
X132799087Y-113926327D01*
X132784280Y-113951030D01*
X132767124Y-113974163D01*
X132747783Y-113995503D01*
X132726443Y-114014844D01*
X132703310Y-114032000D01*
X132678607Y-114046807D01*
X132652572Y-114059120D01*
X132625455Y-114068823D01*
X132597518Y-114075821D01*
X132569029Y-114080047D01*
X132540263Y-114081460D01*
X131777217Y-114081460D01*
X131748451Y-114080047D01*
X131719962Y-114075821D01*
X131692025Y-114068823D01*
X131664908Y-114059120D01*
X131638873Y-114046807D01*
X131614170Y-114032000D01*
X131591037Y-114014844D01*
X131569697Y-113995503D01*
X131550356Y-113974163D01*
X131533200Y-113951030D01*
X131518393Y-113926327D01*
X131506080Y-113900292D01*
X131496377Y-113873175D01*
X131489379Y-113845238D01*
X131485153Y-113816749D01*
X131483740Y-113787983D01*
X131483740Y-112774937D01*
X131485153Y-112746171D01*
X131489379Y-112717682D01*
X131496377Y-112689745D01*
X131506080Y-112662628D01*
X131518393Y-112636593D01*
X131533200Y-112611890D01*
X131550356Y-112588757D01*
X131569697Y-112567417D01*
X131591037Y-112548076D01*
X131614170Y-112530920D01*
X131638873Y-112516113D01*
X131664908Y-112503800D01*
X131692025Y-112494097D01*
X131719962Y-112487099D01*
X131748451Y-112482873D01*
X131777217Y-112481460D01*
X132540263Y-112481460D01*
X132569029Y-112482873D01*
X132569029Y-112482873D01*
G37*
D18*
X132158740Y-113281460D03*
D19*
X90307160Y-89928700D03*
D20*
X90307160Y-87388700D03*
D21*
X115595400Y-95405400D03*
X115595400Y-105305400D03*
D12*
X140355320Y-74569680D03*
X140355320Y-78069680D03*
X140355320Y-81569680D03*
D22*
X140355320Y-85069680D03*
D12*
X81617820Y-83832460D03*
X81617820Y-80332460D03*
X81617820Y-76832460D03*
D22*
X81617820Y-73332460D03*
D12*
X140355320Y-90876360D03*
X140355320Y-94376360D03*
X140355320Y-97876360D03*
D22*
X140355320Y-101376360D03*
D23*
X91749200Y-112014000D03*
X114249200Y-112014000D03*
D11*
G36*
X103149835Y-72934593D02*
G01*
X103178324Y-72938819D01*
X103206261Y-72945817D01*
X103233378Y-72955520D01*
X103259413Y-72967833D01*
X103284116Y-72982640D01*
X103307249Y-72999796D01*
X103328589Y-73019137D01*
X103347930Y-73040477D01*
X103365086Y-73063610D01*
X103379893Y-73088313D01*
X103392206Y-73114348D01*
X103401909Y-73141465D01*
X103408907Y-73169402D01*
X103413133Y-73197891D01*
X103414546Y-73226657D01*
X103414546Y-73989703D01*
X103413133Y-74018469D01*
X103408907Y-74046958D01*
X103401909Y-74074895D01*
X103392206Y-74102012D01*
X103379893Y-74128047D01*
X103365086Y-74152750D01*
X103347930Y-74175883D01*
X103328589Y-74197223D01*
X103307249Y-74216564D01*
X103284116Y-74233720D01*
X103259413Y-74248527D01*
X103233378Y-74260840D01*
X103206261Y-74270543D01*
X103178324Y-74277541D01*
X103149835Y-74281767D01*
X103121069Y-74283180D01*
X102108023Y-74283180D01*
X102079257Y-74281767D01*
X102050768Y-74277541D01*
X102022831Y-74270543D01*
X101995714Y-74260840D01*
X101969679Y-74248527D01*
X101944976Y-74233720D01*
X101921843Y-74216564D01*
X101900503Y-74197223D01*
X101881162Y-74175883D01*
X101864006Y-74152750D01*
X101849199Y-74128047D01*
X101836886Y-74102012D01*
X101827183Y-74074895D01*
X101820185Y-74046958D01*
X101815959Y-74018469D01*
X101814546Y-73989703D01*
X101814546Y-73226657D01*
X101815959Y-73197891D01*
X101820185Y-73169402D01*
X101827183Y-73141465D01*
X101836886Y-73114348D01*
X101849199Y-73088313D01*
X101864006Y-73063610D01*
X101881162Y-73040477D01*
X101900503Y-73019137D01*
X101921843Y-72999796D01*
X101944976Y-72982640D01*
X101969679Y-72967833D01*
X101995714Y-72955520D01*
X102022831Y-72945817D01*
X102050768Y-72938819D01*
X102079257Y-72934593D01*
X102108023Y-72933180D01*
X103121069Y-72933180D01*
X103149835Y-72934593D01*
X103149835Y-72934593D01*
G37*
D18*
X102614546Y-73608180D03*
D11*
G36*
X103149835Y-74984593D02*
G01*
X103178324Y-74988819D01*
X103206261Y-74995817D01*
X103233378Y-75005520D01*
X103259413Y-75017833D01*
X103284116Y-75032640D01*
X103307249Y-75049796D01*
X103328589Y-75069137D01*
X103347930Y-75090477D01*
X103365086Y-75113610D01*
X103379893Y-75138313D01*
X103392206Y-75164348D01*
X103401909Y-75191465D01*
X103408907Y-75219402D01*
X103413133Y-75247891D01*
X103414546Y-75276657D01*
X103414546Y-76039703D01*
X103413133Y-76068469D01*
X103408907Y-76096958D01*
X103401909Y-76124895D01*
X103392206Y-76152012D01*
X103379893Y-76178047D01*
X103365086Y-76202750D01*
X103347930Y-76225883D01*
X103328589Y-76247223D01*
X103307249Y-76266564D01*
X103284116Y-76283720D01*
X103259413Y-76298527D01*
X103233378Y-76310840D01*
X103206261Y-76320543D01*
X103178324Y-76327541D01*
X103149835Y-76331767D01*
X103121069Y-76333180D01*
X102108023Y-76333180D01*
X102079257Y-76331767D01*
X102050768Y-76327541D01*
X102022831Y-76320543D01*
X101995714Y-76310840D01*
X101969679Y-76298527D01*
X101944976Y-76283720D01*
X101921843Y-76266564D01*
X101900503Y-76247223D01*
X101881162Y-76225883D01*
X101864006Y-76202750D01*
X101849199Y-76178047D01*
X101836886Y-76152012D01*
X101827183Y-76124895D01*
X101820185Y-76096958D01*
X101815959Y-76068469D01*
X101814546Y-76039703D01*
X101814546Y-75276657D01*
X101815959Y-75247891D01*
X101820185Y-75219402D01*
X101827183Y-75191465D01*
X101836886Y-75164348D01*
X101849199Y-75138313D01*
X101864006Y-75113610D01*
X101881162Y-75090477D01*
X101900503Y-75069137D01*
X101921843Y-75049796D01*
X101944976Y-75032640D01*
X101969679Y-75017833D01*
X101995714Y-75005520D01*
X102022831Y-74995817D01*
X102050768Y-74988819D01*
X102079257Y-74984593D01*
X102108023Y-74983180D01*
X103121069Y-74983180D01*
X103149835Y-74984593D01*
X103149835Y-74984593D01*
G37*
D18*
X102614546Y-75658180D03*
D11*
G36*
X105756241Y-72934593D02*
G01*
X105784730Y-72938819D01*
X105812667Y-72945817D01*
X105839784Y-72955520D01*
X105865819Y-72967833D01*
X105890522Y-72982640D01*
X105913655Y-72999796D01*
X105934995Y-73019137D01*
X105954336Y-73040477D01*
X105971492Y-73063610D01*
X105986299Y-73088313D01*
X105998612Y-73114348D01*
X106008315Y-73141465D01*
X106015313Y-73169402D01*
X106019539Y-73197891D01*
X106020952Y-73226657D01*
X106020952Y-73989703D01*
X106019539Y-74018469D01*
X106015313Y-74046958D01*
X106008315Y-74074895D01*
X105998612Y-74102012D01*
X105986299Y-74128047D01*
X105971492Y-74152750D01*
X105954336Y-74175883D01*
X105934995Y-74197223D01*
X105913655Y-74216564D01*
X105890522Y-74233720D01*
X105865819Y-74248527D01*
X105839784Y-74260840D01*
X105812667Y-74270543D01*
X105784730Y-74277541D01*
X105756241Y-74281767D01*
X105727475Y-74283180D01*
X104714429Y-74283180D01*
X104685663Y-74281767D01*
X104657174Y-74277541D01*
X104629237Y-74270543D01*
X104602120Y-74260840D01*
X104576085Y-74248527D01*
X104551382Y-74233720D01*
X104528249Y-74216564D01*
X104506909Y-74197223D01*
X104487568Y-74175883D01*
X104470412Y-74152750D01*
X104455605Y-74128047D01*
X104443292Y-74102012D01*
X104433589Y-74074895D01*
X104426591Y-74046958D01*
X104422365Y-74018469D01*
X104420952Y-73989703D01*
X104420952Y-73226657D01*
X104422365Y-73197891D01*
X104426591Y-73169402D01*
X104433589Y-73141465D01*
X104443292Y-73114348D01*
X104455605Y-73088313D01*
X104470412Y-73063610D01*
X104487568Y-73040477D01*
X104506909Y-73019137D01*
X104528249Y-72999796D01*
X104551382Y-72982640D01*
X104576085Y-72967833D01*
X104602120Y-72955520D01*
X104629237Y-72945817D01*
X104657174Y-72938819D01*
X104685663Y-72934593D01*
X104714429Y-72933180D01*
X105727475Y-72933180D01*
X105756241Y-72934593D01*
X105756241Y-72934593D01*
G37*
D18*
X105220952Y-73608180D03*
D11*
G36*
X105756241Y-74984593D02*
G01*
X105784730Y-74988819D01*
X105812667Y-74995817D01*
X105839784Y-75005520D01*
X105865819Y-75017833D01*
X105890522Y-75032640D01*
X105913655Y-75049796D01*
X105934995Y-75069137D01*
X105954336Y-75090477D01*
X105971492Y-75113610D01*
X105986299Y-75138313D01*
X105998612Y-75164348D01*
X106008315Y-75191465D01*
X106015313Y-75219402D01*
X106019539Y-75247891D01*
X106020952Y-75276657D01*
X106020952Y-76039703D01*
X106019539Y-76068469D01*
X106015313Y-76096958D01*
X106008315Y-76124895D01*
X105998612Y-76152012D01*
X105986299Y-76178047D01*
X105971492Y-76202750D01*
X105954336Y-76225883D01*
X105934995Y-76247223D01*
X105913655Y-76266564D01*
X105890522Y-76283720D01*
X105865819Y-76298527D01*
X105839784Y-76310840D01*
X105812667Y-76320543D01*
X105784730Y-76327541D01*
X105756241Y-76331767D01*
X105727475Y-76333180D01*
X104714429Y-76333180D01*
X104685663Y-76331767D01*
X104657174Y-76327541D01*
X104629237Y-76320543D01*
X104602120Y-76310840D01*
X104576085Y-76298527D01*
X104551382Y-76283720D01*
X104528249Y-76266564D01*
X104506909Y-76247223D01*
X104487568Y-76225883D01*
X104470412Y-76202750D01*
X104455605Y-76178047D01*
X104443292Y-76152012D01*
X104433589Y-76124895D01*
X104426591Y-76096958D01*
X104422365Y-76068469D01*
X104420952Y-76039703D01*
X104420952Y-75276657D01*
X104422365Y-75247891D01*
X104426591Y-75219402D01*
X104433589Y-75191465D01*
X104443292Y-75164348D01*
X104455605Y-75138313D01*
X104470412Y-75113610D01*
X104487568Y-75090477D01*
X104506909Y-75069137D01*
X104528249Y-75049796D01*
X104551382Y-75032640D01*
X104576085Y-75017833D01*
X104602120Y-75005520D01*
X104629237Y-74995817D01*
X104657174Y-74988819D01*
X104685663Y-74984593D01*
X104714429Y-74983180D01*
X105727475Y-74983180D01*
X105756241Y-74984593D01*
X105756241Y-74984593D01*
G37*
D18*
X105220952Y-75658180D03*
D11*
G36*
X88597929Y-114639333D02*
G01*
X88626418Y-114643559D01*
X88654355Y-114650557D01*
X88681472Y-114660260D01*
X88707507Y-114672573D01*
X88732210Y-114687380D01*
X88755343Y-114704536D01*
X88776683Y-114723877D01*
X88796024Y-114745217D01*
X88813180Y-114768350D01*
X88827987Y-114793053D01*
X88840300Y-114819088D01*
X88850003Y-114846205D01*
X88857001Y-114874142D01*
X88861227Y-114902631D01*
X88862640Y-114931397D01*
X88862640Y-115944443D01*
X88861227Y-115973209D01*
X88857001Y-116001698D01*
X88850003Y-116029635D01*
X88840300Y-116056752D01*
X88827987Y-116082787D01*
X88813180Y-116107490D01*
X88796024Y-116130623D01*
X88776683Y-116151963D01*
X88755343Y-116171304D01*
X88732210Y-116188460D01*
X88707507Y-116203267D01*
X88681472Y-116215580D01*
X88654355Y-116225283D01*
X88626418Y-116232281D01*
X88597929Y-116236507D01*
X88569163Y-116237920D01*
X87806117Y-116237920D01*
X87777351Y-116236507D01*
X87748862Y-116232281D01*
X87720925Y-116225283D01*
X87693808Y-116215580D01*
X87667773Y-116203267D01*
X87643070Y-116188460D01*
X87619937Y-116171304D01*
X87598597Y-116151963D01*
X87579256Y-116130623D01*
X87562100Y-116107490D01*
X87547293Y-116082787D01*
X87534980Y-116056752D01*
X87525277Y-116029635D01*
X87518279Y-116001698D01*
X87514053Y-115973209D01*
X87512640Y-115944443D01*
X87512640Y-114931397D01*
X87514053Y-114902631D01*
X87518279Y-114874142D01*
X87525277Y-114846205D01*
X87534980Y-114819088D01*
X87547293Y-114793053D01*
X87562100Y-114768350D01*
X87579256Y-114745217D01*
X87598597Y-114723877D01*
X87619937Y-114704536D01*
X87643070Y-114687380D01*
X87667773Y-114672573D01*
X87693808Y-114660260D01*
X87720925Y-114650557D01*
X87748862Y-114643559D01*
X87777351Y-114639333D01*
X87806117Y-114637920D01*
X88569163Y-114637920D01*
X88597929Y-114639333D01*
X88597929Y-114639333D01*
G37*
D18*
X88187640Y-115437920D03*
D11*
G36*
X86547929Y-114639333D02*
G01*
X86576418Y-114643559D01*
X86604355Y-114650557D01*
X86631472Y-114660260D01*
X86657507Y-114672573D01*
X86682210Y-114687380D01*
X86705343Y-114704536D01*
X86726683Y-114723877D01*
X86746024Y-114745217D01*
X86763180Y-114768350D01*
X86777987Y-114793053D01*
X86790300Y-114819088D01*
X86800003Y-114846205D01*
X86807001Y-114874142D01*
X86811227Y-114902631D01*
X86812640Y-114931397D01*
X86812640Y-115944443D01*
X86811227Y-115973209D01*
X86807001Y-116001698D01*
X86800003Y-116029635D01*
X86790300Y-116056752D01*
X86777987Y-116082787D01*
X86763180Y-116107490D01*
X86746024Y-116130623D01*
X86726683Y-116151963D01*
X86705343Y-116171304D01*
X86682210Y-116188460D01*
X86657507Y-116203267D01*
X86631472Y-116215580D01*
X86604355Y-116225283D01*
X86576418Y-116232281D01*
X86547929Y-116236507D01*
X86519163Y-116237920D01*
X85756117Y-116237920D01*
X85727351Y-116236507D01*
X85698862Y-116232281D01*
X85670925Y-116225283D01*
X85643808Y-116215580D01*
X85617773Y-116203267D01*
X85593070Y-116188460D01*
X85569937Y-116171304D01*
X85548597Y-116151963D01*
X85529256Y-116130623D01*
X85512100Y-116107490D01*
X85497293Y-116082787D01*
X85484980Y-116056752D01*
X85475277Y-116029635D01*
X85468279Y-116001698D01*
X85464053Y-115973209D01*
X85462640Y-115944443D01*
X85462640Y-114931397D01*
X85464053Y-114902631D01*
X85468279Y-114874142D01*
X85475277Y-114846205D01*
X85484980Y-114819088D01*
X85497293Y-114793053D01*
X85512100Y-114768350D01*
X85529256Y-114745217D01*
X85548597Y-114723877D01*
X85569937Y-114704536D01*
X85593070Y-114687380D01*
X85617773Y-114672573D01*
X85643808Y-114660260D01*
X85670925Y-114650557D01*
X85698862Y-114643559D01*
X85727351Y-114639333D01*
X85756117Y-114637920D01*
X86519163Y-114637920D01*
X86547929Y-114639333D01*
X86547929Y-114639333D01*
G37*
D18*
X86137640Y-115437920D03*
D11*
G36*
X121573585Y-79543800D02*
G01*
X121599794Y-79547688D01*
X121625497Y-79554126D01*
X121650445Y-79563053D01*
X121674397Y-79574381D01*
X121697124Y-79588003D01*
X121718406Y-79603787D01*
X121738039Y-79621581D01*
X121755833Y-79641214D01*
X121771617Y-79662496D01*
X121785239Y-79685223D01*
X121796567Y-79709175D01*
X121805494Y-79734123D01*
X121811932Y-79759826D01*
X121815820Y-79786035D01*
X121817120Y-79812500D01*
X121817120Y-83872500D01*
X121815820Y-83898965D01*
X121811932Y-83925174D01*
X121805494Y-83950877D01*
X121796567Y-83975825D01*
X121785239Y-83999777D01*
X121771617Y-84022504D01*
X121755833Y-84043786D01*
X121738039Y-84063419D01*
X121718406Y-84081213D01*
X121697124Y-84096997D01*
X121674397Y-84110619D01*
X121650445Y-84121947D01*
X121625497Y-84130874D01*
X121599794Y-84137312D01*
X121573585Y-84141200D01*
X121547120Y-84142500D01*
X119387120Y-84142500D01*
X119360655Y-84141200D01*
X119334446Y-84137312D01*
X119308743Y-84130874D01*
X119283795Y-84121947D01*
X119259843Y-84110619D01*
X119237116Y-84096997D01*
X119215834Y-84081213D01*
X119196201Y-84063419D01*
X119178407Y-84043786D01*
X119162623Y-84022504D01*
X119149001Y-83999777D01*
X119137673Y-83975825D01*
X119128746Y-83950877D01*
X119122308Y-83925174D01*
X119118420Y-83898965D01*
X119117120Y-83872500D01*
X119117120Y-79812500D01*
X119118420Y-79786035D01*
X119122308Y-79759826D01*
X119128746Y-79734123D01*
X119137673Y-79709175D01*
X119149001Y-79685223D01*
X119162623Y-79662496D01*
X119178407Y-79641214D01*
X119196201Y-79621581D01*
X119215834Y-79603787D01*
X119237116Y-79588003D01*
X119259843Y-79574381D01*
X119283795Y-79563053D01*
X119308743Y-79554126D01*
X119334446Y-79547688D01*
X119360655Y-79543800D01*
X119387120Y-79542500D01*
X121547120Y-79542500D01*
X121573585Y-79543800D01*
X121573585Y-79543800D01*
G37*
D24*
X120467120Y-81842500D03*
D11*
G36*
X121573585Y-87943800D02*
G01*
X121599794Y-87947688D01*
X121625497Y-87954126D01*
X121650445Y-87963053D01*
X121674397Y-87974381D01*
X121697124Y-87988003D01*
X121718406Y-88003787D01*
X121738039Y-88021581D01*
X121755833Y-88041214D01*
X121771617Y-88062496D01*
X121785239Y-88085223D01*
X121796567Y-88109175D01*
X121805494Y-88134123D01*
X121811932Y-88159826D01*
X121815820Y-88186035D01*
X121817120Y-88212500D01*
X121817120Y-92272500D01*
X121815820Y-92298965D01*
X121811932Y-92325174D01*
X121805494Y-92350877D01*
X121796567Y-92375825D01*
X121785239Y-92399777D01*
X121771617Y-92422504D01*
X121755833Y-92443786D01*
X121738039Y-92463419D01*
X121718406Y-92481213D01*
X121697124Y-92496997D01*
X121674397Y-92510619D01*
X121650445Y-92521947D01*
X121625497Y-92530874D01*
X121599794Y-92537312D01*
X121573585Y-92541200D01*
X121547120Y-92542500D01*
X119387120Y-92542500D01*
X119360655Y-92541200D01*
X119334446Y-92537312D01*
X119308743Y-92530874D01*
X119283795Y-92521947D01*
X119259843Y-92510619D01*
X119237116Y-92496997D01*
X119215834Y-92481213D01*
X119196201Y-92463419D01*
X119178407Y-92443786D01*
X119162623Y-92422504D01*
X119149001Y-92399777D01*
X119137673Y-92375825D01*
X119128746Y-92350877D01*
X119122308Y-92325174D01*
X119118420Y-92298965D01*
X119117120Y-92272500D01*
X119117120Y-88212500D01*
X119118420Y-88186035D01*
X119122308Y-88159826D01*
X119128746Y-88134123D01*
X119137673Y-88109175D01*
X119149001Y-88085223D01*
X119162623Y-88062496D01*
X119178407Y-88041214D01*
X119196201Y-88021581D01*
X119215834Y-88003787D01*
X119237116Y-87988003D01*
X119259843Y-87974381D01*
X119283795Y-87963053D01*
X119308743Y-87954126D01*
X119334446Y-87947688D01*
X119360655Y-87943800D01*
X119387120Y-87942500D01*
X121547120Y-87942500D01*
X121573585Y-87943800D01*
X121573585Y-87943800D01*
G37*
D24*
X120467120Y-90242500D03*
D11*
G36*
X125845020Y-74830864D02*
G01*
X125872928Y-74835004D01*
X125900297Y-74841860D01*
X125926861Y-74851365D01*
X125952367Y-74863428D01*
X125976566Y-74877932D01*
X125999228Y-74894739D01*
X126020133Y-74913687D01*
X126039081Y-74934592D01*
X126055888Y-74957254D01*
X126070392Y-74981453D01*
X126082455Y-75006959D01*
X126091960Y-75033523D01*
X126098816Y-75060892D01*
X126102956Y-75088800D01*
X126104340Y-75116980D01*
X126104340Y-75791980D01*
X126102956Y-75820160D01*
X126098816Y-75848068D01*
X126091960Y-75875437D01*
X126082455Y-75902001D01*
X126070392Y-75927507D01*
X126055888Y-75951706D01*
X126039081Y-75974368D01*
X126020133Y-75995273D01*
X125999228Y-76014221D01*
X125976566Y-76031028D01*
X125952367Y-76045532D01*
X125926861Y-76057595D01*
X125900297Y-76067100D01*
X125872928Y-76073956D01*
X125845020Y-76078096D01*
X125816840Y-76079480D01*
X125241840Y-76079480D01*
X125213660Y-76078096D01*
X125185752Y-76073956D01*
X125158383Y-76067100D01*
X125131819Y-76057595D01*
X125106313Y-76045532D01*
X125082114Y-76031028D01*
X125059452Y-76014221D01*
X125038547Y-75995273D01*
X125019599Y-75974368D01*
X125002792Y-75951706D01*
X124988288Y-75927507D01*
X124976225Y-75902001D01*
X124966720Y-75875437D01*
X124959864Y-75848068D01*
X124955724Y-75820160D01*
X124954340Y-75791980D01*
X124954340Y-75116980D01*
X124955724Y-75088800D01*
X124959864Y-75060892D01*
X124966720Y-75033523D01*
X124976225Y-75006959D01*
X124988288Y-74981453D01*
X125002792Y-74957254D01*
X125019599Y-74934592D01*
X125038547Y-74913687D01*
X125059452Y-74894739D01*
X125082114Y-74877932D01*
X125106313Y-74863428D01*
X125131819Y-74851365D01*
X125158383Y-74841860D01*
X125185752Y-74835004D01*
X125213660Y-74830864D01*
X125241840Y-74829480D01*
X125816840Y-74829480D01*
X125845020Y-74830864D01*
X125845020Y-74830864D01*
G37*
D25*
X125529340Y-75454480D03*
D11*
G36*
X125845020Y-73080864D02*
G01*
X125872928Y-73085004D01*
X125900297Y-73091860D01*
X125926861Y-73101365D01*
X125952367Y-73113428D01*
X125976566Y-73127932D01*
X125999228Y-73144739D01*
X126020133Y-73163687D01*
X126039081Y-73184592D01*
X126055888Y-73207254D01*
X126070392Y-73231453D01*
X126082455Y-73256959D01*
X126091960Y-73283523D01*
X126098816Y-73310892D01*
X126102956Y-73338800D01*
X126104340Y-73366980D01*
X126104340Y-74041980D01*
X126102956Y-74070160D01*
X126098816Y-74098068D01*
X126091960Y-74125437D01*
X126082455Y-74152001D01*
X126070392Y-74177507D01*
X126055888Y-74201706D01*
X126039081Y-74224368D01*
X126020133Y-74245273D01*
X125999228Y-74264221D01*
X125976566Y-74281028D01*
X125952367Y-74295532D01*
X125926861Y-74307595D01*
X125900297Y-74317100D01*
X125872928Y-74323956D01*
X125845020Y-74328096D01*
X125816840Y-74329480D01*
X125241840Y-74329480D01*
X125213660Y-74328096D01*
X125185752Y-74323956D01*
X125158383Y-74317100D01*
X125131819Y-74307595D01*
X125106313Y-74295532D01*
X125082114Y-74281028D01*
X125059452Y-74264221D01*
X125038547Y-74245273D01*
X125019599Y-74224368D01*
X125002792Y-74201706D01*
X124988288Y-74177507D01*
X124976225Y-74152001D01*
X124966720Y-74125437D01*
X124959864Y-74098068D01*
X124955724Y-74070160D01*
X124954340Y-74041980D01*
X124954340Y-73366980D01*
X124955724Y-73338800D01*
X124959864Y-73310892D01*
X124966720Y-73283523D01*
X124976225Y-73256959D01*
X124988288Y-73231453D01*
X125002792Y-73207254D01*
X125019599Y-73184592D01*
X125038547Y-73163687D01*
X125059452Y-73144739D01*
X125082114Y-73127932D01*
X125106313Y-73113428D01*
X125131819Y-73101365D01*
X125158383Y-73091860D01*
X125185752Y-73085004D01*
X125213660Y-73080864D01*
X125241840Y-73079480D01*
X125816840Y-73079480D01*
X125845020Y-73080864D01*
X125845020Y-73080864D01*
G37*
D25*
X125529340Y-73704480D03*
D11*
G36*
X123315620Y-75644164D02*
G01*
X123343528Y-75648304D01*
X123370897Y-75655160D01*
X123397461Y-75664665D01*
X123422967Y-75676728D01*
X123447166Y-75691232D01*
X123469828Y-75708039D01*
X123490733Y-75726987D01*
X123509681Y-75747892D01*
X123526488Y-75770554D01*
X123540992Y-75794753D01*
X123553055Y-75820259D01*
X123562560Y-75846823D01*
X123569416Y-75874192D01*
X123573556Y-75902100D01*
X123574940Y-75930280D01*
X123574940Y-76505280D01*
X123573556Y-76533460D01*
X123569416Y-76561368D01*
X123562560Y-76588737D01*
X123553055Y-76615301D01*
X123540992Y-76640807D01*
X123526488Y-76665006D01*
X123509681Y-76687668D01*
X123490733Y-76708573D01*
X123469828Y-76727521D01*
X123447166Y-76744328D01*
X123422967Y-76758832D01*
X123397461Y-76770895D01*
X123370897Y-76780400D01*
X123343528Y-76787256D01*
X123315620Y-76791396D01*
X123287440Y-76792780D01*
X122612440Y-76792780D01*
X122584260Y-76791396D01*
X122556352Y-76787256D01*
X122528983Y-76780400D01*
X122502419Y-76770895D01*
X122476913Y-76758832D01*
X122452714Y-76744328D01*
X122430052Y-76727521D01*
X122409147Y-76708573D01*
X122390199Y-76687668D01*
X122373392Y-76665006D01*
X122358888Y-76640807D01*
X122346825Y-76615301D01*
X122337320Y-76588737D01*
X122330464Y-76561368D01*
X122326324Y-76533460D01*
X122324940Y-76505280D01*
X122324940Y-75930280D01*
X122326324Y-75902100D01*
X122330464Y-75874192D01*
X122337320Y-75846823D01*
X122346825Y-75820259D01*
X122358888Y-75794753D01*
X122373392Y-75770554D01*
X122390199Y-75747892D01*
X122409147Y-75726987D01*
X122430052Y-75708039D01*
X122452714Y-75691232D01*
X122476913Y-75676728D01*
X122502419Y-75664665D01*
X122528983Y-75655160D01*
X122556352Y-75648304D01*
X122584260Y-75644164D01*
X122612440Y-75642780D01*
X123287440Y-75642780D01*
X123315620Y-75644164D01*
X123315620Y-75644164D01*
G37*
D25*
X122949940Y-76217780D03*
D11*
G36*
X121565620Y-75644164D02*
G01*
X121593528Y-75648304D01*
X121620897Y-75655160D01*
X121647461Y-75664665D01*
X121672967Y-75676728D01*
X121697166Y-75691232D01*
X121719828Y-75708039D01*
X121740733Y-75726987D01*
X121759681Y-75747892D01*
X121776488Y-75770554D01*
X121790992Y-75794753D01*
X121803055Y-75820259D01*
X121812560Y-75846823D01*
X121819416Y-75874192D01*
X121823556Y-75902100D01*
X121824940Y-75930280D01*
X121824940Y-76505280D01*
X121823556Y-76533460D01*
X121819416Y-76561368D01*
X121812560Y-76588737D01*
X121803055Y-76615301D01*
X121790992Y-76640807D01*
X121776488Y-76665006D01*
X121759681Y-76687668D01*
X121740733Y-76708573D01*
X121719828Y-76727521D01*
X121697166Y-76744328D01*
X121672967Y-76758832D01*
X121647461Y-76770895D01*
X121620897Y-76780400D01*
X121593528Y-76787256D01*
X121565620Y-76791396D01*
X121537440Y-76792780D01*
X120862440Y-76792780D01*
X120834260Y-76791396D01*
X120806352Y-76787256D01*
X120778983Y-76780400D01*
X120752419Y-76770895D01*
X120726913Y-76758832D01*
X120702714Y-76744328D01*
X120680052Y-76727521D01*
X120659147Y-76708573D01*
X120640199Y-76687668D01*
X120623392Y-76665006D01*
X120608888Y-76640807D01*
X120596825Y-76615301D01*
X120587320Y-76588737D01*
X120580464Y-76561368D01*
X120576324Y-76533460D01*
X120574940Y-76505280D01*
X120574940Y-75930280D01*
X120576324Y-75902100D01*
X120580464Y-75874192D01*
X120587320Y-75846823D01*
X120596825Y-75820259D01*
X120608888Y-75794753D01*
X120623392Y-75770554D01*
X120640199Y-75747892D01*
X120659147Y-75726987D01*
X120680052Y-75708039D01*
X120702714Y-75691232D01*
X120726913Y-75676728D01*
X120752419Y-75664665D01*
X120778983Y-75655160D01*
X120806352Y-75648304D01*
X120834260Y-75644164D01*
X120862440Y-75642780D01*
X121537440Y-75642780D01*
X121565620Y-75644164D01*
X121565620Y-75644164D01*
G37*
D25*
X121199940Y-76217780D03*
D11*
G36*
X93651365Y-79917400D02*
G01*
X93677574Y-79921288D01*
X93703277Y-79927726D01*
X93728225Y-79936653D01*
X93752177Y-79947981D01*
X93774904Y-79961603D01*
X93796186Y-79977387D01*
X93815819Y-79995181D01*
X93833613Y-80014814D01*
X93849397Y-80036096D01*
X93863019Y-80058823D01*
X93874347Y-80082775D01*
X93883274Y-80107723D01*
X93889712Y-80133426D01*
X93893600Y-80159635D01*
X93894900Y-80186100D01*
X93894900Y-84246100D01*
X93893600Y-84272565D01*
X93889712Y-84298774D01*
X93883274Y-84324477D01*
X93874347Y-84349425D01*
X93863019Y-84373377D01*
X93849397Y-84396104D01*
X93833613Y-84417386D01*
X93815819Y-84437019D01*
X93796186Y-84454813D01*
X93774904Y-84470597D01*
X93752177Y-84484219D01*
X93728225Y-84495547D01*
X93703277Y-84504474D01*
X93677574Y-84510912D01*
X93651365Y-84514800D01*
X93624900Y-84516100D01*
X91464900Y-84516100D01*
X91438435Y-84514800D01*
X91412226Y-84510912D01*
X91386523Y-84504474D01*
X91361575Y-84495547D01*
X91337623Y-84484219D01*
X91314896Y-84470597D01*
X91293614Y-84454813D01*
X91273981Y-84437019D01*
X91256187Y-84417386D01*
X91240403Y-84396104D01*
X91226781Y-84373377D01*
X91215453Y-84349425D01*
X91206526Y-84324477D01*
X91200088Y-84298774D01*
X91196200Y-84272565D01*
X91194900Y-84246100D01*
X91194900Y-80186100D01*
X91196200Y-80159635D01*
X91200088Y-80133426D01*
X91206526Y-80107723D01*
X91215453Y-80082775D01*
X91226781Y-80058823D01*
X91240403Y-80036096D01*
X91256187Y-80014814D01*
X91273981Y-79995181D01*
X91293614Y-79977387D01*
X91314896Y-79961603D01*
X91337623Y-79947981D01*
X91361575Y-79936653D01*
X91386523Y-79927726D01*
X91412226Y-79921288D01*
X91438435Y-79917400D01*
X91464900Y-79916100D01*
X93624900Y-79916100D01*
X93651365Y-79917400D01*
X93651365Y-79917400D01*
G37*
D24*
X92544900Y-82216100D03*
D11*
G36*
X93651365Y-71517400D02*
G01*
X93677574Y-71521288D01*
X93703277Y-71527726D01*
X93728225Y-71536653D01*
X93752177Y-71547981D01*
X93774904Y-71561603D01*
X93796186Y-71577387D01*
X93815819Y-71595181D01*
X93833613Y-71614814D01*
X93849397Y-71636096D01*
X93863019Y-71658823D01*
X93874347Y-71682775D01*
X93883274Y-71707723D01*
X93889712Y-71733426D01*
X93893600Y-71759635D01*
X93894900Y-71786100D01*
X93894900Y-75846100D01*
X93893600Y-75872565D01*
X93889712Y-75898774D01*
X93883274Y-75924477D01*
X93874347Y-75949425D01*
X93863019Y-75973377D01*
X93849397Y-75996104D01*
X93833613Y-76017386D01*
X93815819Y-76037019D01*
X93796186Y-76054813D01*
X93774904Y-76070597D01*
X93752177Y-76084219D01*
X93728225Y-76095547D01*
X93703277Y-76104474D01*
X93677574Y-76110912D01*
X93651365Y-76114800D01*
X93624900Y-76116100D01*
X91464900Y-76116100D01*
X91438435Y-76114800D01*
X91412226Y-76110912D01*
X91386523Y-76104474D01*
X91361575Y-76095547D01*
X91337623Y-76084219D01*
X91314896Y-76070597D01*
X91293614Y-76054813D01*
X91273981Y-76037019D01*
X91256187Y-76017386D01*
X91240403Y-75996104D01*
X91226781Y-75973377D01*
X91215453Y-75949425D01*
X91206526Y-75924477D01*
X91200088Y-75898774D01*
X91196200Y-75872565D01*
X91194900Y-75846100D01*
X91194900Y-71786100D01*
X91196200Y-71759635D01*
X91200088Y-71733426D01*
X91206526Y-71707723D01*
X91215453Y-71682775D01*
X91226781Y-71658823D01*
X91240403Y-71636096D01*
X91256187Y-71614814D01*
X91273981Y-71595181D01*
X91293614Y-71577387D01*
X91314896Y-71561603D01*
X91337623Y-71547981D01*
X91361575Y-71536653D01*
X91386523Y-71527726D01*
X91412226Y-71521288D01*
X91438435Y-71517400D01*
X91464900Y-71516100D01*
X93624900Y-71516100D01*
X93651365Y-71517400D01*
X93651365Y-71517400D01*
G37*
D24*
X92544900Y-73816100D03*
D11*
G36*
X108132229Y-105375333D02*
G01*
X108160718Y-105379559D01*
X108188655Y-105386557D01*
X108215772Y-105396260D01*
X108241807Y-105408573D01*
X108266510Y-105423380D01*
X108289643Y-105440536D01*
X108310983Y-105459877D01*
X108330324Y-105481217D01*
X108347480Y-105504350D01*
X108362287Y-105529053D01*
X108374600Y-105555088D01*
X108384303Y-105582205D01*
X108391301Y-105610142D01*
X108395527Y-105638631D01*
X108396940Y-105667397D01*
X108396940Y-106430443D01*
X108395527Y-106459209D01*
X108391301Y-106487698D01*
X108384303Y-106515635D01*
X108374600Y-106542752D01*
X108362287Y-106568787D01*
X108347480Y-106593490D01*
X108330324Y-106616623D01*
X108310983Y-106637963D01*
X108289643Y-106657304D01*
X108266510Y-106674460D01*
X108241807Y-106689267D01*
X108215772Y-106701580D01*
X108188655Y-106711283D01*
X108160718Y-106718281D01*
X108132229Y-106722507D01*
X108103463Y-106723920D01*
X107090417Y-106723920D01*
X107061651Y-106722507D01*
X107033162Y-106718281D01*
X107005225Y-106711283D01*
X106978108Y-106701580D01*
X106952073Y-106689267D01*
X106927370Y-106674460D01*
X106904237Y-106657304D01*
X106882897Y-106637963D01*
X106863556Y-106616623D01*
X106846400Y-106593490D01*
X106831593Y-106568787D01*
X106819280Y-106542752D01*
X106809577Y-106515635D01*
X106802579Y-106487698D01*
X106798353Y-106459209D01*
X106796940Y-106430443D01*
X106796940Y-105667397D01*
X106798353Y-105638631D01*
X106802579Y-105610142D01*
X106809577Y-105582205D01*
X106819280Y-105555088D01*
X106831593Y-105529053D01*
X106846400Y-105504350D01*
X106863556Y-105481217D01*
X106882897Y-105459877D01*
X106904237Y-105440536D01*
X106927370Y-105423380D01*
X106952073Y-105408573D01*
X106978108Y-105396260D01*
X107005225Y-105386557D01*
X107033162Y-105379559D01*
X107061651Y-105375333D01*
X107090417Y-105373920D01*
X108103463Y-105373920D01*
X108132229Y-105375333D01*
X108132229Y-105375333D01*
G37*
D18*
X107596940Y-106048920D03*
D11*
G36*
X108132229Y-103325333D02*
G01*
X108160718Y-103329559D01*
X108188655Y-103336557D01*
X108215772Y-103346260D01*
X108241807Y-103358573D01*
X108266510Y-103373380D01*
X108289643Y-103390536D01*
X108310983Y-103409877D01*
X108330324Y-103431217D01*
X108347480Y-103454350D01*
X108362287Y-103479053D01*
X108374600Y-103505088D01*
X108384303Y-103532205D01*
X108391301Y-103560142D01*
X108395527Y-103588631D01*
X108396940Y-103617397D01*
X108396940Y-104380443D01*
X108395527Y-104409209D01*
X108391301Y-104437698D01*
X108384303Y-104465635D01*
X108374600Y-104492752D01*
X108362287Y-104518787D01*
X108347480Y-104543490D01*
X108330324Y-104566623D01*
X108310983Y-104587963D01*
X108289643Y-104607304D01*
X108266510Y-104624460D01*
X108241807Y-104639267D01*
X108215772Y-104651580D01*
X108188655Y-104661283D01*
X108160718Y-104668281D01*
X108132229Y-104672507D01*
X108103463Y-104673920D01*
X107090417Y-104673920D01*
X107061651Y-104672507D01*
X107033162Y-104668281D01*
X107005225Y-104661283D01*
X106978108Y-104651580D01*
X106952073Y-104639267D01*
X106927370Y-104624460D01*
X106904237Y-104607304D01*
X106882897Y-104587963D01*
X106863556Y-104566623D01*
X106846400Y-104543490D01*
X106831593Y-104518787D01*
X106819280Y-104492752D01*
X106809577Y-104465635D01*
X106802579Y-104437698D01*
X106798353Y-104409209D01*
X106796940Y-104380443D01*
X106796940Y-103617397D01*
X106798353Y-103588631D01*
X106802579Y-103560142D01*
X106809577Y-103532205D01*
X106819280Y-103505088D01*
X106831593Y-103479053D01*
X106846400Y-103454350D01*
X106863556Y-103431217D01*
X106882897Y-103409877D01*
X106904237Y-103390536D01*
X106927370Y-103373380D01*
X106952073Y-103358573D01*
X106978108Y-103346260D01*
X107005225Y-103336557D01*
X107033162Y-103329559D01*
X107061651Y-103325333D01*
X107090417Y-103323920D01*
X108103463Y-103323920D01*
X108132229Y-103325333D01*
X108132229Y-103325333D01*
G37*
D18*
X107596940Y-103998920D03*
D12*
X129179320Y-99416860D03*
D22*
X129179320Y-104416860D03*
D20*
X86920000Y-65590000D03*
D19*
X86920000Y-63050000D03*
X89460000Y-65590000D03*
X89460000Y-63050000D03*
X92000000Y-65590000D03*
X92000000Y-63050000D03*
X94540000Y-65590000D03*
X94540000Y-63050000D03*
X97080000Y-65590000D03*
X97080000Y-63050000D03*
X99620000Y-65590000D03*
X99620000Y-63050000D03*
X102160000Y-65590000D03*
X102160000Y-63050000D03*
X104700000Y-65590000D03*
X104700000Y-63050000D03*
X107240000Y-65590000D03*
X107240000Y-63050000D03*
X109780000Y-65590000D03*
X109780000Y-63050000D03*
X112320000Y-65590000D03*
X112320000Y-63050000D03*
X114860000Y-65590000D03*
X114860000Y-63050000D03*
X117400000Y-65590000D03*
X117400000Y-63050000D03*
X119940000Y-65590000D03*
X119940000Y-63050000D03*
X122480000Y-65590000D03*
X122480000Y-63050000D03*
X125020000Y-65590000D03*
X125020000Y-63050000D03*
X127560000Y-65590000D03*
X127560000Y-63050000D03*
X130100000Y-65590000D03*
X130100000Y-63050000D03*
X132640000Y-65590000D03*
X132640000Y-63050000D03*
X135180000Y-65590000D03*
X135180000Y-63050000D03*
D26*
X82040000Y-64310000D03*
X140040000Y-64330000D03*
X82040000Y-113320000D03*
X140030000Y-113310000D03*
M02*
