M48
; DRILL file {KiCad (5.1.2)-1} date 08/04/19 20:49:06
; FORMAT={-:-/ absolute / metric / decimal}
; #@! TF.CreationDate,2019-08-04T20:49:06+02:00
; #@! TF.GenerationSoftware,Kicad,Pcbnew,(5.1.2)-1
; #@! TF.FileFunction,Plated,1,2,PTH
FMAT,2
METRIC
T1C0.200
T2C0.300
T3C1.000
T4C1.200
T5C1.400
T6C1.600
%
G90
G05
T1
X54.588Y46.039
X55.261Y45.365
T2
X6.927Y40.061
X6.932Y48.892
X6.937Y47.852
X6.937Y46.852
X6.937Y45.852
X7.635Y38.969
X7.932Y48.892
X7.937Y47.852
X7.937Y46.852
X7.937Y45.852
X8.816Y28.887
X8.932Y48.892
X9.932Y48.892
X10.139Y35.755
X12.075Y21.191
X12.075Y19.191
X12.075Y17.191
X12.075Y15.191
X12.075Y13.191
X14.075Y21.191
X14.075Y19.191
X14.075Y17.191
X14.075Y15.191
X14.075Y13.191
X14.254Y23.401
X14.837Y46.366
X15.277Y46.806
X15.687Y47.216
X16.075Y21.191
X16.075Y19.191
X16.075Y17.191
X16.075Y15.191
X16.075Y13.191
X17.244Y35.663
X18.075Y21.191
X18.075Y19.191
X18.075Y17.191
X18.075Y15.191
X18.075Y13.191
X22.662Y12.245
X22.662Y11.245
X23.584Y40.17
X24.662Y12.245
X24.662Y11.245
X26.662Y12.245
X26.662Y11.245
X26.929Y40.17
X30.798Y47.637
X32.945Y39.62
X33.496Y44.551
X34.938Y15.583
X34.938Y14.583
X34.938Y13.583
X35.294Y48.331
X35.438Y36.279
X35.634Y41.346
X36.059Y43.174
X36.938Y15.583
X36.938Y14.583
X36.938Y13.583
X38.844Y38.326
X38.938Y15.583
X38.938Y14.583
X38.938Y13.583
X39.322Y31.166
X41.869Y31.128
X44.602Y31.092
X45.344Y2.507
X45.344Y0.968
X45.872Y39.949
X45.898Y21.306
X45.898Y19.306
X45.898Y17.306
X45.898Y15.306
X46.088Y2.507
X46.139Y0.968
X46.368Y44.646
X46.807Y37.612
X47.898Y21.306
X47.898Y19.306
X47.898Y17.306
X47.898Y15.306
X49.7Y7.302
X49.898Y21.306
X49.898Y19.306
X49.898Y15.306
X51.751Y15.246
X51.898Y21.306
X51.898Y19.306
X52.034Y7.29
X52.07Y34.173
X52.103Y26.678
X54.011Y33.528
X54.056Y8.209
X56.784Y7.925
X57.109Y17.374
X61.542Y47.732
T3
X11.707Y29.439
X11.707Y26.899
X8.32Y53.777
X8.32Y51.237
X10.86Y53.777
X10.86Y51.237
X13.4Y53.777
X13.4Y51.237
X15.94Y53.777
X15.94Y51.237
X18.48Y53.777
X18.48Y51.237
X21.02Y53.777
X21.02Y51.237
X23.56Y53.777
X23.56Y51.237
X26.1Y53.777
X26.1Y51.237
X28.64Y53.777
X28.64Y51.237
X31.18Y53.777
X31.18Y51.237
X33.72Y53.777
X33.72Y51.237
X36.26Y53.777
X36.26Y51.237
X38.8Y53.777
X38.8Y51.237
X41.34Y53.777
X41.34Y51.237
X43.88Y53.777
X43.88Y51.237
X46.42Y53.777
X46.42Y51.237
X48.96Y53.777
X48.96Y51.237
X51.5Y53.777
X51.5Y51.237
X54.04Y53.777
X54.04Y51.237
X56.58Y53.777
X56.58Y51.237
T4
X3.018Y43.495
X3.018Y39.995
X3.018Y36.495
X3.018Y32.995
X50.579Y17.41
X50.579Y12.41
X61.755Y25.951
X61.755Y22.451
X61.755Y18.951
X61.755Y15.451
X61.755Y42.258
X61.755Y38.758
X61.755Y35.258
X61.755Y31.758
T5
X5.994Y20.904
X5.994Y15.824
T6
X13.149Y4.813
X35.649Y4.813
T0
M30
