G04 #@! TF.GenerationSoftware,KiCad,Pcbnew,(5.1.2)-1*
G04 #@! TF.CreationDate,2019-08-04T20:48:43+02:00*
G04 #@! TF.ProjectId,SMPS hat,534d5053-2068-4617-942e-6b696361645f,rev?*
G04 #@! TF.SameCoordinates,Original*
G04 #@! TF.FileFunction,Legend,Bot*
G04 #@! TF.FilePolarity,Positive*
%FSLAX46Y46*%
G04 Gerber Fmt 4.6, Leading zero omitted, Abs format (unit mm)*
G04 Created by KiCad (PCBNEW (5.1.2)-1) date 2019-08-04 20:48:43*
%MOMM*%
%LPD*%
G04 APERTURE LIST*
%ADD10C,0.275000*%
%ADD11C,0.250000*%
%ADD12C,0.300000*%
%ADD13C,0.375000*%
%ADD14C,0.150000*%
%ADD15C,0.100000*%
%ADD16C,0.010000*%
%ADD17C,0.120000*%
G04 APERTURE END LIST*
D10*
X86376663Y-84298258D02*
X86219520Y-84350639D01*
X85957616Y-84350639D01*
X85852854Y-84298258D01*
X85800473Y-84245877D01*
X85748092Y-84141115D01*
X85748092Y-84036353D01*
X85800473Y-83931591D01*
X85852854Y-83879210D01*
X85957616Y-83826829D01*
X86167140Y-83774448D01*
X86271901Y-83722067D01*
X86324282Y-83669686D01*
X86376663Y-83564924D01*
X86376663Y-83460162D01*
X86324282Y-83355400D01*
X86271901Y-83303020D01*
X86167140Y-83250639D01*
X85905235Y-83250639D01*
X85748092Y-83303020D01*
X84648092Y-84245877D02*
X84700473Y-84298258D01*
X84857616Y-84350639D01*
X84962378Y-84350639D01*
X85119520Y-84298258D01*
X85224282Y-84193496D01*
X85276663Y-84088734D01*
X85329044Y-83879210D01*
X85329044Y-83722067D01*
X85276663Y-83512543D01*
X85224282Y-83407781D01*
X85119520Y-83303020D01*
X84962378Y-83250639D01*
X84857616Y-83250639D01*
X84700473Y-83303020D01*
X84648092Y-83355400D01*
X83652854Y-84350639D02*
X84176663Y-84350639D01*
X84176663Y-83250639D01*
X86402854Y-80800678D02*
X86245711Y-80853059D01*
X85983806Y-80853059D01*
X85879044Y-80800678D01*
X85826663Y-80748297D01*
X85774282Y-80643535D01*
X85774282Y-80538773D01*
X85826663Y-80434011D01*
X85879044Y-80381630D01*
X85983806Y-80329249D01*
X86193330Y-80276868D01*
X86298092Y-80224487D01*
X86350473Y-80172106D01*
X86402854Y-80067344D01*
X86402854Y-79962582D01*
X86350473Y-79857820D01*
X86298092Y-79805440D01*
X86193330Y-79753059D01*
X85931425Y-79753059D01*
X85774282Y-79805440D01*
X85302854Y-80853059D02*
X85302854Y-79753059D01*
X85040949Y-79753059D01*
X84883806Y-79805440D01*
X84779044Y-79910201D01*
X84726663Y-80014963D01*
X84674282Y-80224487D01*
X84674282Y-80381630D01*
X84726663Y-80591154D01*
X84779044Y-80695916D01*
X84883806Y-80800678D01*
X85040949Y-80853059D01*
X85302854Y-80853059D01*
X84255235Y-80538773D02*
X83731425Y-80538773D01*
X84359997Y-80853059D02*
X83993330Y-79753059D01*
X83626663Y-80853059D01*
X86481425Y-76936431D02*
X85643330Y-76936431D01*
X86062378Y-77355479D02*
X86062378Y-76517383D01*
X84595711Y-76255479D02*
X85119520Y-76255479D01*
X85171901Y-76779288D01*
X85119520Y-76726907D01*
X85014759Y-76674526D01*
X84752854Y-76674526D01*
X84648092Y-76726907D01*
X84595711Y-76779288D01*
X84543330Y-76884050D01*
X84543330Y-77145955D01*
X84595711Y-77250717D01*
X84648092Y-77303098D01*
X84752854Y-77355479D01*
X85014759Y-77355479D01*
X85119520Y-77303098D01*
X85171901Y-77250717D01*
X84229044Y-76255479D02*
X83862378Y-77355479D01*
X83495711Y-76255479D01*
X85905235Y-72810280D02*
X86009997Y-72757899D01*
X86167140Y-72757899D01*
X86324282Y-72810280D01*
X86429044Y-72915041D01*
X86481425Y-73019803D01*
X86533806Y-73229327D01*
X86533806Y-73386470D01*
X86481425Y-73595994D01*
X86429044Y-73700756D01*
X86324282Y-73805518D01*
X86167140Y-73857899D01*
X86062378Y-73857899D01*
X85905235Y-73805518D01*
X85852854Y-73753137D01*
X85852854Y-73386470D01*
X86062378Y-73386470D01*
X85381425Y-73857899D02*
X85381425Y-72757899D01*
X84752854Y-73857899D01*
X84752854Y-72757899D01*
X84229044Y-73857899D02*
X84229044Y-72757899D01*
X83967140Y-72757899D01*
X83809997Y-72810280D01*
X83705235Y-72915041D01*
X83652854Y-73019803D01*
X83600473Y-73229327D01*
X83600473Y-73386470D01*
X83652854Y-73595994D01*
X83705235Y-73700756D01*
X83809997Y-73805518D01*
X83967140Y-73857899D01*
X84229044Y-73857899D01*
X136533474Y-78500397D02*
X136585855Y-78552778D01*
X136742998Y-78605159D01*
X136847760Y-78605159D01*
X137004903Y-78552778D01*
X137109665Y-78448016D01*
X137162046Y-78343254D01*
X137214427Y-78133730D01*
X137214427Y-77976587D01*
X137162046Y-77767063D01*
X137109665Y-77662301D01*
X137004903Y-77557540D01*
X136847760Y-77505159D01*
X136742998Y-77505159D01*
X136585855Y-77557540D01*
X136533474Y-77609920D01*
X135538236Y-78605159D02*
X136062046Y-78605159D01*
X136062046Y-77505159D01*
X135171570Y-78605159D02*
X135171570Y-77505159D01*
X134542998Y-78605159D02*
X135014427Y-77976587D01*
X134542998Y-77505159D02*
X135171570Y-78133730D01*
X137162046Y-82107819D02*
X137162046Y-81007819D01*
X136795379Y-81793533D01*
X136428713Y-81007819D01*
X136428713Y-82107819D01*
X135695379Y-81007819D02*
X135485855Y-81007819D01*
X135381094Y-81060200D01*
X135276332Y-81164961D01*
X135223951Y-81374485D01*
X135223951Y-81741152D01*
X135276332Y-81950676D01*
X135381094Y-82055438D01*
X135485855Y-82107819D01*
X135695379Y-82107819D01*
X135800141Y-82055438D01*
X135904903Y-81950676D01*
X135957284Y-81741152D01*
X135957284Y-81374485D01*
X135904903Y-81164961D01*
X135800141Y-81060200D01*
X135695379Y-81007819D01*
X134804903Y-82055438D02*
X134647760Y-82107819D01*
X134385855Y-82107819D01*
X134281094Y-82055438D01*
X134228713Y-82003057D01*
X134176332Y-81898295D01*
X134176332Y-81793533D01*
X134228713Y-81688771D01*
X134281094Y-81636390D01*
X134385855Y-81584009D01*
X134595379Y-81531628D01*
X134700141Y-81479247D01*
X134752522Y-81426866D01*
X134804903Y-81322104D01*
X134804903Y-81217342D01*
X134752522Y-81112580D01*
X134700141Y-81060200D01*
X134595379Y-81007819D01*
X134333475Y-81007819D01*
X134176332Y-81060200D01*
X133704903Y-82107819D02*
X133704903Y-81007819D01*
X137162045Y-85191431D02*
X136323950Y-85191431D01*
X136742998Y-85610479D02*
X136742998Y-84772383D01*
X135276331Y-84510479D02*
X135800140Y-84510479D01*
X135852521Y-85034288D01*
X135800140Y-84981907D01*
X135695379Y-84929526D01*
X135433474Y-84929526D01*
X135328712Y-84981907D01*
X135276331Y-85034288D01*
X135223950Y-85139050D01*
X135223950Y-85400955D01*
X135276331Y-85505717D01*
X135328712Y-85558098D01*
X135433474Y-85610479D01*
X135695379Y-85610479D01*
X135800140Y-85558098D01*
X135852521Y-85505717D01*
X134909664Y-84510479D02*
X134542998Y-85610479D01*
X134176331Y-84510479D01*
X136585855Y-74054880D02*
X136690617Y-74002499D01*
X136847760Y-74002499D01*
X137004902Y-74054880D01*
X137109664Y-74159641D01*
X137162045Y-74264403D01*
X137214426Y-74473927D01*
X137214426Y-74631070D01*
X137162045Y-74840594D01*
X137109664Y-74945356D01*
X137004902Y-75050118D01*
X136847760Y-75102499D01*
X136742998Y-75102499D01*
X136585855Y-75050118D01*
X136533474Y-74997737D01*
X136533474Y-74631070D01*
X136742998Y-74631070D01*
X136062045Y-75102499D02*
X136062045Y-74002499D01*
X135433474Y-75102499D01*
X135433474Y-74002499D01*
X134909664Y-75102499D02*
X134909664Y-74002499D01*
X134647760Y-74002499D01*
X134490617Y-74054880D01*
X134385855Y-74159641D01*
X134333474Y-74264403D01*
X134281093Y-74473927D01*
X134281093Y-74631070D01*
X134333474Y-74840594D01*
X134385855Y-74945356D01*
X134490617Y-75050118D01*
X134647760Y-75102499D01*
X134909664Y-75102499D01*
D11*
X142937549Y-71519040D02*
X142937549Y-70519040D01*
X142699454Y-70519040D01*
X142556597Y-70566660D01*
X142461359Y-70661898D01*
X142413740Y-70757136D01*
X142366120Y-70947612D01*
X142366120Y-71090469D01*
X142413740Y-71280945D01*
X142461359Y-71376183D01*
X142556597Y-71471421D01*
X142699454Y-71519040D01*
X142937549Y-71519040D01*
X141794692Y-71519040D02*
X141889930Y-71471421D01*
X141937549Y-71423802D01*
X141985168Y-71328564D01*
X141985168Y-71042850D01*
X141937549Y-70947612D01*
X141889930Y-70899993D01*
X141794692Y-70852374D01*
X141651835Y-70852374D01*
X141556597Y-70899993D01*
X141508978Y-70947612D01*
X141461359Y-71042850D01*
X141461359Y-71328564D01*
X141508978Y-71423802D01*
X141556597Y-71471421D01*
X141651835Y-71519040D01*
X141794692Y-71519040D01*
X141175644Y-70852374D02*
X140794692Y-70852374D01*
X141032787Y-70519040D02*
X141032787Y-71376183D01*
X140985168Y-71471421D01*
X140889930Y-71519040D01*
X140794692Y-71519040D01*
X140508978Y-71471421D02*
X140366120Y-71519040D01*
X140128025Y-71519040D01*
X140032787Y-71471421D01*
X139985168Y-71423802D01*
X139937549Y-71328564D01*
X139937549Y-71233326D01*
X139985168Y-71138088D01*
X140032787Y-71090469D01*
X140128025Y-71042850D01*
X140318501Y-70995231D01*
X140413740Y-70947612D01*
X140461359Y-70899993D01*
X140508978Y-70804755D01*
X140508978Y-70709517D01*
X140461359Y-70614279D01*
X140413740Y-70566660D01*
X140318501Y-70519040D01*
X140080406Y-70519040D01*
X139937549Y-70566660D01*
X139651835Y-70852374D02*
X139270882Y-70852374D01*
X139508978Y-70519040D02*
X139508978Y-71376183D01*
X139461359Y-71471421D01*
X139366120Y-71519040D01*
X139270882Y-71519040D01*
X138508978Y-71519040D02*
X138508978Y-70995231D01*
X138556597Y-70899993D01*
X138651835Y-70852374D01*
X138842311Y-70852374D01*
X138937549Y-70899993D01*
X138508978Y-71471421D02*
X138604216Y-71519040D01*
X138842311Y-71519040D01*
X138937549Y-71471421D01*
X138985168Y-71376183D01*
X138985168Y-71280945D01*
X138937549Y-71185707D01*
X138842311Y-71138088D01*
X138604216Y-71138088D01*
X138508978Y-71090469D01*
X138032787Y-71519040D02*
X138032787Y-70852374D01*
X138032787Y-71042850D02*
X137985168Y-70947612D01*
X137937549Y-70899993D01*
X137842311Y-70852374D01*
X137747073Y-70852374D01*
D12*
X141718160Y-104621900D02*
X141861017Y-104550471D01*
X142075302Y-104550471D01*
X142289588Y-104621900D01*
X142432445Y-104764757D01*
X142503874Y-104907614D01*
X142575302Y-105193328D01*
X142575302Y-105407614D01*
X142503874Y-105693328D01*
X142432445Y-105836185D01*
X142289588Y-105979042D01*
X142075302Y-106050471D01*
X141932445Y-106050471D01*
X141718160Y-105979042D01*
X141646731Y-105907614D01*
X141646731Y-105407614D01*
X141932445Y-105407614D01*
X141003874Y-106050471D02*
X141003874Y-104550471D01*
X140432445Y-104550471D01*
X140289588Y-104621900D01*
X140218160Y-104693328D01*
X140146731Y-104836185D01*
X140146731Y-105050471D01*
X140218160Y-105193328D01*
X140289588Y-105264757D01*
X140432445Y-105336185D01*
X141003874Y-105336185D01*
X139503874Y-106050471D02*
X139503874Y-104550471D01*
X138503874Y-104550471D02*
X138218160Y-104550471D01*
X138075302Y-104621900D01*
X137932445Y-104764757D01*
X137861017Y-105050471D01*
X137861017Y-105550471D01*
X137932445Y-105836185D01*
X138075302Y-105979042D01*
X138218160Y-106050471D01*
X138503874Y-106050471D01*
X138646731Y-105979042D01*
X138789588Y-105836185D01*
X138861017Y-105550471D01*
X138861017Y-105050471D01*
X138789588Y-104764757D01*
X138646731Y-104621900D01*
X138503874Y-104550471D01*
D10*
X137016539Y-89988300D02*
X137121301Y-89935919D01*
X137278444Y-89935919D01*
X137435586Y-89988300D01*
X137540348Y-90093061D01*
X137592729Y-90197823D01*
X137645110Y-90407347D01*
X137645110Y-90564490D01*
X137592729Y-90774014D01*
X137540348Y-90878776D01*
X137435586Y-90983538D01*
X137278444Y-91035919D01*
X137173682Y-91035919D01*
X137016539Y-90983538D01*
X136964158Y-90931157D01*
X136964158Y-90564490D01*
X137173682Y-90564490D01*
X136492729Y-91035919D02*
X136492729Y-89935919D01*
X135864158Y-91035919D01*
X135864158Y-89935919D01*
X135340348Y-91035919D02*
X135340348Y-89935919D01*
X135078444Y-89935919D01*
X134921301Y-89988300D01*
X134816539Y-90093061D01*
X134764158Y-90197823D01*
X134711777Y-90407347D01*
X134711777Y-90564490D01*
X134764158Y-90774014D01*
X134816539Y-90878776D01*
X134921301Y-90983538D01*
X135078444Y-91035919D01*
X135340348Y-91035919D01*
X137592730Y-101477911D02*
X136754635Y-101477911D01*
X137173682Y-101896959D02*
X137173682Y-101058863D01*
X136335587Y-100796959D02*
X135654635Y-100796959D01*
X136021301Y-101216006D01*
X135864158Y-101216006D01*
X135759396Y-101268387D01*
X135707016Y-101320768D01*
X135654635Y-101425530D01*
X135654635Y-101687435D01*
X135707016Y-101792197D01*
X135759396Y-101844578D01*
X135864158Y-101896959D01*
X136178444Y-101896959D01*
X136283206Y-101844578D01*
X136335587Y-101792197D01*
X135287968Y-101163625D02*
X135026063Y-101896959D01*
X134764158Y-101163625D01*
X134449873Y-100796959D02*
X133768920Y-100796959D01*
X134135587Y-101216006D01*
X133978444Y-101216006D01*
X133873682Y-101268387D01*
X133821301Y-101320768D01*
X133768920Y-101425530D01*
X133768920Y-101687435D01*
X133821301Y-101792197D01*
X133873682Y-101844578D01*
X133978444Y-101896959D01*
X134292730Y-101896959D01*
X134397492Y-101844578D01*
X134449873Y-101792197D01*
X137016539Y-93821160D02*
X137121300Y-93768779D01*
X137278443Y-93768779D01*
X137435586Y-93821160D01*
X137540348Y-93925921D01*
X137592729Y-94030683D01*
X137645110Y-94240207D01*
X137645110Y-94397350D01*
X137592729Y-94606874D01*
X137540348Y-94711636D01*
X137435586Y-94816398D01*
X137278443Y-94868779D01*
X137173681Y-94868779D01*
X137016539Y-94816398D01*
X136964158Y-94764017D01*
X136964158Y-94397350D01*
X137173681Y-94397350D01*
X136492729Y-94868779D02*
X136492729Y-93768779D01*
X136073681Y-93768779D01*
X135968920Y-93821160D01*
X135916539Y-93873540D01*
X135864158Y-93978302D01*
X135864158Y-94135445D01*
X135916539Y-94240207D01*
X135968920Y-94292588D01*
X136073681Y-94344969D01*
X136492729Y-94344969D01*
X135392729Y-94868779D02*
X135392729Y-93768779D01*
X134659396Y-93768779D02*
X134449872Y-93768779D01*
X134345110Y-93821160D01*
X134240348Y-93925921D01*
X134187967Y-94135445D01*
X134187967Y-94502112D01*
X134240348Y-94711636D01*
X134345110Y-94816398D01*
X134449872Y-94868779D01*
X134659396Y-94868779D01*
X134764158Y-94816398D01*
X134868920Y-94711636D01*
X134921300Y-94502112D01*
X134921300Y-94135445D01*
X134868920Y-93925921D01*
X134764158Y-93821160D01*
X134659396Y-93768779D01*
X133768920Y-93873540D02*
X133716539Y-93821160D01*
X133611777Y-93768779D01*
X133349872Y-93768779D01*
X133245110Y-93821160D01*
X133192729Y-93873540D01*
X133140348Y-93978302D01*
X133140348Y-94083064D01*
X133192729Y-94240207D01*
X133821300Y-94868779D01*
X133140348Y-94868779D01*
X132197491Y-93768779D02*
X132407015Y-93768779D01*
X132511777Y-93821160D01*
X132564158Y-93873540D01*
X132668920Y-94030683D01*
X132721300Y-94240207D01*
X132721300Y-94659255D01*
X132668920Y-94764017D01*
X132616539Y-94816398D01*
X132511777Y-94868779D01*
X132302253Y-94868779D01*
X132197491Y-94816398D01*
X132145110Y-94764017D01*
X132092729Y-94659255D01*
X132092729Y-94397350D01*
X132145110Y-94292588D01*
X132197491Y-94240207D01*
X132302253Y-94187826D01*
X132511777Y-94187826D01*
X132616539Y-94240207D01*
X132668920Y-94292588D01*
X132721300Y-94397350D01*
X137016539Y-97333980D02*
X137121300Y-97281599D01*
X137278443Y-97281599D01*
X137435586Y-97333980D01*
X137540348Y-97438741D01*
X137592729Y-97543503D01*
X137645110Y-97753027D01*
X137645110Y-97910170D01*
X137592729Y-98119694D01*
X137540348Y-98224456D01*
X137435586Y-98329218D01*
X137278443Y-98381599D01*
X137173681Y-98381599D01*
X137016539Y-98329218D01*
X136964158Y-98276837D01*
X136964158Y-97910170D01*
X137173681Y-97910170D01*
X136492729Y-98381599D02*
X136492729Y-97281599D01*
X136073681Y-97281599D01*
X135968920Y-97333980D01*
X135916539Y-97386360D01*
X135864158Y-97491122D01*
X135864158Y-97648265D01*
X135916539Y-97753027D01*
X135968920Y-97805408D01*
X136073681Y-97857789D01*
X136492729Y-97857789D01*
X135392729Y-98381599D02*
X135392729Y-97281599D01*
X134659396Y-97281599D02*
X134449872Y-97281599D01*
X134345110Y-97333980D01*
X134240348Y-97438741D01*
X134187967Y-97648265D01*
X134187967Y-98014932D01*
X134240348Y-98224456D01*
X134345110Y-98329218D01*
X134449872Y-98381599D01*
X134659396Y-98381599D01*
X134764158Y-98329218D01*
X134868920Y-98224456D01*
X134921300Y-98014932D01*
X134921300Y-97648265D01*
X134868920Y-97438741D01*
X134764158Y-97333980D01*
X134659396Y-97281599D01*
X133140348Y-98381599D02*
X133768920Y-98381599D01*
X133454634Y-98381599D02*
X133454634Y-97281599D01*
X133559396Y-97438741D01*
X133664158Y-97543503D01*
X133768920Y-97595884D01*
X132197491Y-97281599D02*
X132407015Y-97281599D01*
X132511777Y-97333980D01*
X132564158Y-97386360D01*
X132668920Y-97543503D01*
X132721300Y-97753027D01*
X132721300Y-98172075D01*
X132668920Y-98276837D01*
X132616539Y-98329218D01*
X132511777Y-98381599D01*
X132302253Y-98381599D01*
X132197491Y-98329218D01*
X132145110Y-98276837D01*
X132092729Y-98172075D01*
X132092729Y-97910170D01*
X132145110Y-97805408D01*
X132197491Y-97753027D01*
X132302253Y-97700646D01*
X132511777Y-97700646D01*
X132616539Y-97753027D01*
X132668920Y-97805408D01*
X132721300Y-97910170D01*
D12*
X141664820Y-104621900D02*
X141807677Y-104550471D01*
X142021962Y-104550471D01*
X142236248Y-104621900D01*
X142379105Y-104764757D01*
X142450534Y-104907614D01*
X142521962Y-105193328D01*
X142521962Y-105407614D01*
X142450534Y-105693328D01*
X142379105Y-105836185D01*
X142236248Y-105979042D01*
X142021962Y-106050471D01*
X141879105Y-106050471D01*
X141664820Y-105979042D01*
X141593391Y-105907614D01*
X141593391Y-105407614D01*
X141879105Y-105407614D01*
X140950534Y-106050471D02*
X140950534Y-104550471D01*
X140379105Y-104550471D01*
X140236248Y-104621900D01*
X140164820Y-104693328D01*
X140093391Y-104836185D01*
X140093391Y-105050471D01*
X140164820Y-105193328D01*
X140236248Y-105264757D01*
X140379105Y-105336185D01*
X140950534Y-105336185D01*
X139450534Y-106050471D02*
X139450534Y-104550471D01*
X138450534Y-104550471D02*
X138164820Y-104550471D01*
X138021962Y-104621900D01*
X137879105Y-104764757D01*
X137807677Y-105050471D01*
X137807677Y-105550471D01*
X137879105Y-105836185D01*
X138021962Y-105979042D01*
X138164820Y-106050471D01*
X138450534Y-106050471D01*
X138593391Y-105979042D01*
X138736248Y-105836185D01*
X138807677Y-105550471D01*
X138807677Y-105050471D01*
X138736248Y-104764757D01*
X138593391Y-104621900D01*
X138450534Y-104550471D01*
X79881754Y-68993628D02*
X79881754Y-70493628D01*
X80524611Y-70350771D02*
X80596040Y-70422200D01*
X80738897Y-70493628D01*
X81096040Y-70493628D01*
X81238897Y-70422200D01*
X81310325Y-70350771D01*
X81381754Y-70207914D01*
X81381754Y-70065057D01*
X81310325Y-69850771D01*
X80453182Y-68993628D01*
X81381754Y-68993628D01*
X82881754Y-69136485D02*
X82810325Y-69065057D01*
X82596040Y-68993628D01*
X82453182Y-68993628D01*
X82238897Y-69065057D01*
X82096040Y-69207914D01*
X82024611Y-69350771D01*
X81953182Y-69636485D01*
X81953182Y-69850771D01*
X82024611Y-70136485D01*
X82096040Y-70279342D01*
X82238897Y-70422200D01*
X82453182Y-70493628D01*
X82596040Y-70493628D01*
X82810325Y-70422200D01*
X82881754Y-70350771D01*
D13*
X88549017Y-102485034D02*
X88549017Y-101342177D01*
X87977588Y-101913605D02*
X89120445Y-101913605D01*
X88549017Y-96056462D02*
X88549017Y-94913605D01*
D12*
X91793451Y-94149825D02*
X91793451Y-94435540D01*
X91722022Y-94578397D01*
X91650594Y-94649825D01*
X91436308Y-94792682D01*
X91150594Y-94864111D01*
X90579165Y-94864111D01*
X90436308Y-94792682D01*
X90364880Y-94721254D01*
X90293451Y-94578397D01*
X90293451Y-94292682D01*
X90364880Y-94149825D01*
X90436308Y-94078397D01*
X90579165Y-94006968D01*
X90936308Y-94006968D01*
X91079165Y-94078397D01*
X91150594Y-94149825D01*
X91222022Y-94292682D01*
X91222022Y-94578397D01*
X91150594Y-94721254D01*
X91079165Y-94792682D01*
X90936308Y-94864111D01*
X91222022Y-95506968D02*
X91222022Y-96649825D01*
X90436308Y-97292682D02*
X90364880Y-97364111D01*
X90293451Y-97506968D01*
X90293451Y-97864111D01*
X90364880Y-98006968D01*
X90436308Y-98078397D01*
X90579165Y-98149825D01*
X90722022Y-98149825D01*
X90936308Y-98078397D01*
X91793451Y-97221254D01*
X91793451Y-98149825D01*
X90793451Y-99435540D02*
X91793451Y-99435540D01*
X90222022Y-99078397D02*
X91293451Y-98721254D01*
X91293451Y-99649825D01*
X90293451Y-100006968D02*
X91793451Y-100506968D01*
X90293451Y-101006968D01*
X91793451Y-101506968D02*
X90293451Y-101506968D01*
X90293451Y-101864111D01*
X90364880Y-102078397D01*
X90507737Y-102221254D01*
X90650594Y-102292682D01*
X90936308Y-102364111D01*
X91150594Y-102364111D01*
X91436308Y-102292682D01*
X91579165Y-102221254D01*
X91722022Y-102078397D01*
X91793451Y-101864111D01*
X91793451Y-101506968D01*
X91650594Y-103864111D02*
X91722022Y-103792682D01*
X91793451Y-103578397D01*
X91793451Y-103435540D01*
X91722022Y-103221254D01*
X91579165Y-103078397D01*
X91436308Y-103006968D01*
X91150594Y-102935540D01*
X90936308Y-102935540D01*
X90650594Y-103006968D01*
X90507737Y-103078397D01*
X90364880Y-103221254D01*
X90293451Y-103435540D01*
X90293451Y-103578397D01*
X90364880Y-103792682D01*
X90436308Y-103864111D01*
D11*
X125158166Y-81723580D02*
X125158166Y-80723580D01*
X124777214Y-80723580D01*
X124681976Y-80771200D01*
X124634357Y-80818819D01*
X124586738Y-80914057D01*
X124586738Y-81056914D01*
X124634357Y-81152152D01*
X124681976Y-81199771D01*
X124777214Y-81247390D01*
X125158166Y-81247390D01*
X124253404Y-80723580D02*
X124015309Y-81723580D01*
X123824833Y-81009295D01*
X123634357Y-81723580D01*
X123396261Y-80723580D01*
X122443880Y-81723580D02*
X122777214Y-81247390D01*
X123015309Y-81723580D02*
X123015309Y-80723580D01*
X122634357Y-80723580D01*
X122539119Y-80771200D01*
X122491500Y-80818819D01*
X122443880Y-80914057D01*
X122443880Y-81056914D01*
X122491500Y-81152152D01*
X122539119Y-81199771D01*
X122634357Y-81247390D01*
X123015309Y-81247390D01*
X122015309Y-81723580D02*
X122015309Y-80723580D01*
X122015309Y-81199771D02*
X121443880Y-81199771D01*
X121443880Y-81723580D02*
X121443880Y-80723580D01*
X121015309Y-81437866D02*
X120539119Y-81437866D01*
X121110547Y-81723580D02*
X120777214Y-80723580D01*
X120443880Y-81723580D01*
X120253404Y-80723580D02*
X119681976Y-80723580D01*
X119967690Y-81723580D02*
X119967690Y-80723580D01*
X130062928Y-83473580D02*
X130062928Y-82473580D01*
X129634357Y-83473580D02*
X129634357Y-82949771D01*
X129681976Y-82854533D01*
X129777214Y-82806914D01*
X129920071Y-82806914D01*
X130015309Y-82854533D01*
X130062928Y-82902152D01*
X129301023Y-82806914D02*
X128920071Y-82806914D01*
X129158166Y-82473580D02*
X129158166Y-83330723D01*
X129110547Y-83425961D01*
X129015309Y-83473580D01*
X128920071Y-83473580D01*
X128729595Y-82806914D02*
X128348642Y-82806914D01*
X128586738Y-82473580D02*
X128586738Y-83330723D01*
X128539119Y-83425961D01*
X128443880Y-83473580D01*
X128348642Y-83473580D01*
X128015309Y-82806914D02*
X128015309Y-83806914D01*
X128015309Y-82854533D02*
X127920071Y-82806914D01*
X127729595Y-82806914D01*
X127634357Y-82854533D01*
X127586738Y-82902152D01*
X127539119Y-82997390D01*
X127539119Y-83283104D01*
X127586738Y-83378342D01*
X127634357Y-83425961D01*
X127729595Y-83473580D01*
X127920071Y-83473580D01*
X128015309Y-83425961D01*
X127158166Y-83425961D02*
X127062928Y-83473580D01*
X126872452Y-83473580D01*
X126777214Y-83425961D01*
X126729595Y-83330723D01*
X126729595Y-83283104D01*
X126777214Y-83187866D01*
X126872452Y-83140247D01*
X127015309Y-83140247D01*
X127110547Y-83092628D01*
X127158166Y-82997390D01*
X127158166Y-82949771D01*
X127110547Y-82854533D01*
X127015309Y-82806914D01*
X126872452Y-82806914D01*
X126777214Y-82854533D01*
X126301023Y-83378342D02*
X126253404Y-83425961D01*
X126301023Y-83473580D01*
X126348642Y-83425961D01*
X126301023Y-83378342D01*
X126301023Y-83473580D01*
X126301023Y-82854533D02*
X126253404Y-82902152D01*
X126301023Y-82949771D01*
X126348642Y-82902152D01*
X126301023Y-82854533D01*
X126301023Y-82949771D01*
X125110547Y-82425961D02*
X125967690Y-83711676D01*
X124062928Y-82425961D02*
X124920071Y-83711676D01*
X123301023Y-82806914D02*
X123301023Y-83616438D01*
X123348642Y-83711676D01*
X123396261Y-83759295D01*
X123491500Y-83806914D01*
X123634357Y-83806914D01*
X123729595Y-83759295D01*
X123301023Y-83425961D02*
X123396261Y-83473580D01*
X123586738Y-83473580D01*
X123681976Y-83425961D01*
X123729595Y-83378342D01*
X123777214Y-83283104D01*
X123777214Y-82997390D01*
X123729595Y-82902152D01*
X123681976Y-82854533D01*
X123586738Y-82806914D01*
X123396261Y-82806914D01*
X123301023Y-82854533D01*
X122824833Y-83473580D02*
X122824833Y-82806914D01*
X122824833Y-82473580D02*
X122872452Y-82521200D01*
X122824833Y-82568819D01*
X122777214Y-82521200D01*
X122824833Y-82473580D01*
X122824833Y-82568819D01*
X122491500Y-82806914D02*
X122110547Y-82806914D01*
X122348642Y-82473580D02*
X122348642Y-83330723D01*
X122301023Y-83425961D01*
X122205785Y-83473580D01*
X122110547Y-83473580D01*
X121777214Y-83473580D02*
X121777214Y-82473580D01*
X121348642Y-83473580D02*
X121348642Y-82949771D01*
X121396261Y-82854533D01*
X121491500Y-82806914D01*
X121634357Y-82806914D01*
X121729595Y-82854533D01*
X121777214Y-82902152D01*
X120443880Y-82806914D02*
X120443880Y-83473580D01*
X120872452Y-82806914D02*
X120872452Y-83330723D01*
X120824833Y-83425961D01*
X120729595Y-83473580D01*
X120586738Y-83473580D01*
X120491500Y-83425961D01*
X120443880Y-83378342D01*
X119967690Y-83473580D02*
X119967690Y-82473580D01*
X119967690Y-82854533D02*
X119872452Y-82806914D01*
X119681976Y-82806914D01*
X119586738Y-82854533D01*
X119539119Y-82902152D01*
X119491500Y-82997390D01*
X119491500Y-83283104D01*
X119539119Y-83378342D01*
X119586738Y-83425961D01*
X119681976Y-83473580D01*
X119872452Y-83473580D01*
X119967690Y-83425961D01*
X119062928Y-83378342D02*
X119015309Y-83425961D01*
X119062928Y-83473580D01*
X119110547Y-83425961D01*
X119062928Y-83378342D01*
X119062928Y-83473580D01*
X118158166Y-83425961D02*
X118253404Y-83473580D01*
X118443880Y-83473580D01*
X118539119Y-83425961D01*
X118586738Y-83378342D01*
X118634357Y-83283104D01*
X118634357Y-82997390D01*
X118586738Y-82902152D01*
X118539119Y-82854533D01*
X118443880Y-82806914D01*
X118253404Y-82806914D01*
X118158166Y-82854533D01*
X117586738Y-83473580D02*
X117681976Y-83425961D01*
X117729595Y-83378342D01*
X117777214Y-83283104D01*
X117777214Y-82997390D01*
X117729595Y-82902152D01*
X117681976Y-82854533D01*
X117586738Y-82806914D01*
X117443880Y-82806914D01*
X117348642Y-82854533D01*
X117301023Y-82902152D01*
X117253404Y-82997390D01*
X117253404Y-83283104D01*
X117301023Y-83378342D01*
X117348642Y-83425961D01*
X117443880Y-83473580D01*
X117586738Y-83473580D01*
X116824833Y-83473580D02*
X116824833Y-82806914D01*
X116824833Y-82902152D02*
X116777214Y-82854533D01*
X116681976Y-82806914D01*
X116539119Y-82806914D01*
X116443880Y-82854533D01*
X116396261Y-82949771D01*
X116396261Y-83473580D01*
X116396261Y-82949771D02*
X116348642Y-82854533D01*
X116253404Y-82806914D01*
X116110547Y-82806914D01*
X116015309Y-82854533D01*
X115967690Y-82949771D01*
X115967690Y-83473580D01*
X114777214Y-82425961D02*
X115634357Y-83711676D01*
X125896261Y-84556914D02*
X125896261Y-85556914D01*
X125896261Y-84604533D02*
X125801023Y-84556914D01*
X125610547Y-84556914D01*
X125515309Y-84604533D01*
X125467690Y-84652152D01*
X125420071Y-84747390D01*
X125420071Y-85033104D01*
X125467690Y-85128342D01*
X125515309Y-85175961D01*
X125610547Y-85223580D01*
X125801023Y-85223580D01*
X125896261Y-85175961D01*
X124848642Y-85223580D02*
X124943880Y-85175961D01*
X124991500Y-85128342D01*
X125039119Y-85033104D01*
X125039119Y-84747390D01*
X124991500Y-84652152D01*
X124943880Y-84604533D01*
X124848642Y-84556914D01*
X124705785Y-84556914D01*
X124610547Y-84604533D01*
X124562928Y-84652152D01*
X124515309Y-84747390D01*
X124515309Y-85033104D01*
X124562928Y-85128342D01*
X124610547Y-85175961D01*
X124705785Y-85223580D01*
X124848642Y-85223580D01*
X124086738Y-85223580D02*
X124086738Y-84556914D01*
X124086738Y-84652152D02*
X124039119Y-84604533D01*
X123943880Y-84556914D01*
X123801023Y-84556914D01*
X123705785Y-84604533D01*
X123658166Y-84699771D01*
X123658166Y-85223580D01*
X123658166Y-84699771D02*
X123610547Y-84604533D01*
X123515309Y-84556914D01*
X123372452Y-84556914D01*
X123277214Y-84604533D01*
X123229595Y-84699771D01*
X123229595Y-85223580D01*
X122753404Y-85223580D02*
X122753404Y-84556914D01*
X122753404Y-84652152D02*
X122705785Y-84604533D01*
X122610547Y-84556914D01*
X122467690Y-84556914D01*
X122372452Y-84604533D01*
X122324833Y-84699771D01*
X122324833Y-85223580D01*
X122324833Y-84699771D02*
X122277214Y-84604533D01*
X122181976Y-84556914D01*
X122039119Y-84556914D01*
X121943880Y-84604533D01*
X121896261Y-84699771D01*
X121896261Y-85223580D01*
X121039119Y-85175961D02*
X121134357Y-85223580D01*
X121324833Y-85223580D01*
X121420071Y-85175961D01*
X121467690Y-85080723D01*
X121467690Y-84699771D01*
X121420071Y-84604533D01*
X121324833Y-84556914D01*
X121134357Y-84556914D01*
X121039119Y-84604533D01*
X120991500Y-84699771D01*
X120991500Y-84795009D01*
X121467690Y-84890247D01*
X120562928Y-84556914D02*
X120562928Y-85223580D01*
X120562928Y-84652152D02*
X120515309Y-84604533D01*
X120420071Y-84556914D01*
X120277214Y-84556914D01*
X120181976Y-84604533D01*
X120134357Y-84699771D01*
X120134357Y-85223580D01*
X118943880Y-84175961D02*
X119801023Y-85461676D01*
X128229595Y-86973580D02*
X128229595Y-86306914D01*
X128229595Y-86497390D02*
X128181976Y-86402152D01*
X128134357Y-86354533D01*
X128039119Y-86306914D01*
X127943880Y-86306914D01*
X127181976Y-86973580D02*
X127181976Y-86449771D01*
X127229595Y-86354533D01*
X127324833Y-86306914D01*
X127515309Y-86306914D01*
X127610547Y-86354533D01*
X127181976Y-86925961D02*
X127277214Y-86973580D01*
X127515309Y-86973580D01*
X127610547Y-86925961D01*
X127658166Y-86830723D01*
X127658166Y-86735485D01*
X127610547Y-86640247D01*
X127515309Y-86592628D01*
X127277214Y-86592628D01*
X127181976Y-86545009D01*
X126753404Y-86925961D02*
X126658166Y-86973580D01*
X126467690Y-86973580D01*
X126372452Y-86925961D01*
X126324833Y-86830723D01*
X126324833Y-86783104D01*
X126372452Y-86687866D01*
X126467690Y-86640247D01*
X126610547Y-86640247D01*
X126705785Y-86592628D01*
X126753404Y-86497390D01*
X126753404Y-86449771D01*
X126705785Y-86354533D01*
X126610547Y-86306914D01*
X126467690Y-86306914D01*
X126372452Y-86354533D01*
X125896261Y-86306914D02*
X125896261Y-87306914D01*
X125896261Y-86354533D02*
X125801023Y-86306914D01*
X125610547Y-86306914D01*
X125515309Y-86354533D01*
X125467690Y-86402152D01*
X125420071Y-86497390D01*
X125420071Y-86783104D01*
X125467690Y-86878342D01*
X125515309Y-86925961D01*
X125610547Y-86973580D01*
X125801023Y-86973580D01*
X125896261Y-86925961D01*
X124991500Y-86973580D02*
X124991500Y-86306914D01*
X124991500Y-85973580D02*
X125039119Y-86021200D01*
X124991500Y-86068819D01*
X124943880Y-86021200D01*
X124991500Y-85973580D01*
X124991500Y-86068819D01*
X124753404Y-87068819D02*
X123991500Y-87068819D01*
X123753404Y-86306914D02*
X123753404Y-87306914D01*
X123753404Y-86354533D02*
X123658166Y-86306914D01*
X123467690Y-86306914D01*
X123372452Y-86354533D01*
X123324833Y-86402152D01*
X123277214Y-86497390D01*
X123277214Y-86783104D01*
X123324833Y-86878342D01*
X123372452Y-86925961D01*
X123467690Y-86973580D01*
X123658166Y-86973580D01*
X123753404Y-86925961D01*
X122705785Y-86973580D02*
X122801023Y-86925961D01*
X122848642Y-86878342D01*
X122896261Y-86783104D01*
X122896261Y-86497390D01*
X122848642Y-86402152D01*
X122801023Y-86354533D01*
X122705785Y-86306914D01*
X122562928Y-86306914D01*
X122467690Y-86354533D01*
X122420071Y-86402152D01*
X122372452Y-86497390D01*
X122372452Y-86783104D01*
X122420071Y-86878342D01*
X122467690Y-86925961D01*
X122562928Y-86973580D01*
X122705785Y-86973580D01*
X122039119Y-86306914D02*
X121848642Y-86973580D01*
X121658166Y-86497390D01*
X121467690Y-86973580D01*
X121277214Y-86306914D01*
X120515309Y-86925961D02*
X120610547Y-86973580D01*
X120801023Y-86973580D01*
X120896261Y-86925961D01*
X120943880Y-86830723D01*
X120943880Y-86449771D01*
X120896261Y-86354533D01*
X120801023Y-86306914D01*
X120610547Y-86306914D01*
X120515309Y-86354533D01*
X120467690Y-86449771D01*
X120467690Y-86545009D01*
X120943880Y-86640247D01*
X120039119Y-86973580D02*
X120039119Y-86306914D01*
X120039119Y-86497390D02*
X119991500Y-86402152D01*
X119943880Y-86354533D01*
X119848642Y-86306914D01*
X119753404Y-86306914D01*
X119658166Y-87068819D02*
X118896261Y-87068819D01*
X118658166Y-86973580D02*
X118658166Y-85973580D01*
X118229595Y-86973580D02*
X118229595Y-86449771D01*
X118277214Y-86354533D01*
X118372452Y-86306914D01*
X118515309Y-86306914D01*
X118610547Y-86354533D01*
X118658166Y-86402152D01*
X117324833Y-86973580D02*
X117324833Y-86449771D01*
X117372452Y-86354533D01*
X117467690Y-86306914D01*
X117658166Y-86306914D01*
X117753404Y-86354533D01*
X117324833Y-86925961D02*
X117420071Y-86973580D01*
X117658166Y-86973580D01*
X117753404Y-86925961D01*
X117801023Y-86830723D01*
X117801023Y-86735485D01*
X117753404Y-86640247D01*
X117658166Y-86592628D01*
X117420071Y-86592628D01*
X117324833Y-86545009D01*
X116991500Y-86306914D02*
X116610547Y-86306914D01*
X116848642Y-85973580D02*
X116848642Y-86830723D01*
X116801023Y-86925961D01*
X116705785Y-86973580D01*
X116610547Y-86973580D01*
D14*
X100101383Y-93318831D02*
G75*
G02X98374200Y-91643200I-50783J1675631D01*
G01*
X113359431Y-91592417D02*
G75*
G02X111683800Y-93319600I-1675631J-50783D01*
G01*
X111633017Y-78283569D02*
G75*
G02X113360200Y-79959200I50783J-1675631D01*
G01*
X98349569Y-80009983D02*
G75*
G02X100025200Y-78282800I1675631J50783D01*
G01*
X98374200Y-91643200D02*
X98349569Y-80009983D01*
X111683800Y-93319600D02*
X100101383Y-93318831D01*
X113360200Y-79959200D02*
X113359431Y-91592417D01*
X100025200Y-78282800D02*
X111633017Y-78283569D01*
D15*
X78546357Y-63830200D02*
X78546356Y-113817611D01*
X78546357Y-63830200D02*
G75*
G02X81534000Y-60817611I2999999J12589D01*
G01*
X140546356Y-60817611D02*
X81534000Y-60817611D01*
X140546356Y-60817611D02*
G75*
G02X143546356Y-63817611I0J-3000000D01*
G01*
X143546351Y-113822847D02*
X143546356Y-63817611D01*
X81546356Y-116817611D02*
G75*
G02X78546356Y-113817611I0J3000000D01*
G01*
X81546356Y-116817611D02*
X140546356Y-116817611D01*
X143546351Y-113822847D02*
G75*
G02X140546356Y-116817611I-2999995J5236D01*
G01*
D16*
G36*
X122351622Y-89762316D02*
G01*
X122245888Y-89762895D01*
X122169368Y-89764462D01*
X122117128Y-89767512D01*
X122084237Y-89772536D01*
X122065763Y-89780029D01*
X122056773Y-89790484D01*
X122052337Y-89804393D01*
X122051906Y-89806194D01*
X122045167Y-89838685D01*
X122032692Y-89902792D01*
X122015781Y-89991691D01*
X121995729Y-90098559D01*
X121973836Y-90216573D01*
X121973071Y-90220718D01*
X121951141Y-90336371D01*
X121930623Y-90438554D01*
X121912841Y-90521138D01*
X121899119Y-90577996D01*
X121890782Y-90602998D01*
X121890384Y-90603441D01*
X121865823Y-90615650D01*
X121815185Y-90635996D01*
X121749405Y-90660085D01*
X121749039Y-90660214D01*
X121666183Y-90691358D01*
X121568500Y-90731031D01*
X121476423Y-90770921D01*
X121472066Y-90772893D01*
X121322093Y-90840960D01*
X120990002Y-90614179D01*
X120888126Y-90545044D01*
X120795843Y-90483237D01*
X120718497Y-90432273D01*
X120661436Y-90395667D01*
X120630005Y-90376934D01*
X120627021Y-90375544D01*
X120604179Y-90381730D01*
X120561518Y-90411575D01*
X120497372Y-90466487D01*
X120410079Y-90547874D01*
X120320965Y-90634462D01*
X120235059Y-90719787D01*
X120158173Y-90797648D01*
X120094936Y-90863237D01*
X120049977Y-90911745D01*
X120027924Y-90938365D01*
X120027104Y-90939735D01*
X120024666Y-90958003D01*
X120033850Y-90987835D01*
X120056926Y-91033261D01*
X120096163Y-91098310D01*
X120153830Y-91187010D01*
X120230705Y-91301197D01*
X120298930Y-91401702D01*
X120359918Y-91491843D01*
X120410144Y-91566389D01*
X120446084Y-91620105D01*
X120464213Y-91647758D01*
X120465354Y-91649635D01*
X120463141Y-91676130D01*
X120446362Y-91727626D01*
X120418358Y-91794391D01*
X120408378Y-91815712D01*
X120364828Y-91910699D01*
X120318366Y-92018477D01*
X120280623Y-92111732D01*
X120253427Y-92180946D01*
X120231825Y-92233546D01*
X120219342Y-92261037D01*
X120217791Y-92263156D01*
X120194832Y-92266664D01*
X120140714Y-92276278D01*
X120062632Y-92290629D01*
X119967781Y-92308347D01*
X119863357Y-92328065D01*
X119756556Y-92348414D01*
X119654574Y-92368026D01*
X119564606Y-92385531D01*
X119493847Y-92399562D01*
X119449494Y-92408749D01*
X119438615Y-92411347D01*
X119427378Y-92417758D01*
X119418895Y-92432237D01*
X119412786Y-92459673D01*
X119408668Y-92504951D01*
X119406159Y-92572960D01*
X119404879Y-92668587D01*
X119404446Y-92796720D01*
X119404423Y-92849241D01*
X119404423Y-93276385D01*
X119507000Y-93296631D01*
X119564069Y-93307610D01*
X119649231Y-93323635D01*
X119752128Y-93342773D01*
X119862404Y-93363091D01*
X119892885Y-93368672D01*
X119994645Y-93388457D01*
X120083295Y-93407913D01*
X120151392Y-93425237D01*
X120191496Y-93438628D01*
X120198177Y-93442619D01*
X120214581Y-93470882D01*
X120238101Y-93525649D01*
X120264184Y-93596128D01*
X120269358Y-93611309D01*
X120303544Y-93705436D01*
X120345977Y-93811641D01*
X120387503Y-93907013D01*
X120387708Y-93907456D01*
X120456860Y-94057065D01*
X120001988Y-94726157D01*
X120294000Y-95018656D01*
X120382320Y-95105710D01*
X120462875Y-95182449D01*
X120531140Y-95244777D01*
X120582592Y-95288596D01*
X120612706Y-95309810D01*
X120617026Y-95311156D01*
X120642389Y-95300556D01*
X120694142Y-95271087D01*
X120766632Y-95226245D01*
X120854206Y-95169524D01*
X120948888Y-95106002D01*
X121044984Y-95041208D01*
X121130663Y-94984827D01*
X121200484Y-94940328D01*
X121249006Y-94911179D01*
X121270718Y-94900848D01*
X121297207Y-94909590D01*
X121347438Y-94932627D01*
X121411049Y-94965171D01*
X121417792Y-94968789D01*
X121503454Y-95011750D01*
X121562194Y-95032819D01*
X121598728Y-95033043D01*
X121617769Y-95013468D01*
X121617880Y-95013194D01*
X121627398Y-94990012D01*
X121650097Y-94934981D01*
X121684218Y-94852362D01*
X121728000Y-94746412D01*
X121779684Y-94621392D01*
X121837508Y-94481560D01*
X121893509Y-94346177D01*
X121955053Y-94196774D01*
X122011561Y-94058372D01*
X122061339Y-93935213D01*
X122102694Y-93831542D01*
X122133932Y-93751599D01*
X122153359Y-93699628D01*
X122159346Y-93680232D01*
X122144332Y-93657983D01*
X122105061Y-93622522D01*
X122052693Y-93583427D01*
X121903559Y-93459785D01*
X121786989Y-93318062D01*
X121704382Y-93161244D01*
X121657134Y-92992315D01*
X121646643Y-92814262D01*
X121654269Y-92732079D01*
X121695818Y-92561571D01*
X121767377Y-92410999D01*
X121864505Y-92281849D01*
X121982766Y-92175604D01*
X122117720Y-92093750D01*
X122264929Y-92037772D01*
X122419956Y-92009155D01*
X122578361Y-92009384D01*
X122735706Y-92039945D01*
X122887554Y-92102322D01*
X123029465Y-92198000D01*
X123088697Y-92252112D01*
X123202297Y-92391060D01*
X123281394Y-92542901D01*
X123326514Y-92703207D01*
X123338184Y-92867552D01*
X123316931Y-93031511D01*
X123263280Y-93190658D01*
X123177760Y-93340565D01*
X123060895Y-93476807D01*
X122930307Y-93583427D01*
X122875912Y-93624182D01*
X122837486Y-93659258D01*
X122823654Y-93680266D01*
X122830897Y-93703175D01*
X122851495Y-93757905D01*
X122883754Y-93840212D01*
X122925979Y-93945855D01*
X122976477Y-94070590D01*
X123033552Y-94210176D01*
X123089646Y-94346210D01*
X123151533Y-94495741D01*
X123208856Y-94634307D01*
X123259856Y-94757647D01*
X123302773Y-94861504D01*
X123335847Y-94941620D01*
X123357319Y-94993735D01*
X123365275Y-95013194D01*
X123384071Y-95032963D01*
X123420426Y-95032905D01*
X123479021Y-95011981D01*
X123564532Y-94969153D01*
X123565208Y-94968789D01*
X123629593Y-94935552D01*
X123681639Y-94911342D01*
X123710988Y-94900944D01*
X123712283Y-94900848D01*
X123734376Y-94911395D01*
X123783152Y-94940724D01*
X123853169Y-94985367D01*
X123938986Y-95041854D01*
X124034112Y-95106002D01*
X124130960Y-95170951D01*
X124218247Y-95227436D01*
X124290319Y-95271961D01*
X124341523Y-95301030D01*
X124365974Y-95311156D01*
X124388490Y-95297847D01*
X124433758Y-95260652D01*
X124497256Y-95203668D01*
X124574461Y-95130989D01*
X124660849Y-95046711D01*
X124689101Y-95018556D01*
X124981213Y-94725956D01*
X124758869Y-94399644D01*
X124691298Y-94299437D01*
X124631993Y-94209503D01*
X124584283Y-94135050D01*
X124551493Y-94081291D01*
X124536952Y-94053434D01*
X124536526Y-94051452D01*
X124544192Y-94025195D01*
X124564811Y-93972377D01*
X124594815Y-93901850D01*
X124615875Y-93854633D01*
X124655252Y-93764234D01*
X124692335Y-93672906D01*
X124721085Y-93595740D01*
X124728895Y-93572232D01*
X124751083Y-93509456D01*
X124772773Y-93460951D01*
X124784687Y-93442619D01*
X124810977Y-93431399D01*
X124868358Y-93415494D01*
X124949382Y-93396707D01*
X125046605Y-93376839D01*
X125090115Y-93368672D01*
X125200604Y-93348369D01*
X125306584Y-93328710D01*
X125397699Y-93311628D01*
X125463592Y-93299058D01*
X125476000Y-93296631D01*
X125578577Y-93276385D01*
X125578577Y-92849241D01*
X125578347Y-92708786D01*
X125577401Y-92602519D01*
X125575359Y-92525553D01*
X125571838Y-92473000D01*
X125566457Y-92439973D01*
X125558834Y-92421585D01*
X125548588Y-92412948D01*
X125544385Y-92411347D01*
X125519030Y-92405667D01*
X125463016Y-92394335D01*
X125383536Y-92378719D01*
X125287788Y-92360187D01*
X125182967Y-92340109D01*
X125076268Y-92319852D01*
X124974887Y-92300786D01*
X124886021Y-92284279D01*
X124816863Y-92271699D01*
X124774611Y-92264415D01*
X124765210Y-92263156D01*
X124756693Y-92246303D01*
X124737840Y-92201410D01*
X124712176Y-92136970D01*
X124702377Y-92111732D01*
X124662852Y-92014226D01*
X124616308Y-91906499D01*
X124574623Y-91815712D01*
X124543950Y-91746293D01*
X124523544Y-91689250D01*
X124516732Y-91654317D01*
X124517818Y-91649635D01*
X124532215Y-91627531D01*
X124565088Y-91578371D01*
X124612910Y-91507388D01*
X124672152Y-91419818D01*
X124739285Y-91320897D01*
X124752559Y-91301370D01*
X124830454Y-91185680D01*
X124887713Y-91097584D01*
X124926619Y-91033026D01*
X124949456Y-90987951D01*
X124958506Y-90958303D01*
X124956052Y-90940025D01*
X124955989Y-90939909D01*
X124936673Y-90915901D01*
X124893949Y-90869487D01*
X124832449Y-90805477D01*
X124756802Y-90728685D01*
X124671639Y-90643922D01*
X124662035Y-90634462D01*
X124554710Y-90530529D01*
X124471885Y-90454215D01*
X124411895Y-90404111D01*
X124373077Y-90378810D01*
X124355980Y-90375544D01*
X124331027Y-90389790D01*
X124279245Y-90422696D01*
X124205980Y-90470748D01*
X124116580Y-90530430D01*
X124016389Y-90598228D01*
X123992999Y-90614179D01*
X123660907Y-90840960D01*
X123510935Y-90772893D01*
X123419730Y-90733225D01*
X123321831Y-90693331D01*
X123237669Y-90661523D01*
X123233962Y-90660214D01*
X123168131Y-90636116D01*
X123117384Y-90615740D01*
X123092658Y-90603476D01*
X123092616Y-90603441D01*
X123084771Y-90581274D01*
X123071434Y-90526757D01*
X123053930Y-90446020D01*
X123033583Y-90345190D01*
X123011718Y-90230396D01*
X123009929Y-90220718D01*
X122987996Y-90102444D01*
X122967860Y-89995082D01*
X122950820Y-89905457D01*
X122938172Y-89840391D01*
X122931216Y-89806708D01*
X122931094Y-89806194D01*
X122926861Y-89791865D01*
X122918629Y-89781047D01*
X122901467Y-89773246D01*
X122870442Y-89767969D01*
X122820622Y-89764722D01*
X122747076Y-89763012D01*
X122644871Y-89762347D01*
X122509075Y-89762233D01*
X122491500Y-89762232D01*
X122351622Y-89762316D01*
X122351622Y-89762316D01*
G37*
X122351622Y-89762316D02*
X122245888Y-89762895D01*
X122169368Y-89764462D01*
X122117128Y-89767512D01*
X122084237Y-89772536D01*
X122065763Y-89780029D01*
X122056773Y-89790484D01*
X122052337Y-89804393D01*
X122051906Y-89806194D01*
X122045167Y-89838685D01*
X122032692Y-89902792D01*
X122015781Y-89991691D01*
X121995729Y-90098559D01*
X121973836Y-90216573D01*
X121973071Y-90220718D01*
X121951141Y-90336371D01*
X121930623Y-90438554D01*
X121912841Y-90521138D01*
X121899119Y-90577996D01*
X121890782Y-90602998D01*
X121890384Y-90603441D01*
X121865823Y-90615650D01*
X121815185Y-90635996D01*
X121749405Y-90660085D01*
X121749039Y-90660214D01*
X121666183Y-90691358D01*
X121568500Y-90731031D01*
X121476423Y-90770921D01*
X121472066Y-90772893D01*
X121322093Y-90840960D01*
X120990002Y-90614179D01*
X120888126Y-90545044D01*
X120795843Y-90483237D01*
X120718497Y-90432273D01*
X120661436Y-90395667D01*
X120630005Y-90376934D01*
X120627021Y-90375544D01*
X120604179Y-90381730D01*
X120561518Y-90411575D01*
X120497372Y-90466487D01*
X120410079Y-90547874D01*
X120320965Y-90634462D01*
X120235059Y-90719787D01*
X120158173Y-90797648D01*
X120094936Y-90863237D01*
X120049977Y-90911745D01*
X120027924Y-90938365D01*
X120027104Y-90939735D01*
X120024666Y-90958003D01*
X120033850Y-90987835D01*
X120056926Y-91033261D01*
X120096163Y-91098310D01*
X120153830Y-91187010D01*
X120230705Y-91301197D01*
X120298930Y-91401702D01*
X120359918Y-91491843D01*
X120410144Y-91566389D01*
X120446084Y-91620105D01*
X120464213Y-91647758D01*
X120465354Y-91649635D01*
X120463141Y-91676130D01*
X120446362Y-91727626D01*
X120418358Y-91794391D01*
X120408378Y-91815712D01*
X120364828Y-91910699D01*
X120318366Y-92018477D01*
X120280623Y-92111732D01*
X120253427Y-92180946D01*
X120231825Y-92233546D01*
X120219342Y-92261037D01*
X120217791Y-92263156D01*
X120194832Y-92266664D01*
X120140714Y-92276278D01*
X120062632Y-92290629D01*
X119967781Y-92308347D01*
X119863357Y-92328065D01*
X119756556Y-92348414D01*
X119654574Y-92368026D01*
X119564606Y-92385531D01*
X119493847Y-92399562D01*
X119449494Y-92408749D01*
X119438615Y-92411347D01*
X119427378Y-92417758D01*
X119418895Y-92432237D01*
X119412786Y-92459673D01*
X119408668Y-92504951D01*
X119406159Y-92572960D01*
X119404879Y-92668587D01*
X119404446Y-92796720D01*
X119404423Y-92849241D01*
X119404423Y-93276385D01*
X119507000Y-93296631D01*
X119564069Y-93307610D01*
X119649231Y-93323635D01*
X119752128Y-93342773D01*
X119862404Y-93363091D01*
X119892885Y-93368672D01*
X119994645Y-93388457D01*
X120083295Y-93407913D01*
X120151392Y-93425237D01*
X120191496Y-93438628D01*
X120198177Y-93442619D01*
X120214581Y-93470882D01*
X120238101Y-93525649D01*
X120264184Y-93596128D01*
X120269358Y-93611309D01*
X120303544Y-93705436D01*
X120345977Y-93811641D01*
X120387503Y-93907013D01*
X120387708Y-93907456D01*
X120456860Y-94057065D01*
X120001988Y-94726157D01*
X120294000Y-95018656D01*
X120382320Y-95105710D01*
X120462875Y-95182449D01*
X120531140Y-95244777D01*
X120582592Y-95288596D01*
X120612706Y-95309810D01*
X120617026Y-95311156D01*
X120642389Y-95300556D01*
X120694142Y-95271087D01*
X120766632Y-95226245D01*
X120854206Y-95169524D01*
X120948888Y-95106002D01*
X121044984Y-95041208D01*
X121130663Y-94984827D01*
X121200484Y-94940328D01*
X121249006Y-94911179D01*
X121270718Y-94900848D01*
X121297207Y-94909590D01*
X121347438Y-94932627D01*
X121411049Y-94965171D01*
X121417792Y-94968789D01*
X121503454Y-95011750D01*
X121562194Y-95032819D01*
X121598728Y-95033043D01*
X121617769Y-95013468D01*
X121617880Y-95013194D01*
X121627398Y-94990012D01*
X121650097Y-94934981D01*
X121684218Y-94852362D01*
X121728000Y-94746412D01*
X121779684Y-94621392D01*
X121837508Y-94481560D01*
X121893509Y-94346177D01*
X121955053Y-94196774D01*
X122011561Y-94058372D01*
X122061339Y-93935213D01*
X122102694Y-93831542D01*
X122133932Y-93751599D01*
X122153359Y-93699628D01*
X122159346Y-93680232D01*
X122144332Y-93657983D01*
X122105061Y-93622522D01*
X122052693Y-93583427D01*
X121903559Y-93459785D01*
X121786989Y-93318062D01*
X121704382Y-93161244D01*
X121657134Y-92992315D01*
X121646643Y-92814262D01*
X121654269Y-92732079D01*
X121695818Y-92561571D01*
X121767377Y-92410999D01*
X121864505Y-92281849D01*
X121982766Y-92175604D01*
X122117720Y-92093750D01*
X122264929Y-92037772D01*
X122419956Y-92009155D01*
X122578361Y-92009384D01*
X122735706Y-92039945D01*
X122887554Y-92102322D01*
X123029465Y-92198000D01*
X123088697Y-92252112D01*
X123202297Y-92391060D01*
X123281394Y-92542901D01*
X123326514Y-92703207D01*
X123338184Y-92867552D01*
X123316931Y-93031511D01*
X123263280Y-93190658D01*
X123177760Y-93340565D01*
X123060895Y-93476807D01*
X122930307Y-93583427D01*
X122875912Y-93624182D01*
X122837486Y-93659258D01*
X122823654Y-93680266D01*
X122830897Y-93703175D01*
X122851495Y-93757905D01*
X122883754Y-93840212D01*
X122925979Y-93945855D01*
X122976477Y-94070590D01*
X123033552Y-94210176D01*
X123089646Y-94346210D01*
X123151533Y-94495741D01*
X123208856Y-94634307D01*
X123259856Y-94757647D01*
X123302773Y-94861504D01*
X123335847Y-94941620D01*
X123357319Y-94993735D01*
X123365275Y-95013194D01*
X123384071Y-95032963D01*
X123420426Y-95032905D01*
X123479021Y-95011981D01*
X123564532Y-94969153D01*
X123565208Y-94968789D01*
X123629593Y-94935552D01*
X123681639Y-94911342D01*
X123710988Y-94900944D01*
X123712283Y-94900848D01*
X123734376Y-94911395D01*
X123783152Y-94940724D01*
X123853169Y-94985367D01*
X123938986Y-95041854D01*
X124034112Y-95106002D01*
X124130960Y-95170951D01*
X124218247Y-95227436D01*
X124290319Y-95271961D01*
X124341523Y-95301030D01*
X124365974Y-95311156D01*
X124388490Y-95297847D01*
X124433758Y-95260652D01*
X124497256Y-95203668D01*
X124574461Y-95130989D01*
X124660849Y-95046711D01*
X124689101Y-95018556D01*
X124981213Y-94725956D01*
X124758869Y-94399644D01*
X124691298Y-94299437D01*
X124631993Y-94209503D01*
X124584283Y-94135050D01*
X124551493Y-94081291D01*
X124536952Y-94053434D01*
X124536526Y-94051452D01*
X124544192Y-94025195D01*
X124564811Y-93972377D01*
X124594815Y-93901850D01*
X124615875Y-93854633D01*
X124655252Y-93764234D01*
X124692335Y-93672906D01*
X124721085Y-93595740D01*
X124728895Y-93572232D01*
X124751083Y-93509456D01*
X124772773Y-93460951D01*
X124784687Y-93442619D01*
X124810977Y-93431399D01*
X124868358Y-93415494D01*
X124949382Y-93396707D01*
X125046605Y-93376839D01*
X125090115Y-93368672D01*
X125200604Y-93348369D01*
X125306584Y-93328710D01*
X125397699Y-93311628D01*
X125463592Y-93299058D01*
X125476000Y-93296631D01*
X125578577Y-93276385D01*
X125578577Y-92849241D01*
X125578347Y-92708786D01*
X125577401Y-92602519D01*
X125575359Y-92525553D01*
X125571838Y-92473000D01*
X125566457Y-92439973D01*
X125558834Y-92421585D01*
X125548588Y-92412948D01*
X125544385Y-92411347D01*
X125519030Y-92405667D01*
X125463016Y-92394335D01*
X125383536Y-92378719D01*
X125287788Y-92360187D01*
X125182967Y-92340109D01*
X125076268Y-92319852D01*
X124974887Y-92300786D01*
X124886021Y-92284279D01*
X124816863Y-92271699D01*
X124774611Y-92264415D01*
X124765210Y-92263156D01*
X124756693Y-92246303D01*
X124737840Y-92201410D01*
X124712176Y-92136970D01*
X124702377Y-92111732D01*
X124662852Y-92014226D01*
X124616308Y-91906499D01*
X124574623Y-91815712D01*
X124543950Y-91746293D01*
X124523544Y-91689250D01*
X124516732Y-91654317D01*
X124517818Y-91649635D01*
X124532215Y-91627531D01*
X124565088Y-91578371D01*
X124612910Y-91507388D01*
X124672152Y-91419818D01*
X124739285Y-91320897D01*
X124752559Y-91301370D01*
X124830454Y-91185680D01*
X124887713Y-91097584D01*
X124926619Y-91033026D01*
X124949456Y-90987951D01*
X124958506Y-90958303D01*
X124956052Y-90940025D01*
X124955989Y-90939909D01*
X124936673Y-90915901D01*
X124893949Y-90869487D01*
X124832449Y-90805477D01*
X124756802Y-90728685D01*
X124671639Y-90643922D01*
X124662035Y-90634462D01*
X124554710Y-90530529D01*
X124471885Y-90454215D01*
X124411895Y-90404111D01*
X124373077Y-90378810D01*
X124355980Y-90375544D01*
X124331027Y-90389790D01*
X124279245Y-90422696D01*
X124205980Y-90470748D01*
X124116580Y-90530430D01*
X124016389Y-90598228D01*
X123992999Y-90614179D01*
X123660907Y-90840960D01*
X123510935Y-90772893D01*
X123419730Y-90733225D01*
X123321831Y-90693331D01*
X123237669Y-90661523D01*
X123233962Y-90660214D01*
X123168131Y-90636116D01*
X123117384Y-90615740D01*
X123092658Y-90603476D01*
X123092616Y-90603441D01*
X123084771Y-90581274D01*
X123071434Y-90526757D01*
X123053930Y-90446020D01*
X123033583Y-90345190D01*
X123011718Y-90230396D01*
X123009929Y-90220718D01*
X122987996Y-90102444D01*
X122967860Y-89995082D01*
X122950820Y-89905457D01*
X122938172Y-89840391D01*
X122931216Y-89806708D01*
X122931094Y-89806194D01*
X122926861Y-89791865D01*
X122918629Y-89781047D01*
X122901467Y-89773246D01*
X122870442Y-89767969D01*
X122820622Y-89764722D01*
X122747076Y-89763012D01*
X122644871Y-89762347D01*
X122509075Y-89762233D01*
X122491500Y-89762232D01*
X122351622Y-89762316D01*
G36*
X118246276Y-96122378D02*
G01*
X118168972Y-96172901D01*
X118131686Y-96218130D01*
X118102147Y-96300203D01*
X118099801Y-96365147D01*
X118105115Y-96451985D01*
X118305385Y-96539643D01*
X118402761Y-96584427D01*
X118466387Y-96620453D01*
X118499471Y-96651657D01*
X118505220Y-96681976D01*
X118486842Y-96715345D01*
X118466577Y-96737463D01*
X118407611Y-96772933D01*
X118343476Y-96775419D01*
X118284574Y-96747775D01*
X118241303Y-96692860D01*
X118233564Y-96673468D01*
X118196494Y-96612904D01*
X118153846Y-96587092D01*
X118095346Y-96565011D01*
X118095346Y-96648724D01*
X118100518Y-96705690D01*
X118120777Y-96753729D01*
X118163238Y-96808886D01*
X118169549Y-96816054D01*
X118216780Y-96865125D01*
X118257379Y-96891460D01*
X118308172Y-96903575D01*
X118350280Y-96907543D01*
X118425598Y-96908531D01*
X118479214Y-96896006D01*
X118512662Y-96877409D01*
X118565232Y-96836515D01*
X118601621Y-96792288D01*
X118624650Y-96736666D01*
X118637141Y-96661587D01*
X118641913Y-96558989D01*
X118642294Y-96506916D01*
X118640999Y-96444488D01*
X118523029Y-96444488D01*
X118521661Y-96477978D01*
X118518251Y-96483463D01*
X118495747Y-96476012D01*
X118447318Y-96456293D01*
X118382592Y-96428258D01*
X118369057Y-96422232D01*
X118287256Y-96380636D01*
X118242188Y-96344078D01*
X118232283Y-96309836D01*
X118255974Y-96275188D01*
X118275540Y-96259879D01*
X118346140Y-96229261D01*
X118412220Y-96234320D01*
X118467541Y-96271691D01*
X118505864Y-96338013D01*
X118518151Y-96390656D01*
X118523029Y-96444488D01*
X118640999Y-96444488D01*
X118639770Y-96385260D01*
X118630468Y-96295250D01*
X118612040Y-96229707D01*
X118582140Y-96181452D01*
X118538420Y-96143307D01*
X118519359Y-96130980D01*
X118432774Y-96098876D01*
X118337978Y-96096856D01*
X118246276Y-96122378D01*
X118246276Y-96122378D01*
G37*
X118246276Y-96122378D02*
X118168972Y-96172901D01*
X118131686Y-96218130D01*
X118102147Y-96300203D01*
X118099801Y-96365147D01*
X118105115Y-96451985D01*
X118305385Y-96539643D01*
X118402761Y-96584427D01*
X118466387Y-96620453D01*
X118499471Y-96651657D01*
X118505220Y-96681976D01*
X118486842Y-96715345D01*
X118466577Y-96737463D01*
X118407611Y-96772933D01*
X118343476Y-96775419D01*
X118284574Y-96747775D01*
X118241303Y-96692860D01*
X118233564Y-96673468D01*
X118196494Y-96612904D01*
X118153846Y-96587092D01*
X118095346Y-96565011D01*
X118095346Y-96648724D01*
X118100518Y-96705690D01*
X118120777Y-96753729D01*
X118163238Y-96808886D01*
X118169549Y-96816054D01*
X118216780Y-96865125D01*
X118257379Y-96891460D01*
X118308172Y-96903575D01*
X118350280Y-96907543D01*
X118425598Y-96908531D01*
X118479214Y-96896006D01*
X118512662Y-96877409D01*
X118565232Y-96836515D01*
X118601621Y-96792288D01*
X118624650Y-96736666D01*
X118637141Y-96661587D01*
X118641913Y-96558989D01*
X118642294Y-96506916D01*
X118640999Y-96444488D01*
X118523029Y-96444488D01*
X118521661Y-96477978D01*
X118518251Y-96483463D01*
X118495747Y-96476012D01*
X118447318Y-96456293D01*
X118382592Y-96428258D01*
X118369057Y-96422232D01*
X118287256Y-96380636D01*
X118242188Y-96344078D01*
X118232283Y-96309836D01*
X118255974Y-96275188D01*
X118275540Y-96259879D01*
X118346140Y-96229261D01*
X118412220Y-96234320D01*
X118467541Y-96271691D01*
X118505864Y-96338013D01*
X118518151Y-96390656D01*
X118523029Y-96444488D01*
X118640999Y-96444488D01*
X118639770Y-96385260D01*
X118630468Y-96295250D01*
X118612040Y-96229707D01*
X118582140Y-96181452D01*
X118538420Y-96143307D01*
X118519359Y-96130980D01*
X118432774Y-96098876D01*
X118337978Y-96096856D01*
X118246276Y-96122378D01*
G36*
X118920693Y-96111322D02*
G01*
X118897339Y-96121528D01*
X118841598Y-96165674D01*
X118793931Y-96229507D01*
X118764452Y-96297627D01*
X118759654Y-96331210D01*
X118775740Y-96378096D01*
X118811025Y-96402905D01*
X118848856Y-96417927D01*
X118866179Y-96420695D01*
X118874614Y-96400606D01*
X118891270Y-96356891D01*
X118898577Y-96337138D01*
X118939552Y-96268811D01*
X118998878Y-96234731D01*
X119074948Y-96235779D01*
X119080582Y-96237121D01*
X119121195Y-96256376D01*
X119151052Y-96293915D01*
X119171445Y-96354349D01*
X119183664Y-96442291D01*
X119189000Y-96562353D01*
X119189500Y-96626238D01*
X119189748Y-96726943D01*
X119191374Y-96795594D01*
X119195699Y-96839213D01*
X119204046Y-96864822D01*
X119217735Y-96879443D01*
X119238089Y-96890098D01*
X119239266Y-96890635D01*
X119278462Y-96907207D01*
X119297881Y-96913309D01*
X119300865Y-96894859D01*
X119303419Y-96843863D01*
X119305360Y-96766848D01*
X119306503Y-96670345D01*
X119306731Y-96599724D01*
X119305568Y-96463065D01*
X119301021Y-96359391D01*
X119291501Y-96282648D01*
X119275419Y-96226786D01*
X119251187Y-96185752D01*
X119217214Y-96153494D01*
X119183667Y-96130980D01*
X119103001Y-96101016D01*
X119009119Y-96094258D01*
X118920693Y-96111322D01*
X118920693Y-96111322D01*
G37*
X118920693Y-96111322D02*
X118897339Y-96121528D01*
X118841598Y-96165674D01*
X118793931Y-96229507D01*
X118764452Y-96297627D01*
X118759654Y-96331210D01*
X118775740Y-96378096D01*
X118811025Y-96402905D01*
X118848856Y-96417927D01*
X118866179Y-96420695D01*
X118874614Y-96400606D01*
X118891270Y-96356891D01*
X118898577Y-96337138D01*
X118939552Y-96268811D01*
X118998878Y-96234731D01*
X119074948Y-96235779D01*
X119080582Y-96237121D01*
X119121195Y-96256376D01*
X119151052Y-96293915D01*
X119171445Y-96354349D01*
X119183664Y-96442291D01*
X119189000Y-96562353D01*
X119189500Y-96626238D01*
X119189748Y-96726943D01*
X119191374Y-96795594D01*
X119195699Y-96839213D01*
X119204046Y-96864822D01*
X119217735Y-96879443D01*
X119238089Y-96890098D01*
X119239266Y-96890635D01*
X119278462Y-96907207D01*
X119297881Y-96913309D01*
X119300865Y-96894859D01*
X119303419Y-96843863D01*
X119305360Y-96766848D01*
X119306503Y-96670345D01*
X119306731Y-96599724D01*
X119305568Y-96463065D01*
X119301021Y-96359391D01*
X119291501Y-96282648D01*
X119275419Y-96226786D01*
X119251187Y-96185752D01*
X119217214Y-96153494D01*
X119183667Y-96130980D01*
X119103001Y-96101016D01*
X119009119Y-96094258D01*
X118920693Y-96111322D01*
G36*
X119604167Y-96108068D02*
G01*
X119547910Y-96133657D01*
X119503753Y-96164664D01*
X119471399Y-96199335D01*
X119449062Y-96244060D01*
X119434954Y-96305232D01*
X119427289Y-96389241D01*
X119424280Y-96502480D01*
X119423962Y-96577049D01*
X119423962Y-96867960D01*
X119473727Y-96890635D01*
X119512924Y-96907207D01*
X119532343Y-96913309D01*
X119536058Y-96895150D01*
X119539005Y-96846188D01*
X119540809Y-96774693D01*
X119541192Y-96717925D01*
X119542839Y-96635911D01*
X119547278Y-96570849D01*
X119553760Y-96531007D01*
X119558910Y-96522540D01*
X119593523Y-96531186D01*
X119647860Y-96553363D01*
X119710778Y-96583426D01*
X119771132Y-96615732D01*
X119817779Y-96644638D01*
X119839574Y-96664501D01*
X119839661Y-96664715D01*
X119837786Y-96701475D01*
X119820975Y-96736566D01*
X119791461Y-96765068D01*
X119748384Y-96774601D01*
X119711568Y-96773490D01*
X119659426Y-96772673D01*
X119632056Y-96784889D01*
X119615618Y-96817164D01*
X119613545Y-96823250D01*
X119606419Y-96869279D01*
X119625476Y-96897227D01*
X119675147Y-96910547D01*
X119728803Y-96913010D01*
X119825358Y-96894750D01*
X119875341Y-96868671D01*
X119937071Y-96807408D01*
X119969810Y-96732210D01*
X119972747Y-96652751D01*
X119945076Y-96578707D01*
X119903453Y-96532309D01*
X119861896Y-96506333D01*
X119796578Y-96473447D01*
X119720462Y-96440097D01*
X119707774Y-96435001D01*
X119624167Y-96398105D01*
X119575970Y-96365586D01*
X119560470Y-96333258D01*
X119574950Y-96296934D01*
X119599808Y-96268540D01*
X119658561Y-96233579D01*
X119723207Y-96230957D01*
X119782492Y-96257898D01*
X119825161Y-96311628D01*
X119830761Y-96325490D01*
X119863367Y-96376476D01*
X119910970Y-96414327D01*
X119971039Y-96445390D01*
X119971039Y-96357308D01*
X119967503Y-96303491D01*
X119952344Y-96261074D01*
X119918732Y-96215819D01*
X119886465Y-96180960D01*
X119836291Y-96131602D01*
X119797307Y-96105087D01*
X119755436Y-96094451D01*
X119708040Y-96092694D01*
X119604167Y-96108068D01*
X119604167Y-96108068D01*
G37*
X119604167Y-96108068D02*
X119547910Y-96133657D01*
X119503753Y-96164664D01*
X119471399Y-96199335D01*
X119449062Y-96244060D01*
X119434954Y-96305232D01*
X119427289Y-96389241D01*
X119424280Y-96502480D01*
X119423962Y-96577049D01*
X119423962Y-96867960D01*
X119473727Y-96890635D01*
X119512924Y-96907207D01*
X119532343Y-96913309D01*
X119536058Y-96895150D01*
X119539005Y-96846188D01*
X119540809Y-96774693D01*
X119541192Y-96717925D01*
X119542839Y-96635911D01*
X119547278Y-96570849D01*
X119553760Y-96531007D01*
X119558910Y-96522540D01*
X119593523Y-96531186D01*
X119647860Y-96553363D01*
X119710778Y-96583426D01*
X119771132Y-96615732D01*
X119817779Y-96644638D01*
X119839574Y-96664501D01*
X119839661Y-96664715D01*
X119837786Y-96701475D01*
X119820975Y-96736566D01*
X119791461Y-96765068D01*
X119748384Y-96774601D01*
X119711568Y-96773490D01*
X119659426Y-96772673D01*
X119632056Y-96784889D01*
X119615618Y-96817164D01*
X119613545Y-96823250D01*
X119606419Y-96869279D01*
X119625476Y-96897227D01*
X119675147Y-96910547D01*
X119728803Y-96913010D01*
X119825358Y-96894750D01*
X119875341Y-96868671D01*
X119937071Y-96807408D01*
X119969810Y-96732210D01*
X119972747Y-96652751D01*
X119945076Y-96578707D01*
X119903453Y-96532309D01*
X119861896Y-96506333D01*
X119796578Y-96473447D01*
X119720462Y-96440097D01*
X119707774Y-96435001D01*
X119624167Y-96398105D01*
X119575970Y-96365586D01*
X119560470Y-96333258D01*
X119574950Y-96296934D01*
X119599808Y-96268540D01*
X119658561Y-96233579D01*
X119723207Y-96230957D01*
X119782492Y-96257898D01*
X119825161Y-96311628D01*
X119830761Y-96325490D01*
X119863367Y-96376476D01*
X119910970Y-96414327D01*
X119971039Y-96445390D01*
X119971039Y-96357308D01*
X119967503Y-96303491D01*
X119952344Y-96261074D01*
X119918732Y-96215819D01*
X119886465Y-96180960D01*
X119836291Y-96131602D01*
X119797307Y-96105087D01*
X119755436Y-96094451D01*
X119708040Y-96092694D01*
X119604167Y-96108068D01*
G36*
X120095571Y-96111202D02*
G01*
X120092589Y-96162608D01*
X120090253Y-96240732D01*
X120088751Y-96339397D01*
X120088269Y-96442883D01*
X120088269Y-96793073D01*
X120150099Y-96854903D01*
X120192707Y-96893002D01*
X120230110Y-96908435D01*
X120281230Y-96907458D01*
X120301522Y-96904973D01*
X120364946Y-96897740D01*
X120417405Y-96893595D01*
X120430192Y-96893212D01*
X120473301Y-96895716D01*
X120534956Y-96902002D01*
X120558862Y-96904973D01*
X120617578Y-96909568D01*
X120657036Y-96899586D01*
X120696162Y-96868768D01*
X120710285Y-96854903D01*
X120772115Y-96793073D01*
X120772115Y-96138043D01*
X120722350Y-96115369D01*
X120679498Y-96098574D01*
X120654427Y-96092694D01*
X120647999Y-96111276D01*
X120641991Y-96163195D01*
X120636803Y-96242712D01*
X120632836Y-96344086D01*
X120630923Y-96429732D01*
X120625577Y-96766771D01*
X120578940Y-96773365D01*
X120536524Y-96768754D01*
X120515740Y-96753827D01*
X120509930Y-96725917D01*
X120504970Y-96666465D01*
X120501254Y-96583006D01*
X120499176Y-96483072D01*
X120498876Y-96431644D01*
X120498577Y-96135594D01*
X120437046Y-96114144D01*
X120393496Y-96099560D01*
X120369806Y-96092759D01*
X120369123Y-96092694D01*
X120366746Y-96111182D01*
X120364134Y-96162446D01*
X120361505Y-96240189D01*
X120359079Y-96338114D01*
X120357385Y-96429732D01*
X120352039Y-96766771D01*
X120234808Y-96766771D01*
X120229428Y-96459286D01*
X120224049Y-96151801D01*
X120166899Y-96122247D01*
X120124703Y-96101953D01*
X120099730Y-96092744D01*
X120099009Y-96092694D01*
X120095571Y-96111202D01*
X120095571Y-96111202D01*
G37*
X120095571Y-96111202D02*
X120092589Y-96162608D01*
X120090253Y-96240732D01*
X120088751Y-96339397D01*
X120088269Y-96442883D01*
X120088269Y-96793073D01*
X120150099Y-96854903D01*
X120192707Y-96893002D01*
X120230110Y-96908435D01*
X120281230Y-96907458D01*
X120301522Y-96904973D01*
X120364946Y-96897740D01*
X120417405Y-96893595D01*
X120430192Y-96893212D01*
X120473301Y-96895716D01*
X120534956Y-96902002D01*
X120558862Y-96904973D01*
X120617578Y-96909568D01*
X120657036Y-96899586D01*
X120696162Y-96868768D01*
X120710285Y-96854903D01*
X120772115Y-96793073D01*
X120772115Y-96138043D01*
X120722350Y-96115369D01*
X120679498Y-96098574D01*
X120654427Y-96092694D01*
X120647999Y-96111276D01*
X120641991Y-96163195D01*
X120636803Y-96242712D01*
X120632836Y-96344086D01*
X120630923Y-96429732D01*
X120625577Y-96766771D01*
X120578940Y-96773365D01*
X120536524Y-96768754D01*
X120515740Y-96753827D01*
X120509930Y-96725917D01*
X120504970Y-96666465D01*
X120501254Y-96583006D01*
X120499176Y-96483072D01*
X120498876Y-96431644D01*
X120498577Y-96135594D01*
X120437046Y-96114144D01*
X120393496Y-96099560D01*
X120369806Y-96092759D01*
X120369123Y-96092694D01*
X120366746Y-96111182D01*
X120364134Y-96162446D01*
X120361505Y-96240189D01*
X120359079Y-96338114D01*
X120357385Y-96429732D01*
X120352039Y-96766771D01*
X120234808Y-96766771D01*
X120229428Y-96459286D01*
X120224049Y-96151801D01*
X120166899Y-96122247D01*
X120124703Y-96101953D01*
X120099730Y-96092744D01*
X120099009Y-96092694D01*
X120095571Y-96111202D01*
G36*
X120889419Y-96254829D02*
G01*
X120889667Y-96400860D01*
X120890628Y-96513195D01*
X120892706Y-96597218D01*
X120896307Y-96658309D01*
X120901835Y-96701849D01*
X120909696Y-96733219D01*
X120920293Y-96757802D01*
X120928318Y-96771834D01*
X120994772Y-96847928D01*
X121079030Y-96895624D01*
X121172251Y-96912739D01*
X121265600Y-96897086D01*
X121321188Y-96868958D01*
X121379543Y-96820300D01*
X121419314Y-96760873D01*
X121443310Y-96683047D01*
X121454339Y-96579192D01*
X121455901Y-96503002D01*
X121455691Y-96497526D01*
X121319192Y-96497526D01*
X121318359Y-96584895D01*
X121314539Y-96642732D01*
X121305754Y-96680569D01*
X121290026Y-96707938D01*
X121271234Y-96728582D01*
X121208125Y-96768430D01*
X121140363Y-96771835D01*
X121076321Y-96738565D01*
X121071336Y-96734057D01*
X121050061Y-96710607D01*
X121036721Y-96682706D01*
X121029499Y-96641181D01*
X121026577Y-96576856D01*
X121026115Y-96505740D01*
X121027117Y-96416398D01*
X121031262Y-96356798D01*
X121040264Y-96317629D01*
X121055833Y-96289580D01*
X121068598Y-96274684D01*
X121127900Y-96237115D01*
X121196199Y-96232597D01*
X121261390Y-96261293D01*
X121273972Y-96271946D01*
X121295389Y-96295603D01*
X121308756Y-96323791D01*
X121315934Y-96365785D01*
X121318781Y-96430859D01*
X121319192Y-96497526D01*
X121455691Y-96497526D01*
X121451178Y-96380305D01*
X121435138Y-96288117D01*
X121404972Y-96218809D01*
X121357871Y-96164751D01*
X121321188Y-96137045D01*
X121254510Y-96107112D01*
X121177228Y-96093218D01*
X121105390Y-96096937D01*
X121065192Y-96111940D01*
X121049418Y-96116210D01*
X121038950Y-96100290D01*
X121031644Y-96057629D01*
X121026115Y-95992646D01*
X121020063Y-95920272D01*
X121011656Y-95876727D01*
X120996359Y-95851827D01*
X120969636Y-95835385D01*
X120952846Y-95828104D01*
X120889346Y-95801503D01*
X120889419Y-96254829D01*
X120889419Y-96254829D01*
G37*
X120889419Y-96254829D02*
X120889667Y-96400860D01*
X120890628Y-96513195D01*
X120892706Y-96597218D01*
X120896307Y-96658309D01*
X120901835Y-96701849D01*
X120909696Y-96733219D01*
X120920293Y-96757802D01*
X120928318Y-96771834D01*
X120994772Y-96847928D01*
X121079030Y-96895624D01*
X121172251Y-96912739D01*
X121265600Y-96897086D01*
X121321188Y-96868958D01*
X121379543Y-96820300D01*
X121419314Y-96760873D01*
X121443310Y-96683047D01*
X121454339Y-96579192D01*
X121455901Y-96503002D01*
X121455691Y-96497526D01*
X121319192Y-96497526D01*
X121318359Y-96584895D01*
X121314539Y-96642732D01*
X121305754Y-96680569D01*
X121290026Y-96707938D01*
X121271234Y-96728582D01*
X121208125Y-96768430D01*
X121140363Y-96771835D01*
X121076321Y-96738565D01*
X121071336Y-96734057D01*
X121050061Y-96710607D01*
X121036721Y-96682706D01*
X121029499Y-96641181D01*
X121026577Y-96576856D01*
X121026115Y-96505740D01*
X121027117Y-96416398D01*
X121031262Y-96356798D01*
X121040264Y-96317629D01*
X121055833Y-96289580D01*
X121068598Y-96274684D01*
X121127900Y-96237115D01*
X121196199Y-96232597D01*
X121261390Y-96261293D01*
X121273972Y-96271946D01*
X121295389Y-96295603D01*
X121308756Y-96323791D01*
X121315934Y-96365785D01*
X121318781Y-96430859D01*
X121319192Y-96497526D01*
X121455691Y-96497526D01*
X121451178Y-96380305D01*
X121435138Y-96288117D01*
X121404972Y-96218809D01*
X121357871Y-96164751D01*
X121321188Y-96137045D01*
X121254510Y-96107112D01*
X121177228Y-96093218D01*
X121105390Y-96096937D01*
X121065192Y-96111940D01*
X121049418Y-96116210D01*
X121038950Y-96100290D01*
X121031644Y-96057629D01*
X121026115Y-95992646D01*
X121020063Y-95920272D01*
X121011656Y-95876727D01*
X120996359Y-95851827D01*
X120969636Y-95835385D01*
X120952846Y-95828104D01*
X120889346Y-95801503D01*
X120889419Y-96254829D01*
G36*
X121778138Y-96099210D02*
G01*
X121689383Y-96131961D01*
X121617478Y-96189890D01*
X121589356Y-96230668D01*
X121558698Y-96305494D01*
X121559335Y-96359598D01*
X121591513Y-96395986D01*
X121603419Y-96402173D01*
X121654825Y-96421465D01*
X121681078Y-96416522D01*
X121689970Y-96384127D01*
X121690423Y-96366232D01*
X121706703Y-96300399D01*
X121749135Y-96254347D01*
X121808112Y-96232104D01*
X121874025Y-96237701D01*
X121927605Y-96266769D01*
X121945702Y-96283350D01*
X121958529Y-96303465D01*
X121967194Y-96333872D01*
X121972804Y-96381328D01*
X121976465Y-96452590D01*
X121979285Y-96554415D01*
X121980016Y-96586655D01*
X121982680Y-96696950D01*
X121985708Y-96774576D01*
X121990250Y-96825936D01*
X121997454Y-96857430D01*
X122008467Y-96875460D01*
X122024440Y-96886428D01*
X122034666Y-96891273D01*
X122078094Y-96907841D01*
X122103658Y-96913309D01*
X122112105Y-96895047D01*
X122117261Y-96839836D01*
X122119154Y-96747039D01*
X122117811Y-96616018D01*
X122117393Y-96595809D01*
X122114442Y-96476273D01*
X122110952Y-96388989D01*
X122105986Y-96327131D01*
X122098607Y-96283876D01*
X122087876Y-96252400D01*
X122072855Y-96225879D01*
X122064998Y-96214515D01*
X122019947Y-96164232D01*
X121969560Y-96125121D01*
X121963392Y-96121707D01*
X121873042Y-96094752D01*
X121778138Y-96099210D01*
X121778138Y-96099210D01*
G37*
X121778138Y-96099210D02*
X121689383Y-96131961D01*
X121617478Y-96189890D01*
X121589356Y-96230668D01*
X121558698Y-96305494D01*
X121559335Y-96359598D01*
X121591513Y-96395986D01*
X121603419Y-96402173D01*
X121654825Y-96421465D01*
X121681078Y-96416522D01*
X121689970Y-96384127D01*
X121690423Y-96366232D01*
X121706703Y-96300399D01*
X121749135Y-96254347D01*
X121808112Y-96232104D01*
X121874025Y-96237701D01*
X121927605Y-96266769D01*
X121945702Y-96283350D01*
X121958529Y-96303465D01*
X121967194Y-96333872D01*
X121972804Y-96381328D01*
X121976465Y-96452590D01*
X121979285Y-96554415D01*
X121980016Y-96586655D01*
X121982680Y-96696950D01*
X121985708Y-96774576D01*
X121990250Y-96825936D01*
X121997454Y-96857430D01*
X122008467Y-96875460D01*
X122024440Y-96886428D01*
X122034666Y-96891273D01*
X122078094Y-96907841D01*
X122103658Y-96913309D01*
X122112105Y-96895047D01*
X122117261Y-96839836D01*
X122119154Y-96747039D01*
X122117811Y-96616018D01*
X122117393Y-96595809D01*
X122114442Y-96476273D01*
X122110952Y-96388989D01*
X122105986Y-96327131D01*
X122098607Y-96283876D01*
X122087876Y-96252400D01*
X122072855Y-96225879D01*
X122064998Y-96214515D01*
X122019947Y-96164232D01*
X121969560Y-96125121D01*
X121963392Y-96121707D01*
X121873042Y-96094752D01*
X121778138Y-96099210D01*
G36*
X122437999Y-96100843D02*
G01*
X122361440Y-96129273D01*
X122360564Y-96129819D01*
X122313215Y-96164667D01*
X122278259Y-96205392D01*
X122253675Y-96258465D01*
X122237438Y-96330354D01*
X122227525Y-96427532D01*
X122221914Y-96556468D01*
X122221423Y-96574838D01*
X122214359Y-96851827D01*
X122273805Y-96882568D01*
X122316819Y-96903342D01*
X122342790Y-96913186D01*
X122343991Y-96913309D01*
X122348486Y-96895146D01*
X122352056Y-96846152D01*
X122354252Y-96774571D01*
X122354731Y-96716608D01*
X122354742Y-96622710D01*
X122359034Y-96563743D01*
X122373997Y-96535619D01*
X122406018Y-96534246D01*
X122461486Y-96555538D01*
X122545231Y-96594676D01*
X122606811Y-96627183D01*
X122638483Y-96655385D01*
X122647794Y-96686122D01*
X122647808Y-96687644D01*
X122632443Y-96740594D01*
X122586953Y-96769200D01*
X122517334Y-96773343D01*
X122467187Y-96772624D01*
X122440746Y-96787067D01*
X122424257Y-96821758D01*
X122414767Y-96865956D01*
X122428443Y-96891033D01*
X122433593Y-96894622D01*
X122482075Y-96909036D01*
X122549969Y-96911077D01*
X122619888Y-96901523D01*
X122669432Y-96884062D01*
X122737930Y-96825904D01*
X122776866Y-96744948D01*
X122784577Y-96681700D01*
X122778693Y-96624651D01*
X122757399Y-96578082D01*
X122715235Y-96536721D01*
X122646741Y-96495295D01*
X122546456Y-96448533D01*
X122540346Y-96445890D01*
X122450010Y-96404157D01*
X122394265Y-96369931D01*
X122370371Y-96339175D01*
X122375587Y-96307851D01*
X122407172Y-96271923D01*
X122416617Y-96263656D01*
X122479883Y-96231598D01*
X122545436Y-96232947D01*
X122602528Y-96264378D01*
X122640407Y-96322564D01*
X122643926Y-96333986D01*
X122678200Y-96389377D01*
X122721691Y-96416058D01*
X122784577Y-96442500D01*
X122784577Y-96374088D01*
X122765448Y-96274650D01*
X122708669Y-96183442D01*
X122679122Y-96152929D01*
X122611958Y-96113768D01*
X122526544Y-96096040D01*
X122437999Y-96100843D01*
X122437999Y-96100843D01*
G37*
X122437999Y-96100843D02*
X122361440Y-96129273D01*
X122360564Y-96129819D01*
X122313215Y-96164667D01*
X122278259Y-96205392D01*
X122253675Y-96258465D01*
X122237438Y-96330354D01*
X122227525Y-96427532D01*
X122221914Y-96556468D01*
X122221423Y-96574838D01*
X122214359Y-96851827D01*
X122273805Y-96882568D01*
X122316819Y-96903342D01*
X122342790Y-96913186D01*
X122343991Y-96913309D01*
X122348486Y-96895146D01*
X122352056Y-96846152D01*
X122354252Y-96774571D01*
X122354731Y-96716608D01*
X122354742Y-96622710D01*
X122359034Y-96563743D01*
X122373997Y-96535619D01*
X122406018Y-96534246D01*
X122461486Y-96555538D01*
X122545231Y-96594676D01*
X122606811Y-96627183D01*
X122638483Y-96655385D01*
X122647794Y-96686122D01*
X122647808Y-96687644D01*
X122632443Y-96740594D01*
X122586953Y-96769200D01*
X122517334Y-96773343D01*
X122467187Y-96772624D01*
X122440746Y-96787067D01*
X122424257Y-96821758D01*
X122414767Y-96865956D01*
X122428443Y-96891033D01*
X122433593Y-96894622D01*
X122482075Y-96909036D01*
X122549969Y-96911077D01*
X122619888Y-96901523D01*
X122669432Y-96884062D01*
X122737930Y-96825904D01*
X122776866Y-96744948D01*
X122784577Y-96681700D01*
X122778693Y-96624651D01*
X122757399Y-96578082D01*
X122715235Y-96536721D01*
X122646741Y-96495295D01*
X122546456Y-96448533D01*
X122540346Y-96445890D01*
X122450010Y-96404157D01*
X122394265Y-96369931D01*
X122370371Y-96339175D01*
X122375587Y-96307851D01*
X122407172Y-96271923D01*
X122416617Y-96263656D01*
X122479883Y-96231598D01*
X122545436Y-96232947D01*
X122602528Y-96264378D01*
X122640407Y-96322564D01*
X122643926Y-96333986D01*
X122678200Y-96389377D01*
X122721691Y-96416058D01*
X122784577Y-96442500D01*
X122784577Y-96374088D01*
X122765448Y-96274650D01*
X122708669Y-96183442D01*
X122679122Y-96152929D01*
X122611958Y-96113768D01*
X122526544Y-96096040D01*
X122437999Y-96100843D01*
G36*
X123331654Y-95966660D02*
G01*
X123325928Y-96046520D01*
X123319351Y-96093579D01*
X123310238Y-96114106D01*
X123296902Y-96114369D01*
X123292577Y-96111918D01*
X123235056Y-96094176D01*
X123160232Y-96095212D01*
X123084161Y-96113450D01*
X123036582Y-96137045D01*
X122987798Y-96174738D01*
X122952136Y-96217395D01*
X122927655Y-96271597D01*
X122912413Y-96343924D01*
X122904470Y-96440959D01*
X122901884Y-96569282D01*
X122901838Y-96593898D01*
X122901808Y-96870410D01*
X122963339Y-96891860D01*
X123007041Y-96906452D01*
X123031018Y-96913246D01*
X123031723Y-96913309D01*
X123034085Y-96894885D01*
X123036094Y-96844066D01*
X123037599Y-96767533D01*
X123038447Y-96671970D01*
X123038577Y-96613869D01*
X123038849Y-96499311D01*
X123040248Y-96417207D01*
X123043651Y-96360933D01*
X123049933Y-96323866D01*
X123059971Y-96299384D01*
X123074639Y-96280865D01*
X123083798Y-96271946D01*
X123146711Y-96236006D01*
X123215364Y-96233315D01*
X123277652Y-96263710D01*
X123289171Y-96274684D01*
X123306067Y-96295319D01*
X123317786Y-96319796D01*
X123325267Y-96355187D01*
X123329446Y-96408566D01*
X123331263Y-96487006D01*
X123331654Y-96595157D01*
X123331654Y-96870410D01*
X123393185Y-96891860D01*
X123436887Y-96906452D01*
X123460864Y-96913246D01*
X123461570Y-96913309D01*
X123463374Y-96894609D01*
X123465000Y-96841862D01*
X123466383Y-96760097D01*
X123467458Y-96654345D01*
X123468160Y-96529634D01*
X123468423Y-96390995D01*
X123468423Y-95856346D01*
X123341423Y-95802776D01*
X123331654Y-95966660D01*
X123331654Y-95966660D01*
G37*
X123331654Y-95966660D02*
X123325928Y-96046520D01*
X123319351Y-96093579D01*
X123310238Y-96114106D01*
X123296902Y-96114369D01*
X123292577Y-96111918D01*
X123235056Y-96094176D01*
X123160232Y-96095212D01*
X123084161Y-96113450D01*
X123036582Y-96137045D01*
X122987798Y-96174738D01*
X122952136Y-96217395D01*
X122927655Y-96271597D01*
X122912413Y-96343924D01*
X122904470Y-96440959D01*
X122901884Y-96569282D01*
X122901838Y-96593898D01*
X122901808Y-96870410D01*
X122963339Y-96891860D01*
X123007041Y-96906452D01*
X123031018Y-96913246D01*
X123031723Y-96913309D01*
X123034085Y-96894885D01*
X123036094Y-96844066D01*
X123037599Y-96767533D01*
X123038447Y-96671970D01*
X123038577Y-96613869D01*
X123038849Y-96499311D01*
X123040248Y-96417207D01*
X123043651Y-96360933D01*
X123049933Y-96323866D01*
X123059971Y-96299384D01*
X123074639Y-96280865D01*
X123083798Y-96271946D01*
X123146711Y-96236006D01*
X123215364Y-96233315D01*
X123277652Y-96263710D01*
X123289171Y-96274684D01*
X123306067Y-96295319D01*
X123317786Y-96319796D01*
X123325267Y-96355187D01*
X123329446Y-96408566D01*
X123331263Y-96487006D01*
X123331654Y-96595157D01*
X123331654Y-96870410D01*
X123393185Y-96891860D01*
X123436887Y-96906452D01*
X123460864Y-96913246D01*
X123461570Y-96913309D01*
X123463374Y-96894609D01*
X123465000Y-96841862D01*
X123466383Y-96760097D01*
X123467458Y-96654345D01*
X123468160Y-96529634D01*
X123468423Y-96390995D01*
X123468423Y-95856346D01*
X123341423Y-95802776D01*
X123331654Y-95966660D01*
G36*
X124957246Y-96074285D02*
G01*
X124880214Y-96126107D01*
X124820684Y-96200952D01*
X124785122Y-96296194D01*
X124777929Y-96366296D01*
X124778746Y-96395549D01*
X124785586Y-96417947D01*
X124804388Y-96438014D01*
X124841092Y-96460273D01*
X124901638Y-96489249D01*
X124991966Y-96529467D01*
X124992423Y-96529669D01*
X125075567Y-96567750D01*
X125143747Y-96601565D01*
X125189995Y-96627473D01*
X125207342Y-96641835D01*
X125207346Y-96641951D01*
X125192057Y-96673225D01*
X125156304Y-96707697D01*
X125115258Y-96732530D01*
X125094463Y-96737463D01*
X125037730Y-96720402D01*
X124988873Y-96677673D01*
X124965035Y-96630695D01*
X124942103Y-96596062D01*
X124897182Y-96556621D01*
X124844377Y-96522549D01*
X124797790Y-96504020D01*
X124788048Y-96503002D01*
X124777082Y-96519755D01*
X124776421Y-96562579D01*
X124784480Y-96620321D01*
X124799673Y-96681829D01*
X124820414Y-96735949D01*
X124821462Y-96738050D01*
X124883879Y-96825200D01*
X124964774Y-96884479D01*
X125056644Y-96913574D01*
X125151987Y-96910174D01*
X125243302Y-96871968D01*
X125247362Y-96869281D01*
X125319194Y-96804182D01*
X125366427Y-96719245D01*
X125392566Y-96607561D01*
X125396074Y-96576183D01*
X125402287Y-96428076D01*
X125394839Y-96359008D01*
X125207346Y-96359008D01*
X125204910Y-96402092D01*
X125191586Y-96414666D01*
X125158368Y-96405259D01*
X125106006Y-96383023D01*
X125047476Y-96355150D01*
X125046021Y-96354412D01*
X124996411Y-96328317D01*
X124976500Y-96310903D01*
X124981410Y-96292647D01*
X125002084Y-96268660D01*
X125054681Y-96233946D01*
X125111323Y-96231396D01*
X125162131Y-96256659D01*
X125197224Y-96305387D01*
X125207346Y-96359008D01*
X125394839Y-96359008D01*
X125389508Y-96309576D01*
X125356722Y-96215595D01*
X125311079Y-96149755D01*
X125228698Y-96083221D01*
X125137954Y-96050216D01*
X125045315Y-96048113D01*
X124957246Y-96074285D01*
X124957246Y-96074285D01*
G37*
X124957246Y-96074285D02*
X124880214Y-96126107D01*
X124820684Y-96200952D01*
X124785122Y-96296194D01*
X124777929Y-96366296D01*
X124778746Y-96395549D01*
X124785586Y-96417947D01*
X124804388Y-96438014D01*
X124841092Y-96460273D01*
X124901638Y-96489249D01*
X124991966Y-96529467D01*
X124992423Y-96529669D01*
X125075567Y-96567750D01*
X125143747Y-96601565D01*
X125189995Y-96627473D01*
X125207342Y-96641835D01*
X125207346Y-96641951D01*
X125192057Y-96673225D01*
X125156304Y-96707697D01*
X125115258Y-96732530D01*
X125094463Y-96737463D01*
X125037730Y-96720402D01*
X124988873Y-96677673D01*
X124965035Y-96630695D01*
X124942103Y-96596062D01*
X124897182Y-96556621D01*
X124844377Y-96522549D01*
X124797790Y-96504020D01*
X124788048Y-96503002D01*
X124777082Y-96519755D01*
X124776421Y-96562579D01*
X124784480Y-96620321D01*
X124799673Y-96681829D01*
X124820414Y-96735949D01*
X124821462Y-96738050D01*
X124883879Y-96825200D01*
X124964774Y-96884479D01*
X125056644Y-96913574D01*
X125151987Y-96910174D01*
X125243302Y-96871968D01*
X125247362Y-96869281D01*
X125319194Y-96804182D01*
X125366427Y-96719245D01*
X125392566Y-96607561D01*
X125396074Y-96576183D01*
X125402287Y-96428076D01*
X125394839Y-96359008D01*
X125207346Y-96359008D01*
X125204910Y-96402092D01*
X125191586Y-96414666D01*
X125158368Y-96405259D01*
X125106006Y-96383023D01*
X125047476Y-96355150D01*
X125046021Y-96354412D01*
X124996411Y-96328317D01*
X124976500Y-96310903D01*
X124981410Y-96292647D01*
X125002084Y-96268660D01*
X125054681Y-96233946D01*
X125111323Y-96231396D01*
X125162131Y-96256659D01*
X125197224Y-96305387D01*
X125207346Y-96359008D01*
X125394839Y-96359008D01*
X125389508Y-96309576D01*
X125356722Y-96215595D01*
X125311079Y-96149755D01*
X125228698Y-96083221D01*
X125137954Y-96050216D01*
X125045315Y-96048113D01*
X124957246Y-96074285D01*
G36*
X126474614Y-96061796D02*
G01*
X126383036Y-96109949D01*
X126315451Y-96187445D01*
X126291443Y-96237267D01*
X126272762Y-96312073D01*
X126263199Y-96406592D01*
X126262292Y-96509750D01*
X126269579Y-96610475D01*
X126284597Y-96697693D01*
X126306885Y-96760331D01*
X126313735Y-96771119D01*
X126394868Y-96851645D01*
X126491234Y-96899876D01*
X126595799Y-96913990D01*
X126701532Y-96892169D01*
X126730957Y-96879087D01*
X126788259Y-96838771D01*
X126838550Y-96785315D01*
X126843303Y-96778535D01*
X126862622Y-96745861D01*
X126875392Y-96710934D01*
X126882936Y-96664954D01*
X126886576Y-96599124D01*
X126887635Y-96504645D01*
X126887654Y-96483463D01*
X126887606Y-96476722D01*
X126692269Y-96476722D01*
X126691132Y-96565889D01*
X126686659Y-96625060D01*
X126677254Y-96663281D01*
X126661324Y-96689593D01*
X126653192Y-96698386D01*
X126606442Y-96731801D01*
X126561053Y-96730277D01*
X126515160Y-96701292D01*
X126487788Y-96670349D01*
X126471577Y-96625183D01*
X126462474Y-96553960D01*
X126461849Y-96545654D01*
X126460296Y-96416577D01*
X126476535Y-96320712D01*
X126510348Y-96258647D01*
X126561516Y-96230972D01*
X126579780Y-96229463D01*
X126627740Y-96237053D01*
X126660547Y-96263348D01*
X126680605Y-96313635D01*
X126690322Y-96393204D01*
X126692269Y-96476722D01*
X126887606Y-96476722D01*
X126886926Y-96382789D01*
X126883871Y-96312446D01*
X126877178Y-96263703D01*
X126865540Y-96227828D01*
X126847647Y-96196088D01*
X126843692Y-96190188D01*
X126777233Y-96110644D01*
X126704815Y-96064469D01*
X126616651Y-96046139D01*
X126586713Y-96045243D01*
X126474614Y-96061796D01*
X126474614Y-96061796D01*
G37*
X126474614Y-96061796D02*
X126383036Y-96109949D01*
X126315451Y-96187445D01*
X126291443Y-96237267D01*
X126272762Y-96312073D01*
X126263199Y-96406592D01*
X126262292Y-96509750D01*
X126269579Y-96610475D01*
X126284597Y-96697693D01*
X126306885Y-96760331D01*
X126313735Y-96771119D01*
X126394868Y-96851645D01*
X126491234Y-96899876D01*
X126595799Y-96913990D01*
X126701532Y-96892169D01*
X126730957Y-96879087D01*
X126788259Y-96838771D01*
X126838550Y-96785315D01*
X126843303Y-96778535D01*
X126862622Y-96745861D01*
X126875392Y-96710934D01*
X126882936Y-96664954D01*
X126886576Y-96599124D01*
X126887635Y-96504645D01*
X126887654Y-96483463D01*
X126887606Y-96476722D01*
X126692269Y-96476722D01*
X126691132Y-96565889D01*
X126686659Y-96625060D01*
X126677254Y-96663281D01*
X126661324Y-96689593D01*
X126653192Y-96698386D01*
X126606442Y-96731801D01*
X126561053Y-96730277D01*
X126515160Y-96701292D01*
X126487788Y-96670349D01*
X126471577Y-96625183D01*
X126462474Y-96553960D01*
X126461849Y-96545654D01*
X126460296Y-96416577D01*
X126476535Y-96320712D01*
X126510348Y-96258647D01*
X126561516Y-96230972D01*
X126579780Y-96229463D01*
X126627740Y-96237053D01*
X126660547Y-96263348D01*
X126680605Y-96313635D01*
X126690322Y-96393204D01*
X126692269Y-96476722D01*
X126887606Y-96476722D01*
X126886926Y-96382789D01*
X126883871Y-96312446D01*
X126877178Y-96263703D01*
X126865540Y-96227828D01*
X126847647Y-96196088D01*
X126843692Y-96190188D01*
X126777233Y-96110644D01*
X126704815Y-96064469D01*
X126616651Y-96046139D01*
X126586713Y-96045243D01*
X126474614Y-96061796D01*
G36*
X124219836Y-96069629D02*
G01*
X124157133Y-96105898D01*
X124113539Y-96141898D01*
X124081655Y-96179615D01*
X124059690Y-96225739D01*
X124045851Y-96286961D01*
X124038347Y-96369971D01*
X124035383Y-96481459D01*
X124035039Y-96561602D01*
X124035039Y-96856605D01*
X124201115Y-96931055D01*
X124210885Y-96607942D01*
X124214921Y-96487269D01*
X124219156Y-96399681D01*
X124224403Y-96339190D01*
X124231475Y-96299808D01*
X124241189Y-96275547D01*
X124254356Y-96260420D01*
X124258581Y-96257146D01*
X124322591Y-96231574D01*
X124387292Y-96241693D01*
X124425808Y-96268540D01*
X124441475Y-96287564D01*
X124452320Y-96312528D01*
X124459212Y-96350374D01*
X124463021Y-96408042D01*
X124464617Y-96492475D01*
X124464885Y-96580468D01*
X124464937Y-96690863D01*
X124466828Y-96769003D01*
X124473155Y-96821705D01*
X124486517Y-96855782D01*
X124509515Y-96878051D01*
X124544746Y-96895327D01*
X124591803Y-96913278D01*
X124643197Y-96932818D01*
X124637079Y-96586025D01*
X124634616Y-96461008D01*
X124631733Y-96368622D01*
X124627602Y-96302421D01*
X124621393Y-96255960D01*
X124612274Y-96222796D01*
X124599417Y-96196484D01*
X124583916Y-96173269D01*
X124509129Y-96099109D01*
X124417872Y-96056224D01*
X124318617Y-96045952D01*
X124219836Y-96069629D01*
X124219836Y-96069629D01*
G37*
X124219836Y-96069629D02*
X124157133Y-96105898D01*
X124113539Y-96141898D01*
X124081655Y-96179615D01*
X124059690Y-96225739D01*
X124045851Y-96286961D01*
X124038347Y-96369971D01*
X124035383Y-96481459D01*
X124035039Y-96561602D01*
X124035039Y-96856605D01*
X124201115Y-96931055D01*
X124210885Y-96607942D01*
X124214921Y-96487269D01*
X124219156Y-96399681D01*
X124224403Y-96339190D01*
X124231475Y-96299808D01*
X124241189Y-96275547D01*
X124254356Y-96260420D01*
X124258581Y-96257146D01*
X124322591Y-96231574D01*
X124387292Y-96241693D01*
X124425808Y-96268540D01*
X124441475Y-96287564D01*
X124452320Y-96312528D01*
X124459212Y-96350374D01*
X124463021Y-96408042D01*
X124464617Y-96492475D01*
X124464885Y-96580468D01*
X124464937Y-96690863D01*
X124466828Y-96769003D01*
X124473155Y-96821705D01*
X124486517Y-96855782D01*
X124509515Y-96878051D01*
X124544746Y-96895327D01*
X124591803Y-96913278D01*
X124643197Y-96932818D01*
X124637079Y-96586025D01*
X124634616Y-96461008D01*
X124631733Y-96368622D01*
X124627602Y-96302421D01*
X124621393Y-96255960D01*
X124612274Y-96222796D01*
X124599417Y-96196484D01*
X124583916Y-96173269D01*
X124509129Y-96099109D01*
X124417872Y-96056224D01*
X124318617Y-96045952D01*
X124219836Y-96069629D01*
G36*
X125722614Y-96059045D02*
G01*
X125647961Y-96096267D01*
X125582069Y-96164801D01*
X125563923Y-96190188D01*
X125544155Y-96223406D01*
X125531328Y-96259485D01*
X125523990Y-96307638D01*
X125520687Y-96377076D01*
X125519962Y-96468746D01*
X125523237Y-96594370D01*
X125534623Y-96688694D01*
X125556459Y-96759063D01*
X125591081Y-96812826D01*
X125640830Y-96857328D01*
X125644486Y-96859963D01*
X125693515Y-96886917D01*
X125752555Y-96900252D01*
X125827641Y-96903540D01*
X125949705Y-96903540D01*
X125949756Y-97022037D01*
X125950892Y-97088032D01*
X125957814Y-97126742D01*
X125975902Y-97149959D01*
X126010538Y-97169473D01*
X126018855Y-97173460D01*
X126057780Y-97192143D01*
X126087917Y-97203943D01*
X126110326Y-97204962D01*
X126126067Y-97191301D01*
X126136198Y-97159062D01*
X126141777Y-97104344D01*
X126143865Y-97023251D01*
X126143519Y-96911884D01*
X126141800Y-96766342D01*
X126141263Y-96722809D01*
X126139328Y-96572745D01*
X126137596Y-96474582D01*
X125949808Y-96474582D01*
X125948752Y-96557904D01*
X125944062Y-96612420D01*
X125933449Y-96648377D01*
X125914628Y-96676022D01*
X125901850Y-96689505D01*
X125849610Y-96728957D01*
X125803358Y-96732168D01*
X125755633Y-96699589D01*
X125754423Y-96698386D01*
X125735006Y-96673208D01*
X125723193Y-96638987D01*
X125717235Y-96586288D01*
X125715380Y-96505671D01*
X125715346Y-96487811D01*
X125719830Y-96376715D01*
X125734426Y-96299701D01*
X125760850Y-96252687D01*
X125800817Y-96231590D01*
X125823916Y-96229463D01*
X125878738Y-96239440D01*
X125916342Y-96272292D01*
X125938977Y-96332397D01*
X125948894Y-96424138D01*
X125949808Y-96474582D01*
X126137596Y-96474582D01*
X126137278Y-96456600D01*
X126134627Y-96369219D01*
X126130894Y-96305445D01*
X126125593Y-96260122D01*
X126118242Y-96228095D01*
X126108357Y-96204208D01*
X126095454Y-96183304D01*
X126089921Y-96175438D01*
X126016531Y-96101135D01*
X125923740Y-96059007D01*
X125816404Y-96047262D01*
X125722614Y-96059045D01*
X125722614Y-96059045D01*
G37*
X125722614Y-96059045D02*
X125647961Y-96096267D01*
X125582069Y-96164801D01*
X125563923Y-96190188D01*
X125544155Y-96223406D01*
X125531328Y-96259485D01*
X125523990Y-96307638D01*
X125520687Y-96377076D01*
X125519962Y-96468746D01*
X125523237Y-96594370D01*
X125534623Y-96688694D01*
X125556459Y-96759063D01*
X125591081Y-96812826D01*
X125640830Y-96857328D01*
X125644486Y-96859963D01*
X125693515Y-96886917D01*
X125752555Y-96900252D01*
X125827641Y-96903540D01*
X125949705Y-96903540D01*
X125949756Y-97022037D01*
X125950892Y-97088032D01*
X125957814Y-97126742D01*
X125975902Y-97149959D01*
X126010538Y-97169473D01*
X126018855Y-97173460D01*
X126057780Y-97192143D01*
X126087917Y-97203943D01*
X126110326Y-97204962D01*
X126126067Y-97191301D01*
X126136198Y-97159062D01*
X126141777Y-97104344D01*
X126143865Y-97023251D01*
X126143519Y-96911884D01*
X126141800Y-96766342D01*
X126141263Y-96722809D01*
X126139328Y-96572745D01*
X126137596Y-96474582D01*
X125949808Y-96474582D01*
X125948752Y-96557904D01*
X125944062Y-96612420D01*
X125933449Y-96648377D01*
X125914628Y-96676022D01*
X125901850Y-96689505D01*
X125849610Y-96728957D01*
X125803358Y-96732168D01*
X125755633Y-96699589D01*
X125754423Y-96698386D01*
X125735006Y-96673208D01*
X125723193Y-96638987D01*
X125717235Y-96586288D01*
X125715380Y-96505671D01*
X125715346Y-96487811D01*
X125719830Y-96376715D01*
X125734426Y-96299701D01*
X125760850Y-96252687D01*
X125800817Y-96231590D01*
X125823916Y-96229463D01*
X125878738Y-96239440D01*
X125916342Y-96272292D01*
X125938977Y-96332397D01*
X125948894Y-96424138D01*
X125949808Y-96474582D01*
X126137596Y-96474582D01*
X126137278Y-96456600D01*
X126134627Y-96369219D01*
X126130894Y-96305445D01*
X126125593Y-96260122D01*
X126118242Y-96228095D01*
X126108357Y-96204208D01*
X126095454Y-96183304D01*
X126089921Y-96175438D01*
X126016531Y-96101135D01*
X125923740Y-96059007D01*
X125816404Y-96047262D01*
X125722614Y-96059045D01*
D17*
X121664040Y-108689396D02*
X121664040Y-112793524D01*
X118244040Y-108689396D02*
X118244040Y-112793524D01*
X84304700Y-106083100D02*
G75*
G03X84304700Y-106083100I-2210000J0D01*
G01*
X84304700Y-90843100D02*
G75*
G03X84304700Y-90843100I-2210000J0D01*
G01*
X126291700Y-113437240D02*
X126291700Y-110487240D01*
X129511700Y-111637240D02*
X129511700Y-113437240D01*
X124426660Y-71950580D02*
X124426660Y-75400580D01*
X124426660Y-71950580D02*
X124426660Y-70000580D01*
X119306660Y-71950580D02*
X119306660Y-73900580D01*
X119306660Y-71950580D02*
X119306660Y-70000580D01*
X96307380Y-72900540D02*
X96307380Y-70025540D01*
X96307380Y-72900540D02*
X96307380Y-74400540D01*
X100527380Y-72900540D02*
X100527380Y-71400540D01*
X100527380Y-72900540D02*
X100527380Y-74400540D01*
X98223000Y-111452292D02*
X98223000Y-110929788D01*
X99643000Y-111452292D02*
X99643000Y-110929788D01*
X103257420Y-72636748D02*
X103257420Y-73159252D01*
X101837420Y-72636748D02*
X101837420Y-73159252D01*
X105315455Y-72636748D02*
X105315455Y-73159252D01*
X103895455Y-72636748D02*
X103895455Y-73159252D01*
X105953490Y-73159252D02*
X105953490Y-72636748D01*
X107373490Y-73159252D02*
X107373490Y-72636748D01*
X111489560Y-72636748D02*
X111489560Y-73159252D01*
X110069560Y-72636748D02*
X110069560Y-73159252D01*
X88309520Y-80993348D02*
X88309520Y-81515852D01*
X86889520Y-80993348D02*
X86889520Y-81515852D01*
X86980960Y-85709392D02*
X86980960Y-85186888D01*
X88400960Y-85709392D02*
X88400960Y-85186888D01*
X109431525Y-72636748D02*
X109431525Y-73159252D01*
X108011525Y-72636748D02*
X108011525Y-73159252D01*
X98174880Y-81303228D02*
X98174880Y-81825732D01*
X96754880Y-81303228D02*
X96754880Y-81825732D01*
X129269560Y-69797028D02*
X129269560Y-70319532D01*
X127849560Y-69797028D02*
X127849560Y-70319532D01*
X116141868Y-70981500D02*
X116664372Y-70981500D01*
X116141868Y-72401500D02*
X116664372Y-72401500D01*
X116098688Y-68692960D02*
X116621192Y-68692960D01*
X116098688Y-70112960D02*
X116621192Y-70112960D01*
X91424220Y-84119840D02*
X92884220Y-84119840D01*
X91424220Y-80959840D02*
X94584220Y-80959840D01*
X91424220Y-80959840D02*
X91424220Y-81889840D01*
X91424220Y-84119840D02*
X91424220Y-83189840D01*
X97500120Y-88661240D02*
X97500120Y-92111240D01*
X97500120Y-88661240D02*
X97500120Y-86711240D01*
X92380120Y-88661240D02*
X92380120Y-90611240D01*
X92380120Y-88661240D02*
X92380120Y-86711240D01*
X111109440Y-111831120D02*
X111109440Y-115281120D01*
X111109440Y-111831120D02*
X111109440Y-109881120D01*
X105989440Y-111831120D02*
X105989440Y-113781120D01*
X105989440Y-111831120D02*
X105989440Y-109881120D01*
D14*
X92227240Y-76366820D02*
X92227240Y-78116820D01*
X86472240Y-76366820D02*
X86472240Y-70866820D01*
X92882240Y-76366820D02*
X92882240Y-70866820D01*
X86472240Y-76366820D02*
X87222240Y-76366820D01*
X86472240Y-70866820D02*
X87222240Y-70866820D01*
X92882240Y-70866820D02*
X92132240Y-70866820D01*
X92882240Y-76366820D02*
X92227240Y-76366820D01*
D17*
X125436180Y-74980040D02*
X130936180Y-74980040D01*
X130936180Y-74980040D02*
X130936180Y-73030040D01*
X130936180Y-73030040D02*
X125436180Y-73030040D01*
X125436180Y-73030040D02*
X125436180Y-74980040D01*
X126786180Y-72780040D02*
X126486180Y-72480040D01*
X126486180Y-72480040D02*
X127086180Y-72480040D01*
X127086180Y-72480040D02*
X126786180Y-72780040D01*
X100935520Y-107050120D02*
X100935520Y-113950120D01*
X104235520Y-107050120D02*
X104235520Y-113950120D01*
X100935520Y-107050120D02*
X104235520Y-107050120D01*
X111810500Y-97575300D02*
X100610500Y-97575300D01*
X111810500Y-104075300D02*
X100610500Y-104075300D01*
X111810500Y-104075300D02*
X111810500Y-97575300D01*
X98533133Y-68191920D02*
X98875667Y-68191920D01*
X98533133Y-69211920D02*
X98875667Y-69211920D01*
X97284753Y-76921900D02*
X97627287Y-76921900D01*
X97284753Y-77941900D02*
X97627287Y-77941900D01*
X126298420Y-69902253D02*
X126298420Y-70244787D01*
X125278420Y-69902253D02*
X125278420Y-70244787D01*
X131391120Y-112477733D02*
X131391120Y-112820267D01*
X130371120Y-112477733D02*
X130371120Y-112820267D01*
X124702640Y-110556408D02*
X124702640Y-111078912D01*
X123282640Y-110556408D02*
X123282640Y-111078912D01*
X85590000Y-61720000D02*
X85590000Y-64320000D01*
X85590000Y-61720000D02*
X136510000Y-61720000D01*
X136510000Y-61720000D02*
X136510000Y-66920000D01*
X88190000Y-66920000D02*
X136510000Y-66920000D01*
X88190000Y-64320000D02*
X88190000Y-66920000D01*
X85590000Y-64320000D02*
X88190000Y-64320000D01*
X85590000Y-66920000D02*
X86920000Y-66920000D01*
X85590000Y-65590000D02*
X85590000Y-66920000D01*
D14*
X116972317Y-111211620D02*
X117305650Y-110735430D01*
X117543745Y-111211620D02*
X117543745Y-110211620D01*
X117162793Y-110211620D01*
X117067555Y-110259240D01*
X117019936Y-110306859D01*
X116972317Y-110402097D01*
X116972317Y-110544954D01*
X117019936Y-110640192D01*
X117067555Y-110687811D01*
X117162793Y-110735430D01*
X117543745Y-110735430D01*
X116019936Y-111211620D02*
X116591364Y-111211620D01*
X116305650Y-111211620D02*
X116305650Y-110211620D01*
X116400888Y-110354478D01*
X116496126Y-110449716D01*
X116591364Y-110497335D01*
X115638983Y-110306859D02*
X115591364Y-110259240D01*
X115496126Y-110211620D01*
X115258031Y-110211620D01*
X115162793Y-110259240D01*
X115115174Y-110306859D01*
X115067555Y-110402097D01*
X115067555Y-110497335D01*
X115115174Y-110640192D01*
X115686602Y-111211620D01*
X115067555Y-111211620D01*
X128742344Y-108365040D02*
X128742344Y-109174564D01*
X128694725Y-109269802D01*
X128647106Y-109317421D01*
X128551868Y-109365040D01*
X128361392Y-109365040D01*
X128266154Y-109317421D01*
X128218535Y-109269802D01*
X128170916Y-109174564D01*
X128170916Y-108365040D01*
X127266154Y-108365040D02*
X127456630Y-108365040D01*
X127551868Y-108412660D01*
X127599487Y-108460279D01*
X127694725Y-108603136D01*
X127742344Y-108793612D01*
X127742344Y-109174564D01*
X127694725Y-109269802D01*
X127647106Y-109317421D01*
X127551868Y-109365040D01*
X127361392Y-109365040D01*
X127266154Y-109317421D01*
X127218535Y-109269802D01*
X127170916Y-109174564D01*
X127170916Y-108936469D01*
X127218535Y-108841231D01*
X127266154Y-108793612D01*
X127361392Y-108745993D01*
X127551868Y-108745993D01*
X127647106Y-108793612D01*
X127694725Y-108841231D01*
X127742344Y-108936469D01*
X122750484Y-76041000D02*
X122750484Y-76850524D01*
X122702865Y-76945762D01*
X122655246Y-76993381D01*
X122560008Y-77041000D01*
X122369532Y-77041000D01*
X122274294Y-76993381D01*
X122226675Y-76945762D01*
X122179056Y-76850524D01*
X122179056Y-76041000D01*
X121750484Y-76136239D02*
X121702865Y-76088620D01*
X121607627Y-76041000D01*
X121369532Y-76041000D01*
X121274294Y-76088620D01*
X121226675Y-76136239D01*
X121179056Y-76231477D01*
X121179056Y-76326715D01*
X121226675Y-76469572D01*
X121798103Y-77041000D01*
X121179056Y-77041000D01*
X96032224Y-72279260D02*
X96032224Y-73088784D01*
X95984605Y-73184022D01*
X95936986Y-73231641D01*
X95841748Y-73279260D01*
X95651272Y-73279260D01*
X95556034Y-73231641D01*
X95508415Y-73184022D01*
X95460796Y-73088784D01*
X95460796Y-72279260D01*
X94460796Y-73279260D02*
X95032224Y-73279260D01*
X94746510Y-73279260D02*
X94746510Y-72279260D01*
X94841748Y-72422118D01*
X94936986Y-72517356D01*
X95032224Y-72564975D01*
X96459277Y-111676440D02*
X96792610Y-111200250D01*
X97030705Y-111676440D02*
X97030705Y-110676440D01*
X96649753Y-110676440D01*
X96554515Y-110724060D01*
X96506896Y-110771679D01*
X96459277Y-110866917D01*
X96459277Y-111009774D01*
X96506896Y-111105012D01*
X96554515Y-111152631D01*
X96649753Y-111200250D01*
X97030705Y-111200250D01*
X95506896Y-111676440D02*
X96078324Y-111676440D01*
X95792610Y-111676440D02*
X95792610Y-110676440D01*
X95887848Y-110819298D01*
X95983086Y-110914536D01*
X96078324Y-110962155D01*
X95030705Y-111676440D02*
X94840229Y-111676440D01*
X94744991Y-111628821D01*
X94697372Y-111581202D01*
X94602134Y-111438345D01*
X94554515Y-111247869D01*
X94554515Y-110866917D01*
X94602134Y-110771679D01*
X94649753Y-110724060D01*
X94744991Y-110676440D01*
X94935467Y-110676440D01*
X95030705Y-110724060D01*
X95078324Y-110771679D01*
X95125943Y-110866917D01*
X95125943Y-111105012D01*
X95078324Y-111200250D01*
X95030705Y-111247869D01*
X94935467Y-111295488D01*
X94744991Y-111295488D01*
X94649753Y-111247869D01*
X94602134Y-111200250D01*
X94554515Y-111105012D01*
X103218240Y-75893632D02*
X102742050Y-75560299D01*
X103218240Y-75322204D02*
X102218240Y-75322204D01*
X102218240Y-75703156D01*
X102265860Y-75798394D01*
X102313479Y-75846013D01*
X102408717Y-75893632D01*
X102551574Y-75893632D01*
X102646812Y-75846013D01*
X102694431Y-75798394D01*
X102742050Y-75703156D01*
X102742050Y-75322204D01*
X103218240Y-76846013D02*
X103218240Y-76274585D01*
X103218240Y-76560299D02*
X102218240Y-76560299D01*
X102361098Y-76465061D01*
X102456336Y-76369823D01*
X102503955Y-76274585D01*
X102646812Y-77417442D02*
X102599193Y-77322204D01*
X102551574Y-77274585D01*
X102456336Y-77226966D01*
X102408717Y-77226966D01*
X102313479Y-77274585D01*
X102265860Y-77322204D01*
X102218240Y-77417442D01*
X102218240Y-77607918D01*
X102265860Y-77703156D01*
X102313479Y-77750775D01*
X102408717Y-77798394D01*
X102456336Y-77798394D01*
X102551574Y-77750775D01*
X102599193Y-77703156D01*
X102646812Y-77607918D01*
X102646812Y-77417442D01*
X102694431Y-77322204D01*
X102742050Y-77274585D01*
X102837288Y-77226966D01*
X103027764Y-77226966D01*
X103123002Y-77274585D01*
X103170621Y-77322204D01*
X103218240Y-77417442D01*
X103218240Y-77607918D01*
X103170621Y-77703156D01*
X103123002Y-77750775D01*
X103027764Y-77798394D01*
X102837288Y-77798394D01*
X102742050Y-77750775D01*
X102694431Y-77703156D01*
X102646812Y-77607918D01*
X105245160Y-75893632D02*
X104768970Y-75560299D01*
X105245160Y-75322204D02*
X104245160Y-75322204D01*
X104245160Y-75703156D01*
X104292780Y-75798394D01*
X104340399Y-75846013D01*
X104435637Y-75893632D01*
X104578494Y-75893632D01*
X104673732Y-75846013D01*
X104721351Y-75798394D01*
X104768970Y-75703156D01*
X104768970Y-75322204D01*
X105245160Y-76846013D02*
X105245160Y-76274585D01*
X105245160Y-76560299D02*
X104245160Y-76560299D01*
X104388018Y-76465061D01*
X104483256Y-76369823D01*
X104530875Y-76274585D01*
X104245160Y-77179347D02*
X104245160Y-77846013D01*
X105245160Y-77417442D01*
X107272080Y-75893632D02*
X106795890Y-75560299D01*
X107272080Y-75322204D02*
X106272080Y-75322204D01*
X106272080Y-75703156D01*
X106319700Y-75798394D01*
X106367319Y-75846013D01*
X106462557Y-75893632D01*
X106605414Y-75893632D01*
X106700652Y-75846013D01*
X106748271Y-75798394D01*
X106795890Y-75703156D01*
X106795890Y-75322204D01*
X107272080Y-76846013D02*
X107272080Y-76274585D01*
X107272080Y-76560299D02*
X106272080Y-76560299D01*
X106414938Y-76465061D01*
X106510176Y-76369823D01*
X106557795Y-76274585D01*
X106605414Y-77703156D02*
X107272080Y-77703156D01*
X106224461Y-77465061D02*
X106938747Y-77226966D01*
X106938747Y-77846013D01*
X111325920Y-75893632D02*
X110849730Y-75560299D01*
X111325920Y-75322204D02*
X110325920Y-75322204D01*
X110325920Y-75703156D01*
X110373540Y-75798394D01*
X110421159Y-75846013D01*
X110516397Y-75893632D01*
X110659254Y-75893632D01*
X110754492Y-75846013D01*
X110802111Y-75798394D01*
X110849730Y-75703156D01*
X110849730Y-75322204D01*
X111325920Y-76846013D02*
X111325920Y-76274585D01*
X111325920Y-76560299D02*
X110325920Y-76560299D01*
X110468778Y-76465061D01*
X110564016Y-76369823D01*
X110611635Y-76274585D01*
X110325920Y-77179347D02*
X110325920Y-77798394D01*
X110706873Y-77465061D01*
X110706873Y-77607918D01*
X110754492Y-77703156D01*
X110802111Y-77750775D01*
X110897349Y-77798394D01*
X111135444Y-77798394D01*
X111230682Y-77750775D01*
X111278301Y-77703156D01*
X111325920Y-77607918D01*
X111325920Y-77322204D01*
X111278301Y-77226966D01*
X111230682Y-77179347D01*
X90408997Y-80774800D02*
X90742330Y-80298610D01*
X90980425Y-80774800D02*
X90980425Y-79774800D01*
X90599473Y-79774800D01*
X90504235Y-79822420D01*
X90456616Y-79870039D01*
X90408997Y-79965277D01*
X90408997Y-80108134D01*
X90456616Y-80203372D01*
X90504235Y-80250991D01*
X90599473Y-80298610D01*
X90980425Y-80298610D01*
X89456616Y-80774800D02*
X90028044Y-80774800D01*
X89742330Y-80774800D02*
X89742330Y-79774800D01*
X89837568Y-79917658D01*
X89932806Y-80012896D01*
X90028044Y-80060515D01*
X88504235Y-80774800D02*
X89075663Y-80774800D01*
X88789949Y-80774800D02*
X88789949Y-79774800D01*
X88885187Y-79917658D01*
X88980425Y-80012896D01*
X89075663Y-80060515D01*
X90500437Y-85946240D02*
X90833770Y-85470050D01*
X91071865Y-85946240D02*
X91071865Y-84946240D01*
X90690913Y-84946240D01*
X90595675Y-84993860D01*
X90548056Y-85041479D01*
X90500437Y-85136717D01*
X90500437Y-85279574D01*
X90548056Y-85374812D01*
X90595675Y-85422431D01*
X90690913Y-85470050D01*
X91071865Y-85470050D01*
X89548056Y-85946240D02*
X90119484Y-85946240D01*
X89833770Y-85946240D02*
X89833770Y-84946240D01*
X89929008Y-85089098D01*
X90024246Y-85184336D01*
X90119484Y-85231955D01*
X88929008Y-84946240D02*
X88833770Y-84946240D01*
X88738532Y-84993860D01*
X88690913Y-85041479D01*
X88643294Y-85136717D01*
X88595675Y-85327193D01*
X88595675Y-85565288D01*
X88643294Y-85755764D01*
X88690913Y-85851002D01*
X88738532Y-85898621D01*
X88833770Y-85946240D01*
X88929008Y-85946240D01*
X89024246Y-85898621D01*
X89071865Y-85851002D01*
X89119484Y-85755764D01*
X89167103Y-85565288D01*
X89167103Y-85327193D01*
X89119484Y-85136717D01*
X89071865Y-85041479D01*
X89024246Y-84993860D01*
X88929008Y-84946240D01*
X109299000Y-75893633D02*
X108822810Y-75560300D01*
X109299000Y-75322204D02*
X108299000Y-75322204D01*
X108299000Y-75703157D01*
X108346620Y-75798395D01*
X108394239Y-75846014D01*
X108489477Y-75893633D01*
X108632334Y-75893633D01*
X108727572Y-75846014D01*
X108775191Y-75798395D01*
X108822810Y-75703157D01*
X108822810Y-75322204D01*
X108299000Y-76226966D02*
X108299000Y-76893633D01*
X109299000Y-76465061D01*
X95386186Y-80381100D02*
X95719520Y-79904910D01*
X95957615Y-80381100D02*
X95957615Y-79381100D01*
X95576662Y-79381100D01*
X95481424Y-79428720D01*
X95433805Y-79476339D01*
X95386186Y-79571577D01*
X95386186Y-79714434D01*
X95433805Y-79809672D01*
X95481424Y-79857291D01*
X95576662Y-79904910D01*
X95957615Y-79904910D01*
X94529043Y-79381100D02*
X94719520Y-79381100D01*
X94814758Y-79428720D01*
X94862377Y-79476339D01*
X94957615Y-79619196D01*
X95005234Y-79809672D01*
X95005234Y-80190624D01*
X94957615Y-80285862D01*
X94909996Y-80333481D01*
X94814758Y-80381100D01*
X94624281Y-80381100D01*
X94529043Y-80333481D01*
X94481424Y-80285862D01*
X94433805Y-80190624D01*
X94433805Y-79952529D01*
X94481424Y-79857291D01*
X94529043Y-79809672D01*
X94624281Y-79762053D01*
X94814758Y-79762053D01*
X94909996Y-79809672D01*
X94957615Y-79857291D01*
X95005234Y-79952529D01*
X131198880Y-69861133D02*
X130722690Y-69527800D01*
X131198880Y-69289704D02*
X130198880Y-69289704D01*
X130198880Y-69670657D01*
X130246500Y-69765895D01*
X130294119Y-69813514D01*
X130389357Y-69861133D01*
X130532214Y-69861133D01*
X130627452Y-69813514D01*
X130675071Y-69765895D01*
X130722690Y-69670657D01*
X130722690Y-69289704D01*
X130198880Y-70765895D02*
X130198880Y-70289704D01*
X130675071Y-70242085D01*
X130627452Y-70289704D01*
X130579833Y-70384942D01*
X130579833Y-70623038D01*
X130627452Y-70718276D01*
X130675071Y-70765895D01*
X130770309Y-70813514D01*
X131008404Y-70813514D01*
X131103642Y-70765895D01*
X131151261Y-70718276D01*
X131198880Y-70623038D01*
X131198880Y-70384942D01*
X131151261Y-70289704D01*
X131103642Y-70242085D01*
X113506546Y-72019420D02*
X113839880Y-71543230D01*
X114077975Y-72019420D02*
X114077975Y-71019420D01*
X113697022Y-71019420D01*
X113601784Y-71067040D01*
X113554165Y-71114659D01*
X113506546Y-71209897D01*
X113506546Y-71352754D01*
X113554165Y-71447992D01*
X113601784Y-71495611D01*
X113697022Y-71543230D01*
X114077975Y-71543230D01*
X112649403Y-71352754D02*
X112649403Y-72019420D01*
X112887499Y-70971801D02*
X113125594Y-71686087D01*
X112506546Y-71686087D01*
X113570046Y-69992500D02*
X113903380Y-69516310D01*
X114141475Y-69992500D02*
X114141475Y-68992500D01*
X113760522Y-68992500D01*
X113665284Y-69040120D01*
X113617665Y-69087739D01*
X113570046Y-69182977D01*
X113570046Y-69325834D01*
X113617665Y-69421072D01*
X113665284Y-69468691D01*
X113760522Y-69516310D01*
X114141475Y-69516310D01*
X113236713Y-68992500D02*
X112617665Y-68992500D01*
X112950999Y-69373453D01*
X112808141Y-69373453D01*
X112712903Y-69421072D01*
X112665284Y-69468691D01*
X112617665Y-69563929D01*
X112617665Y-69802024D01*
X112665284Y-69897262D01*
X112712903Y-69944881D01*
X112808141Y-69992500D01*
X113093856Y-69992500D01*
X113189094Y-69944881D01*
X113236713Y-69897262D01*
X92279458Y-80587459D02*
X92374696Y-80539840D01*
X92469934Y-80444601D01*
X92612791Y-80301744D01*
X92708029Y-80254125D01*
X92803267Y-80254125D01*
X92755648Y-80492220D02*
X92850886Y-80444601D01*
X92946124Y-80349363D01*
X92993743Y-80158887D01*
X92993743Y-79825554D01*
X92946124Y-79635078D01*
X92850886Y-79539840D01*
X92755648Y-79492220D01*
X92565172Y-79492220D01*
X92469934Y-79539840D01*
X92374696Y-79635078D01*
X92327077Y-79825554D01*
X92327077Y-80158887D01*
X92374696Y-80349363D01*
X92469934Y-80444601D01*
X92565172Y-80492220D01*
X92755648Y-80492220D01*
X91422315Y-79492220D02*
X91898505Y-79492220D01*
X91946124Y-79968411D01*
X91898505Y-79920792D01*
X91803267Y-79873173D01*
X91565172Y-79873173D01*
X91469934Y-79920792D01*
X91422315Y-79968411D01*
X91374696Y-80063649D01*
X91374696Y-80301744D01*
X91422315Y-80396982D01*
X91469934Y-80444601D01*
X91565172Y-80492220D01*
X91803267Y-80492220D01*
X91898505Y-80444601D01*
X91946124Y-80396982D01*
X91113598Y-89361259D02*
X91208836Y-89313640D01*
X91304074Y-89218401D01*
X91446931Y-89075544D01*
X91542169Y-89027925D01*
X91637407Y-89027925D01*
X91589788Y-89266020D02*
X91685026Y-89218401D01*
X91780264Y-89123163D01*
X91827883Y-88932687D01*
X91827883Y-88599354D01*
X91780264Y-88408878D01*
X91685026Y-88313640D01*
X91589788Y-88266020D01*
X91399312Y-88266020D01*
X91304074Y-88313640D01*
X91208836Y-88408878D01*
X91161217Y-88599354D01*
X91161217Y-88932687D01*
X91208836Y-89123163D01*
X91304074Y-89218401D01*
X91399312Y-89266020D01*
X91589788Y-89266020D01*
X90304074Y-88599354D02*
X90304074Y-89266020D01*
X90542169Y-88218401D02*
X90780264Y-88932687D01*
X90161217Y-88932687D01*
X112955058Y-110725199D02*
X113050296Y-110677580D01*
X113145534Y-110582341D01*
X113288391Y-110439484D01*
X113383629Y-110391865D01*
X113478867Y-110391865D01*
X113431248Y-110629960D02*
X113526486Y-110582341D01*
X113621724Y-110487103D01*
X113669343Y-110296627D01*
X113669343Y-109963294D01*
X113621724Y-109772818D01*
X113526486Y-109677580D01*
X113431248Y-109629960D01*
X113240772Y-109629960D01*
X113145534Y-109677580D01*
X113050296Y-109772818D01*
X113002677Y-109963294D01*
X113002677Y-110296627D01*
X113050296Y-110487103D01*
X113145534Y-110582341D01*
X113240772Y-110629960D01*
X113431248Y-110629960D01*
X112621724Y-109725199D02*
X112574105Y-109677580D01*
X112478867Y-109629960D01*
X112240772Y-109629960D01*
X112145534Y-109677580D01*
X112097915Y-109725199D01*
X112050296Y-109820437D01*
X112050296Y-109915675D01*
X112097915Y-110058532D01*
X112669343Y-110629960D01*
X112050296Y-110629960D01*
X94098098Y-75152499D02*
X94193336Y-75104880D01*
X94288574Y-75009641D01*
X94431431Y-74866784D01*
X94526669Y-74819165D01*
X94621907Y-74819165D01*
X94574288Y-75057260D02*
X94669526Y-75009641D01*
X94764764Y-74914403D01*
X94812383Y-74723927D01*
X94812383Y-74390594D01*
X94764764Y-74200118D01*
X94669526Y-74104880D01*
X94574288Y-74057260D01*
X94383812Y-74057260D01*
X94288574Y-74104880D01*
X94193336Y-74200118D01*
X94145717Y-74390594D01*
X94145717Y-74723927D01*
X94193336Y-74914403D01*
X94288574Y-75009641D01*
X94383812Y-75057260D01*
X94574288Y-75057260D01*
X93193336Y-75057260D02*
X93764764Y-75057260D01*
X93479050Y-75057260D02*
X93479050Y-74057260D01*
X93574288Y-74200118D01*
X93669526Y-74295356D01*
X93764764Y-74342975D01*
X128569933Y-76101960D02*
X128569933Y-76816246D01*
X128617552Y-76959103D01*
X128712790Y-77054341D01*
X128855647Y-77101960D01*
X128950885Y-77101960D01*
X128093742Y-77101960D02*
X128093742Y-76101960D01*
X127712790Y-76101960D01*
X127617552Y-76149580D01*
X127569933Y-76197199D01*
X127522314Y-76292437D01*
X127522314Y-76435294D01*
X127569933Y-76530532D01*
X127617552Y-76578151D01*
X127712790Y-76625770D01*
X128093742Y-76625770D01*
X126569933Y-77101960D02*
X127141361Y-77101960D01*
X126855647Y-77101960D02*
X126855647Y-76101960D01*
X126950885Y-76244818D01*
X127046123Y-76340056D01*
X127141361Y-76387675D01*
X100168935Y-108384600D02*
X100168935Y-107384600D01*
X99930840Y-107384600D01*
X99787982Y-107432220D01*
X99692744Y-107527458D01*
X99645125Y-107622696D01*
X99597506Y-107813172D01*
X99597506Y-107956029D01*
X99645125Y-108146505D01*
X99692744Y-108241743D01*
X99787982Y-108336981D01*
X99930840Y-108384600D01*
X100168935Y-108384600D01*
X98692744Y-107384600D02*
X99168935Y-107384600D01*
X99216554Y-107860791D01*
X99168935Y-107813172D01*
X99073697Y-107765553D01*
X98835601Y-107765553D01*
X98740363Y-107813172D01*
X98692744Y-107860791D01*
X98645125Y-107956029D01*
X98645125Y-108194124D01*
X98692744Y-108289362D01*
X98740363Y-108336981D01*
X98835601Y-108384600D01*
X99073697Y-108384600D01*
X99168935Y-108336981D01*
X99216554Y-108289362D01*
X105721375Y-96891100D02*
X105721375Y-95891100D01*
X105483280Y-95891100D01*
X105340422Y-95938720D01*
X105245184Y-96033958D01*
X105197565Y-96129196D01*
X105149946Y-96319672D01*
X105149946Y-96462529D01*
X105197565Y-96653005D01*
X105245184Y-96748243D01*
X105340422Y-96843481D01*
X105483280Y-96891100D01*
X105721375Y-96891100D01*
X104197565Y-96891100D02*
X104768994Y-96891100D01*
X104483280Y-96891100D02*
X104483280Y-95891100D01*
X104578518Y-96033958D01*
X104673756Y-96129196D01*
X104768994Y-96176815D01*
X99347257Y-70489062D02*
X99394876Y-70536681D01*
X99537733Y-70584300D01*
X99632971Y-70584300D01*
X99775828Y-70536681D01*
X99871066Y-70441443D01*
X99918685Y-70346205D01*
X99966304Y-70155729D01*
X99966304Y-70012872D01*
X99918685Y-69822396D01*
X99871066Y-69727158D01*
X99775828Y-69631920D01*
X99632971Y-69584300D01*
X99537733Y-69584300D01*
X99394876Y-69631920D01*
X99347257Y-69679539D01*
X98394876Y-70584300D02*
X98966304Y-70584300D01*
X98680590Y-70584300D02*
X98680590Y-69584300D01*
X98775828Y-69727158D01*
X98871066Y-69822396D01*
X98966304Y-69870015D01*
X97775828Y-69584300D02*
X97680590Y-69584300D01*
X97585352Y-69631920D01*
X97537733Y-69679539D01*
X97490114Y-69774777D01*
X97442495Y-69965253D01*
X97442495Y-70203348D01*
X97490114Y-70393824D01*
X97537733Y-70489062D01*
X97585352Y-70536681D01*
X97680590Y-70584300D01*
X97775828Y-70584300D01*
X97871066Y-70536681D01*
X97918685Y-70489062D01*
X97966304Y-70393824D01*
X98013923Y-70203348D01*
X98013923Y-69965253D01*
X97966304Y-69774777D01*
X97918685Y-69679539D01*
X97871066Y-69631920D01*
X97775828Y-69584300D01*
X97593446Y-79295262D02*
X97641065Y-79342881D01*
X97783922Y-79390500D01*
X97879160Y-79390500D01*
X98022018Y-79342881D01*
X98117256Y-79247643D01*
X98164875Y-79152405D01*
X98212494Y-78961929D01*
X98212494Y-78819072D01*
X98164875Y-78628596D01*
X98117256Y-78533358D01*
X98022018Y-78438120D01*
X97879160Y-78390500D01*
X97783922Y-78390500D01*
X97641065Y-78438120D01*
X97593446Y-78485739D01*
X97117256Y-79390500D02*
X96926780Y-79390500D01*
X96831541Y-79342881D01*
X96783922Y-79295262D01*
X96688684Y-79152405D01*
X96641065Y-78961929D01*
X96641065Y-78580977D01*
X96688684Y-78485739D01*
X96736303Y-78438120D01*
X96831541Y-78390500D01*
X97022018Y-78390500D01*
X97117256Y-78438120D01*
X97164875Y-78485739D01*
X97212494Y-78580977D01*
X97212494Y-78819072D01*
X97164875Y-78914310D01*
X97117256Y-78961929D01*
X97022018Y-79009548D01*
X96831541Y-79009548D01*
X96736303Y-78961929D01*
X96688684Y-78914310D01*
X96641065Y-78819072D01*
X126097326Y-68037982D02*
X126144945Y-68085601D01*
X126287802Y-68133220D01*
X126383040Y-68133220D01*
X126525898Y-68085601D01*
X126621136Y-67990363D01*
X126668755Y-67895125D01*
X126716374Y-67704649D01*
X126716374Y-67561792D01*
X126668755Y-67371316D01*
X126621136Y-67276078D01*
X126525898Y-67180840D01*
X126383040Y-67133220D01*
X126287802Y-67133220D01*
X126144945Y-67180840D01*
X126097326Y-67228459D01*
X125525898Y-67561792D02*
X125621136Y-67514173D01*
X125668755Y-67466554D01*
X125716374Y-67371316D01*
X125716374Y-67323697D01*
X125668755Y-67228459D01*
X125621136Y-67180840D01*
X125525898Y-67133220D01*
X125335421Y-67133220D01*
X125240183Y-67180840D01*
X125192564Y-67228459D01*
X125144945Y-67323697D01*
X125144945Y-67371316D01*
X125192564Y-67466554D01*
X125240183Y-67514173D01*
X125335421Y-67561792D01*
X125525898Y-67561792D01*
X125621136Y-67609411D01*
X125668755Y-67657030D01*
X125716374Y-67752268D01*
X125716374Y-67942744D01*
X125668755Y-68037982D01*
X125621136Y-68085601D01*
X125525898Y-68133220D01*
X125335421Y-68133220D01*
X125240183Y-68085601D01*
X125192564Y-68037982D01*
X125144945Y-67942744D01*
X125144945Y-67752268D01*
X125192564Y-67657030D01*
X125240183Y-67609411D01*
X125335421Y-67561792D01*
X133021366Y-112990902D02*
X133068985Y-113038521D01*
X133211842Y-113086140D01*
X133307080Y-113086140D01*
X133449938Y-113038521D01*
X133545176Y-112943283D01*
X133592795Y-112848045D01*
X133640414Y-112657569D01*
X133640414Y-112514712D01*
X133592795Y-112324236D01*
X133545176Y-112228998D01*
X133449938Y-112133760D01*
X133307080Y-112086140D01*
X133211842Y-112086140D01*
X133068985Y-112133760D01*
X133021366Y-112181379D01*
X132688033Y-112086140D02*
X132021366Y-112086140D01*
X132449938Y-113086140D01*
X124194866Y-108164902D02*
X124242485Y-108212521D01*
X124385342Y-108260140D01*
X124480580Y-108260140D01*
X124623438Y-108212521D01*
X124718676Y-108117283D01*
X124766295Y-108022045D01*
X124813914Y-107831569D01*
X124813914Y-107688712D01*
X124766295Y-107498236D01*
X124718676Y-107402998D01*
X124623438Y-107307760D01*
X124480580Y-107260140D01*
X124385342Y-107260140D01*
X124242485Y-107307760D01*
X124194866Y-107355379D01*
X123337723Y-107260140D02*
X123528200Y-107260140D01*
X123623438Y-107307760D01*
X123671057Y-107355379D01*
X123766295Y-107498236D01*
X123813914Y-107688712D01*
X123813914Y-108069664D01*
X123766295Y-108164902D01*
X123718676Y-108212521D01*
X123623438Y-108260140D01*
X123432961Y-108260140D01*
X123337723Y-108212521D01*
X123290104Y-108164902D01*
X123242485Y-108069664D01*
X123242485Y-107831569D01*
X123290104Y-107736331D01*
X123337723Y-107688712D01*
X123432961Y-107641093D01*
X123623438Y-107641093D01*
X123718676Y-107688712D01*
X123766295Y-107736331D01*
X123813914Y-107831569D01*
X83602380Y-63986666D02*
X84316666Y-63986666D01*
X84459523Y-63939047D01*
X84554761Y-63843809D01*
X84602380Y-63700952D01*
X84602380Y-63605714D01*
X83602380Y-64367619D02*
X83602380Y-64986666D01*
X83983333Y-64653333D01*
X83983333Y-64796190D01*
X84030952Y-64891428D01*
X84078571Y-64939047D01*
X84173809Y-64986666D01*
X84411904Y-64986666D01*
X84507142Y-64939047D01*
X84554761Y-64891428D01*
X84602380Y-64796190D01*
X84602380Y-64510476D01*
X84554761Y-64415238D01*
X84507142Y-64367619D01*
M02*
