G04 #@! TF.GenerationSoftware,KiCad,Pcbnew,(5.1.2)-1*
G04 #@! TF.CreationDate,2019-08-04T20:48:43+02:00*
G04 #@! TF.ProjectId,SMPS hat,534d5053-2068-4617-942e-6b696361645f,rev?*
G04 #@! TF.SameCoordinates,Original*
G04 #@! TF.FileFunction,Legend,Top*
G04 #@! TF.FilePolarity,Positive*
%FSLAX46Y46*%
G04 Gerber Fmt 4.6, Leading zero omitted, Abs format (unit mm)*
G04 Created by KiCad (PCBNEW (5.1.2)-1) date 2019-08-04 20:48:43*
%MOMM*%
%LPD*%
G04 APERTURE LIST*
%ADD10C,0.150000*%
%ADD11C,0.100000*%
%ADD12C,0.010000*%
%ADD13C,0.120000*%
G04 APERTURE END LIST*
D10*
X100101383Y-93318831D02*
G75*
G02X98374200Y-91643200I-50783J1675631D01*
G01*
X113359431Y-91592417D02*
G75*
G02X111683800Y-93319600I-1675631J-50783D01*
G01*
X111633017Y-78283569D02*
G75*
G02X113360200Y-79959200I50783J-1675631D01*
G01*
X98349569Y-80009983D02*
G75*
G02X100025200Y-78282800I1675631J50783D01*
G01*
X98374200Y-91643200D02*
X98349569Y-80009983D01*
X111683800Y-93319600D02*
X100101383Y-93318831D01*
X113360200Y-79959200D02*
X113359431Y-91592417D01*
X100025200Y-78282800D02*
X111633017Y-78283569D01*
D11*
X78546357Y-63830200D02*
X78546356Y-113817611D01*
X78546357Y-63830200D02*
G75*
G02X81534000Y-60817611I2999999J12589D01*
G01*
X140546356Y-60817611D02*
X81534000Y-60817611D01*
X140546356Y-60817611D02*
G75*
G02X143546356Y-63817611I0J-3000000D01*
G01*
X143546351Y-113822847D02*
X143546356Y-63817611D01*
X81546356Y-116817611D02*
G75*
G02X78546356Y-113817611I0J3000000D01*
G01*
X81546356Y-116817611D02*
X140546356Y-116817611D01*
X143546351Y-113822847D02*
G75*
G02X140546356Y-116817611I-2999995J5236D01*
G01*
D12*
G36*
X125076774Y-109721691D02*
G01*
X125160595Y-110166315D01*
X125469880Y-110293813D01*
X125779166Y-110421311D01*
X126150206Y-110169006D01*
X126254117Y-110098756D01*
X126348047Y-110036032D01*
X126427612Y-109983698D01*
X126488430Y-109944617D01*
X126526117Y-109921653D01*
X126536381Y-109916702D01*
X126554870Y-109929436D01*
X126594380Y-109964642D01*
X126650482Y-110017822D01*
X126718747Y-110084478D01*
X126794746Y-110160114D01*
X126874052Y-110240232D01*
X126952235Y-110320334D01*
X127024867Y-110395924D01*
X127087519Y-110462505D01*
X127135763Y-110515578D01*
X127165170Y-110550647D01*
X127172201Y-110562383D01*
X127162083Y-110584020D01*
X127133719Y-110631422D01*
X127090089Y-110699953D01*
X127034178Y-110784975D01*
X126968966Y-110881853D01*
X126931179Y-110937110D01*
X126862303Y-111038008D01*
X126801100Y-111129059D01*
X126750538Y-111205730D01*
X126713588Y-111263488D01*
X126693218Y-111297803D01*
X126690157Y-111305014D01*
X126697096Y-111325508D01*
X126716011Y-111373273D01*
X126744047Y-111441592D01*
X126778351Y-111523749D01*
X126816069Y-111613030D01*
X126854347Y-111702718D01*
X126890330Y-111786098D01*
X126921166Y-111856454D01*
X126943999Y-111907070D01*
X126955977Y-111931231D01*
X126956684Y-111932182D01*
X126975491Y-111936796D01*
X127025578Y-111947088D01*
X127101753Y-111962047D01*
X127198825Y-111980661D01*
X127311603Y-112001919D01*
X127377402Y-112014178D01*
X127497910Y-112037122D01*
X127606757Y-112058955D01*
X127698436Y-112078482D01*
X127767441Y-112094508D01*
X127808264Y-112105839D01*
X127816471Y-112109434D01*
X127824508Y-112133766D01*
X127830993Y-112188719D01*
X127835930Y-112267868D01*
X127839324Y-112364786D01*
X127841178Y-112473047D01*
X127841498Y-112586225D01*
X127840287Y-112697895D01*
X127837550Y-112801628D01*
X127833291Y-112891001D01*
X127827515Y-112959586D01*
X127820227Y-113000957D01*
X127815855Y-113009570D01*
X127789724Y-113019893D01*
X127734353Y-113034652D01*
X127657067Y-113052112D01*
X127565190Y-113070540D01*
X127533118Y-113076501D01*
X127378484Y-113104826D01*
X127256335Y-113127636D01*
X127162633Y-113145840D01*
X127093344Y-113160343D01*
X127044431Y-113172052D01*
X127011857Y-113181875D01*
X126991588Y-113190716D01*
X126979586Y-113199484D01*
X126977907Y-113201217D01*
X126961144Y-113229131D01*
X126935574Y-113283455D01*
X126903748Y-113357537D01*
X126868220Y-113444725D01*
X126831543Y-113538368D01*
X126796271Y-113631812D01*
X126764956Y-113718407D01*
X126740153Y-113791500D01*
X126724414Y-113844438D01*
X126720292Y-113870571D01*
X126720636Y-113871486D01*
X126734601Y-113892846D01*
X126766282Y-113939844D01*
X126812351Y-114007587D01*
X126869478Y-114091183D01*
X126934333Y-114185742D01*
X126952803Y-114212614D01*
X127018659Y-114310035D01*
X127076610Y-114398923D01*
X127123498Y-114474172D01*
X127156167Y-114530680D01*
X127171460Y-114563341D01*
X127172201Y-114567353D01*
X127159352Y-114588444D01*
X127123848Y-114630224D01*
X127070253Y-114688205D01*
X127003131Y-114757895D01*
X126927047Y-114834805D01*
X126846564Y-114914443D01*
X126766247Y-114992321D01*
X126690659Y-115063946D01*
X126624365Y-115124830D01*
X126571929Y-115170481D01*
X126537915Y-115196410D01*
X126528505Y-115200643D01*
X126506603Y-115190672D01*
X126461760Y-115163780D01*
X126401281Y-115124496D01*
X126354749Y-115092877D01*
X126270435Y-115034858D01*
X126170586Y-114966544D01*
X126070433Y-114898339D01*
X126016587Y-114861835D01*
X125834331Y-114738560D01*
X125681341Y-114821280D01*
X125611642Y-114857519D01*
X125552374Y-114885686D01*
X125512271Y-114901751D01*
X125502063Y-114903986D01*
X125489789Y-114887482D01*
X125465573Y-114840842D01*
X125431223Y-114768369D01*
X125388548Y-114674366D01*
X125339354Y-114563134D01*
X125285450Y-114438975D01*
X125228644Y-114306192D01*
X125170742Y-114169087D01*
X125113553Y-114031962D01*
X125058884Y-113899118D01*
X125008544Y-113774858D01*
X124964340Y-113663485D01*
X124928079Y-113569299D01*
X124901569Y-113496604D01*
X124886618Y-113449701D01*
X124884214Y-113433593D01*
X124903271Y-113413046D01*
X124944996Y-113379693D01*
X125000666Y-113340462D01*
X125005338Y-113337359D01*
X125149224Y-113222183D01*
X125265243Y-113087813D01*
X125352390Y-112938544D01*
X125409659Y-112778673D01*
X125436046Y-112612497D01*
X125430545Y-112444312D01*
X125392150Y-112278415D01*
X125319855Y-112119102D01*
X125298586Y-112084247D01*
X125187956Y-111943497D01*
X125057262Y-111830474D01*
X124911024Y-111745763D01*
X124753768Y-111689954D01*
X124590017Y-111663634D01*
X124424293Y-111667390D01*
X124261122Y-111701810D01*
X124105025Y-111767483D01*
X123960527Y-111864995D01*
X123915829Y-111904573D01*
X123802072Y-112028463D01*
X123719178Y-112158884D01*
X123662316Y-112305075D01*
X123630647Y-112449848D01*
X123622829Y-112612620D01*
X123648898Y-112776200D01*
X123706205Y-112935058D01*
X123792104Y-113083666D01*
X123903946Y-113216495D01*
X124039083Y-113328016D01*
X124056843Y-113339771D01*
X124113110Y-113378268D01*
X124155883Y-113411623D01*
X124176332Y-113432920D01*
X124176629Y-113433593D01*
X124172239Y-113456631D01*
X124154836Y-113508917D01*
X124126228Y-113586150D01*
X124088225Y-113684028D01*
X124042634Y-113798251D01*
X123991263Y-113924518D01*
X123935922Y-114058527D01*
X123878418Y-114195978D01*
X123820561Y-114332568D01*
X123764158Y-114463997D01*
X123711018Y-114585965D01*
X123662950Y-114694169D01*
X123621761Y-114784309D01*
X123589261Y-114852083D01*
X123567257Y-114893190D01*
X123558396Y-114903986D01*
X123531320Y-114895579D01*
X123480657Y-114873032D01*
X123415143Y-114840373D01*
X123379119Y-114821280D01*
X123226128Y-114738560D01*
X123043872Y-114861835D01*
X122950835Y-114924988D01*
X122848975Y-114994487D01*
X122753522Y-115059925D01*
X122705710Y-115092877D01*
X122638465Y-115138033D01*
X122581524Y-115173817D01*
X122542314Y-115195698D01*
X122529579Y-115200323D01*
X122511043Y-115187845D01*
X122470019Y-115153012D01*
X122410485Y-115099438D01*
X122336418Y-115030743D01*
X122251795Y-114950541D01*
X122198275Y-114899046D01*
X122104641Y-114807046D01*
X122023719Y-114724759D01*
X121958783Y-114655705D01*
X121913102Y-114603404D01*
X121889949Y-114571376D01*
X121887728Y-114564876D01*
X121898036Y-114540154D01*
X121926521Y-114490165D01*
X121970023Y-114419972D01*
X122025383Y-114334635D01*
X122089440Y-114239216D01*
X122107657Y-114212614D01*
X122174033Y-114115927D01*
X122233582Y-114028877D01*
X122282976Y-113956355D01*
X122318885Y-113903253D01*
X122337979Y-113874463D01*
X122339824Y-113871486D01*
X122337065Y-113848542D01*
X122322422Y-113798096D01*
X122298447Y-113726801D01*
X122267694Y-113641307D01*
X122232716Y-113548267D01*
X122196067Y-113454334D01*
X122160299Y-113366159D01*
X122127966Y-113290394D01*
X122101622Y-113233691D01*
X122083818Y-113202703D01*
X122082553Y-113201217D01*
X122071666Y-113192361D01*
X122053278Y-113183603D01*
X122023354Y-113174037D01*
X121977857Y-113162756D01*
X121912751Y-113148853D01*
X121823999Y-113131423D01*
X121707567Y-113109558D01*
X121559418Y-113082351D01*
X121527342Y-113076501D01*
X121432274Y-113058134D01*
X121349395Y-113040165D01*
X121286030Y-113024329D01*
X121249502Y-113012360D01*
X121244604Y-113009570D01*
X121236533Y-112984832D01*
X121229973Y-112929550D01*
X121224927Y-112850149D01*
X121221401Y-112753056D01*
X121219399Y-112644698D01*
X121218924Y-112531500D01*
X121219983Y-112419888D01*
X121222578Y-112316289D01*
X121226714Y-112227128D01*
X121232397Y-112158832D01*
X121239629Y-112117826D01*
X121243989Y-112109434D01*
X121268262Y-112100968D01*
X121323534Y-112087195D01*
X121404298Y-112069310D01*
X121505048Y-112048508D01*
X121620277Y-112025983D01*
X121683058Y-112014178D01*
X121802173Y-111991911D01*
X121908395Y-111971739D01*
X121996533Y-111954675D01*
X122061394Y-111941729D01*
X122097786Y-111933915D01*
X122103776Y-111932182D01*
X122113899Y-111912650D01*
X122135298Y-111865603D01*
X122165121Y-111797763D01*
X122200515Y-111715851D01*
X122238628Y-111626588D01*
X122276607Y-111536695D01*
X122311600Y-111452895D01*
X122340754Y-111381907D01*
X122361217Y-111330454D01*
X122370137Y-111305257D01*
X122370303Y-111304156D01*
X122360191Y-111284279D01*
X122331843Y-111238537D01*
X122288237Y-111171477D01*
X122232354Y-111087644D01*
X122167173Y-110991586D01*
X122129281Y-110936410D01*
X122060235Y-110835241D01*
X121998910Y-110743390D01*
X121948297Y-110665504D01*
X121911389Y-110606229D01*
X121891178Y-110570211D01*
X121888259Y-110562137D01*
X121900807Y-110543344D01*
X121935497Y-110503217D01*
X121987897Y-110446253D01*
X122053576Y-110376945D01*
X122128104Y-110299791D01*
X122207047Y-110219285D01*
X122285977Y-110139923D01*
X122360460Y-110066200D01*
X122426066Y-110002612D01*
X122478364Y-109953654D01*
X122512921Y-109923821D01*
X122524482Y-109916702D01*
X122543306Y-109926713D01*
X122588329Y-109954838D01*
X122655173Y-109998214D01*
X122739461Y-110053978D01*
X122836816Y-110119266D01*
X122910253Y-110169006D01*
X123281293Y-110421311D01*
X123899865Y-110166315D01*
X123983685Y-109721691D01*
X124067506Y-109277067D01*
X124992954Y-109277067D01*
X125076774Y-109721691D01*
X125076774Y-109721691D01*
G37*
X125076774Y-109721691D02*
X125160595Y-110166315D01*
X125469880Y-110293813D01*
X125779166Y-110421311D01*
X126150206Y-110169006D01*
X126254117Y-110098756D01*
X126348047Y-110036032D01*
X126427612Y-109983698D01*
X126488430Y-109944617D01*
X126526117Y-109921653D01*
X126536381Y-109916702D01*
X126554870Y-109929436D01*
X126594380Y-109964642D01*
X126650482Y-110017822D01*
X126718747Y-110084478D01*
X126794746Y-110160114D01*
X126874052Y-110240232D01*
X126952235Y-110320334D01*
X127024867Y-110395924D01*
X127087519Y-110462505D01*
X127135763Y-110515578D01*
X127165170Y-110550647D01*
X127172201Y-110562383D01*
X127162083Y-110584020D01*
X127133719Y-110631422D01*
X127090089Y-110699953D01*
X127034178Y-110784975D01*
X126968966Y-110881853D01*
X126931179Y-110937110D01*
X126862303Y-111038008D01*
X126801100Y-111129059D01*
X126750538Y-111205730D01*
X126713588Y-111263488D01*
X126693218Y-111297803D01*
X126690157Y-111305014D01*
X126697096Y-111325508D01*
X126716011Y-111373273D01*
X126744047Y-111441592D01*
X126778351Y-111523749D01*
X126816069Y-111613030D01*
X126854347Y-111702718D01*
X126890330Y-111786098D01*
X126921166Y-111856454D01*
X126943999Y-111907070D01*
X126955977Y-111931231D01*
X126956684Y-111932182D01*
X126975491Y-111936796D01*
X127025578Y-111947088D01*
X127101753Y-111962047D01*
X127198825Y-111980661D01*
X127311603Y-112001919D01*
X127377402Y-112014178D01*
X127497910Y-112037122D01*
X127606757Y-112058955D01*
X127698436Y-112078482D01*
X127767441Y-112094508D01*
X127808264Y-112105839D01*
X127816471Y-112109434D01*
X127824508Y-112133766D01*
X127830993Y-112188719D01*
X127835930Y-112267868D01*
X127839324Y-112364786D01*
X127841178Y-112473047D01*
X127841498Y-112586225D01*
X127840287Y-112697895D01*
X127837550Y-112801628D01*
X127833291Y-112891001D01*
X127827515Y-112959586D01*
X127820227Y-113000957D01*
X127815855Y-113009570D01*
X127789724Y-113019893D01*
X127734353Y-113034652D01*
X127657067Y-113052112D01*
X127565190Y-113070540D01*
X127533118Y-113076501D01*
X127378484Y-113104826D01*
X127256335Y-113127636D01*
X127162633Y-113145840D01*
X127093344Y-113160343D01*
X127044431Y-113172052D01*
X127011857Y-113181875D01*
X126991588Y-113190716D01*
X126979586Y-113199484D01*
X126977907Y-113201217D01*
X126961144Y-113229131D01*
X126935574Y-113283455D01*
X126903748Y-113357537D01*
X126868220Y-113444725D01*
X126831543Y-113538368D01*
X126796271Y-113631812D01*
X126764956Y-113718407D01*
X126740153Y-113791500D01*
X126724414Y-113844438D01*
X126720292Y-113870571D01*
X126720636Y-113871486D01*
X126734601Y-113892846D01*
X126766282Y-113939844D01*
X126812351Y-114007587D01*
X126869478Y-114091183D01*
X126934333Y-114185742D01*
X126952803Y-114212614D01*
X127018659Y-114310035D01*
X127076610Y-114398923D01*
X127123498Y-114474172D01*
X127156167Y-114530680D01*
X127171460Y-114563341D01*
X127172201Y-114567353D01*
X127159352Y-114588444D01*
X127123848Y-114630224D01*
X127070253Y-114688205D01*
X127003131Y-114757895D01*
X126927047Y-114834805D01*
X126846564Y-114914443D01*
X126766247Y-114992321D01*
X126690659Y-115063946D01*
X126624365Y-115124830D01*
X126571929Y-115170481D01*
X126537915Y-115196410D01*
X126528505Y-115200643D01*
X126506603Y-115190672D01*
X126461760Y-115163780D01*
X126401281Y-115124496D01*
X126354749Y-115092877D01*
X126270435Y-115034858D01*
X126170586Y-114966544D01*
X126070433Y-114898339D01*
X126016587Y-114861835D01*
X125834331Y-114738560D01*
X125681341Y-114821280D01*
X125611642Y-114857519D01*
X125552374Y-114885686D01*
X125512271Y-114901751D01*
X125502063Y-114903986D01*
X125489789Y-114887482D01*
X125465573Y-114840842D01*
X125431223Y-114768369D01*
X125388548Y-114674366D01*
X125339354Y-114563134D01*
X125285450Y-114438975D01*
X125228644Y-114306192D01*
X125170742Y-114169087D01*
X125113553Y-114031962D01*
X125058884Y-113899118D01*
X125008544Y-113774858D01*
X124964340Y-113663485D01*
X124928079Y-113569299D01*
X124901569Y-113496604D01*
X124886618Y-113449701D01*
X124884214Y-113433593D01*
X124903271Y-113413046D01*
X124944996Y-113379693D01*
X125000666Y-113340462D01*
X125005338Y-113337359D01*
X125149224Y-113222183D01*
X125265243Y-113087813D01*
X125352390Y-112938544D01*
X125409659Y-112778673D01*
X125436046Y-112612497D01*
X125430545Y-112444312D01*
X125392150Y-112278415D01*
X125319855Y-112119102D01*
X125298586Y-112084247D01*
X125187956Y-111943497D01*
X125057262Y-111830474D01*
X124911024Y-111745763D01*
X124753768Y-111689954D01*
X124590017Y-111663634D01*
X124424293Y-111667390D01*
X124261122Y-111701810D01*
X124105025Y-111767483D01*
X123960527Y-111864995D01*
X123915829Y-111904573D01*
X123802072Y-112028463D01*
X123719178Y-112158884D01*
X123662316Y-112305075D01*
X123630647Y-112449848D01*
X123622829Y-112612620D01*
X123648898Y-112776200D01*
X123706205Y-112935058D01*
X123792104Y-113083666D01*
X123903946Y-113216495D01*
X124039083Y-113328016D01*
X124056843Y-113339771D01*
X124113110Y-113378268D01*
X124155883Y-113411623D01*
X124176332Y-113432920D01*
X124176629Y-113433593D01*
X124172239Y-113456631D01*
X124154836Y-113508917D01*
X124126228Y-113586150D01*
X124088225Y-113684028D01*
X124042634Y-113798251D01*
X123991263Y-113924518D01*
X123935922Y-114058527D01*
X123878418Y-114195978D01*
X123820561Y-114332568D01*
X123764158Y-114463997D01*
X123711018Y-114585965D01*
X123662950Y-114694169D01*
X123621761Y-114784309D01*
X123589261Y-114852083D01*
X123567257Y-114893190D01*
X123558396Y-114903986D01*
X123531320Y-114895579D01*
X123480657Y-114873032D01*
X123415143Y-114840373D01*
X123379119Y-114821280D01*
X123226128Y-114738560D01*
X123043872Y-114861835D01*
X122950835Y-114924988D01*
X122848975Y-114994487D01*
X122753522Y-115059925D01*
X122705710Y-115092877D01*
X122638465Y-115138033D01*
X122581524Y-115173817D01*
X122542314Y-115195698D01*
X122529579Y-115200323D01*
X122511043Y-115187845D01*
X122470019Y-115153012D01*
X122410485Y-115099438D01*
X122336418Y-115030743D01*
X122251795Y-114950541D01*
X122198275Y-114899046D01*
X122104641Y-114807046D01*
X122023719Y-114724759D01*
X121958783Y-114655705D01*
X121913102Y-114603404D01*
X121889949Y-114571376D01*
X121887728Y-114564876D01*
X121898036Y-114540154D01*
X121926521Y-114490165D01*
X121970023Y-114419972D01*
X122025383Y-114334635D01*
X122089440Y-114239216D01*
X122107657Y-114212614D01*
X122174033Y-114115927D01*
X122233582Y-114028877D01*
X122282976Y-113956355D01*
X122318885Y-113903253D01*
X122337979Y-113874463D01*
X122339824Y-113871486D01*
X122337065Y-113848542D01*
X122322422Y-113798096D01*
X122298447Y-113726801D01*
X122267694Y-113641307D01*
X122232716Y-113548267D01*
X122196067Y-113454334D01*
X122160299Y-113366159D01*
X122127966Y-113290394D01*
X122101622Y-113233691D01*
X122083818Y-113202703D01*
X122082553Y-113201217D01*
X122071666Y-113192361D01*
X122053278Y-113183603D01*
X122023354Y-113174037D01*
X121977857Y-113162756D01*
X121912751Y-113148853D01*
X121823999Y-113131423D01*
X121707567Y-113109558D01*
X121559418Y-113082351D01*
X121527342Y-113076501D01*
X121432274Y-113058134D01*
X121349395Y-113040165D01*
X121286030Y-113024329D01*
X121249502Y-113012360D01*
X121244604Y-113009570D01*
X121236533Y-112984832D01*
X121229973Y-112929550D01*
X121224927Y-112850149D01*
X121221401Y-112753056D01*
X121219399Y-112644698D01*
X121218924Y-112531500D01*
X121219983Y-112419888D01*
X121222578Y-112316289D01*
X121226714Y-112227128D01*
X121232397Y-112158832D01*
X121239629Y-112117826D01*
X121243989Y-112109434D01*
X121268262Y-112100968D01*
X121323534Y-112087195D01*
X121404298Y-112069310D01*
X121505048Y-112048508D01*
X121620277Y-112025983D01*
X121683058Y-112014178D01*
X121802173Y-111991911D01*
X121908395Y-111971739D01*
X121996533Y-111954675D01*
X122061394Y-111941729D01*
X122097786Y-111933915D01*
X122103776Y-111932182D01*
X122113899Y-111912650D01*
X122135298Y-111865603D01*
X122165121Y-111797763D01*
X122200515Y-111715851D01*
X122238628Y-111626588D01*
X122276607Y-111536695D01*
X122311600Y-111452895D01*
X122340754Y-111381907D01*
X122361217Y-111330454D01*
X122370137Y-111305257D01*
X122370303Y-111304156D01*
X122360191Y-111284279D01*
X122331843Y-111238537D01*
X122288237Y-111171477D01*
X122232354Y-111087644D01*
X122167173Y-110991586D01*
X122129281Y-110936410D01*
X122060235Y-110835241D01*
X121998910Y-110743390D01*
X121948297Y-110665504D01*
X121911389Y-110606229D01*
X121891178Y-110570211D01*
X121888259Y-110562137D01*
X121900807Y-110543344D01*
X121935497Y-110503217D01*
X121987897Y-110446253D01*
X122053576Y-110376945D01*
X122128104Y-110299791D01*
X122207047Y-110219285D01*
X122285977Y-110139923D01*
X122360460Y-110066200D01*
X122426066Y-110002612D01*
X122478364Y-109953654D01*
X122512921Y-109923821D01*
X122524482Y-109916702D01*
X122543306Y-109926713D01*
X122588329Y-109954838D01*
X122655173Y-109998214D01*
X122739461Y-110053978D01*
X122836816Y-110119266D01*
X122910253Y-110169006D01*
X123281293Y-110421311D01*
X123899865Y-110166315D01*
X123983685Y-109721691D01*
X124067506Y-109277067D01*
X124992954Y-109277067D01*
X125076774Y-109721691D01*
D13*
X87504700Y-95623100D02*
X87504700Y-96223100D01*
X86904700Y-95923100D02*
X87504700Y-95623100D01*
X87504700Y-96223100D02*
X86904700Y-95923100D01*
X75984700Y-100253100D02*
X74484700Y-100003100D01*
X75984700Y-101753100D02*
X75984700Y-100253100D01*
X74484700Y-102003100D02*
X75984700Y-101753100D01*
X74484700Y-100003100D02*
X74484700Y-102003100D01*
X75984700Y-95173100D02*
X74484700Y-94923100D01*
X75984700Y-96673100D02*
X75984700Y-95173100D01*
X74484700Y-96923100D02*
X75984700Y-96673100D01*
X74484700Y-94923100D02*
X74484700Y-96923100D01*
X75984700Y-105333100D02*
X74484700Y-105083100D01*
X75984700Y-106833100D02*
X75984700Y-105333100D01*
X74484700Y-107083100D02*
X75984700Y-106833100D01*
X74484700Y-105083100D02*
X74484700Y-107083100D01*
X75984700Y-90093100D02*
X74484700Y-89843100D01*
X75984700Y-91593100D02*
X75984700Y-90093100D01*
X74484700Y-91843100D02*
X75984700Y-91593100D01*
X74484700Y-89843100D02*
X74484700Y-91843100D01*
X75984700Y-108733100D02*
X75984700Y-88193100D01*
X77784700Y-108733100D02*
X75984700Y-108733100D01*
X77784700Y-88193100D02*
X77784700Y-108733100D01*
X75984700Y-88193100D02*
X77784700Y-88193100D01*
X86704700Y-108733100D02*
X86704700Y-88193100D01*
X74484700Y-108733100D02*
X86704700Y-108733100D01*
X74484700Y-88193100D02*
X74484700Y-108733100D01*
X86704700Y-88193100D02*
X74484700Y-88193100D01*
X127027780Y-75905360D02*
X127027780Y-79355360D01*
X127027780Y-75905360D02*
X127027780Y-73955360D01*
X135897780Y-75905360D02*
X135897780Y-77855360D01*
X135897780Y-75905360D02*
X135897780Y-73955360D01*
X120175020Y-69941760D02*
X116725020Y-69941760D01*
X120175020Y-69941760D02*
X122125020Y-69941760D01*
X120175020Y-75061760D02*
X118225020Y-75061760D01*
X120175020Y-75061760D02*
X122125020Y-75061760D01*
X100282800Y-95559300D02*
X101382800Y-95559300D01*
X100282800Y-94609300D02*
X100282800Y-95559300D01*
X98782800Y-94609300D02*
X100282800Y-94609300D01*
X100282800Y-104059300D02*
X105407800Y-104059300D01*
X100282800Y-105009300D02*
X100282800Y-104059300D01*
X98782800Y-105009300D02*
X100282800Y-105009300D01*
X99437120Y-74394428D02*
X99437120Y-74916932D01*
X100857120Y-74394428D02*
X100857120Y-74916932D01*
X107092680Y-74394428D02*
X107092680Y-74916932D01*
X108512680Y-74394428D02*
X108512680Y-74916932D01*
X86856388Y-113348840D02*
X87378892Y-113348840D01*
X86856388Y-111928840D02*
X87378892Y-111928840D01*
X117860712Y-75507780D02*
X117338208Y-75507780D01*
X117860712Y-76927780D02*
X117338208Y-76927780D01*
X132908408Y-111481940D02*
X133430912Y-111481940D01*
X132908408Y-110061940D02*
X133430912Y-110061940D01*
X132922488Y-113991460D02*
X133444992Y-113991460D01*
X132922488Y-112571460D02*
X133444992Y-112571460D01*
X88977160Y-86058700D02*
X90307160Y-86058700D01*
X88977160Y-87388700D02*
X88977160Y-86058700D01*
X88977160Y-88658700D02*
X91637160Y-88658700D01*
X91637160Y-88658700D02*
X91637160Y-91258700D01*
X88977160Y-88658700D02*
X88977160Y-91258700D01*
X88977160Y-91258700D02*
X91637160Y-91258700D01*
X109295400Y-94055400D02*
X112295400Y-94055400D01*
X109295400Y-106655400D02*
X109295400Y-94055400D01*
X112295400Y-106655400D02*
X109295400Y-106655400D01*
X121895400Y-106655400D02*
X118895400Y-106655400D01*
X121895400Y-94055400D02*
X121895400Y-106655400D01*
X118895400Y-94055400D02*
X121895400Y-94055400D01*
X145155320Y-87119680D02*
X145155320Y-86719680D01*
X144515320Y-87119680D02*
X145155320Y-87119680D01*
X141296320Y-75714680D02*
X141424320Y-75843680D01*
X139080320Y-73499680D02*
X139174320Y-73593680D01*
X141536320Y-75544680D02*
X141629320Y-75638680D01*
X139286320Y-73294680D02*
X139414320Y-73423680D01*
X141296320Y-79214680D02*
X141424320Y-79343680D01*
X139080320Y-76999680D02*
X139174320Y-77093680D01*
X141536320Y-79044680D02*
X141629320Y-79138680D01*
X139286320Y-76794680D02*
X139414320Y-76923680D01*
X141296320Y-82714680D02*
X141424320Y-82843680D01*
X139080320Y-80499680D02*
X139174320Y-80593680D01*
X141536320Y-82544680D02*
X141629320Y-82638680D01*
X139286320Y-80294680D02*
X139414320Y-80423680D01*
X137195320Y-72759680D02*
X144915320Y-72759680D01*
X137195320Y-86879680D02*
X144915320Y-86879680D01*
X144915320Y-86879680D02*
X144915320Y-72759680D01*
X137195320Y-86879680D02*
X137195320Y-72759680D01*
X143355320Y-86879680D02*
X143355320Y-72759680D01*
X144455320Y-86879680D02*
X144455320Y-72759680D01*
X142035320Y-74569680D02*
G75*
G03X142035320Y-74569680I-1680000J0D01*
G01*
X142035320Y-78069680D02*
G75*
G03X142035320Y-78069680I-1680000J0D01*
G01*
X142035320Y-81569680D02*
G75*
G03X142035320Y-81569680I-1680000J0D01*
G01*
X142035419Y-85041006D02*
G75*
G02X141795320Y-85935680I-1680099J-28674D01*
G01*
X141245214Y-86495038D02*
G75*
G02X139489320Y-86509680I-889894J1425358D01*
G01*
X138929962Y-85959574D02*
G75*
G02X138915320Y-84203680I1425358J889894D01*
G01*
X139465127Y-83644175D02*
G75*
G02X141246320Y-83644680I890193J-1425505D01*
G01*
X141780041Y-84179416D02*
G75*
G02X142035320Y-85069680I-1424721J-890264D01*
G01*
X76817820Y-71282460D02*
X76817820Y-71682460D01*
X77457820Y-71282460D02*
X76817820Y-71282460D01*
X80676820Y-82687460D02*
X80548820Y-82558460D01*
X82892820Y-84902460D02*
X82798820Y-84808460D01*
X80436820Y-82857460D02*
X80343820Y-82763460D01*
X82686820Y-85107460D02*
X82558820Y-84978460D01*
X80676820Y-79187460D02*
X80548820Y-79058460D01*
X82892820Y-81402460D02*
X82798820Y-81308460D01*
X80436820Y-79357460D02*
X80343820Y-79263460D01*
X82686820Y-81607460D02*
X82558820Y-81478460D01*
X80676820Y-75687460D02*
X80548820Y-75558460D01*
X82892820Y-77902460D02*
X82798820Y-77808460D01*
X80436820Y-75857460D02*
X80343820Y-75763460D01*
X82686820Y-78107460D02*
X82558820Y-77978460D01*
X84777820Y-85642460D02*
X77057820Y-85642460D01*
X84777820Y-71522460D02*
X77057820Y-71522460D01*
X77057820Y-71522460D02*
X77057820Y-85642460D01*
X84777820Y-71522460D02*
X84777820Y-85642460D01*
X78617820Y-71522460D02*
X78617820Y-85642460D01*
X77517820Y-71522460D02*
X77517820Y-85642460D01*
X83297820Y-83832460D02*
G75*
G03X83297820Y-83832460I-1680000J0D01*
G01*
X83297820Y-80332460D02*
G75*
G03X83297820Y-80332460I-1680000J0D01*
G01*
X83297820Y-76832460D02*
G75*
G03X83297820Y-76832460I-1680000J0D01*
G01*
X79937721Y-73361134D02*
G75*
G02X80177820Y-72466460I1680099J28674D01*
G01*
X80727926Y-71907102D02*
G75*
G02X82483820Y-71892460I889894J-1425358D01*
G01*
X83043178Y-72442566D02*
G75*
G02X83057820Y-74198460I-1425358J-889894D01*
G01*
X82508013Y-74757965D02*
G75*
G02X80726820Y-74757460I-890193J1425505D01*
G01*
X80193099Y-74222724D02*
G75*
G02X79937820Y-73332460I1424721J890264D01*
G01*
X145155320Y-103426360D02*
X145155320Y-103026360D01*
X144515320Y-103426360D02*
X145155320Y-103426360D01*
X141296320Y-92021360D02*
X141424320Y-92150360D01*
X139080320Y-89806360D02*
X139174320Y-89900360D01*
X141536320Y-91851360D02*
X141629320Y-91945360D01*
X139286320Y-89601360D02*
X139414320Y-89730360D01*
X141296320Y-95521360D02*
X141424320Y-95650360D01*
X139080320Y-93306360D02*
X139174320Y-93400360D01*
X141536320Y-95351360D02*
X141629320Y-95445360D01*
X139286320Y-93101360D02*
X139414320Y-93230360D01*
X141296320Y-99021360D02*
X141424320Y-99150360D01*
X139080320Y-96806360D02*
X139174320Y-96900360D01*
X141536320Y-98851360D02*
X141629320Y-98945360D01*
X139286320Y-96601360D02*
X139414320Y-96730360D01*
X137195320Y-89066360D02*
X144915320Y-89066360D01*
X137195320Y-103186360D02*
X144915320Y-103186360D01*
X144915320Y-103186360D02*
X144915320Y-89066360D01*
X137195320Y-103186360D02*
X137195320Y-89066360D01*
X143355320Y-103186360D02*
X143355320Y-89066360D01*
X144455320Y-103186360D02*
X144455320Y-89066360D01*
X142035320Y-90876360D02*
G75*
G03X142035320Y-90876360I-1680000J0D01*
G01*
X142035320Y-94376360D02*
G75*
G03X142035320Y-94376360I-1680000J0D01*
G01*
X142035320Y-97876360D02*
G75*
G03X142035320Y-97876360I-1680000J0D01*
G01*
X142035419Y-101347686D02*
G75*
G02X141795320Y-102242360I-1680099J-28674D01*
G01*
X141245214Y-102801718D02*
G75*
G02X139489320Y-102816360I-889894J1425358D01*
G01*
X138929962Y-102266254D02*
G75*
G02X138915320Y-100510360I1425358J889894D01*
G01*
X139465127Y-99950855D02*
G75*
G02X141246320Y-99951360I890193J-1425505D01*
G01*
X141780041Y-100486096D02*
G75*
G02X142035320Y-101376360I-1424721J-890264D01*
G01*
D10*
X116749200Y-116514000D02*
X116749200Y-107514000D01*
X116749200Y-107514000D02*
X89249200Y-107514000D01*
X89249200Y-107514000D02*
X89249200Y-116514000D01*
X89249200Y-116514000D02*
X116749200Y-116514000D01*
D13*
X103574546Y-76493180D02*
X103574546Y-73633180D01*
X101654546Y-76493180D02*
X103574546Y-76493180D01*
X101654546Y-73633180D02*
X101654546Y-76493180D01*
X106180952Y-76493180D02*
X106180952Y-73633180D01*
X104260952Y-76493180D02*
X106180952Y-76493180D01*
X104260952Y-73633180D02*
X104260952Y-76493180D01*
X85302640Y-116397920D02*
X88162640Y-116397920D01*
X85302640Y-114477920D02*
X85302640Y-116397920D01*
X88162640Y-114477920D02*
X85302640Y-114477920D01*
X117082120Y-92267500D02*
X118332120Y-92267500D01*
X117707120Y-92892500D02*
X117707120Y-91642500D01*
X124762683Y-91402500D02*
X125827120Y-90338063D01*
X116171557Y-91402500D02*
X115107120Y-90338063D01*
X116171557Y-91402500D02*
X118957120Y-91402500D01*
X124762683Y-91402500D02*
X121977120Y-91402500D01*
X125827120Y-90338063D02*
X125827120Y-80682500D01*
X115107120Y-90338063D02*
X115107120Y-80682500D01*
X115107120Y-80682500D02*
X118957120Y-80682500D01*
X125827120Y-80682500D02*
X121977120Y-80682500D01*
X125019340Y-74408213D02*
X125019340Y-74750747D01*
X126039340Y-74408213D02*
X126039340Y-74750747D01*
X121903673Y-76727780D02*
X122246207Y-76727780D01*
X121903673Y-75707780D02*
X122246207Y-75707780D01*
X95929900Y-71791100D02*
X94679900Y-71791100D01*
X95304900Y-71166100D02*
X95304900Y-72416100D01*
X88249337Y-72656100D02*
X87184900Y-73720537D01*
X96840463Y-72656100D02*
X97904900Y-73720537D01*
X96840463Y-72656100D02*
X94054900Y-72656100D01*
X88249337Y-72656100D02*
X91034900Y-72656100D01*
X87184900Y-73720537D02*
X87184900Y-83376100D01*
X97904900Y-73720537D02*
X97904900Y-83376100D01*
X97904900Y-83376100D02*
X94054900Y-83376100D01*
X87184900Y-83376100D02*
X91034900Y-83376100D01*
X106886940Y-104762668D02*
X106886940Y-105285172D01*
X108306940Y-104762668D02*
X108306940Y-105285172D01*
X124814320Y-108351429D02*
X126114320Y-108351429D01*
X125464320Y-109001429D02*
X125464320Y-107701429D01*
X128704320Y-95315860D02*
X129654320Y-95315860D01*
X128329320Y-95355860D02*
X130029320Y-95355860D01*
X128072320Y-95395860D02*
X130286320Y-95395860D01*
X127864320Y-95435860D02*
X130494320Y-95435860D01*
X127685320Y-95475860D02*
X130673320Y-95475860D01*
X127526320Y-95515860D02*
X130832320Y-95515860D01*
X127381320Y-95555860D02*
X130977320Y-95555860D01*
X127248320Y-95595860D02*
X131110320Y-95595860D01*
X127124320Y-95635860D02*
X131234320Y-95635860D01*
X127008320Y-95675860D02*
X131350320Y-95675860D01*
X126898320Y-95715860D02*
X131460320Y-95715860D01*
X126794320Y-95755860D02*
X131564320Y-95755860D01*
X126695320Y-95795860D02*
X131663320Y-95795860D01*
X126600320Y-95835860D02*
X131758320Y-95835860D01*
X126509320Y-95875860D02*
X131849320Y-95875860D01*
X126421320Y-95915860D02*
X131937320Y-95915860D01*
X126337320Y-95955860D02*
X132021320Y-95955860D01*
X126256320Y-95995860D02*
X132102320Y-95995860D01*
X126177320Y-96035860D02*
X132181320Y-96035860D01*
X126101320Y-96075860D02*
X132257320Y-96075860D01*
X126027320Y-96115860D02*
X132331320Y-96115860D01*
X125956320Y-96155860D02*
X132402320Y-96155860D01*
X125886320Y-96195860D02*
X132472320Y-96195860D01*
X125818320Y-96235860D02*
X132540320Y-96235860D01*
X125752320Y-96275860D02*
X132606320Y-96275860D01*
X125688320Y-96315860D02*
X132670320Y-96315860D01*
X125625320Y-96355860D02*
X132733320Y-96355860D01*
X125564320Y-96395860D02*
X132794320Y-96395860D01*
X125504320Y-96435860D02*
X132854320Y-96435860D01*
X125446320Y-96475860D02*
X132912320Y-96475860D01*
X125389320Y-96515860D02*
X132969320Y-96515860D01*
X125333320Y-96555860D02*
X133025320Y-96555860D01*
X125279320Y-96595860D02*
X133079320Y-96595860D01*
X125225320Y-96635860D02*
X133133320Y-96635860D01*
X125173320Y-96675860D02*
X133185320Y-96675860D01*
X125122320Y-96715860D02*
X133236320Y-96715860D01*
X125071320Y-96755860D02*
X133287320Y-96755860D01*
X125022320Y-96795860D02*
X133336320Y-96795860D01*
X124974320Y-96835860D02*
X133384320Y-96835860D01*
X124926320Y-96875860D02*
X133432320Y-96875860D01*
X124880320Y-96915860D02*
X133478320Y-96915860D01*
X124834320Y-96955860D02*
X133524320Y-96955860D01*
X124789320Y-96995860D02*
X133569320Y-96995860D01*
X124745320Y-97035860D02*
X133613320Y-97035860D01*
X124702320Y-97075860D02*
X133656320Y-97075860D01*
X124660320Y-97115860D02*
X133698320Y-97115860D01*
X124618320Y-97155860D02*
X133740320Y-97155860D01*
X124577320Y-97195860D02*
X133781320Y-97195860D01*
X124536320Y-97235860D02*
X133822320Y-97235860D01*
X124497320Y-97275860D02*
X133861320Y-97275860D01*
X124458320Y-97315860D02*
X133900320Y-97315860D01*
X124419320Y-97355860D02*
X133939320Y-97355860D01*
X124382320Y-97395860D02*
X133976320Y-97395860D01*
X124345320Y-97435860D02*
X134013320Y-97435860D01*
X124308320Y-97475860D02*
X134050320Y-97475860D01*
X124272320Y-97515860D02*
X134086320Y-97515860D01*
X124237320Y-97555860D02*
X134121320Y-97555860D01*
X124202320Y-97595860D02*
X134156320Y-97595860D01*
X124168320Y-97635860D02*
X134190320Y-97635860D01*
X124135320Y-97675860D02*
X134223320Y-97675860D01*
X124101320Y-97715860D02*
X134257320Y-97715860D01*
X124069320Y-97755860D02*
X134289320Y-97755860D01*
X124037320Y-97795860D02*
X134321320Y-97795860D01*
X124005320Y-97835860D02*
X134353320Y-97835860D01*
X123974320Y-97875860D02*
X134384320Y-97875860D01*
X123944320Y-97915860D02*
X134414320Y-97915860D01*
X123914320Y-97955860D02*
X134444320Y-97955860D01*
X130619320Y-97995860D02*
X134474320Y-97995860D01*
X123884320Y-97995860D02*
X127739320Y-97995860D01*
X130619320Y-98035860D02*
X134503320Y-98035860D01*
X123855320Y-98035860D02*
X127739320Y-98035860D01*
X130619320Y-98075860D02*
X134532320Y-98075860D01*
X123826320Y-98075860D02*
X127739320Y-98075860D01*
X130619320Y-98115860D02*
X134560320Y-98115860D01*
X123798320Y-98115860D02*
X127739320Y-98115860D01*
X130619320Y-98155860D02*
X134588320Y-98155860D01*
X123770320Y-98155860D02*
X127739320Y-98155860D01*
X130619320Y-98195860D02*
X134615320Y-98195860D01*
X123743320Y-98195860D02*
X127739320Y-98195860D01*
X130619320Y-98235860D02*
X134642320Y-98235860D01*
X123716320Y-98235860D02*
X127739320Y-98235860D01*
X130619320Y-98275860D02*
X134669320Y-98275860D01*
X123689320Y-98275860D02*
X127739320Y-98275860D01*
X130619320Y-98315860D02*
X134695320Y-98315860D01*
X123663320Y-98315860D02*
X127739320Y-98315860D01*
X130619320Y-98355860D02*
X134721320Y-98355860D01*
X123637320Y-98355860D02*
X127739320Y-98355860D01*
X130619320Y-98395860D02*
X134746320Y-98395860D01*
X123612320Y-98395860D02*
X127739320Y-98395860D01*
X130619320Y-98435860D02*
X134771320Y-98435860D01*
X123587320Y-98435860D02*
X127739320Y-98435860D01*
X130619320Y-98475860D02*
X134796320Y-98475860D01*
X123562320Y-98475860D02*
X127739320Y-98475860D01*
X130619320Y-98515860D02*
X134820320Y-98515860D01*
X123538320Y-98515860D02*
X127739320Y-98515860D01*
X130619320Y-98555860D02*
X134843320Y-98555860D01*
X123515320Y-98555860D02*
X127739320Y-98555860D01*
X130619320Y-98595860D02*
X134867320Y-98595860D01*
X123491320Y-98595860D02*
X127739320Y-98595860D01*
X130619320Y-98635860D02*
X134890320Y-98635860D01*
X123468320Y-98635860D02*
X127739320Y-98635860D01*
X130619320Y-98675860D02*
X134912320Y-98675860D01*
X123446320Y-98675860D02*
X127739320Y-98675860D01*
X130619320Y-98715860D02*
X134935320Y-98715860D01*
X123423320Y-98715860D02*
X127739320Y-98715860D01*
X130619320Y-98755860D02*
X134957320Y-98755860D01*
X123401320Y-98755860D02*
X127739320Y-98755860D01*
X130619320Y-98795860D02*
X134978320Y-98795860D01*
X123380320Y-98795860D02*
X127739320Y-98795860D01*
X130619320Y-98835860D02*
X134999320Y-98835860D01*
X123359320Y-98835860D02*
X127739320Y-98835860D01*
X130619320Y-98875860D02*
X135020320Y-98875860D01*
X123338320Y-98875860D02*
X127739320Y-98875860D01*
X130619320Y-98915860D02*
X135041320Y-98915860D01*
X123317320Y-98915860D02*
X127739320Y-98915860D01*
X130619320Y-98955860D02*
X135061320Y-98955860D01*
X123297320Y-98955860D02*
X127739320Y-98955860D01*
X130619320Y-98995860D02*
X135081320Y-98995860D01*
X123277320Y-98995860D02*
X127739320Y-98995860D01*
X130619320Y-99035860D02*
X135100320Y-99035860D01*
X123258320Y-99035860D02*
X127739320Y-99035860D01*
X130619320Y-99075860D02*
X135119320Y-99075860D01*
X123239320Y-99075860D02*
X127739320Y-99075860D01*
X130619320Y-99115860D02*
X135138320Y-99115860D01*
X123220320Y-99115860D02*
X127739320Y-99115860D01*
X130619320Y-99155860D02*
X135157320Y-99155860D01*
X123201320Y-99155860D02*
X127739320Y-99155860D01*
X130619320Y-99195860D02*
X135175320Y-99195860D01*
X123183320Y-99195860D02*
X127739320Y-99195860D01*
X130619320Y-99235860D02*
X135193320Y-99235860D01*
X123165320Y-99235860D02*
X127739320Y-99235860D01*
X130619320Y-99275860D02*
X135210320Y-99275860D01*
X123148320Y-99275860D02*
X127739320Y-99275860D01*
X130619320Y-99315860D02*
X135228320Y-99315860D01*
X123130320Y-99315860D02*
X127739320Y-99315860D01*
X130619320Y-99355860D02*
X135244320Y-99355860D01*
X123114320Y-99355860D02*
X127739320Y-99355860D01*
X130619320Y-99395860D02*
X135261320Y-99395860D01*
X123097320Y-99395860D02*
X127739320Y-99395860D01*
X130619320Y-99435860D02*
X135277320Y-99435860D01*
X123081320Y-99435860D02*
X127739320Y-99435860D01*
X130619320Y-99475860D02*
X135293320Y-99475860D01*
X123065320Y-99475860D02*
X127739320Y-99475860D01*
X130619320Y-99515860D02*
X135309320Y-99515860D01*
X123049320Y-99515860D02*
X127739320Y-99515860D01*
X130619320Y-99555860D02*
X135325320Y-99555860D01*
X123033320Y-99555860D02*
X127739320Y-99555860D01*
X130619320Y-99595860D02*
X135340320Y-99595860D01*
X123018320Y-99595860D02*
X127739320Y-99595860D01*
X130619320Y-99635860D02*
X135354320Y-99635860D01*
X123004320Y-99635860D02*
X127739320Y-99635860D01*
X130619320Y-99675860D02*
X135369320Y-99675860D01*
X122989320Y-99675860D02*
X127739320Y-99675860D01*
X130619320Y-99715860D02*
X135383320Y-99715860D01*
X122975320Y-99715860D02*
X127739320Y-99715860D01*
X130619320Y-99755860D02*
X135397320Y-99755860D01*
X122961320Y-99755860D02*
X127739320Y-99755860D01*
X130619320Y-99795860D02*
X135411320Y-99795860D01*
X122947320Y-99795860D02*
X127739320Y-99795860D01*
X130619320Y-99835860D02*
X135424320Y-99835860D01*
X122934320Y-99835860D02*
X127739320Y-99835860D01*
X130619320Y-99875860D02*
X135437320Y-99875860D01*
X122921320Y-99875860D02*
X127739320Y-99875860D01*
X130619320Y-99915860D02*
X135450320Y-99915860D01*
X122908320Y-99915860D02*
X127739320Y-99915860D01*
X130619320Y-99955860D02*
X135463320Y-99955860D01*
X122895320Y-99955860D02*
X127739320Y-99955860D01*
X130619320Y-99995860D02*
X135475320Y-99995860D01*
X122883320Y-99995860D02*
X127739320Y-99995860D01*
X130619320Y-100035860D02*
X135487320Y-100035860D01*
X122871320Y-100035860D02*
X127739320Y-100035860D01*
X130619320Y-100075860D02*
X135499320Y-100075860D01*
X122859320Y-100075860D02*
X127739320Y-100075860D01*
X130619320Y-100115860D02*
X135510320Y-100115860D01*
X122848320Y-100115860D02*
X127739320Y-100115860D01*
X130619320Y-100155860D02*
X135521320Y-100155860D01*
X122837320Y-100155860D02*
X127739320Y-100155860D01*
X130619320Y-100195860D02*
X135532320Y-100195860D01*
X122826320Y-100195860D02*
X127739320Y-100195860D01*
X130619320Y-100235860D02*
X135543320Y-100235860D01*
X122815320Y-100235860D02*
X127739320Y-100235860D01*
X130619320Y-100275860D02*
X135553320Y-100275860D01*
X122805320Y-100275860D02*
X127739320Y-100275860D01*
X130619320Y-100315860D02*
X135563320Y-100315860D01*
X122795320Y-100315860D02*
X127739320Y-100315860D01*
X130619320Y-100355860D02*
X135573320Y-100355860D01*
X122785320Y-100355860D02*
X127739320Y-100355860D01*
X130619320Y-100395860D02*
X135583320Y-100395860D01*
X122775320Y-100395860D02*
X127739320Y-100395860D01*
X130619320Y-100435860D02*
X135592320Y-100435860D01*
X122766320Y-100435860D02*
X127739320Y-100435860D01*
X130619320Y-100475860D02*
X135601320Y-100475860D01*
X122757320Y-100475860D02*
X127739320Y-100475860D01*
X130619320Y-100515860D02*
X135610320Y-100515860D01*
X122748320Y-100515860D02*
X127739320Y-100515860D01*
X130619320Y-100555860D02*
X135618320Y-100555860D01*
X122740320Y-100555860D02*
X127739320Y-100555860D01*
X130619320Y-100595860D02*
X135627320Y-100595860D01*
X122731320Y-100595860D02*
X127739320Y-100595860D01*
X130619320Y-100635860D02*
X135635320Y-100635860D01*
X122723320Y-100635860D02*
X127739320Y-100635860D01*
X130619320Y-100675860D02*
X135642320Y-100675860D01*
X122716320Y-100675860D02*
X127739320Y-100675860D01*
X130619320Y-100715860D02*
X135650320Y-100715860D01*
X122708320Y-100715860D02*
X127739320Y-100715860D01*
X130619320Y-100755860D02*
X135657320Y-100755860D01*
X122701320Y-100755860D02*
X127739320Y-100755860D01*
X130619320Y-100795860D02*
X135664320Y-100795860D01*
X122694320Y-100795860D02*
X127739320Y-100795860D01*
X130619320Y-100835860D02*
X135671320Y-100835860D01*
X122687320Y-100835860D02*
X127739320Y-100835860D01*
X122681320Y-100875860D02*
X135677320Y-100875860D01*
X122674320Y-100915860D02*
X135684320Y-100915860D01*
X122668320Y-100955860D02*
X135690320Y-100955860D01*
X122663320Y-100995860D02*
X135695320Y-100995860D01*
X122657320Y-101035860D02*
X135701320Y-101035860D01*
X122652320Y-101075860D02*
X135706320Y-101075860D01*
X122647320Y-101115860D02*
X135711320Y-101115860D01*
X122642320Y-101155860D02*
X135716320Y-101155860D01*
X122638320Y-101195860D02*
X135720320Y-101195860D01*
X122634320Y-101236860D02*
X135724320Y-101236860D01*
X122630320Y-101276860D02*
X135728320Y-101276860D01*
X122626320Y-101316860D02*
X135732320Y-101316860D01*
X122622320Y-101356860D02*
X135736320Y-101356860D01*
X122619320Y-101396860D02*
X135739320Y-101396860D01*
X122616320Y-101436860D02*
X135742320Y-101436860D01*
X122613320Y-101476860D02*
X135745320Y-101476860D01*
X122611320Y-101516860D02*
X135747320Y-101516860D01*
X122608320Y-101556860D02*
X135750320Y-101556860D01*
X122606320Y-101596860D02*
X135752320Y-101596860D01*
X122604320Y-101636860D02*
X135754320Y-101636860D01*
X122603320Y-101676860D02*
X135755320Y-101676860D01*
X122602320Y-101716860D02*
X135756320Y-101716860D01*
X122600320Y-101756860D02*
X135758320Y-101756860D01*
X122600320Y-101796860D02*
X135758320Y-101796860D01*
X122599320Y-101836860D02*
X135759320Y-101836860D01*
X122599320Y-101876860D02*
X135759320Y-101876860D01*
X122599320Y-101916860D02*
X135759320Y-101916860D01*
X135799320Y-101916860D02*
G75*
G03X135799320Y-101916860I-6620000J0D01*
G01*
D10*
X87621786Y-98039940D02*
X87621786Y-98754226D01*
X87574167Y-98897083D01*
X87478929Y-98992321D01*
X87336072Y-99039940D01*
X87240834Y-99039940D01*
X88621786Y-99039940D02*
X88050358Y-99039940D01*
X88336072Y-99039940D02*
X88336072Y-98039940D01*
X88240834Y-98182798D01*
X88145596Y-98278036D01*
X88050358Y-98325655D01*
X130337655Y-79988160D02*
X130337655Y-80797684D01*
X130385274Y-80892922D01*
X130432893Y-80940541D01*
X130528131Y-80988160D01*
X130718607Y-80988160D01*
X130813845Y-80940541D01*
X130861464Y-80892922D01*
X130909083Y-80797684D01*
X130909083Y-79988160D01*
X131861464Y-79988160D02*
X131385274Y-79988160D01*
X131337655Y-80464351D01*
X131385274Y-80416732D01*
X131480512Y-80369113D01*
X131718607Y-80369113D01*
X131813845Y-80416732D01*
X131861464Y-80464351D01*
X131909083Y-80559589D01*
X131909083Y-80797684D01*
X131861464Y-80892922D01*
X131813845Y-80940541D01*
X131718607Y-80988160D01*
X131480512Y-80988160D01*
X131385274Y-80940541D01*
X131337655Y-80892922D01*
X121269855Y-77270360D02*
X121269855Y-78079884D01*
X121317474Y-78175122D01*
X121365093Y-78222741D01*
X121460331Y-78270360D01*
X121650807Y-78270360D01*
X121746045Y-78222741D01*
X121793664Y-78175122D01*
X121841283Y-78079884D01*
X121841283Y-77270360D01*
X122746045Y-77603694D02*
X122746045Y-78270360D01*
X122507950Y-77222741D02*
X122269855Y-77937027D01*
X122888902Y-77937027D01*
X96570895Y-105911680D02*
X96570895Y-106721204D01*
X96618514Y-106816442D01*
X96666133Y-106864061D01*
X96761371Y-106911680D01*
X96951847Y-106911680D01*
X97047085Y-106864061D01*
X97094704Y-106816442D01*
X97142323Y-106721204D01*
X97142323Y-105911680D01*
X97523276Y-105911680D02*
X98142323Y-105911680D01*
X97808990Y-106292633D01*
X97951847Y-106292633D01*
X98047085Y-106340252D01*
X98094704Y-106387871D01*
X98142323Y-106483109D01*
X98142323Y-106721204D01*
X98094704Y-106816442D01*
X98047085Y-106864061D01*
X97951847Y-106911680D01*
X97666133Y-106911680D01*
X97570895Y-106864061D01*
X97523276Y-106816442D01*
X102359222Y-77846180D02*
X102025889Y-77369990D01*
X101787794Y-77846180D02*
X101787794Y-76846180D01*
X102168746Y-76846180D01*
X102263984Y-76893800D01*
X102311603Y-76941419D01*
X102359222Y-77036657D01*
X102359222Y-77179514D01*
X102311603Y-77274752D01*
X102263984Y-77322371D01*
X102168746Y-77369990D01*
X101787794Y-77369990D01*
X103311603Y-77846180D02*
X102740175Y-77846180D01*
X103025889Y-77846180D02*
X103025889Y-76846180D01*
X102930651Y-76989038D01*
X102835413Y-77084276D01*
X102740175Y-77131895D01*
X104168746Y-76846180D02*
X103978270Y-76846180D01*
X103883032Y-76893800D01*
X103835413Y-76941419D01*
X103740175Y-77084276D01*
X103692556Y-77274752D01*
X103692556Y-77655704D01*
X103740175Y-77750942D01*
X103787794Y-77798561D01*
X103883032Y-77846180D01*
X104073508Y-77846180D01*
X104168746Y-77798561D01*
X104216365Y-77750942D01*
X104263984Y-77655704D01*
X104263984Y-77417609D01*
X104216365Y-77322371D01*
X104168746Y-77274752D01*
X104073508Y-77227133D01*
X103883032Y-77227133D01*
X103787794Y-77274752D01*
X103740175Y-77322371D01*
X103692556Y-77417609D01*
X107548442Y-77846180D02*
X107215109Y-77369990D01*
X106977014Y-77846180D02*
X106977014Y-76846180D01*
X107357966Y-76846180D01*
X107453204Y-76893800D01*
X107500823Y-76941419D01*
X107548442Y-77036657D01*
X107548442Y-77179514D01*
X107500823Y-77274752D01*
X107453204Y-77322371D01*
X107357966Y-77369990D01*
X106977014Y-77369990D01*
X108500823Y-77846180D02*
X107929395Y-77846180D01*
X108215109Y-77846180D02*
X108215109Y-76846180D01*
X108119871Y-76989038D01*
X108024633Y-77084276D01*
X107929395Y-77131895D01*
X109405585Y-76846180D02*
X108929395Y-76846180D01*
X108881776Y-77322371D01*
X108929395Y-77274752D01*
X109024633Y-77227133D01*
X109262728Y-77227133D01*
X109357966Y-77274752D01*
X109405585Y-77322371D01*
X109453204Y-77417609D01*
X109453204Y-77655704D01*
X109405585Y-77750942D01*
X109357966Y-77798561D01*
X109262728Y-77846180D01*
X109024633Y-77846180D01*
X108929395Y-77798561D01*
X108881776Y-77750942D01*
X86950973Y-111441220D02*
X86617640Y-110965030D01*
X86379544Y-111441220D02*
X86379544Y-110441220D01*
X86760497Y-110441220D01*
X86855735Y-110488840D01*
X86903354Y-110536459D01*
X86950973Y-110631697D01*
X86950973Y-110774554D01*
X86903354Y-110869792D01*
X86855735Y-110917411D01*
X86760497Y-110965030D01*
X86379544Y-110965030D01*
X87427163Y-111441220D02*
X87617640Y-111441220D01*
X87712878Y-111393601D01*
X87760497Y-111345982D01*
X87855735Y-111203125D01*
X87903354Y-111012649D01*
X87903354Y-110631697D01*
X87855735Y-110536459D01*
X87808116Y-110488840D01*
X87712878Y-110441220D01*
X87522401Y-110441220D01*
X87427163Y-110488840D01*
X87379544Y-110536459D01*
X87331925Y-110631697D01*
X87331925Y-110869792D01*
X87379544Y-110965030D01*
X87427163Y-111012649D01*
X87522401Y-111060268D01*
X87712878Y-111060268D01*
X87808116Y-111012649D01*
X87855735Y-110965030D01*
X87903354Y-110869792D01*
X117432793Y-78270360D02*
X117099460Y-77794170D01*
X116861364Y-78270360D02*
X116861364Y-77270360D01*
X117242317Y-77270360D01*
X117337555Y-77317980D01*
X117385174Y-77365599D01*
X117432793Y-77460837D01*
X117432793Y-77603694D01*
X117385174Y-77698932D01*
X117337555Y-77746551D01*
X117242317Y-77794170D01*
X116861364Y-77794170D01*
X118004221Y-77698932D02*
X117908983Y-77651313D01*
X117861364Y-77603694D01*
X117813745Y-77508456D01*
X117813745Y-77460837D01*
X117861364Y-77365599D01*
X117908983Y-77317980D01*
X118004221Y-77270360D01*
X118194698Y-77270360D01*
X118289936Y-77317980D01*
X118337555Y-77365599D01*
X118385174Y-77460837D01*
X118385174Y-77508456D01*
X118337555Y-77603694D01*
X118289936Y-77651313D01*
X118194698Y-77698932D01*
X118004221Y-77698932D01*
X117908983Y-77746551D01*
X117861364Y-77794170D01*
X117813745Y-77889408D01*
X117813745Y-78079884D01*
X117861364Y-78175122D01*
X117908983Y-78222741D01*
X118004221Y-78270360D01*
X118194698Y-78270360D01*
X118289936Y-78222741D01*
X118337555Y-78175122D01*
X118385174Y-78079884D01*
X118385174Y-77889408D01*
X118337555Y-77794170D01*
X118289936Y-77746551D01*
X118194698Y-77698932D01*
X132967433Y-109471720D02*
X132634100Y-108995530D01*
X132396004Y-109471720D02*
X132396004Y-108471720D01*
X132776957Y-108471720D01*
X132872195Y-108519340D01*
X132919814Y-108566959D01*
X132967433Y-108662197D01*
X132967433Y-108805054D01*
X132919814Y-108900292D01*
X132872195Y-108947911D01*
X132776957Y-108995530D01*
X132396004Y-108995530D01*
X133348385Y-108566959D02*
X133396004Y-108519340D01*
X133491242Y-108471720D01*
X133729338Y-108471720D01*
X133824576Y-108519340D01*
X133872195Y-108566959D01*
X133919814Y-108662197D01*
X133919814Y-108757435D01*
X133872195Y-108900292D01*
X133300766Y-109471720D01*
X133919814Y-109471720D01*
X133051253Y-115709960D02*
X132717920Y-115233770D01*
X132479824Y-115709960D02*
X132479824Y-114709960D01*
X132860777Y-114709960D01*
X132956015Y-114757580D01*
X133003634Y-114805199D01*
X133051253Y-114900437D01*
X133051253Y-115043294D01*
X133003634Y-115138532D01*
X132956015Y-115186151D01*
X132860777Y-115233770D01*
X132479824Y-115233770D01*
X134003634Y-115709960D02*
X133432205Y-115709960D01*
X133717920Y-115709960D02*
X133717920Y-114709960D01*
X133622681Y-114852818D01*
X133527443Y-114948056D01*
X133432205Y-114995675D01*
X89284276Y-93335100D02*
X89284276Y-92335100D01*
X89617609Y-93049386D01*
X89950942Y-92335100D01*
X89950942Y-93335100D01*
X90950942Y-93335100D02*
X90379514Y-93335100D01*
X90665228Y-93335100D02*
X90665228Y-92335100D01*
X90569990Y-92477958D01*
X90474752Y-92573196D01*
X90379514Y-92620815D01*
X110539233Y-95948760D02*
X110063042Y-95948760D01*
X110063042Y-94948760D01*
X111396376Y-95948760D02*
X110824947Y-95948760D01*
X111110661Y-95948760D02*
X111110661Y-94948760D01*
X111015423Y-95091618D01*
X110920185Y-95186856D01*
X110824947Y-95234475D01*
X139892446Y-70597780D02*
X139892446Y-71312066D01*
X139844827Y-71454923D01*
X139749589Y-71550161D01*
X139606732Y-71597780D01*
X139511494Y-71597780D01*
X140797208Y-70597780D02*
X140606732Y-70597780D01*
X140511494Y-70645400D01*
X140463875Y-70693019D01*
X140368637Y-70835876D01*
X140321018Y-71026352D01*
X140321018Y-71407304D01*
X140368637Y-71502542D01*
X140416256Y-71550161D01*
X140511494Y-71597780D01*
X140701970Y-71597780D01*
X140797208Y-71550161D01*
X140844827Y-71502542D01*
X140892446Y-71407304D01*
X140892446Y-71169209D01*
X140844827Y-71073971D01*
X140797208Y-71026352D01*
X140701970Y-70978733D01*
X140511494Y-70978733D01*
X140416256Y-71026352D01*
X140368637Y-71073971D01*
X140321018Y-71169209D01*
X85478026Y-77879960D02*
X85478026Y-78594246D01*
X85430407Y-78737103D01*
X85335169Y-78832341D01*
X85192312Y-78879960D01*
X85097074Y-78879960D01*
X86430407Y-77879960D02*
X85954217Y-77879960D01*
X85906598Y-78356151D01*
X85954217Y-78308532D01*
X86049455Y-78260913D01*
X86287550Y-78260913D01*
X86382788Y-78308532D01*
X86430407Y-78356151D01*
X86478026Y-78451389D01*
X86478026Y-78689484D01*
X86430407Y-78784722D01*
X86382788Y-78832341D01*
X86287550Y-78879960D01*
X86049455Y-78879960D01*
X85954217Y-78832341D01*
X85906598Y-78784722D01*
X140115966Y-87422740D02*
X140115966Y-88137026D01*
X140068347Y-88279883D01*
X139973109Y-88375121D01*
X139830252Y-88422740D01*
X139735014Y-88422740D01*
X141020728Y-87756074D02*
X141020728Y-88422740D01*
X140782633Y-87375121D02*
X140544538Y-88089407D01*
X141163585Y-88089407D01*
X101955006Y-111891771D02*
X101621673Y-111891771D01*
X101621673Y-112415580D02*
X101621673Y-111415580D01*
X102097863Y-111415580D01*
X103002625Y-112415580D02*
X102431197Y-112415580D01*
X102716911Y-112415580D02*
X102716911Y-111415580D01*
X102621673Y-111558438D01*
X102526435Y-111653676D01*
X102431197Y-111701295D01*
X99762084Y-77846180D02*
X99762084Y-76846180D01*
X100000180Y-76846180D01*
X100143037Y-76893800D01*
X100238275Y-76989038D01*
X100285894Y-77084276D01*
X100333513Y-77274752D01*
X100333513Y-77417609D01*
X100285894Y-77608085D01*
X100238275Y-77703323D01*
X100143037Y-77798561D01*
X100000180Y-77846180D01*
X99762084Y-77846180D01*
X101190656Y-77179514D02*
X101190656Y-77846180D01*
X100952560Y-76798561D02*
X100714465Y-77512847D01*
X101333513Y-77512847D01*
X104880184Y-77846180D02*
X104880184Y-76846180D01*
X105118280Y-76846180D01*
X105261137Y-76893800D01*
X105356375Y-76989038D01*
X105403994Y-77084276D01*
X105451613Y-77274752D01*
X105451613Y-77417609D01*
X105403994Y-77608085D01*
X105356375Y-77703323D01*
X105261137Y-77798561D01*
X105118280Y-77846180D01*
X104880184Y-77846180D01*
X105784946Y-76846180D02*
X106403994Y-76846180D01*
X106070660Y-77227133D01*
X106213518Y-77227133D01*
X106308756Y-77274752D01*
X106356375Y-77322371D01*
X106403994Y-77417609D01*
X106403994Y-77655704D01*
X106356375Y-77750942D01*
X106308756Y-77798561D01*
X106213518Y-77846180D01*
X105927803Y-77846180D01*
X105832565Y-77798561D01*
X105784946Y-77750942D01*
X89665584Y-116040160D02*
X89665584Y-115040160D01*
X89903680Y-115040160D01*
X90046537Y-115087780D01*
X90141775Y-115183018D01*
X90189394Y-115278256D01*
X90237013Y-115468732D01*
X90237013Y-115611589D01*
X90189394Y-115802065D01*
X90141775Y-115897303D01*
X90046537Y-115992541D01*
X89903680Y-116040160D01*
X89665584Y-116040160D01*
X90617965Y-115135399D02*
X90665584Y-115087780D01*
X90760822Y-115040160D01*
X90998918Y-115040160D01*
X91094156Y-115087780D01*
X91141775Y-115135399D01*
X91189394Y-115230637D01*
X91189394Y-115325875D01*
X91141775Y-115468732D01*
X90570346Y-116040160D01*
X91189394Y-116040160D01*
X127009922Y-86399642D02*
X126962303Y-86447261D01*
X126819446Y-86494880D01*
X126724208Y-86494880D01*
X126581351Y-86447261D01*
X126486113Y-86352023D01*
X126438494Y-86256785D01*
X126390875Y-86066309D01*
X126390875Y-85923452D01*
X126438494Y-85732976D01*
X126486113Y-85637738D01*
X126581351Y-85542500D01*
X126724208Y-85494880D01*
X126819446Y-85494880D01*
X126962303Y-85542500D01*
X127009922Y-85590119D01*
X127962303Y-86494880D02*
X127390875Y-86494880D01*
X127676589Y-86494880D02*
X127676589Y-85494880D01*
X127581351Y-85637738D01*
X127486113Y-85732976D01*
X127390875Y-85780595D01*
X128914684Y-86494880D02*
X128343256Y-86494880D01*
X128628970Y-86494880D02*
X128628970Y-85494880D01*
X128533732Y-85637738D01*
X128438494Y-85732976D01*
X128343256Y-85780595D01*
X127316482Y-74746146D02*
X127364101Y-74793765D01*
X127411720Y-74936622D01*
X127411720Y-75031860D01*
X127364101Y-75174718D01*
X127268863Y-75269956D01*
X127173625Y-75317575D01*
X126983149Y-75365194D01*
X126840292Y-75365194D01*
X126649816Y-75317575D01*
X126554578Y-75269956D01*
X126459340Y-75174718D01*
X126411720Y-75031860D01*
X126411720Y-74936622D01*
X126459340Y-74793765D01*
X126506959Y-74746146D01*
X126411720Y-73841384D02*
X126411720Y-74317575D01*
X126887911Y-74365194D01*
X126840292Y-74317575D01*
X126792673Y-74222337D01*
X126792673Y-73984241D01*
X126840292Y-73889003D01*
X126887911Y-73841384D01*
X126983149Y-73793765D01*
X127221244Y-73793765D01*
X127316482Y-73841384D01*
X127364101Y-73889003D01*
X127411720Y-73984241D01*
X127411720Y-74222337D01*
X127364101Y-74317575D01*
X127316482Y-74365194D01*
X121908273Y-75144922D02*
X121860654Y-75192541D01*
X121717797Y-75240160D01*
X121622559Y-75240160D01*
X121479701Y-75192541D01*
X121384463Y-75097303D01*
X121336844Y-75002065D01*
X121289225Y-74811589D01*
X121289225Y-74668732D01*
X121336844Y-74478256D01*
X121384463Y-74383018D01*
X121479701Y-74287780D01*
X121622559Y-74240160D01*
X121717797Y-74240160D01*
X121860654Y-74287780D01*
X121908273Y-74335399D01*
X122765416Y-74573494D02*
X122765416Y-75240160D01*
X122527320Y-74192541D02*
X122289225Y-74906827D01*
X122908273Y-74906827D01*
X92487453Y-78528182D02*
X92439834Y-78575801D01*
X92296977Y-78623420D01*
X92201739Y-78623420D01*
X92058881Y-78575801D01*
X91963643Y-78480563D01*
X91916024Y-78385325D01*
X91868405Y-78194849D01*
X91868405Y-78051992D01*
X91916024Y-77861516D01*
X91963643Y-77766278D01*
X92058881Y-77671040D01*
X92201739Y-77623420D01*
X92296977Y-77623420D01*
X92439834Y-77671040D01*
X92487453Y-77718659D01*
X92820786Y-77623420D02*
X93439834Y-77623420D01*
X93106500Y-78004373D01*
X93249358Y-78004373D01*
X93344596Y-78051992D01*
X93392215Y-78099611D01*
X93439834Y-78194849D01*
X93439834Y-78432944D01*
X93392215Y-78528182D01*
X93344596Y-78575801D01*
X93249358Y-78623420D01*
X92963643Y-78623420D01*
X92868405Y-78575801D01*
X92820786Y-78528182D01*
X104867413Y-106376742D02*
X104819794Y-106424361D01*
X104676937Y-106471980D01*
X104581699Y-106471980D01*
X104438841Y-106424361D01*
X104343603Y-106329123D01*
X104295984Y-106233885D01*
X104248365Y-106043409D01*
X104248365Y-105900552D01*
X104295984Y-105710076D01*
X104343603Y-105614838D01*
X104438841Y-105519600D01*
X104581699Y-105471980D01*
X104676937Y-105471980D01*
X104819794Y-105519600D01*
X104867413Y-105567219D01*
X105248365Y-105567219D02*
X105295984Y-105519600D01*
X105391222Y-105471980D01*
X105629318Y-105471980D01*
X105724556Y-105519600D01*
X105772175Y-105567219D01*
X105819794Y-105662457D01*
X105819794Y-105757695D01*
X105772175Y-105900552D01*
X105200746Y-106471980D01*
X105819794Y-106471980D01*
X129083773Y-94589862D02*
X129036154Y-94637481D01*
X128893297Y-94685100D01*
X128798059Y-94685100D01*
X128655201Y-94637481D01*
X128559963Y-94542243D01*
X128512344Y-94447005D01*
X128464725Y-94256529D01*
X128464725Y-94113672D01*
X128512344Y-93923196D01*
X128559963Y-93827958D01*
X128655201Y-93732720D01*
X128798059Y-93685100D01*
X128893297Y-93685100D01*
X129036154Y-93732720D01*
X129083773Y-93780339D01*
X130036154Y-94685100D02*
X129464725Y-94685100D01*
X129750440Y-94685100D02*
X129750440Y-93685100D01*
X129655201Y-93827958D01*
X129559963Y-93923196D01*
X129464725Y-93970815D01*
X81338095Y-64852380D02*
X81338095Y-63852380D01*
X81338095Y-64328571D02*
X81909523Y-64328571D01*
X81909523Y-64852380D02*
X81909523Y-63852380D01*
X82909523Y-64852380D02*
X82338095Y-64852380D01*
X82623809Y-64852380D02*
X82623809Y-63852380D01*
X82528571Y-63995238D01*
X82433333Y-64090476D01*
X82338095Y-64138095D01*
X139338095Y-64872380D02*
X139338095Y-63872380D01*
X139338095Y-64348571D02*
X139909523Y-64348571D01*
X139909523Y-64872380D02*
X139909523Y-63872380D01*
X140338095Y-63967619D02*
X140385714Y-63920000D01*
X140480952Y-63872380D01*
X140719047Y-63872380D01*
X140814285Y-63920000D01*
X140861904Y-63967619D01*
X140909523Y-64062857D01*
X140909523Y-64158095D01*
X140861904Y-64300952D01*
X140290476Y-64872380D01*
X140909523Y-64872380D01*
X81338095Y-113862380D02*
X81338095Y-112862380D01*
X81338095Y-113338571D02*
X81909523Y-113338571D01*
X81909523Y-113862380D02*
X81909523Y-112862380D01*
X82290476Y-112862380D02*
X82909523Y-112862380D01*
X82576190Y-113243333D01*
X82719047Y-113243333D01*
X82814285Y-113290952D01*
X82861904Y-113338571D01*
X82909523Y-113433809D01*
X82909523Y-113671904D01*
X82861904Y-113767142D01*
X82814285Y-113814761D01*
X82719047Y-113862380D01*
X82433333Y-113862380D01*
X82338095Y-113814761D01*
X82290476Y-113767142D01*
X139328095Y-113852380D02*
X139328095Y-112852380D01*
X139328095Y-113328571D02*
X139899523Y-113328571D01*
X139899523Y-113852380D02*
X139899523Y-112852380D01*
X140804285Y-113185714D02*
X140804285Y-113852380D01*
X140566190Y-112804761D02*
X140328095Y-113519047D01*
X140947142Y-113519047D01*
M02*
